%TF.GenerationSoftware,KiCad,Pcbnew,8.0.4*%
%TF.CreationDate,2024-08-25T20:18:55-07:00*%
%TF.ProjectId,Croissant,43726f69-7373-4616-9e74-2e6b69636164,rev?*%
%TF.SameCoordinates,Original*%
%TF.FileFunction,Drillmap*%
%TF.FilePolarity,Positive*%
%FSLAX45Y45*%
G04 Gerber Fmt 4.5, Leading zero omitted, Abs format (unit mm)*
G04 Created by KiCad (PCBNEW 8.0.4) date 2024-08-25 20:18:55*
%MOMM*%
%LPD*%
G01*
G04 APERTURE LIST*
%ADD10C,0.050000*%
%ADD11C,0.100000*%
%ADD12C,0.200000*%
G04 APERTURE END LIST*
D10*
X8773544Y-5932380D02*
G75*
G02*
X8773544Y-5842760I6J44810D01*
G01*
D11*
X7549480Y-8209528D02*
X7632610Y-8209814D01*
D10*
X8862358Y-5932472D02*
G75*
G02*
X8962358Y-6032472I2J-99998D01*
G01*
X8773544Y-5932380D02*
X8862358Y-5932472D01*
X7567838Y-5932472D02*
X8273544Y-5932380D01*
D11*
X8793979Y-9700000D02*
X5000000Y-9700000D01*
D10*
X7632610Y-8120186D02*
X7567838Y-8120000D01*
X7467838Y-6032472D02*
G75*
G02*
X7567838Y-5932468I100002J2D01*
G01*
X8862358Y-8120000D02*
X8128000Y-8120186D01*
D11*
X8991400Y-5646000D02*
G75*
G02*
X8791400Y-5846000I-200010J10D01*
G01*
D10*
X8962358Y-6032472D02*
X8962358Y-8020000D01*
D11*
X8991301Y-4672061D02*
X8991400Y-5646000D01*
X5000000Y-4473000D02*
X8791301Y-4472061D01*
X7349480Y-6046000D02*
X7349480Y-8009528D01*
X8791400Y-8209528D02*
G75*
G02*
X8991402Y-8409528I0J-200002D01*
G01*
D10*
X8273544Y-5842752D02*
G75*
G02*
X8273544Y-5932388I6J-44818D01*
G01*
X8962358Y-8020000D02*
G75*
G02*
X8862358Y-8119998I-99998J0D01*
G01*
X7467838Y-8020000D02*
X7467838Y-6032472D01*
D11*
X4800000Y-9500000D02*
X4800000Y-4673000D01*
X5000000Y-9700000D02*
G75*
G02*
X4800000Y-9500000I0J200000D01*
G01*
D10*
X8128000Y-8209814D02*
G75*
G02*
X8128000Y-8120186I0J44814D01*
G01*
D11*
X8993979Y-9500000D02*
G75*
G02*
X8793979Y-9699999I-199999J0D01*
G01*
X8273544Y-5842752D02*
X7549480Y-5846000D01*
X8991400Y-8409528D02*
X8993979Y-9500000D01*
D10*
X7567838Y-8120000D02*
G75*
G02*
X7467840Y-8020000I2J100000D01*
G01*
X7632610Y-8120186D02*
G75*
G02*
X7632610Y-8209814I0J-44814D01*
G01*
D11*
X4800000Y-4673000D02*
G75*
G02*
X5000000Y-4473000I200000J0D01*
G01*
X7349480Y-6046000D02*
G75*
G02*
X7549480Y-5846000I200000J0D01*
G01*
X7549480Y-8209528D02*
G75*
G02*
X7349482Y-8009528I0J199998D01*
G01*
X8791400Y-5846000D02*
X8773544Y-5842752D01*
X8791301Y-4472061D02*
G75*
G02*
X8991299Y-4672061I-1J-199999D01*
G01*
X8128000Y-8209814D02*
X8791400Y-8209528D01*
D12*
D11*
X5484000Y-7715000D02*
X5584000Y-7815000D01*
X5584000Y-7715000D02*
X5484000Y-7815000D01*
X5509111Y-5935936D02*
X5609111Y-6035936D01*
X5609111Y-5935936D02*
X5509111Y-6035936D01*
X6099000Y-7715000D02*
X6199000Y-7815000D01*
X6199000Y-7715000D02*
X6099000Y-7815000D01*
X6124111Y-5935936D02*
X6224111Y-6035936D01*
X6224111Y-5935936D02*
X6124111Y-6035936D01*
D12*
X5055777Y-10016484D02*
X5055777Y-9816484D01*
X5055777Y-9816484D02*
X5103396Y-9816484D01*
X5103396Y-9816484D02*
X5131967Y-9826008D01*
X5131967Y-9826008D02*
X5151015Y-9845055D01*
X5151015Y-9845055D02*
X5160539Y-9864103D01*
X5160539Y-9864103D02*
X5170063Y-9902198D01*
X5170063Y-9902198D02*
X5170063Y-9930770D01*
X5170063Y-9930770D02*
X5160539Y-9968865D01*
X5160539Y-9968865D02*
X5151015Y-9987912D01*
X5151015Y-9987912D02*
X5131967Y-10006960D01*
X5131967Y-10006960D02*
X5103396Y-10016484D01*
X5103396Y-10016484D02*
X5055777Y-10016484D01*
X5255777Y-10016484D02*
X5255777Y-9883150D01*
X5255777Y-9921246D02*
X5265301Y-9902198D01*
X5265301Y-9902198D02*
X5274824Y-9892674D01*
X5274824Y-9892674D02*
X5293872Y-9883150D01*
X5293872Y-9883150D02*
X5312920Y-9883150D01*
X5379586Y-10016484D02*
X5379586Y-9883150D01*
X5379586Y-9816484D02*
X5370063Y-9826008D01*
X5370063Y-9826008D02*
X5379586Y-9835531D01*
X5379586Y-9835531D02*
X5389110Y-9826008D01*
X5389110Y-9826008D02*
X5379586Y-9816484D01*
X5379586Y-9816484D02*
X5379586Y-9835531D01*
X5503396Y-10016484D02*
X5484348Y-10006960D01*
X5484348Y-10006960D02*
X5474824Y-9987912D01*
X5474824Y-9987912D02*
X5474824Y-9816484D01*
X5608158Y-10016484D02*
X5589110Y-10006960D01*
X5589110Y-10006960D02*
X5579586Y-9987912D01*
X5579586Y-9987912D02*
X5579586Y-9816484D01*
X5836729Y-10016484D02*
X5836729Y-9816484D01*
X5836729Y-9816484D02*
X5903396Y-9959341D01*
X5903396Y-9959341D02*
X5970062Y-9816484D01*
X5970062Y-9816484D02*
X5970062Y-10016484D01*
X6151015Y-10016484D02*
X6151015Y-9911722D01*
X6151015Y-9911722D02*
X6141491Y-9892674D01*
X6141491Y-9892674D02*
X6122443Y-9883150D01*
X6122443Y-9883150D02*
X6084348Y-9883150D01*
X6084348Y-9883150D02*
X6065301Y-9892674D01*
X6151015Y-10006960D02*
X6131967Y-10016484D01*
X6131967Y-10016484D02*
X6084348Y-10016484D01*
X6084348Y-10016484D02*
X6065301Y-10006960D01*
X6065301Y-10006960D02*
X6055777Y-9987912D01*
X6055777Y-9987912D02*
X6055777Y-9968865D01*
X6055777Y-9968865D02*
X6065301Y-9949817D01*
X6065301Y-9949817D02*
X6084348Y-9940293D01*
X6084348Y-9940293D02*
X6131967Y-9940293D01*
X6131967Y-9940293D02*
X6151015Y-9930770D01*
X6246253Y-9883150D02*
X6246253Y-10083150D01*
X6246253Y-9892674D02*
X6265301Y-9883150D01*
X6265301Y-9883150D02*
X6303396Y-9883150D01*
X6303396Y-9883150D02*
X6322443Y-9892674D01*
X6322443Y-9892674D02*
X6331967Y-9902198D01*
X6331967Y-9902198D02*
X6341491Y-9921246D01*
X6341491Y-9921246D02*
X6341491Y-9978389D01*
X6341491Y-9978389D02*
X6331967Y-9997436D01*
X6331967Y-9997436D02*
X6322443Y-10006960D01*
X6322443Y-10006960D02*
X6303396Y-10016484D01*
X6303396Y-10016484D02*
X6265301Y-10016484D01*
X6265301Y-10016484D02*
X6246253Y-10006960D01*
X6427205Y-9997436D02*
X6436729Y-10006960D01*
X6436729Y-10006960D02*
X6427205Y-10016484D01*
X6427205Y-10016484D02*
X6417682Y-10006960D01*
X6417682Y-10006960D02*
X6427205Y-9997436D01*
X6427205Y-9997436D02*
X6427205Y-10016484D01*
X6427205Y-9892674D02*
X6436729Y-9902198D01*
X6436729Y-9902198D02*
X6427205Y-9911722D01*
X6427205Y-9911722D02*
X6417682Y-9902198D01*
X6417682Y-9902198D02*
X6427205Y-9892674D01*
X6427205Y-9892674D02*
X6427205Y-9911722D01*
D11*
X4695000Y-10295000D02*
X4795000Y-10395000D01*
X4795000Y-10295000D02*
X4695000Y-10395000D01*
D12*
X5160539Y-10436484D02*
X5046253Y-10436484D01*
X5103396Y-10436484D02*
X5103396Y-10236484D01*
X5103396Y-10236484D02*
X5084348Y-10265055D01*
X5084348Y-10265055D02*
X5065301Y-10284103D01*
X5065301Y-10284103D02*
X5046253Y-10293627D01*
X5246253Y-10417436D02*
X5255777Y-10426960D01*
X5255777Y-10426960D02*
X5246253Y-10436484D01*
X5246253Y-10436484D02*
X5236729Y-10426960D01*
X5236729Y-10426960D02*
X5246253Y-10417436D01*
X5246253Y-10417436D02*
X5246253Y-10436484D01*
X5379586Y-10236484D02*
X5398634Y-10236484D01*
X5398634Y-10236484D02*
X5417682Y-10246008D01*
X5417682Y-10246008D02*
X5427205Y-10255531D01*
X5427205Y-10255531D02*
X5436729Y-10274579D01*
X5436729Y-10274579D02*
X5446253Y-10312674D01*
X5446253Y-10312674D02*
X5446253Y-10360293D01*
X5446253Y-10360293D02*
X5436729Y-10398389D01*
X5436729Y-10398389D02*
X5427205Y-10417436D01*
X5427205Y-10417436D02*
X5417682Y-10426960D01*
X5417682Y-10426960D02*
X5398634Y-10436484D01*
X5398634Y-10436484D02*
X5379586Y-10436484D01*
X5379586Y-10436484D02*
X5360539Y-10426960D01*
X5360539Y-10426960D02*
X5351015Y-10417436D01*
X5351015Y-10417436D02*
X5341491Y-10398389D01*
X5341491Y-10398389D02*
X5331967Y-10360293D01*
X5331967Y-10360293D02*
X5331967Y-10312674D01*
X5331967Y-10312674D02*
X5341491Y-10274579D01*
X5341491Y-10274579D02*
X5351015Y-10255531D01*
X5351015Y-10255531D02*
X5360539Y-10246008D01*
X5360539Y-10246008D02*
X5379586Y-10236484D01*
X5570063Y-10236484D02*
X5589110Y-10236484D01*
X5589110Y-10236484D02*
X5608158Y-10246008D01*
X5608158Y-10246008D02*
X5617682Y-10255531D01*
X5617682Y-10255531D02*
X5627205Y-10274579D01*
X5627205Y-10274579D02*
X5636729Y-10312674D01*
X5636729Y-10312674D02*
X5636729Y-10360293D01*
X5636729Y-10360293D02*
X5627205Y-10398389D01*
X5627205Y-10398389D02*
X5617682Y-10417436D01*
X5617682Y-10417436D02*
X5608158Y-10426960D01*
X5608158Y-10426960D02*
X5589110Y-10436484D01*
X5589110Y-10436484D02*
X5570063Y-10436484D01*
X5570063Y-10436484D02*
X5551015Y-10426960D01*
X5551015Y-10426960D02*
X5541491Y-10417436D01*
X5541491Y-10417436D02*
X5531967Y-10398389D01*
X5531967Y-10398389D02*
X5522444Y-10360293D01*
X5522444Y-10360293D02*
X5522444Y-10312674D01*
X5522444Y-10312674D02*
X5531967Y-10274579D01*
X5531967Y-10274579D02*
X5541491Y-10255531D01*
X5541491Y-10255531D02*
X5551015Y-10246008D01*
X5551015Y-10246008D02*
X5570063Y-10236484D01*
X5760539Y-10236484D02*
X5779586Y-10236484D01*
X5779586Y-10236484D02*
X5798634Y-10246008D01*
X5798634Y-10246008D02*
X5808158Y-10255531D01*
X5808158Y-10255531D02*
X5817682Y-10274579D01*
X5817682Y-10274579D02*
X5827205Y-10312674D01*
X5827205Y-10312674D02*
X5827205Y-10360293D01*
X5827205Y-10360293D02*
X5817682Y-10398389D01*
X5817682Y-10398389D02*
X5808158Y-10417436D01*
X5808158Y-10417436D02*
X5798634Y-10426960D01*
X5798634Y-10426960D02*
X5779586Y-10436484D01*
X5779586Y-10436484D02*
X5760539Y-10436484D01*
X5760539Y-10436484D02*
X5741491Y-10426960D01*
X5741491Y-10426960D02*
X5731967Y-10417436D01*
X5731967Y-10417436D02*
X5722443Y-10398389D01*
X5722443Y-10398389D02*
X5712920Y-10360293D01*
X5712920Y-10360293D02*
X5712920Y-10312674D01*
X5712920Y-10312674D02*
X5722443Y-10274579D01*
X5722443Y-10274579D02*
X5731967Y-10255531D01*
X5731967Y-10255531D02*
X5741491Y-10246008D01*
X5741491Y-10246008D02*
X5760539Y-10236484D01*
X5912920Y-10436484D02*
X5912920Y-10303150D01*
X5912920Y-10322198D02*
X5922443Y-10312674D01*
X5922443Y-10312674D02*
X5941491Y-10303150D01*
X5941491Y-10303150D02*
X5970063Y-10303150D01*
X5970063Y-10303150D02*
X5989110Y-10312674D01*
X5989110Y-10312674D02*
X5998634Y-10331722D01*
X5998634Y-10331722D02*
X5998634Y-10436484D01*
X5998634Y-10331722D02*
X6008158Y-10312674D01*
X6008158Y-10312674D02*
X6027205Y-10303150D01*
X6027205Y-10303150D02*
X6055777Y-10303150D01*
X6055777Y-10303150D02*
X6074824Y-10312674D01*
X6074824Y-10312674D02*
X6084348Y-10331722D01*
X6084348Y-10331722D02*
X6084348Y-10436484D01*
X6179586Y-10436484D02*
X6179586Y-10303150D01*
X6179586Y-10322198D02*
X6189110Y-10312674D01*
X6189110Y-10312674D02*
X6208158Y-10303150D01*
X6208158Y-10303150D02*
X6236729Y-10303150D01*
X6236729Y-10303150D02*
X6255777Y-10312674D01*
X6255777Y-10312674D02*
X6265301Y-10331722D01*
X6265301Y-10331722D02*
X6265301Y-10436484D01*
X6265301Y-10331722D02*
X6274824Y-10312674D01*
X6274824Y-10312674D02*
X6293872Y-10303150D01*
X6293872Y-10303150D02*
X6322443Y-10303150D01*
X6322443Y-10303150D02*
X6341491Y-10312674D01*
X6341491Y-10312674D02*
X6351015Y-10331722D01*
X6351015Y-10331722D02*
X6351015Y-10436484D01*
X6741491Y-10226960D02*
X6570063Y-10484103D01*
X6998634Y-10236484D02*
X7017682Y-10236484D01*
X7017682Y-10236484D02*
X7036729Y-10246008D01*
X7036729Y-10246008D02*
X7046253Y-10255531D01*
X7046253Y-10255531D02*
X7055777Y-10274579D01*
X7055777Y-10274579D02*
X7065301Y-10312674D01*
X7065301Y-10312674D02*
X7065301Y-10360293D01*
X7065301Y-10360293D02*
X7055777Y-10398389D01*
X7055777Y-10398389D02*
X7046253Y-10417436D01*
X7046253Y-10417436D02*
X7036729Y-10426960D01*
X7036729Y-10426960D02*
X7017682Y-10436484D01*
X7017682Y-10436484D02*
X6998634Y-10436484D01*
X6998634Y-10436484D02*
X6979586Y-10426960D01*
X6979586Y-10426960D02*
X6970063Y-10417436D01*
X6970063Y-10417436D02*
X6960539Y-10398389D01*
X6960539Y-10398389D02*
X6951015Y-10360293D01*
X6951015Y-10360293D02*
X6951015Y-10312674D01*
X6951015Y-10312674D02*
X6960539Y-10274579D01*
X6960539Y-10274579D02*
X6970063Y-10255531D01*
X6970063Y-10255531D02*
X6979586Y-10246008D01*
X6979586Y-10246008D02*
X6998634Y-10236484D01*
X7151015Y-10417436D02*
X7160539Y-10426960D01*
X7160539Y-10426960D02*
X7151015Y-10436484D01*
X7151015Y-10436484D02*
X7141491Y-10426960D01*
X7141491Y-10426960D02*
X7151015Y-10417436D01*
X7151015Y-10417436D02*
X7151015Y-10436484D01*
X7284348Y-10236484D02*
X7303396Y-10236484D01*
X7303396Y-10236484D02*
X7322444Y-10246008D01*
X7322444Y-10246008D02*
X7331967Y-10255531D01*
X7331967Y-10255531D02*
X7341491Y-10274579D01*
X7341491Y-10274579D02*
X7351015Y-10312674D01*
X7351015Y-10312674D02*
X7351015Y-10360293D01*
X7351015Y-10360293D02*
X7341491Y-10398389D01*
X7341491Y-10398389D02*
X7331967Y-10417436D01*
X7331967Y-10417436D02*
X7322444Y-10426960D01*
X7322444Y-10426960D02*
X7303396Y-10436484D01*
X7303396Y-10436484D02*
X7284348Y-10436484D01*
X7284348Y-10436484D02*
X7265301Y-10426960D01*
X7265301Y-10426960D02*
X7255777Y-10417436D01*
X7255777Y-10417436D02*
X7246253Y-10398389D01*
X7246253Y-10398389D02*
X7236729Y-10360293D01*
X7236729Y-10360293D02*
X7236729Y-10312674D01*
X7236729Y-10312674D02*
X7246253Y-10274579D01*
X7246253Y-10274579D02*
X7255777Y-10255531D01*
X7255777Y-10255531D02*
X7265301Y-10246008D01*
X7265301Y-10246008D02*
X7284348Y-10236484D01*
X7417682Y-10236484D02*
X7541491Y-10236484D01*
X7541491Y-10236484D02*
X7474825Y-10312674D01*
X7474825Y-10312674D02*
X7503396Y-10312674D01*
X7503396Y-10312674D02*
X7522444Y-10322198D01*
X7522444Y-10322198D02*
X7531967Y-10331722D01*
X7531967Y-10331722D02*
X7541491Y-10350770D01*
X7541491Y-10350770D02*
X7541491Y-10398389D01*
X7541491Y-10398389D02*
X7531967Y-10417436D01*
X7531967Y-10417436D02*
X7522444Y-10426960D01*
X7522444Y-10426960D02*
X7503396Y-10436484D01*
X7503396Y-10436484D02*
X7446253Y-10436484D01*
X7446253Y-10436484D02*
X7427206Y-10426960D01*
X7427206Y-10426960D02*
X7417682Y-10417436D01*
X7636729Y-10436484D02*
X7674825Y-10436484D01*
X7674825Y-10436484D02*
X7693872Y-10426960D01*
X7693872Y-10426960D02*
X7703396Y-10417436D01*
X7703396Y-10417436D02*
X7722444Y-10388865D01*
X7722444Y-10388865D02*
X7731967Y-10350770D01*
X7731967Y-10350770D02*
X7731967Y-10274579D01*
X7731967Y-10274579D02*
X7722444Y-10255531D01*
X7722444Y-10255531D02*
X7712920Y-10246008D01*
X7712920Y-10246008D02*
X7693872Y-10236484D01*
X7693872Y-10236484D02*
X7655777Y-10236484D01*
X7655777Y-10236484D02*
X7636729Y-10246008D01*
X7636729Y-10246008D02*
X7627206Y-10255531D01*
X7627206Y-10255531D02*
X7617682Y-10274579D01*
X7617682Y-10274579D02*
X7617682Y-10322198D01*
X7617682Y-10322198D02*
X7627206Y-10341246D01*
X7627206Y-10341246D02*
X7636729Y-10350770D01*
X7636729Y-10350770D02*
X7655777Y-10360293D01*
X7655777Y-10360293D02*
X7693872Y-10360293D01*
X7693872Y-10360293D02*
X7712920Y-10350770D01*
X7712920Y-10350770D02*
X7722444Y-10341246D01*
X7722444Y-10341246D02*
X7731967Y-10322198D01*
X7903396Y-10303150D02*
X7903396Y-10436484D01*
X7855777Y-10226960D02*
X7808158Y-10369817D01*
X7808158Y-10369817D02*
X7931967Y-10369817D01*
X7998634Y-10236484D02*
X7998634Y-10274579D01*
X8074825Y-10236484D02*
X8074825Y-10274579D01*
X8370063Y-10512674D02*
X8360539Y-10503150D01*
X8360539Y-10503150D02*
X8341491Y-10474579D01*
X8341491Y-10474579D02*
X8331968Y-10455531D01*
X8331968Y-10455531D02*
X8322444Y-10426960D01*
X8322444Y-10426960D02*
X8312920Y-10379341D01*
X8312920Y-10379341D02*
X8312920Y-10341246D01*
X8312920Y-10341246D02*
X8322444Y-10293627D01*
X8322444Y-10293627D02*
X8331968Y-10265055D01*
X8331968Y-10265055D02*
X8341491Y-10246008D01*
X8341491Y-10246008D02*
X8360539Y-10217436D01*
X8360539Y-10217436D02*
X8370063Y-10207912D01*
X8531968Y-10303150D02*
X8531968Y-10436484D01*
X8484349Y-10226960D02*
X8436730Y-10369817D01*
X8436730Y-10369817D02*
X8560539Y-10369817D01*
X8789111Y-10436484D02*
X8789111Y-10236484D01*
X8874825Y-10436484D02*
X8874825Y-10331722D01*
X8874825Y-10331722D02*
X8865301Y-10312674D01*
X8865301Y-10312674D02*
X8846253Y-10303150D01*
X8846253Y-10303150D02*
X8817682Y-10303150D01*
X8817682Y-10303150D02*
X8798634Y-10312674D01*
X8798634Y-10312674D02*
X8789111Y-10322198D01*
X8998634Y-10436484D02*
X8979587Y-10426960D01*
X8979587Y-10426960D02*
X8970063Y-10417436D01*
X8970063Y-10417436D02*
X8960539Y-10398389D01*
X8960539Y-10398389D02*
X8960539Y-10341246D01*
X8960539Y-10341246D02*
X8970063Y-10322198D01*
X8970063Y-10322198D02*
X8979587Y-10312674D01*
X8979587Y-10312674D02*
X8998634Y-10303150D01*
X8998634Y-10303150D02*
X9027206Y-10303150D01*
X9027206Y-10303150D02*
X9046253Y-10312674D01*
X9046253Y-10312674D02*
X9055777Y-10322198D01*
X9055777Y-10322198D02*
X9065301Y-10341246D01*
X9065301Y-10341246D02*
X9065301Y-10398389D01*
X9065301Y-10398389D02*
X9055777Y-10417436D01*
X9055777Y-10417436D02*
X9046253Y-10426960D01*
X9046253Y-10426960D02*
X9027206Y-10436484D01*
X9027206Y-10436484D02*
X8998634Y-10436484D01*
X9179587Y-10436484D02*
X9160539Y-10426960D01*
X9160539Y-10426960D02*
X9151015Y-10407912D01*
X9151015Y-10407912D02*
X9151015Y-10236484D01*
X9331968Y-10426960D02*
X9312920Y-10436484D01*
X9312920Y-10436484D02*
X9274825Y-10436484D01*
X9274825Y-10436484D02*
X9255777Y-10426960D01*
X9255777Y-10426960D02*
X9246253Y-10407912D01*
X9246253Y-10407912D02*
X9246253Y-10331722D01*
X9246253Y-10331722D02*
X9255777Y-10312674D01*
X9255777Y-10312674D02*
X9274825Y-10303150D01*
X9274825Y-10303150D02*
X9312920Y-10303150D01*
X9312920Y-10303150D02*
X9331968Y-10312674D01*
X9331968Y-10312674D02*
X9341492Y-10331722D01*
X9341492Y-10331722D02*
X9341492Y-10350770D01*
X9341492Y-10350770D02*
X9246253Y-10369817D01*
X9417682Y-10426960D02*
X9436730Y-10436484D01*
X9436730Y-10436484D02*
X9474825Y-10436484D01*
X9474825Y-10436484D02*
X9493873Y-10426960D01*
X9493873Y-10426960D02*
X9503396Y-10407912D01*
X9503396Y-10407912D02*
X9503396Y-10398389D01*
X9503396Y-10398389D02*
X9493873Y-10379341D01*
X9493873Y-10379341D02*
X9474825Y-10369817D01*
X9474825Y-10369817D02*
X9446253Y-10369817D01*
X9446253Y-10369817D02*
X9427206Y-10360293D01*
X9427206Y-10360293D02*
X9417682Y-10341246D01*
X9417682Y-10341246D02*
X9417682Y-10331722D01*
X9417682Y-10331722D02*
X9427206Y-10312674D01*
X9427206Y-10312674D02*
X9446253Y-10303150D01*
X9446253Y-10303150D02*
X9474825Y-10303150D01*
X9474825Y-10303150D02*
X9493873Y-10312674D01*
X9570063Y-10512674D02*
X9579587Y-10503150D01*
X9579587Y-10503150D02*
X9598634Y-10474579D01*
X9598634Y-10474579D02*
X9608158Y-10455531D01*
X9608158Y-10455531D02*
X9617682Y-10426960D01*
X9617682Y-10426960D02*
X9627206Y-10379341D01*
X9627206Y-10379341D02*
X9627206Y-10341246D01*
X9627206Y-10341246D02*
X9617682Y-10293627D01*
X9617682Y-10293627D02*
X9608158Y-10265055D01*
X9608158Y-10265055D02*
X9598634Y-10246008D01*
X9598634Y-10246008D02*
X9579587Y-10217436D01*
X9579587Y-10217436D02*
X9570063Y-10207912D01*
X9931968Y-10512674D02*
X9922444Y-10503150D01*
X9922444Y-10503150D02*
X9903396Y-10474579D01*
X9903396Y-10474579D02*
X9893873Y-10455531D01*
X9893873Y-10455531D02*
X9884349Y-10426960D01*
X9884349Y-10426960D02*
X9874825Y-10379341D01*
X9874825Y-10379341D02*
X9874825Y-10341246D01*
X9874825Y-10341246D02*
X9884349Y-10293627D01*
X9884349Y-10293627D02*
X9893873Y-10265055D01*
X9893873Y-10265055D02*
X9903396Y-10246008D01*
X9903396Y-10246008D02*
X9922444Y-10217436D01*
X9922444Y-10217436D02*
X9931968Y-10207912D01*
X10008158Y-10303150D02*
X10008158Y-10436484D01*
X10008158Y-10322198D02*
X10017682Y-10312674D01*
X10017682Y-10312674D02*
X10036730Y-10303150D01*
X10036730Y-10303150D02*
X10065301Y-10303150D01*
X10065301Y-10303150D02*
X10084349Y-10312674D01*
X10084349Y-10312674D02*
X10093873Y-10331722D01*
X10093873Y-10331722D02*
X10093873Y-10436484D01*
X10217682Y-10436484D02*
X10198634Y-10426960D01*
X10198634Y-10426960D02*
X10189111Y-10417436D01*
X10189111Y-10417436D02*
X10179587Y-10398389D01*
X10179587Y-10398389D02*
X10179587Y-10341246D01*
X10179587Y-10341246D02*
X10189111Y-10322198D01*
X10189111Y-10322198D02*
X10198634Y-10312674D01*
X10198634Y-10312674D02*
X10217682Y-10303150D01*
X10217682Y-10303150D02*
X10246254Y-10303150D01*
X10246254Y-10303150D02*
X10265301Y-10312674D01*
X10265301Y-10312674D02*
X10274825Y-10322198D01*
X10274825Y-10322198D02*
X10284349Y-10341246D01*
X10284349Y-10341246D02*
X10284349Y-10398389D01*
X10284349Y-10398389D02*
X10274825Y-10417436D01*
X10274825Y-10417436D02*
X10265301Y-10426960D01*
X10265301Y-10426960D02*
X10246254Y-10436484D01*
X10246254Y-10436484D02*
X10217682Y-10436484D01*
X10341492Y-10303150D02*
X10417682Y-10303150D01*
X10370063Y-10236484D02*
X10370063Y-10407912D01*
X10370063Y-10407912D02*
X10379587Y-10426960D01*
X10379587Y-10426960D02*
X10398634Y-10436484D01*
X10398634Y-10436484D02*
X10417682Y-10436484D01*
X10636730Y-10303150D02*
X10636730Y-10503150D01*
X10636730Y-10312674D02*
X10655777Y-10303150D01*
X10655777Y-10303150D02*
X10693873Y-10303150D01*
X10693873Y-10303150D02*
X10712920Y-10312674D01*
X10712920Y-10312674D02*
X10722444Y-10322198D01*
X10722444Y-10322198D02*
X10731968Y-10341246D01*
X10731968Y-10341246D02*
X10731968Y-10398389D01*
X10731968Y-10398389D02*
X10722444Y-10417436D01*
X10722444Y-10417436D02*
X10712920Y-10426960D01*
X10712920Y-10426960D02*
X10693873Y-10436484D01*
X10693873Y-10436484D02*
X10655777Y-10436484D01*
X10655777Y-10436484D02*
X10636730Y-10426960D01*
X10846254Y-10436484D02*
X10827206Y-10426960D01*
X10827206Y-10426960D02*
X10817682Y-10407912D01*
X10817682Y-10407912D02*
X10817682Y-10236484D01*
X11008158Y-10436484D02*
X11008158Y-10331722D01*
X11008158Y-10331722D02*
X10998635Y-10312674D01*
X10998635Y-10312674D02*
X10979587Y-10303150D01*
X10979587Y-10303150D02*
X10941492Y-10303150D01*
X10941492Y-10303150D02*
X10922444Y-10312674D01*
X11008158Y-10426960D02*
X10989111Y-10436484D01*
X10989111Y-10436484D02*
X10941492Y-10436484D01*
X10941492Y-10436484D02*
X10922444Y-10426960D01*
X10922444Y-10426960D02*
X10912920Y-10407912D01*
X10912920Y-10407912D02*
X10912920Y-10388865D01*
X10912920Y-10388865D02*
X10922444Y-10369817D01*
X10922444Y-10369817D02*
X10941492Y-10360293D01*
X10941492Y-10360293D02*
X10989111Y-10360293D01*
X10989111Y-10360293D02*
X11008158Y-10350770D01*
X11074825Y-10303150D02*
X11151015Y-10303150D01*
X11103396Y-10236484D02*
X11103396Y-10407912D01*
X11103396Y-10407912D02*
X11112920Y-10426960D01*
X11112920Y-10426960D02*
X11131968Y-10436484D01*
X11131968Y-10436484D02*
X11151015Y-10436484D01*
X11293873Y-10426960D02*
X11274825Y-10436484D01*
X11274825Y-10436484D02*
X11236730Y-10436484D01*
X11236730Y-10436484D02*
X11217682Y-10426960D01*
X11217682Y-10426960D02*
X11208158Y-10407912D01*
X11208158Y-10407912D02*
X11208158Y-10331722D01*
X11208158Y-10331722D02*
X11217682Y-10312674D01*
X11217682Y-10312674D02*
X11236730Y-10303150D01*
X11236730Y-10303150D02*
X11274825Y-10303150D01*
X11274825Y-10303150D02*
X11293873Y-10312674D01*
X11293873Y-10312674D02*
X11303396Y-10331722D01*
X11303396Y-10331722D02*
X11303396Y-10350770D01*
X11303396Y-10350770D02*
X11208158Y-10369817D01*
X11474825Y-10436484D02*
X11474825Y-10236484D01*
X11474825Y-10426960D02*
X11455777Y-10436484D01*
X11455777Y-10436484D02*
X11417682Y-10436484D01*
X11417682Y-10436484D02*
X11398634Y-10426960D01*
X11398634Y-10426960D02*
X11389111Y-10417436D01*
X11389111Y-10417436D02*
X11379587Y-10398389D01*
X11379587Y-10398389D02*
X11379587Y-10341246D01*
X11379587Y-10341246D02*
X11389111Y-10322198D01*
X11389111Y-10322198D02*
X11398634Y-10312674D01*
X11398634Y-10312674D02*
X11417682Y-10303150D01*
X11417682Y-10303150D02*
X11455777Y-10303150D01*
X11455777Y-10303150D02*
X11474825Y-10312674D01*
X11551015Y-10512674D02*
X11560539Y-10503150D01*
X11560539Y-10503150D02*
X11579587Y-10474579D01*
X11579587Y-10474579D02*
X11589111Y-10455531D01*
X11589111Y-10455531D02*
X11598634Y-10426960D01*
X11598634Y-10426960D02*
X11608158Y-10379341D01*
X11608158Y-10379341D02*
X11608158Y-10341246D01*
X11608158Y-10341246D02*
X11598634Y-10293627D01*
X11598634Y-10293627D02*
X11589111Y-10265055D01*
X11589111Y-10265055D02*
X11579587Y-10246008D01*
X11579587Y-10246008D02*
X11560539Y-10217436D01*
X11560539Y-10217436D02*
X11551015Y-10207912D01*
M02*
