M48
; DRILL file {KiCad 8.0.4} date 2024-08-25T20:18:54-0700
; FORMAT={-:-/ absolute / inch / decimal}
; #@! TF.CreationDate,2024-08-25T20:18:54-07:00
; #@! TF.GenerationSoftware,Kicad,Pcbnew,8.0.4
; #@! TF.FileFunction,Plated,1,2,PTH
FMAT,2
INCH
; #@! TA.AperFunction,Plated,PTH,ViaDrill
T1C0.0118
; #@! TA.AperFunction,Plated,PTH,ComponentDrill
T2C0.0315
; #@! TA.AperFunction,Plated,PTH,ComponentDrill
T3C0.0354
; #@! TA.AperFunction,Plated,PTH,ComponentDrill
T4C0.0394
; #@! TA.AperFunction,Plated,PTH,ComponentDrill
T5C0.0429
; #@! TA.AperFunction,Plated,PTH,ComponentDrill
T6C0.0433
; #@! TA.AperFunction,Plated,PTH,ComponentDrill
T7C0.0472
%
G90
G05
T1
X1.9213Y-2.1654
X1.9584Y-2.0472
X2.0079Y-2.7953
X2.0462Y-2.6797
X2.0472Y-2.3228
X2.0472Y-2.5591
X2.0866Y-1.9685
X2.0866Y-2.1654
X2.0866Y-2.9134
X2.126Y-1.9685
X2.126Y-2.4016
X2.126Y-2.9528
X2.126Y-3.3858
X2.1654Y-2.1654
X2.1654Y-2.5591
X2.2047Y-2.7953
X2.2047Y-3.3071
X2.2114Y-2.2507
X2.2458Y-1.8476
X2.275Y-2.35
X2.2835Y-2.7559
X2.4016Y-2.5197
X2.4016Y-3.3071
X2.4222Y-2.4237
X2.5197Y-2.6378
X2.5588Y-2.422
X2.5591Y-2.2835
X2.5613Y-2.6083
X2.5618Y-2.0894
X2.5984Y-2.7953
X2.5984Y-3.1102
X2.6174Y-2.7195
X2.6373Y-2.2309
X2.6378Y-2.0587
X2.6378Y-2.6378
X2.6772Y-2.2441
X2.7077Y-2.5727
X2.7165Y-2.2047
X2.7165Y-3.1496
X2.7177Y-2.0878
X2.7559Y-2.5591
X2.7559Y-2.6772
X2.7559Y-2.9134
X2.7571Y-2.954
X2.8568Y-2.7732
X2.874Y-1.9685
X2.874Y-2.0866
X2.9146Y-2.0878
X2.9902Y-2.0087
X3.05Y-3.1
X3.0536Y-3.2133
X3.0876Y-3.2136
X3.1Y-1.95
X3.1Y-3.4591
X3.1207Y-3.2139
X3.15Y-3.7
X3.1546Y-3.2136
X3.2Y-2.7
X3.25Y-3.05
X3.3Y-2.55
X3.3042Y-2.3191
X3.3381Y-2.3194
X3.35Y-2.9
X3.3713Y-2.3197
X3.4052Y-2.3194
T3
X2.3458Y-2.6899
X2.3458Y-2.8199
X2.4442Y-2.6899
X2.4442Y-2.8199
X2.5426Y-2.6899
X2.5426Y-2.8199
X2.7036Y-2.7415
X2.8036Y-2.7415
T4
X1.9685Y-2.9809
X1.9685Y-3.0809
X1.9685Y-3.1809
X1.9685Y-3.2809
X1.9685Y-3.3809
X1.969Y-2.2811
X1.969Y-2.3811
X1.969Y-2.4811
X1.969Y-2.5811
X1.969Y-2.6811
X2.1803Y-1.9291
X2.1803Y-2.0291
X2.2803Y-1.9291
X2.2803Y-2.0291
X2.3803Y-1.9291
X2.3803Y-2.0291
X2.4803Y-1.9291
X2.4803Y-2.0291
X2.5803Y-1.9291
X2.5803Y-2.0291
X2.783Y-2.2868
X2.783Y-2.3852
X2.783Y-2.4837
X2.8015Y-3.0124
X2.8015Y-3.1108
X2.8015Y-3.2092
X2.9997Y-2.2468
X3.0003Y-3.35
X3.0501Y-2.4197
X3.0997Y-2.2468
X3.1003Y-3.35
X3.1501Y-2.4197
X3.1997Y-2.2468
X3.2003Y-3.35
X3.2501Y-2.4197
X3.2997Y-1.8504
X3.2997Y-1.9504
X3.2997Y-2.2468
X3.2998Y-3.6137
X3.2998Y-3.7137
X3.3003Y-3.35
X3.35Y-3.1197
X3.3997Y-2.2468
X3.3999Y-1.85
X3.3999Y-1.95
X3.4Y-3.614
X3.4Y-3.714
X3.4003Y-3.35
X3.45Y-3.1197
T5
X2.5803Y-1.9291
X2.6803Y-1.9291
X2.7803Y-1.9291
T6
X2.2214Y-3.4639
X2.3214Y-3.4639
X2.4214Y-3.4639
X2.7728Y-3.4639
X2.8728Y-3.4639
X2.9728Y-3.4639
T7
X3.3306Y-3.1199
X3.4684Y-3.1199
T2
G00X2.3344Y-2.5019
M15
G01X2.3344Y-2.4349
M16
G05
G00X2.3511Y-3.2264
M15
G01X2.3511Y-3.1595
M16
G05
G00X2.3993Y-2.2952
M15
G01X2.4663Y-2.2952
M16
G05
G00X2.4161Y-3.0197
M15
G01X2.483Y-3.0197
M16
G05
G00X2.6415Y-2.5019
M15
G01X2.6415Y-2.4349
M16
G05
G00X2.6582Y-3.2264
M15
G01X2.6582Y-3.1595
M16
G05
T4
G00X2.2302Y-3.1614
M15
G01X2.1829Y-3.1614
M16
G05
G00X2.24Y-2.461
M15
G01X2.1928Y-2.461
M16
G05
G00X2.3071Y-2.9528
M15
G01X2.2598Y-2.9528
M16
G05
G00X2.317Y-2.2523
M15
G01X2.2697Y-2.2523
M16
G05
G00X2.4529Y-3.1614
M15
G01X2.5002Y-3.1614
M16
G05
G00X2.4628Y-2.461
M15
G01X2.51Y-2.461
M16
G05
T6
G00X2.5133Y-2.1963
M15
G01X2.4621Y-2.1963
M16
G05
G00X2.5133Y-2.5742
M15
G01X2.4621Y-2.5742
M16
G05
G00X2.5318Y-2.9218
M15
G01X2.4806Y-2.9218
M16
G05
G00X2.5318Y-3.2998
M15
G01X2.4806Y-3.2998
M16
G05
M30
