%TF.GenerationSoftware,KiCad,Pcbnew,8.0.4*%
%TF.CreationDate,2024-08-25T20:18:55-07:00*%
%TF.ProjectId,Croissant,43726f69-7373-4616-9e74-2e6b69636164,rev?*%
%TF.SameCoordinates,Original*%
%TF.FileFunction,Drillmap*%
%TF.FilePolarity,Positive*%
%FSLAX45Y45*%
G04 Gerber Fmt 4.5, Leading zero omitted, Abs format (unit mm)*
G04 Created by KiCad (PCBNEW 8.0.4) date 2024-08-25 20:18:55*
%MOMM*%
%LPD*%
G01*
G04 APERTURE LIST*
%ADD10C,0.050000*%
%ADD11C,0.100000*%
%ADD12C,0.200000*%
%ADD13C,0.109000*%
%ADD14C,0.110000*%
%ADD15C,0.120000*%
G04 APERTURE END LIST*
D10*
X8773544Y-5932380D02*
G75*
G02*
X8773544Y-5842760I6J44810D01*
G01*
D11*
X7549480Y-8209528D02*
X7632610Y-8209814D01*
D10*
X8862358Y-5932472D02*
G75*
G02*
X8962358Y-6032472I2J-99998D01*
G01*
X8773544Y-5932380D02*
X8862358Y-5932472D01*
X7567838Y-5932472D02*
X8273544Y-5932380D01*
D11*
X8793979Y-9700000D02*
X5000000Y-9700000D01*
D10*
X7632610Y-8120186D02*
X7567838Y-8120000D01*
X7467838Y-6032472D02*
G75*
G02*
X7567838Y-5932468I100002J2D01*
G01*
X8862358Y-8120000D02*
X8128000Y-8120186D01*
D11*
X8991400Y-5646000D02*
G75*
G02*
X8791400Y-5846000I-200010J10D01*
G01*
D10*
X8962358Y-6032472D02*
X8962358Y-8020000D01*
D11*
X8991301Y-4672061D02*
X8991400Y-5646000D01*
X5000000Y-4473000D02*
X8791301Y-4472061D01*
X7349480Y-6046000D02*
X7349480Y-8009528D01*
X8791400Y-8209528D02*
G75*
G02*
X8991402Y-8409528I0J-200002D01*
G01*
D10*
X8273544Y-5842752D02*
G75*
G02*
X8273544Y-5932388I6J-44818D01*
G01*
X8962358Y-8020000D02*
G75*
G02*
X8862358Y-8119998I-99998J0D01*
G01*
X7467838Y-8020000D02*
X7467838Y-6032472D01*
D11*
X4800000Y-9500000D02*
X4800000Y-4673000D01*
X5000000Y-9700000D02*
G75*
G02*
X4800000Y-9500000I0J200000D01*
G01*
D10*
X8128000Y-8209814D02*
G75*
G02*
X8128000Y-8120186I0J44814D01*
G01*
D11*
X8993979Y-9500000D02*
G75*
G02*
X8793979Y-9699999I-199999J0D01*
G01*
X8273544Y-5842752D02*
X7549480Y-5846000D01*
X8991400Y-8409528D02*
X8993979Y-9500000D01*
D10*
X7567838Y-8120000D02*
G75*
G02*
X7467840Y-8020000I2J100000D01*
G01*
X7632610Y-8120186D02*
G75*
G02*
X7632610Y-8209814I0J-44814D01*
G01*
D11*
X4800000Y-4673000D02*
G75*
G02*
X5000000Y-4473000I200000J0D01*
G01*
X7349480Y-6046000D02*
G75*
G02*
X7549480Y-5846000I200000J0D01*
G01*
X7549480Y-8209528D02*
G75*
G02*
X7349482Y-8009528I0J199998D01*
G01*
X8791400Y-5846000D02*
X8773544Y-5842752D01*
X8791301Y-4472061D02*
G75*
G02*
X8991299Y-4672061I-1J-199999D01*
G01*
X8128000Y-8209814D02*
X8791400Y-8209528D01*
D12*
D11*
X4865000Y-5485000D02*
X4895000Y-5515000D01*
X4895000Y-5485000D02*
X4865000Y-5515000D01*
X4959260Y-5185000D02*
X4989260Y-5215000D01*
X4989260Y-5185000D02*
X4959260Y-5215000D01*
X5085000Y-7085000D02*
X5115000Y-7115000D01*
X5115000Y-7085000D02*
X5085000Y-7115000D01*
X5182360Y-6791394D02*
X5212360Y-6821394D01*
X5212360Y-6791394D02*
X5182360Y-6821394D01*
X5185000Y-5885000D02*
X5215000Y-5915000D01*
X5215000Y-5885000D02*
X5185000Y-5915000D01*
X5185000Y-6485000D02*
X5215000Y-6515000D01*
X5215000Y-6485000D02*
X5185000Y-6515000D01*
X5285000Y-4985000D02*
X5315000Y-5015000D01*
X5315000Y-4985000D02*
X5285000Y-5015000D01*
X5285000Y-5485000D02*
X5315000Y-5515000D01*
X5315000Y-5485000D02*
X5285000Y-5515000D01*
X5285000Y-7385000D02*
X5315000Y-7415000D01*
X5315000Y-7385000D02*
X5285000Y-7415000D01*
X5385000Y-4985000D02*
X5415000Y-5015000D01*
X5415000Y-4985000D02*
X5385000Y-5015000D01*
X5385000Y-6085000D02*
X5415000Y-6115000D01*
X5415000Y-6085000D02*
X5385000Y-6115000D01*
X5385000Y-7485000D02*
X5415000Y-7515000D01*
X5415000Y-7485000D02*
X5385000Y-7515000D01*
X5385000Y-8585000D02*
X5415000Y-8615000D01*
X5415000Y-8585000D02*
X5385000Y-8615000D01*
X5485000Y-5485000D02*
X5515000Y-5515000D01*
X5515000Y-5485000D02*
X5485000Y-5515000D01*
X5485000Y-6485000D02*
X5515000Y-6515000D01*
X5515000Y-6485000D02*
X5485000Y-6515000D01*
X5585000Y-7085000D02*
X5615000Y-7115000D01*
X5615000Y-7085000D02*
X5585000Y-7115000D01*
X5585000Y-8385000D02*
X5615000Y-8415000D01*
X5615000Y-8385000D02*
X5585000Y-8415000D01*
X5601839Y-5701839D02*
X5631839Y-5731839D01*
X5631839Y-5701839D02*
X5601839Y-5731839D01*
X5689372Y-4678000D02*
X5719372Y-4708000D01*
X5719372Y-4678000D02*
X5689372Y-4708000D01*
X5763500Y-5954000D02*
X5793500Y-5984000D01*
X5793500Y-5954000D02*
X5763500Y-5984000D01*
X5785000Y-6985000D02*
X5815000Y-7015000D01*
X5815000Y-6985000D02*
X5785000Y-7015000D01*
X6085000Y-6385000D02*
X6115000Y-6415000D01*
X6115000Y-6385000D02*
X6085000Y-6415000D01*
X6085000Y-8385000D02*
X6115000Y-8415000D01*
X6115000Y-8385000D02*
X6085000Y-8415000D01*
X6137357Y-6141283D02*
X6167357Y-6171283D01*
X6167357Y-6141283D02*
X6137357Y-6171283D01*
X6385000Y-6685000D02*
X6415000Y-6715000D01*
X6415000Y-6685000D02*
X6385000Y-6715000D01*
X6484298Y-6137002D02*
X6514298Y-6167002D01*
X6514298Y-6137002D02*
X6484298Y-6167002D01*
X6485000Y-5785000D02*
X6515000Y-5815000D01*
X6515000Y-5785000D02*
X6485000Y-5815000D01*
X6490617Y-6610000D02*
X6520617Y-6640000D01*
X6520617Y-6610000D02*
X6490617Y-6640000D01*
X6492033Y-5292033D02*
X6522033Y-5322033D01*
X6522033Y-5292033D02*
X6492033Y-5322033D01*
X6585000Y-7085000D02*
X6615000Y-7115000D01*
X6615000Y-7085000D02*
X6585000Y-7115000D01*
X6585000Y-7885000D02*
X6615000Y-7915000D01*
X6615000Y-7885000D02*
X6585000Y-7915000D01*
X6633283Y-6892468D02*
X6663283Y-6922468D01*
X6663283Y-6892468D02*
X6633283Y-6922468D01*
X6683647Y-5651606D02*
X6713647Y-5681606D01*
X6713647Y-5651606D02*
X6683647Y-5681606D01*
X6685000Y-5214000D02*
X6715000Y-5244000D01*
X6715000Y-5214000D02*
X6685000Y-5244000D01*
X6685000Y-6685000D02*
X6715000Y-6715000D01*
X6715000Y-6685000D02*
X6685000Y-6715000D01*
X6785000Y-5685000D02*
X6815000Y-5715000D01*
X6815000Y-5685000D02*
X6785000Y-5715000D01*
X6862559Y-6519758D02*
X6892559Y-6549758D01*
X6892559Y-6519758D02*
X6862559Y-6549758D01*
X6885000Y-5585000D02*
X6915000Y-5615000D01*
X6915000Y-5585000D02*
X6885000Y-5615000D01*
X6885000Y-7985000D02*
X6915000Y-8015000D01*
X6915000Y-7985000D02*
X6885000Y-8015000D01*
X6888033Y-5288033D02*
X6918033Y-5318033D01*
X6918033Y-5288033D02*
X6888033Y-5318033D01*
X6985000Y-6485000D02*
X7015000Y-6515000D01*
X7015000Y-6485000D02*
X6985000Y-6515000D01*
X6985000Y-6785000D02*
X7015000Y-6815000D01*
X7015000Y-6785000D02*
X6985000Y-6815000D01*
X6985000Y-7385000D02*
X7015000Y-7415000D01*
X7015000Y-7385000D02*
X6985000Y-7415000D01*
X6988033Y-7488033D02*
X7018033Y-7518033D01*
X7018033Y-7488033D02*
X6988033Y-7518033D01*
X7241150Y-7028850D02*
X7271150Y-7058850D01*
X7271150Y-7028850D02*
X7241150Y-7058850D01*
X7285000Y-4985000D02*
X7315000Y-5015000D01*
X7315000Y-4985000D02*
X7285000Y-5015000D01*
X7285000Y-5285000D02*
X7315000Y-5315000D01*
X7315000Y-5285000D02*
X7285000Y-5315000D01*
X7388033Y-5288033D02*
X7418033Y-5318033D01*
X7418033Y-5288033D02*
X7388033Y-5318033D01*
X7580000Y-5087000D02*
X7610000Y-5117000D01*
X7610000Y-5087000D02*
X7580000Y-5117000D01*
X7732000Y-7859000D02*
X7762000Y-7889000D01*
X7762000Y-7859000D02*
X7732000Y-7889000D01*
X7741258Y-8146704D02*
X7771258Y-8176704D01*
X7771258Y-8146704D02*
X7741258Y-8176704D01*
X7827413Y-8147521D02*
X7857413Y-8177521D01*
X7857413Y-8147521D02*
X7827413Y-8177521D01*
X7859000Y-4938000D02*
X7889000Y-4968000D01*
X7889000Y-4938000D02*
X7859000Y-4968000D01*
X7859000Y-8771008D02*
X7889000Y-8801008D01*
X7889000Y-8771008D02*
X7859000Y-8801008D01*
X7911526Y-8148338D02*
X7941526Y-8178338D01*
X7941526Y-8148338D02*
X7911526Y-8178338D01*
X7986000Y-9383000D02*
X8016000Y-9413000D01*
X8016000Y-9383000D02*
X7986000Y-9413000D01*
X7997680Y-8147521D02*
X8027680Y-8177521D01*
X8027680Y-8147521D02*
X7997680Y-8177521D01*
X8113000Y-6843000D02*
X8143000Y-6873000D01*
X8143000Y-6843000D02*
X8113000Y-6873000D01*
X8240000Y-7732000D02*
X8270000Y-7762000D01*
X8270000Y-7732000D02*
X8240000Y-7762000D01*
X8367000Y-6462000D02*
X8397000Y-6492000D01*
X8397000Y-6462000D02*
X8367000Y-6492000D01*
X8377716Y-5875469D02*
X8407716Y-5905469D01*
X8407716Y-5875469D02*
X8377716Y-5905469D01*
X8463870Y-5876286D02*
X8493870Y-5906286D01*
X8493870Y-5876286D02*
X8463870Y-5906286D01*
X8494000Y-7351000D02*
X8524000Y-7381000D01*
X8524000Y-7351000D02*
X8494000Y-7381000D01*
X8547983Y-5877102D02*
X8577983Y-5907102D01*
X8577983Y-5877102D02*
X8547983Y-5907102D01*
X8634137Y-5876286D02*
X8664137Y-5906286D01*
X8664137Y-5876286D02*
X8634137Y-5906286D01*
X5969298Y-6269758D02*
G75*
G02*
X5889298Y-6269758I-40000J0D01*
G01*
X5889298Y-6269758D02*
G75*
G02*
X5969298Y-6269758I40000J0D01*
G01*
X5969298Y-6354758D02*
X5969298Y-6184758D01*
X5889298Y-6184758D02*
G75*
G02*
X5969298Y-6184758I40000J0D01*
G01*
X5889298Y-6184758D02*
X5889298Y-6354758D01*
X5889298Y-6354758D02*
G75*
G03*
X5969298Y-6354758I40000J0D01*
G01*
X6011845Y-8110016D02*
G75*
G02*
X5931845Y-8110016I-40000J0D01*
G01*
X5931845Y-8110016D02*
G75*
G02*
X6011845Y-8110016I40000J0D01*
G01*
X6011845Y-8195016D02*
X6011845Y-8025016D01*
X5931845Y-8025016D02*
G75*
G02*
X6011845Y-8025016I40000J0D01*
G01*
X5931845Y-8025016D02*
X5931845Y-8195016D01*
X5931845Y-8195016D02*
G75*
G03*
X6011845Y-8195016I40000J0D01*
G01*
X6219298Y-5829758D02*
G75*
G02*
X6139298Y-5829758I-40000J0D01*
G01*
X6139298Y-5829758D02*
G75*
G02*
X6219298Y-5829758I40000J0D01*
G01*
X6094298Y-5869758D02*
X6264298Y-5869758D01*
X6264298Y-5789758D02*
G75*
G02*
X6264298Y-5869758I0J-40000D01*
G01*
X6264298Y-5789758D02*
X6094298Y-5789758D01*
X6094298Y-5789758D02*
G75*
G03*
X6094298Y-5869758I0J-40000D01*
G01*
X6261845Y-7670016D02*
G75*
G02*
X6181845Y-7670016I-40000J0D01*
G01*
X6181845Y-7670016D02*
G75*
G02*
X6261845Y-7670016I40000J0D01*
G01*
X6136845Y-7710016D02*
X6306845Y-7710016D01*
X6306845Y-7630016D02*
G75*
G02*
X6306845Y-7710016I0J-40000D01*
G01*
X6306845Y-7630016D02*
X6136845Y-7630016D01*
X6136845Y-7630016D02*
G75*
G03*
X6136845Y-7710016I0J-40000D01*
G01*
X6749298Y-6269758D02*
G75*
G02*
X6669298Y-6269758I-40000J0D01*
G01*
X6669298Y-6269758D02*
G75*
G02*
X6749298Y-6269758I40000J0D01*
G01*
X6749298Y-6354758D02*
X6749298Y-6184758D01*
X6669298Y-6184758D02*
G75*
G02*
X6749298Y-6184758I40000J0D01*
G01*
X6669298Y-6184758D02*
X6669298Y-6354758D01*
X6669298Y-6354758D02*
G75*
G03*
X6749298Y-6354758I40000J0D01*
G01*
X6791845Y-8110016D02*
G75*
G02*
X6711845Y-8110016I-40000J0D01*
G01*
X6711845Y-8110016D02*
G75*
G02*
X6791845Y-8110016I40000J0D01*
G01*
X6791845Y-8195016D02*
X6791845Y-8025016D01*
X6711845Y-8025016D02*
G75*
G02*
X6791845Y-8025016I40000J0D01*
G01*
X6711845Y-8025016D02*
X6711845Y-8195016D01*
X6711845Y-8195016D02*
G75*
G03*
X6791845Y-8195016I40000J0D01*
G01*
X5958283Y-6787468D02*
X5958283Y-6877468D01*
X5913283Y-6832468D02*
X6003283Y-6832468D01*
X5958283Y-7117468D02*
X5958283Y-7207468D01*
X5913283Y-7162468D02*
X6003283Y-7162468D01*
X6208283Y-6787468D02*
X6208283Y-6877468D01*
X6163283Y-6832468D02*
X6253283Y-6832468D01*
X6208283Y-7117468D02*
X6208283Y-7207468D01*
X6163283Y-7162468D02*
X6253283Y-7162468D01*
X6458283Y-6787468D02*
X6458283Y-6877468D01*
X6413283Y-6832468D02*
X6503283Y-6832468D01*
X6458283Y-7117468D02*
X6458283Y-7207468D01*
X6413283Y-7162468D02*
X6503283Y-7162468D01*
X6867150Y-6918402D02*
X6867150Y-7008402D01*
X6822150Y-6963402D02*
X6912150Y-6963402D01*
X7121150Y-6918402D02*
X7121150Y-7008402D01*
X7076150Y-6963402D02*
X7166150Y-6963402D01*
X5035356Y-7606782D02*
X5035356Y-7536070D01*
X4964644Y-7536070D01*
X4964644Y-7606782D01*
X5035356Y-7606782D01*
X5035356Y-7860782D02*
X5035356Y-7790070D01*
X4964644Y-7790070D01*
X4964644Y-7860782D01*
X5035356Y-7860782D01*
X5035356Y-8114782D02*
X5035356Y-8044070D01*
X4964644Y-8044070D01*
X4964644Y-8114782D01*
X5035356Y-8114782D01*
X5035356Y-8368782D02*
X5035356Y-8298070D01*
X4964644Y-8298070D01*
X4964644Y-8368782D01*
X5035356Y-8368782D01*
X5035356Y-8622782D02*
X5035356Y-8552071D01*
X4964644Y-8552071D01*
X4964644Y-8622782D01*
X5035356Y-8622782D01*
X5036725Y-5829285D02*
X5036725Y-5758573D01*
X4966013Y-5758573D01*
X4966013Y-5829285D01*
X5036725Y-5829285D01*
X5036725Y-6083285D02*
X5036725Y-6012573D01*
X4966013Y-6012573D01*
X4966013Y-6083285D01*
X5036725Y-6083285D01*
X5036725Y-6337285D02*
X5036725Y-6266573D01*
X4966013Y-6266573D01*
X4966013Y-6337285D01*
X5036725Y-6337285D01*
X5036725Y-6591285D02*
X5036725Y-6520573D01*
X4966013Y-6520573D01*
X4966013Y-6591285D01*
X5036725Y-6591285D01*
X5036725Y-6845285D02*
X5036725Y-6774573D01*
X4966013Y-6774573D01*
X4966013Y-6845285D01*
X5036725Y-6845285D01*
X5573356Y-4935356D02*
X5573356Y-4864644D01*
X5502644Y-4864644D01*
X5502644Y-4935356D01*
X5573356Y-4935356D01*
X5573356Y-5189356D02*
X5573356Y-5118644D01*
X5502644Y-5118644D01*
X5502644Y-5189356D01*
X5573356Y-5189356D01*
X5639956Y-8065356D02*
X5639956Y-7994644D01*
X5569244Y-7994644D01*
X5569244Y-8065356D01*
X5639956Y-8065356D01*
X5664600Y-7980000D02*
X5544600Y-7980000D01*
X5544600Y-8080000D02*
G75*
G02*
X5544600Y-7980000I0J50000D01*
G01*
X5544600Y-8080000D02*
X5664600Y-8080000D01*
X5664600Y-8080000D02*
G75*
G03*
X5664600Y-7980000I0J50000D01*
G01*
X5665067Y-6286292D02*
X5665067Y-6215581D01*
X5594355Y-6215581D01*
X5594355Y-6286292D01*
X5665067Y-6286292D01*
X5689711Y-6200936D02*
X5569711Y-6200936D01*
X5569711Y-6300936D02*
G75*
G02*
X5569711Y-6200936I0J50000D01*
G01*
X5569711Y-6300936D02*
X5689711Y-6300936D01*
X5689711Y-6300936D02*
G75*
G03*
X5689711Y-6200936I0J50000D01*
G01*
X5827356Y-4935356D02*
X5827356Y-4864644D01*
X5756644Y-4864644D01*
X5756644Y-4935356D01*
X5827356Y-4935356D01*
X5827356Y-5189356D02*
X5827356Y-5118644D01*
X5756644Y-5118644D01*
X5756644Y-5189356D01*
X5827356Y-5189356D01*
X5835356Y-7535356D02*
X5835356Y-7464644D01*
X5764644Y-7464644D01*
X5764644Y-7535356D01*
X5835356Y-7535356D01*
X5860000Y-7450000D02*
X5740000Y-7450000D01*
X5740000Y-7550000D02*
G75*
G02*
X5740000Y-7450000I0J50000D01*
G01*
X5740000Y-7550000D02*
X5860000Y-7550000D01*
X5860000Y-7550000D02*
G75*
G03*
X5860000Y-7450000I0J50000D01*
G01*
X5860467Y-5756292D02*
X5860467Y-5685581D01*
X5789755Y-5685581D01*
X5789755Y-5756292D01*
X5860467Y-5756292D01*
X5885111Y-5670936D02*
X5765111Y-5670936D01*
X5765111Y-5770936D02*
G75*
G02*
X5765111Y-5670936I0J50000D01*
G01*
X5765111Y-5770936D02*
X5885111Y-5770936D01*
X5885111Y-5770936D02*
G75*
G03*
X5885111Y-5670936I0J50000D01*
G01*
X6081356Y-4935356D02*
X6081356Y-4864644D01*
X6010644Y-4864644D01*
X6010644Y-4935356D01*
X6081356Y-4935356D01*
X6081356Y-5189356D02*
X6081356Y-5118644D01*
X6010644Y-5118644D01*
X6010644Y-5189356D01*
X6081356Y-5189356D01*
X6325756Y-8065356D02*
X6325756Y-7994644D01*
X6255044Y-7994644D01*
X6255044Y-8065356D01*
X6325756Y-8065356D01*
X6230400Y-8080000D02*
X6350400Y-8080000D01*
X6350400Y-7980000D02*
G75*
G02*
X6350400Y-8080000I0J-50000D01*
G01*
X6350400Y-7980000D02*
X6230400Y-7980000D01*
X6230400Y-7980000D02*
G75*
G03*
X6230400Y-8080000I0J-50000D01*
G01*
X6335356Y-4935356D02*
X6335356Y-4864644D01*
X6264644Y-4864644D01*
X6264644Y-4935356D01*
X6335356Y-4935356D01*
X6335356Y-5189356D02*
X6335356Y-5118644D01*
X6264644Y-5118644D01*
X6264644Y-5189356D01*
X6335356Y-5189356D01*
X6350867Y-6286292D02*
X6350867Y-6215581D01*
X6280155Y-6215581D01*
X6280155Y-6286292D01*
X6350867Y-6286292D01*
X6255511Y-6300936D02*
X6375511Y-6300936D01*
X6375511Y-6200936D02*
G75*
G02*
X6375511Y-6300936I0J-50000D01*
G01*
X6375511Y-6200936D02*
X6255511Y-6200936D01*
X6255511Y-6200936D02*
G75*
G03*
X6255511Y-6300936I0J-50000D01*
G01*
X6589356Y-4935356D02*
X6589356Y-4864644D01*
X6518644Y-4864644D01*
X6518644Y-4935356D01*
X6589356Y-4935356D01*
X6589356Y-5189356D02*
X6589356Y-5118644D01*
X6518644Y-5118644D01*
X6518644Y-5189356D01*
X6589356Y-5189356D01*
X7104182Y-5843858D02*
X7104182Y-5773147D01*
X7033470Y-5773147D01*
X7033470Y-5843858D01*
X7104182Y-5843858D01*
X7104182Y-6093858D02*
X7104182Y-6023147D01*
X7033470Y-6023147D01*
X7033470Y-6093858D01*
X7104182Y-6093858D01*
X7104182Y-6343858D02*
X7104182Y-6273147D01*
X7033470Y-6273147D01*
X7033470Y-6343858D01*
X7104182Y-6343858D01*
X7151048Y-7686742D02*
X7151048Y-7616031D01*
X7080336Y-7616031D01*
X7080336Y-7686742D01*
X7151048Y-7686742D01*
X7151048Y-7936742D02*
X7151048Y-7866031D01*
X7080336Y-7866031D01*
X7080336Y-7936742D01*
X7151048Y-7936742D01*
X7151048Y-8186742D02*
X7151048Y-8116031D01*
X7080336Y-8116031D01*
X7080336Y-8186742D01*
X7151048Y-8186742D01*
X7654483Y-5742267D02*
X7654483Y-5671556D01*
X7583772Y-5671556D01*
X7583772Y-5742267D01*
X7654483Y-5742267D01*
X7656236Y-8544356D02*
X7656236Y-8473644D01*
X7585524Y-8473644D01*
X7585524Y-8544356D01*
X7656236Y-8544356D01*
X7782628Y-6181356D02*
X7782628Y-6110644D01*
X7711917Y-6110644D01*
X7711917Y-6181356D01*
X7782628Y-6181356D01*
X7908483Y-5742267D02*
X7908483Y-5671556D01*
X7837772Y-5671556D01*
X7837772Y-5742267D01*
X7908483Y-5742267D01*
X7910236Y-8544356D02*
X7910236Y-8473644D01*
X7839524Y-8473644D01*
X7839524Y-8544356D01*
X7910236Y-8544356D01*
X8036628Y-6181356D02*
X8036628Y-6110644D01*
X7965917Y-6110644D01*
X7965917Y-6181356D01*
X8036628Y-6181356D01*
X8162483Y-5742267D02*
X8162483Y-5671556D01*
X8091772Y-5671556D01*
X8091772Y-5742267D01*
X8162483Y-5742267D01*
X8164236Y-8544356D02*
X8164236Y-8473644D01*
X8093524Y-8473644D01*
X8093524Y-8544356D01*
X8164236Y-8544356D01*
X8290628Y-6181356D02*
X8290628Y-6110644D01*
X8219917Y-6110644D01*
X8219917Y-6181356D01*
X8290628Y-6181356D01*
X8416483Y-4735443D02*
X8416483Y-4664731D01*
X8345772Y-4664731D01*
X8345772Y-4735443D01*
X8416483Y-4735443D01*
X8416483Y-4989443D02*
X8416483Y-4918731D01*
X8345772Y-4918731D01*
X8345772Y-4989443D01*
X8416483Y-4989443D01*
X8416483Y-5742267D02*
X8416483Y-5671556D01*
X8345772Y-5671556D01*
X8345772Y-5742267D01*
X8416483Y-5742267D01*
X8416767Y-9214181D02*
X8416767Y-9143469D01*
X8346055Y-9143469D01*
X8346055Y-9214181D01*
X8416767Y-9214181D01*
X8416767Y-9468181D02*
X8416767Y-9397469D01*
X8346055Y-9397469D01*
X8346055Y-9468181D01*
X8416767Y-9468181D01*
X8418236Y-8544356D02*
X8418236Y-8473644D01*
X8347524Y-8473644D01*
X8347524Y-8544356D01*
X8418236Y-8544356D01*
X8544356Y-7959424D02*
X8544356Y-7888713D01*
X8473644Y-7888713D01*
X8473644Y-7959424D01*
X8544356Y-7959424D01*
X8670483Y-5742267D02*
X8670483Y-5671556D01*
X8599772Y-5671556D01*
X8599772Y-5742267D01*
X8670483Y-5742267D01*
X8671141Y-4734356D02*
X8671141Y-4663644D01*
X8600430Y-4663644D01*
X8600430Y-4734356D01*
X8671141Y-4734356D01*
X8671141Y-4988356D02*
X8671141Y-4917644D01*
X8600430Y-4917644D01*
X8600430Y-4988356D01*
X8671141Y-4988356D01*
X8671356Y-9214852D02*
X8671356Y-9144141D01*
X8600644Y-9144141D01*
X8600644Y-9214852D01*
X8671356Y-9214852D01*
X8671356Y-9468852D02*
X8671356Y-9398141D01*
X8600644Y-9398141D01*
X8600644Y-9468852D01*
X8671356Y-9468852D01*
X8672236Y-8544356D02*
X8672236Y-8473644D01*
X8601524Y-8473644D01*
X8601524Y-8544356D01*
X8672236Y-8544356D01*
X8798356Y-7959424D02*
X8798356Y-7888713D01*
X8727644Y-7888713D01*
X8727644Y-7959424D01*
X8798356Y-7959424D01*
D13*
X6554000Y-4954500D02*
X6608500Y-4900000D01*
X6554000Y-4845500D01*
X6499500Y-4900000D01*
X6554000Y-4954500D01*
X6808000Y-4954500D02*
X6862500Y-4900000D01*
X6808000Y-4845500D01*
X6753500Y-4900000D01*
X6808000Y-4954500D01*
X7062000Y-4954500D02*
X7116500Y-4900000D01*
X7062000Y-4845500D01*
X7007500Y-4900000D01*
X7062000Y-4954500D01*
D14*
X5587316Y-8743400D02*
X5697316Y-8853400D01*
X5697316Y-8743400D02*
X5587316Y-8853400D01*
X5697316Y-8798400D02*
G75*
G02*
X5587316Y-8798400I-55000J0D01*
G01*
X5587316Y-8798400D02*
G75*
G02*
X5697316Y-8798400I55000J0D01*
G01*
X5841316Y-8743400D02*
X5951316Y-8853400D01*
X5951316Y-8743400D02*
X5841316Y-8853400D01*
X5951316Y-8798400D02*
G75*
G02*
X5841316Y-8798400I-55000J0D01*
G01*
X5841316Y-8798400D02*
G75*
G02*
X5951316Y-8798400I55000J0D01*
G01*
X6095316Y-8743400D02*
X6205316Y-8853400D01*
X6205316Y-8743400D02*
X6095316Y-8853400D01*
X6205316Y-8798400D02*
G75*
G02*
X6095316Y-8798400I-55000J0D01*
G01*
X6095316Y-8798400D02*
G75*
G02*
X6205316Y-8798400I55000J0D01*
G01*
X6263826Y-5523503D02*
X6373826Y-5633503D01*
X6373826Y-5523503D02*
X6263826Y-5633503D01*
X6373826Y-5578503D02*
G75*
G02*
X6263826Y-5578503I-55000J0D01*
G01*
X6263826Y-5578503D02*
G75*
G02*
X6373826Y-5578503I55000J0D01*
G01*
D11*
X6383826Y-5523503D02*
X6253826Y-5523503D01*
X6253826Y-5633503D02*
G75*
G02*
X6253826Y-5523503I0J55000D01*
G01*
X6253826Y-5633503D02*
X6383826Y-5633503D01*
X6383826Y-5633503D02*
G75*
G03*
X6383826Y-5523503I0J55000D01*
G01*
D14*
X6263826Y-6483503D02*
X6373826Y-6593503D01*
X6373826Y-6483503D02*
X6263826Y-6593503D01*
X6373826Y-6538503D02*
G75*
G02*
X6263826Y-6538503I-55000J0D01*
G01*
X6263826Y-6538503D02*
G75*
G02*
X6373826Y-6538503I55000J0D01*
G01*
D11*
X6383826Y-6483503D02*
X6253826Y-6483503D01*
X6253826Y-6593503D02*
G75*
G02*
X6253826Y-6483503I0J55000D01*
G01*
X6253826Y-6593503D02*
X6383826Y-6593503D01*
X6383826Y-6593503D02*
G75*
G03*
X6383826Y-6483503I0J55000D01*
G01*
D14*
X6310692Y-7366386D02*
X6420692Y-7476386D01*
X6420692Y-7366386D02*
X6310692Y-7476386D01*
X6420692Y-7421386D02*
G75*
G02*
X6310692Y-7421386I-55000J0D01*
G01*
X6310692Y-7421386D02*
G75*
G02*
X6420692Y-7421386I55000J0D01*
G01*
D11*
X6430692Y-7366386D02*
X6300692Y-7366386D01*
X6300692Y-7476386D02*
G75*
G02*
X6300692Y-7366386I0J55000D01*
G01*
X6300692Y-7476386D02*
X6430692Y-7476386D01*
X6430692Y-7476386D02*
G75*
G03*
X6430692Y-7366386I0J55000D01*
G01*
D14*
X6310692Y-8326386D02*
X6420692Y-8436386D01*
X6420692Y-8326386D02*
X6310692Y-8436386D01*
X6420692Y-8381386D02*
G75*
G02*
X6310692Y-8381386I-55000J0D01*
G01*
X6310692Y-8381386D02*
G75*
G02*
X6420692Y-8381386I55000J0D01*
G01*
D11*
X6430692Y-8326386D02*
X6300692Y-8326386D01*
X6300692Y-8436386D02*
G75*
G02*
X6300692Y-8326386I0J55000D01*
G01*
X6300692Y-8436386D02*
X6430692Y-8436386D01*
X6430692Y-8436386D02*
G75*
G03*
X6430692Y-8326386I0J55000D01*
G01*
D14*
X6988032Y-8743400D02*
X7098032Y-8853400D01*
X7098032Y-8743400D02*
X6988032Y-8853400D01*
X7098032Y-8798400D02*
G75*
G02*
X6988032Y-8798400I-55000J0D01*
G01*
X6988032Y-8798400D02*
G75*
G02*
X7098032Y-8798400I55000J0D01*
G01*
X7242032Y-8743400D02*
X7352032Y-8853400D01*
X7352032Y-8743400D02*
X7242032Y-8853400D01*
X7352032Y-8798400D02*
G75*
G02*
X7242032Y-8798400I-55000J0D01*
G01*
X7242032Y-8798400D02*
G75*
G02*
X7352032Y-8798400I55000J0D01*
G01*
X7496032Y-8743400D02*
X7606032Y-8853400D01*
X7606032Y-8743400D02*
X7496032Y-8853400D01*
X7606032Y-8798400D02*
G75*
G02*
X7496032Y-8798400I-55000J0D01*
G01*
X7496032Y-8798400D02*
G75*
G02*
X7606032Y-8798400I55000J0D01*
G01*
D15*
X8399738Y-7864629D02*
X8519738Y-7984629D01*
X8519738Y-7864629D02*
X8399738Y-7984629D01*
X8459738Y-7864629D02*
X8459738Y-7984629D01*
X8399738Y-7924629D02*
X8519738Y-7924629D01*
X8749738Y-7864629D02*
X8869738Y-7984629D01*
X8869738Y-7864629D02*
X8749738Y-7984629D01*
X8809738Y-7864629D02*
X8809738Y-7984629D01*
X8749738Y-7924629D02*
X8869738Y-7924629D01*
D12*
X5055777Y-10016484D02*
X5055777Y-9816484D01*
X5055777Y-9816484D02*
X5103396Y-9816484D01*
X5103396Y-9816484D02*
X5131967Y-9826008D01*
X5131967Y-9826008D02*
X5151015Y-9845055D01*
X5151015Y-9845055D02*
X5160539Y-9864103D01*
X5160539Y-9864103D02*
X5170063Y-9902198D01*
X5170063Y-9902198D02*
X5170063Y-9930770D01*
X5170063Y-9930770D02*
X5160539Y-9968865D01*
X5160539Y-9968865D02*
X5151015Y-9987912D01*
X5151015Y-9987912D02*
X5131967Y-10006960D01*
X5131967Y-10006960D02*
X5103396Y-10016484D01*
X5103396Y-10016484D02*
X5055777Y-10016484D01*
X5255777Y-10016484D02*
X5255777Y-9883150D01*
X5255777Y-9921246D02*
X5265301Y-9902198D01*
X5265301Y-9902198D02*
X5274824Y-9892674D01*
X5274824Y-9892674D02*
X5293872Y-9883150D01*
X5293872Y-9883150D02*
X5312920Y-9883150D01*
X5379586Y-10016484D02*
X5379586Y-9883150D01*
X5379586Y-9816484D02*
X5370063Y-9826008D01*
X5370063Y-9826008D02*
X5379586Y-9835531D01*
X5379586Y-9835531D02*
X5389110Y-9826008D01*
X5389110Y-9826008D02*
X5379586Y-9816484D01*
X5379586Y-9816484D02*
X5379586Y-9835531D01*
X5503396Y-10016484D02*
X5484348Y-10006960D01*
X5484348Y-10006960D02*
X5474824Y-9987912D01*
X5474824Y-9987912D02*
X5474824Y-9816484D01*
X5608158Y-10016484D02*
X5589110Y-10006960D01*
X5589110Y-10006960D02*
X5579586Y-9987912D01*
X5579586Y-9987912D02*
X5579586Y-9816484D01*
X5836729Y-10016484D02*
X5836729Y-9816484D01*
X5836729Y-9816484D02*
X5903396Y-9959341D01*
X5903396Y-9959341D02*
X5970062Y-9816484D01*
X5970062Y-9816484D02*
X5970062Y-10016484D01*
X6151015Y-10016484D02*
X6151015Y-9911722D01*
X6151015Y-9911722D02*
X6141491Y-9892674D01*
X6141491Y-9892674D02*
X6122443Y-9883150D01*
X6122443Y-9883150D02*
X6084348Y-9883150D01*
X6084348Y-9883150D02*
X6065301Y-9892674D01*
X6151015Y-10006960D02*
X6131967Y-10016484D01*
X6131967Y-10016484D02*
X6084348Y-10016484D01*
X6084348Y-10016484D02*
X6065301Y-10006960D01*
X6065301Y-10006960D02*
X6055777Y-9987912D01*
X6055777Y-9987912D02*
X6055777Y-9968865D01*
X6055777Y-9968865D02*
X6065301Y-9949817D01*
X6065301Y-9949817D02*
X6084348Y-9940293D01*
X6084348Y-9940293D02*
X6131967Y-9940293D01*
X6131967Y-9940293D02*
X6151015Y-9930770D01*
X6246253Y-9883150D02*
X6246253Y-10083150D01*
X6246253Y-9892674D02*
X6265301Y-9883150D01*
X6265301Y-9883150D02*
X6303396Y-9883150D01*
X6303396Y-9883150D02*
X6322443Y-9892674D01*
X6322443Y-9892674D02*
X6331967Y-9902198D01*
X6331967Y-9902198D02*
X6341491Y-9921246D01*
X6341491Y-9921246D02*
X6341491Y-9978389D01*
X6341491Y-9978389D02*
X6331967Y-9997436D01*
X6331967Y-9997436D02*
X6322443Y-10006960D01*
X6322443Y-10006960D02*
X6303396Y-10016484D01*
X6303396Y-10016484D02*
X6265301Y-10016484D01*
X6265301Y-10016484D02*
X6246253Y-10006960D01*
X6427205Y-9997436D02*
X6436729Y-10006960D01*
X6436729Y-10006960D02*
X6427205Y-10016484D01*
X6427205Y-10016484D02*
X6417682Y-10006960D01*
X6417682Y-10006960D02*
X6427205Y-9997436D01*
X6427205Y-9997436D02*
X6427205Y-10016484D01*
X6427205Y-9892674D02*
X6436729Y-9902198D01*
X6436729Y-9902198D02*
X6427205Y-9911722D01*
X6427205Y-9911722D02*
X6417682Y-9902198D01*
X6417682Y-9902198D02*
X6427205Y-9892674D01*
X6427205Y-9892674D02*
X6427205Y-9911722D01*
D11*
X4765000Y-10330000D02*
X4795000Y-10360000D01*
X4795000Y-10330000D02*
X4765000Y-10360000D01*
D12*
X5093872Y-10236484D02*
X5112920Y-10236484D01*
X5112920Y-10236484D02*
X5131967Y-10246008D01*
X5131967Y-10246008D02*
X5141491Y-10255531D01*
X5141491Y-10255531D02*
X5151015Y-10274579D01*
X5151015Y-10274579D02*
X5160539Y-10312674D01*
X5160539Y-10312674D02*
X5160539Y-10360293D01*
X5160539Y-10360293D02*
X5151015Y-10398389D01*
X5151015Y-10398389D02*
X5141491Y-10417436D01*
X5141491Y-10417436D02*
X5131967Y-10426960D01*
X5131967Y-10426960D02*
X5112920Y-10436484D01*
X5112920Y-10436484D02*
X5093872Y-10436484D01*
X5093872Y-10436484D02*
X5074824Y-10426960D01*
X5074824Y-10426960D02*
X5065301Y-10417436D01*
X5065301Y-10417436D02*
X5055777Y-10398389D01*
X5055777Y-10398389D02*
X5046253Y-10360293D01*
X5046253Y-10360293D02*
X5046253Y-10312674D01*
X5046253Y-10312674D02*
X5055777Y-10274579D01*
X5055777Y-10274579D02*
X5065301Y-10255531D01*
X5065301Y-10255531D02*
X5074824Y-10246008D01*
X5074824Y-10246008D02*
X5093872Y-10236484D01*
X5246253Y-10417436D02*
X5255777Y-10426960D01*
X5255777Y-10426960D02*
X5246253Y-10436484D01*
X5246253Y-10436484D02*
X5236729Y-10426960D01*
X5236729Y-10426960D02*
X5246253Y-10417436D01*
X5246253Y-10417436D02*
X5246253Y-10436484D01*
X5322444Y-10236484D02*
X5446253Y-10236484D01*
X5446253Y-10236484D02*
X5379586Y-10312674D01*
X5379586Y-10312674D02*
X5408158Y-10312674D01*
X5408158Y-10312674D02*
X5427205Y-10322198D01*
X5427205Y-10322198D02*
X5436729Y-10331722D01*
X5436729Y-10331722D02*
X5446253Y-10350770D01*
X5446253Y-10350770D02*
X5446253Y-10398389D01*
X5446253Y-10398389D02*
X5436729Y-10417436D01*
X5436729Y-10417436D02*
X5427205Y-10426960D01*
X5427205Y-10426960D02*
X5408158Y-10436484D01*
X5408158Y-10436484D02*
X5351015Y-10436484D01*
X5351015Y-10436484D02*
X5331967Y-10426960D01*
X5331967Y-10426960D02*
X5322444Y-10417436D01*
X5570063Y-10236484D02*
X5589110Y-10236484D01*
X5589110Y-10236484D02*
X5608158Y-10246008D01*
X5608158Y-10246008D02*
X5617682Y-10255531D01*
X5617682Y-10255531D02*
X5627205Y-10274579D01*
X5627205Y-10274579D02*
X5636729Y-10312674D01*
X5636729Y-10312674D02*
X5636729Y-10360293D01*
X5636729Y-10360293D02*
X5627205Y-10398389D01*
X5627205Y-10398389D02*
X5617682Y-10417436D01*
X5617682Y-10417436D02*
X5608158Y-10426960D01*
X5608158Y-10426960D02*
X5589110Y-10436484D01*
X5589110Y-10436484D02*
X5570063Y-10436484D01*
X5570063Y-10436484D02*
X5551015Y-10426960D01*
X5551015Y-10426960D02*
X5541491Y-10417436D01*
X5541491Y-10417436D02*
X5531967Y-10398389D01*
X5531967Y-10398389D02*
X5522444Y-10360293D01*
X5522444Y-10360293D02*
X5522444Y-10312674D01*
X5522444Y-10312674D02*
X5531967Y-10274579D01*
X5531967Y-10274579D02*
X5541491Y-10255531D01*
X5541491Y-10255531D02*
X5551015Y-10246008D01*
X5551015Y-10246008D02*
X5570063Y-10236484D01*
X5760539Y-10236484D02*
X5779586Y-10236484D01*
X5779586Y-10236484D02*
X5798634Y-10246008D01*
X5798634Y-10246008D02*
X5808158Y-10255531D01*
X5808158Y-10255531D02*
X5817682Y-10274579D01*
X5817682Y-10274579D02*
X5827205Y-10312674D01*
X5827205Y-10312674D02*
X5827205Y-10360293D01*
X5827205Y-10360293D02*
X5817682Y-10398389D01*
X5817682Y-10398389D02*
X5808158Y-10417436D01*
X5808158Y-10417436D02*
X5798634Y-10426960D01*
X5798634Y-10426960D02*
X5779586Y-10436484D01*
X5779586Y-10436484D02*
X5760539Y-10436484D01*
X5760539Y-10436484D02*
X5741491Y-10426960D01*
X5741491Y-10426960D02*
X5731967Y-10417436D01*
X5731967Y-10417436D02*
X5722443Y-10398389D01*
X5722443Y-10398389D02*
X5712920Y-10360293D01*
X5712920Y-10360293D02*
X5712920Y-10312674D01*
X5712920Y-10312674D02*
X5722443Y-10274579D01*
X5722443Y-10274579D02*
X5731967Y-10255531D01*
X5731967Y-10255531D02*
X5741491Y-10246008D01*
X5741491Y-10246008D02*
X5760539Y-10236484D01*
X5912920Y-10436484D02*
X5912920Y-10303150D01*
X5912920Y-10322198D02*
X5922443Y-10312674D01*
X5922443Y-10312674D02*
X5941491Y-10303150D01*
X5941491Y-10303150D02*
X5970063Y-10303150D01*
X5970063Y-10303150D02*
X5989110Y-10312674D01*
X5989110Y-10312674D02*
X5998634Y-10331722D01*
X5998634Y-10331722D02*
X5998634Y-10436484D01*
X5998634Y-10331722D02*
X6008158Y-10312674D01*
X6008158Y-10312674D02*
X6027205Y-10303150D01*
X6027205Y-10303150D02*
X6055777Y-10303150D01*
X6055777Y-10303150D02*
X6074824Y-10312674D01*
X6074824Y-10312674D02*
X6084348Y-10331722D01*
X6084348Y-10331722D02*
X6084348Y-10436484D01*
X6179586Y-10436484D02*
X6179586Y-10303150D01*
X6179586Y-10322198D02*
X6189110Y-10312674D01*
X6189110Y-10312674D02*
X6208158Y-10303150D01*
X6208158Y-10303150D02*
X6236729Y-10303150D01*
X6236729Y-10303150D02*
X6255777Y-10312674D01*
X6255777Y-10312674D02*
X6265301Y-10331722D01*
X6265301Y-10331722D02*
X6265301Y-10436484D01*
X6265301Y-10331722D02*
X6274824Y-10312674D01*
X6274824Y-10312674D02*
X6293872Y-10303150D01*
X6293872Y-10303150D02*
X6322443Y-10303150D01*
X6322443Y-10303150D02*
X6341491Y-10312674D01*
X6341491Y-10312674D02*
X6351015Y-10331722D01*
X6351015Y-10331722D02*
X6351015Y-10436484D01*
X6741491Y-10226960D02*
X6570063Y-10484103D01*
X6998634Y-10236484D02*
X7017682Y-10236484D01*
X7017682Y-10236484D02*
X7036729Y-10246008D01*
X7036729Y-10246008D02*
X7046253Y-10255531D01*
X7046253Y-10255531D02*
X7055777Y-10274579D01*
X7055777Y-10274579D02*
X7065301Y-10312674D01*
X7065301Y-10312674D02*
X7065301Y-10360293D01*
X7065301Y-10360293D02*
X7055777Y-10398389D01*
X7055777Y-10398389D02*
X7046253Y-10417436D01*
X7046253Y-10417436D02*
X7036729Y-10426960D01*
X7036729Y-10426960D02*
X7017682Y-10436484D01*
X7017682Y-10436484D02*
X6998634Y-10436484D01*
X6998634Y-10436484D02*
X6979586Y-10426960D01*
X6979586Y-10426960D02*
X6970063Y-10417436D01*
X6970063Y-10417436D02*
X6960539Y-10398389D01*
X6960539Y-10398389D02*
X6951015Y-10360293D01*
X6951015Y-10360293D02*
X6951015Y-10312674D01*
X6951015Y-10312674D02*
X6960539Y-10274579D01*
X6960539Y-10274579D02*
X6970063Y-10255531D01*
X6970063Y-10255531D02*
X6979586Y-10246008D01*
X6979586Y-10246008D02*
X6998634Y-10236484D01*
X7151015Y-10417436D02*
X7160539Y-10426960D01*
X7160539Y-10426960D02*
X7151015Y-10436484D01*
X7151015Y-10436484D02*
X7141491Y-10426960D01*
X7141491Y-10426960D02*
X7151015Y-10417436D01*
X7151015Y-10417436D02*
X7151015Y-10436484D01*
X7284348Y-10236484D02*
X7303396Y-10236484D01*
X7303396Y-10236484D02*
X7322444Y-10246008D01*
X7322444Y-10246008D02*
X7331967Y-10255531D01*
X7331967Y-10255531D02*
X7341491Y-10274579D01*
X7341491Y-10274579D02*
X7351015Y-10312674D01*
X7351015Y-10312674D02*
X7351015Y-10360293D01*
X7351015Y-10360293D02*
X7341491Y-10398389D01*
X7341491Y-10398389D02*
X7331967Y-10417436D01*
X7331967Y-10417436D02*
X7322444Y-10426960D01*
X7322444Y-10426960D02*
X7303396Y-10436484D01*
X7303396Y-10436484D02*
X7284348Y-10436484D01*
X7284348Y-10436484D02*
X7265301Y-10426960D01*
X7265301Y-10426960D02*
X7255777Y-10417436D01*
X7255777Y-10417436D02*
X7246253Y-10398389D01*
X7246253Y-10398389D02*
X7236729Y-10360293D01*
X7236729Y-10360293D02*
X7236729Y-10312674D01*
X7236729Y-10312674D02*
X7246253Y-10274579D01*
X7246253Y-10274579D02*
X7255777Y-10255531D01*
X7255777Y-10255531D02*
X7265301Y-10246008D01*
X7265301Y-10246008D02*
X7284348Y-10236484D01*
X7541491Y-10436484D02*
X7427206Y-10436484D01*
X7484348Y-10436484D02*
X7484348Y-10236484D01*
X7484348Y-10236484D02*
X7465301Y-10265055D01*
X7465301Y-10265055D02*
X7446253Y-10284103D01*
X7446253Y-10284103D02*
X7427206Y-10293627D01*
X7731967Y-10436484D02*
X7617682Y-10436484D01*
X7674825Y-10436484D02*
X7674825Y-10236484D01*
X7674825Y-10236484D02*
X7655777Y-10265055D01*
X7655777Y-10265055D02*
X7636729Y-10284103D01*
X7636729Y-10284103D02*
X7617682Y-10293627D01*
X7846253Y-10322198D02*
X7827206Y-10312674D01*
X7827206Y-10312674D02*
X7817682Y-10303150D01*
X7817682Y-10303150D02*
X7808158Y-10284103D01*
X7808158Y-10284103D02*
X7808158Y-10274579D01*
X7808158Y-10274579D02*
X7817682Y-10255531D01*
X7817682Y-10255531D02*
X7827206Y-10246008D01*
X7827206Y-10246008D02*
X7846253Y-10236484D01*
X7846253Y-10236484D02*
X7884348Y-10236484D01*
X7884348Y-10236484D02*
X7903396Y-10246008D01*
X7903396Y-10246008D02*
X7912920Y-10255531D01*
X7912920Y-10255531D02*
X7922444Y-10274579D01*
X7922444Y-10274579D02*
X7922444Y-10284103D01*
X7922444Y-10284103D02*
X7912920Y-10303150D01*
X7912920Y-10303150D02*
X7903396Y-10312674D01*
X7903396Y-10312674D02*
X7884348Y-10322198D01*
X7884348Y-10322198D02*
X7846253Y-10322198D01*
X7846253Y-10322198D02*
X7827206Y-10331722D01*
X7827206Y-10331722D02*
X7817682Y-10341246D01*
X7817682Y-10341246D02*
X7808158Y-10360293D01*
X7808158Y-10360293D02*
X7808158Y-10398389D01*
X7808158Y-10398389D02*
X7817682Y-10417436D01*
X7817682Y-10417436D02*
X7827206Y-10426960D01*
X7827206Y-10426960D02*
X7846253Y-10436484D01*
X7846253Y-10436484D02*
X7884348Y-10436484D01*
X7884348Y-10436484D02*
X7903396Y-10426960D01*
X7903396Y-10426960D02*
X7912920Y-10417436D01*
X7912920Y-10417436D02*
X7922444Y-10398389D01*
X7922444Y-10398389D02*
X7922444Y-10360293D01*
X7922444Y-10360293D02*
X7912920Y-10341246D01*
X7912920Y-10341246D02*
X7903396Y-10331722D01*
X7903396Y-10331722D02*
X7884348Y-10322198D01*
X7998634Y-10236484D02*
X7998634Y-10274579D01*
X8074825Y-10236484D02*
X8074825Y-10274579D01*
X8370063Y-10512674D02*
X8360539Y-10503150D01*
X8360539Y-10503150D02*
X8341491Y-10474579D01*
X8341491Y-10474579D02*
X8331968Y-10455531D01*
X8331968Y-10455531D02*
X8322444Y-10426960D01*
X8322444Y-10426960D02*
X8312920Y-10379341D01*
X8312920Y-10379341D02*
X8312920Y-10341246D01*
X8312920Y-10341246D02*
X8322444Y-10293627D01*
X8322444Y-10293627D02*
X8331968Y-10265055D01*
X8331968Y-10265055D02*
X8341491Y-10246008D01*
X8341491Y-10246008D02*
X8360539Y-10217436D01*
X8360539Y-10217436D02*
X8370063Y-10207912D01*
X8531968Y-10236484D02*
X8493872Y-10236484D01*
X8493872Y-10236484D02*
X8474825Y-10246008D01*
X8474825Y-10246008D02*
X8465301Y-10255531D01*
X8465301Y-10255531D02*
X8446253Y-10284103D01*
X8446253Y-10284103D02*
X8436730Y-10322198D01*
X8436730Y-10322198D02*
X8436730Y-10398389D01*
X8436730Y-10398389D02*
X8446253Y-10417436D01*
X8446253Y-10417436D02*
X8455777Y-10426960D01*
X8455777Y-10426960D02*
X8474825Y-10436484D01*
X8474825Y-10436484D02*
X8512920Y-10436484D01*
X8512920Y-10436484D02*
X8531968Y-10426960D01*
X8531968Y-10426960D02*
X8541491Y-10417436D01*
X8541491Y-10417436D02*
X8551015Y-10398389D01*
X8551015Y-10398389D02*
X8551015Y-10350770D01*
X8551015Y-10350770D02*
X8541491Y-10331722D01*
X8541491Y-10331722D02*
X8531968Y-10322198D01*
X8531968Y-10322198D02*
X8512920Y-10312674D01*
X8512920Y-10312674D02*
X8474825Y-10312674D01*
X8474825Y-10312674D02*
X8455777Y-10322198D01*
X8455777Y-10322198D02*
X8446253Y-10331722D01*
X8446253Y-10331722D02*
X8436730Y-10350770D01*
X8731968Y-10236484D02*
X8636730Y-10236484D01*
X8636730Y-10236484D02*
X8627206Y-10331722D01*
X8627206Y-10331722D02*
X8636730Y-10322198D01*
X8636730Y-10322198D02*
X8655777Y-10312674D01*
X8655777Y-10312674D02*
X8703396Y-10312674D01*
X8703396Y-10312674D02*
X8722444Y-10322198D01*
X8722444Y-10322198D02*
X8731968Y-10331722D01*
X8731968Y-10331722D02*
X8741491Y-10350770D01*
X8741491Y-10350770D02*
X8741491Y-10398389D01*
X8741491Y-10398389D02*
X8731968Y-10417436D01*
X8731968Y-10417436D02*
X8722444Y-10426960D01*
X8722444Y-10426960D02*
X8703396Y-10436484D01*
X8703396Y-10436484D02*
X8655777Y-10436484D01*
X8655777Y-10436484D02*
X8636730Y-10426960D01*
X8636730Y-10426960D02*
X8627206Y-10417436D01*
X8979587Y-10436484D02*
X8979587Y-10236484D01*
X9065301Y-10436484D02*
X9065301Y-10331722D01*
X9065301Y-10331722D02*
X9055777Y-10312674D01*
X9055777Y-10312674D02*
X9036730Y-10303150D01*
X9036730Y-10303150D02*
X9008158Y-10303150D01*
X9008158Y-10303150D02*
X8989111Y-10312674D01*
X8989111Y-10312674D02*
X8979587Y-10322198D01*
X9189111Y-10436484D02*
X9170063Y-10426960D01*
X9170063Y-10426960D02*
X9160539Y-10417436D01*
X9160539Y-10417436D02*
X9151015Y-10398389D01*
X9151015Y-10398389D02*
X9151015Y-10341246D01*
X9151015Y-10341246D02*
X9160539Y-10322198D01*
X9160539Y-10322198D02*
X9170063Y-10312674D01*
X9170063Y-10312674D02*
X9189111Y-10303150D01*
X9189111Y-10303150D02*
X9217682Y-10303150D01*
X9217682Y-10303150D02*
X9236730Y-10312674D01*
X9236730Y-10312674D02*
X9246253Y-10322198D01*
X9246253Y-10322198D02*
X9255777Y-10341246D01*
X9255777Y-10341246D02*
X9255777Y-10398389D01*
X9255777Y-10398389D02*
X9246253Y-10417436D01*
X9246253Y-10417436D02*
X9236730Y-10426960D01*
X9236730Y-10426960D02*
X9217682Y-10436484D01*
X9217682Y-10436484D02*
X9189111Y-10436484D01*
X9370063Y-10436484D02*
X9351015Y-10426960D01*
X9351015Y-10426960D02*
X9341492Y-10407912D01*
X9341492Y-10407912D02*
X9341492Y-10236484D01*
X9522444Y-10426960D02*
X9503396Y-10436484D01*
X9503396Y-10436484D02*
X9465301Y-10436484D01*
X9465301Y-10436484D02*
X9446253Y-10426960D01*
X9446253Y-10426960D02*
X9436730Y-10407912D01*
X9436730Y-10407912D02*
X9436730Y-10331722D01*
X9436730Y-10331722D02*
X9446253Y-10312674D01*
X9446253Y-10312674D02*
X9465301Y-10303150D01*
X9465301Y-10303150D02*
X9503396Y-10303150D01*
X9503396Y-10303150D02*
X9522444Y-10312674D01*
X9522444Y-10312674D02*
X9531968Y-10331722D01*
X9531968Y-10331722D02*
X9531968Y-10350770D01*
X9531968Y-10350770D02*
X9436730Y-10369817D01*
X9608158Y-10426960D02*
X9627206Y-10436484D01*
X9627206Y-10436484D02*
X9665301Y-10436484D01*
X9665301Y-10436484D02*
X9684349Y-10426960D01*
X9684349Y-10426960D02*
X9693873Y-10407912D01*
X9693873Y-10407912D02*
X9693873Y-10398389D01*
X9693873Y-10398389D02*
X9684349Y-10379341D01*
X9684349Y-10379341D02*
X9665301Y-10369817D01*
X9665301Y-10369817D02*
X9636730Y-10369817D01*
X9636730Y-10369817D02*
X9617682Y-10360293D01*
X9617682Y-10360293D02*
X9608158Y-10341246D01*
X9608158Y-10341246D02*
X9608158Y-10331722D01*
X9608158Y-10331722D02*
X9617682Y-10312674D01*
X9617682Y-10312674D02*
X9636730Y-10303150D01*
X9636730Y-10303150D02*
X9665301Y-10303150D01*
X9665301Y-10303150D02*
X9684349Y-10312674D01*
X9760539Y-10512674D02*
X9770063Y-10503150D01*
X9770063Y-10503150D02*
X9789111Y-10474579D01*
X9789111Y-10474579D02*
X9798634Y-10455531D01*
X9798634Y-10455531D02*
X9808158Y-10426960D01*
X9808158Y-10426960D02*
X9817682Y-10379341D01*
X9817682Y-10379341D02*
X9817682Y-10341246D01*
X9817682Y-10341246D02*
X9808158Y-10293627D01*
X9808158Y-10293627D02*
X9798634Y-10265055D01*
X9798634Y-10265055D02*
X9789111Y-10246008D01*
X9789111Y-10246008D02*
X9770063Y-10217436D01*
X9770063Y-10217436D02*
X9760539Y-10207912D01*
D11*
X4795000Y-10609000D02*
G75*
G02*
X4715000Y-10609000I-40000J0D01*
G01*
X4715000Y-10609000D02*
G75*
G02*
X4795000Y-10609000I40000J0D01*
G01*
D12*
X5093872Y-10500484D02*
X5112920Y-10500484D01*
X5112920Y-10500484D02*
X5131967Y-10510008D01*
X5131967Y-10510008D02*
X5141491Y-10519531D01*
X5141491Y-10519531D02*
X5151015Y-10538579D01*
X5151015Y-10538579D02*
X5160539Y-10576674D01*
X5160539Y-10576674D02*
X5160539Y-10624293D01*
X5160539Y-10624293D02*
X5151015Y-10662389D01*
X5151015Y-10662389D02*
X5141491Y-10681436D01*
X5141491Y-10681436D02*
X5131967Y-10690960D01*
X5131967Y-10690960D02*
X5112920Y-10700484D01*
X5112920Y-10700484D02*
X5093872Y-10700484D01*
X5093872Y-10700484D02*
X5074824Y-10690960D01*
X5074824Y-10690960D02*
X5065301Y-10681436D01*
X5065301Y-10681436D02*
X5055777Y-10662389D01*
X5055777Y-10662389D02*
X5046253Y-10624293D01*
X5046253Y-10624293D02*
X5046253Y-10576674D01*
X5046253Y-10576674D02*
X5055777Y-10538579D01*
X5055777Y-10538579D02*
X5065301Y-10519531D01*
X5065301Y-10519531D02*
X5074824Y-10510008D01*
X5074824Y-10510008D02*
X5093872Y-10500484D01*
X5246253Y-10681436D02*
X5255777Y-10690960D01*
X5255777Y-10690960D02*
X5246253Y-10700484D01*
X5246253Y-10700484D02*
X5236729Y-10690960D01*
X5236729Y-10690960D02*
X5246253Y-10681436D01*
X5246253Y-10681436D02*
X5246253Y-10700484D01*
X5370063Y-10586198D02*
X5351015Y-10576674D01*
X5351015Y-10576674D02*
X5341491Y-10567150D01*
X5341491Y-10567150D02*
X5331967Y-10548103D01*
X5331967Y-10548103D02*
X5331967Y-10538579D01*
X5331967Y-10538579D02*
X5341491Y-10519531D01*
X5341491Y-10519531D02*
X5351015Y-10510008D01*
X5351015Y-10510008D02*
X5370063Y-10500484D01*
X5370063Y-10500484D02*
X5408158Y-10500484D01*
X5408158Y-10500484D02*
X5427205Y-10510008D01*
X5427205Y-10510008D02*
X5436729Y-10519531D01*
X5436729Y-10519531D02*
X5446253Y-10538579D01*
X5446253Y-10538579D02*
X5446253Y-10548103D01*
X5446253Y-10548103D02*
X5436729Y-10567150D01*
X5436729Y-10567150D02*
X5427205Y-10576674D01*
X5427205Y-10576674D02*
X5408158Y-10586198D01*
X5408158Y-10586198D02*
X5370063Y-10586198D01*
X5370063Y-10586198D02*
X5351015Y-10595722D01*
X5351015Y-10595722D02*
X5341491Y-10605246D01*
X5341491Y-10605246D02*
X5331967Y-10624293D01*
X5331967Y-10624293D02*
X5331967Y-10662389D01*
X5331967Y-10662389D02*
X5341491Y-10681436D01*
X5341491Y-10681436D02*
X5351015Y-10690960D01*
X5351015Y-10690960D02*
X5370063Y-10700484D01*
X5370063Y-10700484D02*
X5408158Y-10700484D01*
X5408158Y-10700484D02*
X5427205Y-10690960D01*
X5427205Y-10690960D02*
X5436729Y-10681436D01*
X5436729Y-10681436D02*
X5446253Y-10662389D01*
X5446253Y-10662389D02*
X5446253Y-10624293D01*
X5446253Y-10624293D02*
X5436729Y-10605246D01*
X5436729Y-10605246D02*
X5427205Y-10595722D01*
X5427205Y-10595722D02*
X5408158Y-10586198D01*
X5570063Y-10500484D02*
X5589110Y-10500484D01*
X5589110Y-10500484D02*
X5608158Y-10510008D01*
X5608158Y-10510008D02*
X5617682Y-10519531D01*
X5617682Y-10519531D02*
X5627205Y-10538579D01*
X5627205Y-10538579D02*
X5636729Y-10576674D01*
X5636729Y-10576674D02*
X5636729Y-10624293D01*
X5636729Y-10624293D02*
X5627205Y-10662389D01*
X5627205Y-10662389D02*
X5617682Y-10681436D01*
X5617682Y-10681436D02*
X5608158Y-10690960D01*
X5608158Y-10690960D02*
X5589110Y-10700484D01*
X5589110Y-10700484D02*
X5570063Y-10700484D01*
X5570063Y-10700484D02*
X5551015Y-10690960D01*
X5551015Y-10690960D02*
X5541491Y-10681436D01*
X5541491Y-10681436D02*
X5531967Y-10662389D01*
X5531967Y-10662389D02*
X5522444Y-10624293D01*
X5522444Y-10624293D02*
X5522444Y-10576674D01*
X5522444Y-10576674D02*
X5531967Y-10538579D01*
X5531967Y-10538579D02*
X5541491Y-10519531D01*
X5541491Y-10519531D02*
X5551015Y-10510008D01*
X5551015Y-10510008D02*
X5570063Y-10500484D01*
X5760539Y-10500484D02*
X5779586Y-10500484D01*
X5779586Y-10500484D02*
X5798634Y-10510008D01*
X5798634Y-10510008D02*
X5808158Y-10519531D01*
X5808158Y-10519531D02*
X5817682Y-10538579D01*
X5817682Y-10538579D02*
X5827205Y-10576674D01*
X5827205Y-10576674D02*
X5827205Y-10624293D01*
X5827205Y-10624293D02*
X5817682Y-10662389D01*
X5817682Y-10662389D02*
X5808158Y-10681436D01*
X5808158Y-10681436D02*
X5798634Y-10690960D01*
X5798634Y-10690960D02*
X5779586Y-10700484D01*
X5779586Y-10700484D02*
X5760539Y-10700484D01*
X5760539Y-10700484D02*
X5741491Y-10690960D01*
X5741491Y-10690960D02*
X5731967Y-10681436D01*
X5731967Y-10681436D02*
X5722443Y-10662389D01*
X5722443Y-10662389D02*
X5712920Y-10624293D01*
X5712920Y-10624293D02*
X5712920Y-10576674D01*
X5712920Y-10576674D02*
X5722443Y-10538579D01*
X5722443Y-10538579D02*
X5731967Y-10519531D01*
X5731967Y-10519531D02*
X5741491Y-10510008D01*
X5741491Y-10510008D02*
X5760539Y-10500484D01*
X5912920Y-10700484D02*
X5912920Y-10567150D01*
X5912920Y-10586198D02*
X5922443Y-10576674D01*
X5922443Y-10576674D02*
X5941491Y-10567150D01*
X5941491Y-10567150D02*
X5970063Y-10567150D01*
X5970063Y-10567150D02*
X5989110Y-10576674D01*
X5989110Y-10576674D02*
X5998634Y-10595722D01*
X5998634Y-10595722D02*
X5998634Y-10700484D01*
X5998634Y-10595722D02*
X6008158Y-10576674D01*
X6008158Y-10576674D02*
X6027205Y-10567150D01*
X6027205Y-10567150D02*
X6055777Y-10567150D01*
X6055777Y-10567150D02*
X6074824Y-10576674D01*
X6074824Y-10576674D02*
X6084348Y-10595722D01*
X6084348Y-10595722D02*
X6084348Y-10700484D01*
X6179586Y-10700484D02*
X6179586Y-10567150D01*
X6179586Y-10586198D02*
X6189110Y-10576674D01*
X6189110Y-10576674D02*
X6208158Y-10567150D01*
X6208158Y-10567150D02*
X6236729Y-10567150D01*
X6236729Y-10567150D02*
X6255777Y-10576674D01*
X6255777Y-10576674D02*
X6265301Y-10595722D01*
X6265301Y-10595722D02*
X6265301Y-10700484D01*
X6265301Y-10595722D02*
X6274824Y-10576674D01*
X6274824Y-10576674D02*
X6293872Y-10567150D01*
X6293872Y-10567150D02*
X6322443Y-10567150D01*
X6322443Y-10567150D02*
X6341491Y-10576674D01*
X6341491Y-10576674D02*
X6351015Y-10595722D01*
X6351015Y-10595722D02*
X6351015Y-10700484D01*
X6741491Y-10490960D02*
X6570063Y-10748103D01*
X6998634Y-10500484D02*
X7017682Y-10500484D01*
X7017682Y-10500484D02*
X7036729Y-10510008D01*
X7036729Y-10510008D02*
X7046253Y-10519531D01*
X7046253Y-10519531D02*
X7055777Y-10538579D01*
X7055777Y-10538579D02*
X7065301Y-10576674D01*
X7065301Y-10576674D02*
X7065301Y-10624293D01*
X7065301Y-10624293D02*
X7055777Y-10662389D01*
X7055777Y-10662389D02*
X7046253Y-10681436D01*
X7046253Y-10681436D02*
X7036729Y-10690960D01*
X7036729Y-10690960D02*
X7017682Y-10700484D01*
X7017682Y-10700484D02*
X6998634Y-10700484D01*
X6998634Y-10700484D02*
X6979586Y-10690960D01*
X6979586Y-10690960D02*
X6970063Y-10681436D01*
X6970063Y-10681436D02*
X6960539Y-10662389D01*
X6960539Y-10662389D02*
X6951015Y-10624293D01*
X6951015Y-10624293D02*
X6951015Y-10576674D01*
X6951015Y-10576674D02*
X6960539Y-10538579D01*
X6960539Y-10538579D02*
X6970063Y-10519531D01*
X6970063Y-10519531D02*
X6979586Y-10510008D01*
X6979586Y-10510008D02*
X6998634Y-10500484D01*
X7151015Y-10681436D02*
X7160539Y-10690960D01*
X7160539Y-10690960D02*
X7151015Y-10700484D01*
X7151015Y-10700484D02*
X7141491Y-10690960D01*
X7141491Y-10690960D02*
X7151015Y-10681436D01*
X7151015Y-10681436D02*
X7151015Y-10700484D01*
X7284348Y-10500484D02*
X7303396Y-10500484D01*
X7303396Y-10500484D02*
X7322444Y-10510008D01*
X7322444Y-10510008D02*
X7331967Y-10519531D01*
X7331967Y-10519531D02*
X7341491Y-10538579D01*
X7341491Y-10538579D02*
X7351015Y-10576674D01*
X7351015Y-10576674D02*
X7351015Y-10624293D01*
X7351015Y-10624293D02*
X7341491Y-10662389D01*
X7341491Y-10662389D02*
X7331967Y-10681436D01*
X7331967Y-10681436D02*
X7322444Y-10690960D01*
X7322444Y-10690960D02*
X7303396Y-10700484D01*
X7303396Y-10700484D02*
X7284348Y-10700484D01*
X7284348Y-10700484D02*
X7265301Y-10690960D01*
X7265301Y-10690960D02*
X7255777Y-10681436D01*
X7255777Y-10681436D02*
X7246253Y-10662389D01*
X7246253Y-10662389D02*
X7236729Y-10624293D01*
X7236729Y-10624293D02*
X7236729Y-10576674D01*
X7236729Y-10576674D02*
X7246253Y-10538579D01*
X7246253Y-10538579D02*
X7255777Y-10519531D01*
X7255777Y-10519531D02*
X7265301Y-10510008D01*
X7265301Y-10510008D02*
X7284348Y-10500484D01*
X7417682Y-10500484D02*
X7541491Y-10500484D01*
X7541491Y-10500484D02*
X7474825Y-10576674D01*
X7474825Y-10576674D02*
X7503396Y-10576674D01*
X7503396Y-10576674D02*
X7522444Y-10586198D01*
X7522444Y-10586198D02*
X7531967Y-10595722D01*
X7531967Y-10595722D02*
X7541491Y-10614770D01*
X7541491Y-10614770D02*
X7541491Y-10662389D01*
X7541491Y-10662389D02*
X7531967Y-10681436D01*
X7531967Y-10681436D02*
X7522444Y-10690960D01*
X7522444Y-10690960D02*
X7503396Y-10700484D01*
X7503396Y-10700484D02*
X7446253Y-10700484D01*
X7446253Y-10700484D02*
X7427206Y-10690960D01*
X7427206Y-10690960D02*
X7417682Y-10681436D01*
X7731967Y-10700484D02*
X7617682Y-10700484D01*
X7674825Y-10700484D02*
X7674825Y-10500484D01*
X7674825Y-10500484D02*
X7655777Y-10529055D01*
X7655777Y-10529055D02*
X7636729Y-10548103D01*
X7636729Y-10548103D02*
X7617682Y-10557627D01*
X7912920Y-10500484D02*
X7817682Y-10500484D01*
X7817682Y-10500484D02*
X7808158Y-10595722D01*
X7808158Y-10595722D02*
X7817682Y-10586198D01*
X7817682Y-10586198D02*
X7836729Y-10576674D01*
X7836729Y-10576674D02*
X7884348Y-10576674D01*
X7884348Y-10576674D02*
X7903396Y-10586198D01*
X7903396Y-10586198D02*
X7912920Y-10595722D01*
X7912920Y-10595722D02*
X7922444Y-10614770D01*
X7922444Y-10614770D02*
X7922444Y-10662389D01*
X7922444Y-10662389D02*
X7912920Y-10681436D01*
X7912920Y-10681436D02*
X7903396Y-10690960D01*
X7903396Y-10690960D02*
X7884348Y-10700484D01*
X7884348Y-10700484D02*
X7836729Y-10700484D01*
X7836729Y-10700484D02*
X7817682Y-10690960D01*
X7817682Y-10690960D02*
X7808158Y-10681436D01*
X7998634Y-10500484D02*
X7998634Y-10538579D01*
X8074825Y-10500484D02*
X8074825Y-10538579D01*
X8370063Y-10776674D02*
X8360539Y-10767150D01*
X8360539Y-10767150D02*
X8341491Y-10738579D01*
X8341491Y-10738579D02*
X8331968Y-10719531D01*
X8331968Y-10719531D02*
X8322444Y-10690960D01*
X8322444Y-10690960D02*
X8312920Y-10643341D01*
X8312920Y-10643341D02*
X8312920Y-10605246D01*
X8312920Y-10605246D02*
X8322444Y-10557627D01*
X8322444Y-10557627D02*
X8331968Y-10529055D01*
X8331968Y-10529055D02*
X8341491Y-10510008D01*
X8341491Y-10510008D02*
X8360539Y-10481436D01*
X8360539Y-10481436D02*
X8370063Y-10471912D01*
X8484349Y-10500484D02*
X8503396Y-10500484D01*
X8503396Y-10500484D02*
X8522444Y-10510008D01*
X8522444Y-10510008D02*
X8531968Y-10519531D01*
X8531968Y-10519531D02*
X8541491Y-10538579D01*
X8541491Y-10538579D02*
X8551015Y-10576674D01*
X8551015Y-10576674D02*
X8551015Y-10624293D01*
X8551015Y-10624293D02*
X8541491Y-10662389D01*
X8541491Y-10662389D02*
X8531968Y-10681436D01*
X8531968Y-10681436D02*
X8522444Y-10690960D01*
X8522444Y-10690960D02*
X8503396Y-10700484D01*
X8503396Y-10700484D02*
X8484349Y-10700484D01*
X8484349Y-10700484D02*
X8465301Y-10690960D01*
X8465301Y-10690960D02*
X8455777Y-10681436D01*
X8455777Y-10681436D02*
X8446253Y-10662389D01*
X8446253Y-10662389D02*
X8436730Y-10624293D01*
X8436730Y-10624293D02*
X8436730Y-10576674D01*
X8436730Y-10576674D02*
X8446253Y-10538579D01*
X8446253Y-10538579D02*
X8455777Y-10519531D01*
X8455777Y-10519531D02*
X8465301Y-10510008D01*
X8465301Y-10510008D02*
X8484349Y-10500484D01*
X8789111Y-10700484D02*
X8789111Y-10500484D01*
X8874825Y-10700484D02*
X8874825Y-10595722D01*
X8874825Y-10595722D02*
X8865301Y-10576674D01*
X8865301Y-10576674D02*
X8846253Y-10567150D01*
X8846253Y-10567150D02*
X8817682Y-10567150D01*
X8817682Y-10567150D02*
X8798634Y-10576674D01*
X8798634Y-10576674D02*
X8789111Y-10586198D01*
X8998634Y-10700484D02*
X8979587Y-10690960D01*
X8979587Y-10690960D02*
X8970063Y-10681436D01*
X8970063Y-10681436D02*
X8960539Y-10662389D01*
X8960539Y-10662389D02*
X8960539Y-10605246D01*
X8960539Y-10605246D02*
X8970063Y-10586198D01*
X8970063Y-10586198D02*
X8979587Y-10576674D01*
X8979587Y-10576674D02*
X8998634Y-10567150D01*
X8998634Y-10567150D02*
X9027206Y-10567150D01*
X9027206Y-10567150D02*
X9046253Y-10576674D01*
X9046253Y-10576674D02*
X9055777Y-10586198D01*
X9055777Y-10586198D02*
X9065301Y-10605246D01*
X9065301Y-10605246D02*
X9065301Y-10662389D01*
X9065301Y-10662389D02*
X9055777Y-10681436D01*
X9055777Y-10681436D02*
X9046253Y-10690960D01*
X9046253Y-10690960D02*
X9027206Y-10700484D01*
X9027206Y-10700484D02*
X8998634Y-10700484D01*
X9179587Y-10700484D02*
X9160539Y-10690960D01*
X9160539Y-10690960D02*
X9151015Y-10671912D01*
X9151015Y-10671912D02*
X9151015Y-10500484D01*
X9331968Y-10690960D02*
X9312920Y-10700484D01*
X9312920Y-10700484D02*
X9274825Y-10700484D01*
X9274825Y-10700484D02*
X9255777Y-10690960D01*
X9255777Y-10690960D02*
X9246253Y-10671912D01*
X9246253Y-10671912D02*
X9246253Y-10595722D01*
X9246253Y-10595722D02*
X9255777Y-10576674D01*
X9255777Y-10576674D02*
X9274825Y-10567150D01*
X9274825Y-10567150D02*
X9312920Y-10567150D01*
X9312920Y-10567150D02*
X9331968Y-10576674D01*
X9331968Y-10576674D02*
X9341492Y-10595722D01*
X9341492Y-10595722D02*
X9341492Y-10614770D01*
X9341492Y-10614770D02*
X9246253Y-10633817D01*
X9417682Y-10690960D02*
X9436730Y-10700484D01*
X9436730Y-10700484D02*
X9474825Y-10700484D01*
X9474825Y-10700484D02*
X9493873Y-10690960D01*
X9493873Y-10690960D02*
X9503396Y-10671912D01*
X9503396Y-10671912D02*
X9503396Y-10662389D01*
X9503396Y-10662389D02*
X9493873Y-10643341D01*
X9493873Y-10643341D02*
X9474825Y-10633817D01*
X9474825Y-10633817D02*
X9446253Y-10633817D01*
X9446253Y-10633817D02*
X9427206Y-10624293D01*
X9427206Y-10624293D02*
X9417682Y-10605246D01*
X9417682Y-10605246D02*
X9417682Y-10595722D01*
X9417682Y-10595722D02*
X9427206Y-10576674D01*
X9427206Y-10576674D02*
X9446253Y-10567150D01*
X9446253Y-10567150D02*
X9474825Y-10567150D01*
X9474825Y-10567150D02*
X9493873Y-10576674D01*
X9741492Y-10624293D02*
X9893873Y-10624293D01*
X9817682Y-10700484D02*
X9817682Y-10548103D01*
X10227206Y-10500484D02*
X10189111Y-10500484D01*
X10189111Y-10500484D02*
X10170063Y-10510008D01*
X10170063Y-10510008D02*
X10160539Y-10519531D01*
X10160539Y-10519531D02*
X10141492Y-10548103D01*
X10141492Y-10548103D02*
X10131968Y-10586198D01*
X10131968Y-10586198D02*
X10131968Y-10662389D01*
X10131968Y-10662389D02*
X10141492Y-10681436D01*
X10141492Y-10681436D02*
X10151015Y-10690960D01*
X10151015Y-10690960D02*
X10170063Y-10700484D01*
X10170063Y-10700484D02*
X10208158Y-10700484D01*
X10208158Y-10700484D02*
X10227206Y-10690960D01*
X10227206Y-10690960D02*
X10236730Y-10681436D01*
X10236730Y-10681436D02*
X10246254Y-10662389D01*
X10246254Y-10662389D02*
X10246254Y-10614770D01*
X10246254Y-10614770D02*
X10236730Y-10595722D01*
X10236730Y-10595722D02*
X10227206Y-10586198D01*
X10227206Y-10586198D02*
X10208158Y-10576674D01*
X10208158Y-10576674D02*
X10170063Y-10576674D01*
X10170063Y-10576674D02*
X10151015Y-10586198D01*
X10151015Y-10586198D02*
X10141492Y-10595722D01*
X10141492Y-10595722D02*
X10131968Y-10614770D01*
X10474825Y-10690960D02*
X10493873Y-10700484D01*
X10493873Y-10700484D02*
X10531968Y-10700484D01*
X10531968Y-10700484D02*
X10551016Y-10690960D01*
X10551016Y-10690960D02*
X10560539Y-10671912D01*
X10560539Y-10671912D02*
X10560539Y-10662389D01*
X10560539Y-10662389D02*
X10551016Y-10643341D01*
X10551016Y-10643341D02*
X10531968Y-10633817D01*
X10531968Y-10633817D02*
X10503396Y-10633817D01*
X10503396Y-10633817D02*
X10484349Y-10624293D01*
X10484349Y-10624293D02*
X10474825Y-10605246D01*
X10474825Y-10605246D02*
X10474825Y-10595722D01*
X10474825Y-10595722D02*
X10484349Y-10576674D01*
X10484349Y-10576674D02*
X10503396Y-10567150D01*
X10503396Y-10567150D02*
X10531968Y-10567150D01*
X10531968Y-10567150D02*
X10551016Y-10576674D01*
X10674825Y-10700484D02*
X10655777Y-10690960D01*
X10655777Y-10690960D02*
X10646254Y-10671912D01*
X10646254Y-10671912D02*
X10646254Y-10500484D01*
X10779587Y-10700484D02*
X10760539Y-10690960D01*
X10760539Y-10690960D02*
X10751016Y-10681436D01*
X10751016Y-10681436D02*
X10741492Y-10662389D01*
X10741492Y-10662389D02*
X10741492Y-10605246D01*
X10741492Y-10605246D02*
X10751016Y-10586198D01*
X10751016Y-10586198D02*
X10760539Y-10576674D01*
X10760539Y-10576674D02*
X10779587Y-10567150D01*
X10779587Y-10567150D02*
X10808158Y-10567150D01*
X10808158Y-10567150D02*
X10827206Y-10576674D01*
X10827206Y-10576674D02*
X10836730Y-10586198D01*
X10836730Y-10586198D02*
X10846254Y-10605246D01*
X10846254Y-10605246D02*
X10846254Y-10662389D01*
X10846254Y-10662389D02*
X10836730Y-10681436D01*
X10836730Y-10681436D02*
X10827206Y-10690960D01*
X10827206Y-10690960D02*
X10808158Y-10700484D01*
X10808158Y-10700484D02*
X10779587Y-10700484D01*
X10903397Y-10567150D02*
X10979587Y-10567150D01*
X10931968Y-10500484D02*
X10931968Y-10671912D01*
X10931968Y-10671912D02*
X10941492Y-10690960D01*
X10941492Y-10690960D02*
X10960539Y-10700484D01*
X10960539Y-10700484D02*
X10979587Y-10700484D01*
X11036730Y-10690960D02*
X11055777Y-10700484D01*
X11055777Y-10700484D02*
X11093873Y-10700484D01*
X11093873Y-10700484D02*
X11112920Y-10690960D01*
X11112920Y-10690960D02*
X11122444Y-10671912D01*
X11122444Y-10671912D02*
X11122444Y-10662389D01*
X11122444Y-10662389D02*
X11112920Y-10643341D01*
X11112920Y-10643341D02*
X11093873Y-10633817D01*
X11093873Y-10633817D02*
X11065301Y-10633817D01*
X11065301Y-10633817D02*
X11046254Y-10624293D01*
X11046254Y-10624293D02*
X11036730Y-10605246D01*
X11036730Y-10605246D02*
X11036730Y-10595722D01*
X11036730Y-10595722D02*
X11046254Y-10576674D01*
X11046254Y-10576674D02*
X11065301Y-10567150D01*
X11065301Y-10567150D02*
X11093873Y-10567150D01*
X11093873Y-10567150D02*
X11112920Y-10576674D01*
X11189111Y-10776674D02*
X11198635Y-10767150D01*
X11198635Y-10767150D02*
X11217682Y-10738579D01*
X11217682Y-10738579D02*
X11227206Y-10719531D01*
X11227206Y-10719531D02*
X11236730Y-10690960D01*
X11236730Y-10690960D02*
X11246254Y-10643341D01*
X11246254Y-10643341D02*
X11246254Y-10605246D01*
X11246254Y-10605246D02*
X11236730Y-10557627D01*
X11236730Y-10557627D02*
X11227206Y-10529055D01*
X11227206Y-10529055D02*
X11217682Y-10510008D01*
X11217682Y-10510008D02*
X11198635Y-10481436D01*
X11198635Y-10481436D02*
X11189111Y-10471912D01*
D11*
X4750000Y-10828000D02*
X4750000Y-10918000D01*
X4705000Y-10873000D02*
X4795000Y-10873000D01*
D12*
X5093872Y-10764484D02*
X5112920Y-10764484D01*
X5112920Y-10764484D02*
X5131967Y-10774008D01*
X5131967Y-10774008D02*
X5141491Y-10783531D01*
X5141491Y-10783531D02*
X5151015Y-10802579D01*
X5151015Y-10802579D02*
X5160539Y-10840674D01*
X5160539Y-10840674D02*
X5160539Y-10888293D01*
X5160539Y-10888293D02*
X5151015Y-10926389D01*
X5151015Y-10926389D02*
X5141491Y-10945436D01*
X5141491Y-10945436D02*
X5131967Y-10954960D01*
X5131967Y-10954960D02*
X5112920Y-10964484D01*
X5112920Y-10964484D02*
X5093872Y-10964484D01*
X5093872Y-10964484D02*
X5074824Y-10954960D01*
X5074824Y-10954960D02*
X5065301Y-10945436D01*
X5065301Y-10945436D02*
X5055777Y-10926389D01*
X5055777Y-10926389D02*
X5046253Y-10888293D01*
X5046253Y-10888293D02*
X5046253Y-10840674D01*
X5046253Y-10840674D02*
X5055777Y-10802579D01*
X5055777Y-10802579D02*
X5065301Y-10783531D01*
X5065301Y-10783531D02*
X5074824Y-10774008D01*
X5074824Y-10774008D02*
X5093872Y-10764484D01*
X5246253Y-10945436D02*
X5255777Y-10954960D01*
X5255777Y-10954960D02*
X5246253Y-10964484D01*
X5246253Y-10964484D02*
X5236729Y-10954960D01*
X5236729Y-10954960D02*
X5246253Y-10945436D01*
X5246253Y-10945436D02*
X5246253Y-10964484D01*
X5351015Y-10964484D02*
X5389110Y-10964484D01*
X5389110Y-10964484D02*
X5408158Y-10954960D01*
X5408158Y-10954960D02*
X5417682Y-10945436D01*
X5417682Y-10945436D02*
X5436729Y-10916865D01*
X5436729Y-10916865D02*
X5446253Y-10878770D01*
X5446253Y-10878770D02*
X5446253Y-10802579D01*
X5446253Y-10802579D02*
X5436729Y-10783531D01*
X5436729Y-10783531D02*
X5427205Y-10774008D01*
X5427205Y-10774008D02*
X5408158Y-10764484D01*
X5408158Y-10764484D02*
X5370063Y-10764484D01*
X5370063Y-10764484D02*
X5351015Y-10774008D01*
X5351015Y-10774008D02*
X5341491Y-10783531D01*
X5341491Y-10783531D02*
X5331967Y-10802579D01*
X5331967Y-10802579D02*
X5331967Y-10850198D01*
X5331967Y-10850198D02*
X5341491Y-10869246D01*
X5341491Y-10869246D02*
X5351015Y-10878770D01*
X5351015Y-10878770D02*
X5370063Y-10888293D01*
X5370063Y-10888293D02*
X5408158Y-10888293D01*
X5408158Y-10888293D02*
X5427205Y-10878770D01*
X5427205Y-10878770D02*
X5436729Y-10869246D01*
X5436729Y-10869246D02*
X5446253Y-10850198D01*
X5570063Y-10764484D02*
X5589110Y-10764484D01*
X5589110Y-10764484D02*
X5608158Y-10774008D01*
X5608158Y-10774008D02*
X5617682Y-10783531D01*
X5617682Y-10783531D02*
X5627205Y-10802579D01*
X5627205Y-10802579D02*
X5636729Y-10840674D01*
X5636729Y-10840674D02*
X5636729Y-10888293D01*
X5636729Y-10888293D02*
X5627205Y-10926389D01*
X5627205Y-10926389D02*
X5617682Y-10945436D01*
X5617682Y-10945436D02*
X5608158Y-10954960D01*
X5608158Y-10954960D02*
X5589110Y-10964484D01*
X5589110Y-10964484D02*
X5570063Y-10964484D01*
X5570063Y-10964484D02*
X5551015Y-10954960D01*
X5551015Y-10954960D02*
X5541491Y-10945436D01*
X5541491Y-10945436D02*
X5531967Y-10926389D01*
X5531967Y-10926389D02*
X5522444Y-10888293D01*
X5522444Y-10888293D02*
X5522444Y-10840674D01*
X5522444Y-10840674D02*
X5531967Y-10802579D01*
X5531967Y-10802579D02*
X5541491Y-10783531D01*
X5541491Y-10783531D02*
X5551015Y-10774008D01*
X5551015Y-10774008D02*
X5570063Y-10764484D01*
X5760539Y-10764484D02*
X5779586Y-10764484D01*
X5779586Y-10764484D02*
X5798634Y-10774008D01*
X5798634Y-10774008D02*
X5808158Y-10783531D01*
X5808158Y-10783531D02*
X5817682Y-10802579D01*
X5817682Y-10802579D02*
X5827205Y-10840674D01*
X5827205Y-10840674D02*
X5827205Y-10888293D01*
X5827205Y-10888293D02*
X5817682Y-10926389D01*
X5817682Y-10926389D02*
X5808158Y-10945436D01*
X5808158Y-10945436D02*
X5798634Y-10954960D01*
X5798634Y-10954960D02*
X5779586Y-10964484D01*
X5779586Y-10964484D02*
X5760539Y-10964484D01*
X5760539Y-10964484D02*
X5741491Y-10954960D01*
X5741491Y-10954960D02*
X5731967Y-10945436D01*
X5731967Y-10945436D02*
X5722443Y-10926389D01*
X5722443Y-10926389D02*
X5712920Y-10888293D01*
X5712920Y-10888293D02*
X5712920Y-10840674D01*
X5712920Y-10840674D02*
X5722443Y-10802579D01*
X5722443Y-10802579D02*
X5731967Y-10783531D01*
X5731967Y-10783531D02*
X5741491Y-10774008D01*
X5741491Y-10774008D02*
X5760539Y-10764484D01*
X5912920Y-10964484D02*
X5912920Y-10831150D01*
X5912920Y-10850198D02*
X5922443Y-10840674D01*
X5922443Y-10840674D02*
X5941491Y-10831150D01*
X5941491Y-10831150D02*
X5970063Y-10831150D01*
X5970063Y-10831150D02*
X5989110Y-10840674D01*
X5989110Y-10840674D02*
X5998634Y-10859722D01*
X5998634Y-10859722D02*
X5998634Y-10964484D01*
X5998634Y-10859722D02*
X6008158Y-10840674D01*
X6008158Y-10840674D02*
X6027205Y-10831150D01*
X6027205Y-10831150D02*
X6055777Y-10831150D01*
X6055777Y-10831150D02*
X6074824Y-10840674D01*
X6074824Y-10840674D02*
X6084348Y-10859722D01*
X6084348Y-10859722D02*
X6084348Y-10964484D01*
X6179586Y-10964484D02*
X6179586Y-10831150D01*
X6179586Y-10850198D02*
X6189110Y-10840674D01*
X6189110Y-10840674D02*
X6208158Y-10831150D01*
X6208158Y-10831150D02*
X6236729Y-10831150D01*
X6236729Y-10831150D02*
X6255777Y-10840674D01*
X6255777Y-10840674D02*
X6265301Y-10859722D01*
X6265301Y-10859722D02*
X6265301Y-10964484D01*
X6265301Y-10859722D02*
X6274824Y-10840674D01*
X6274824Y-10840674D02*
X6293872Y-10831150D01*
X6293872Y-10831150D02*
X6322443Y-10831150D01*
X6322443Y-10831150D02*
X6341491Y-10840674D01*
X6341491Y-10840674D02*
X6351015Y-10859722D01*
X6351015Y-10859722D02*
X6351015Y-10964484D01*
X6741491Y-10754960D02*
X6570063Y-11012103D01*
X6998634Y-10764484D02*
X7017682Y-10764484D01*
X7017682Y-10764484D02*
X7036729Y-10774008D01*
X7036729Y-10774008D02*
X7046253Y-10783531D01*
X7046253Y-10783531D02*
X7055777Y-10802579D01*
X7055777Y-10802579D02*
X7065301Y-10840674D01*
X7065301Y-10840674D02*
X7065301Y-10888293D01*
X7065301Y-10888293D02*
X7055777Y-10926389D01*
X7055777Y-10926389D02*
X7046253Y-10945436D01*
X7046253Y-10945436D02*
X7036729Y-10954960D01*
X7036729Y-10954960D02*
X7017682Y-10964484D01*
X7017682Y-10964484D02*
X6998634Y-10964484D01*
X6998634Y-10964484D02*
X6979586Y-10954960D01*
X6979586Y-10954960D02*
X6970063Y-10945436D01*
X6970063Y-10945436D02*
X6960539Y-10926389D01*
X6960539Y-10926389D02*
X6951015Y-10888293D01*
X6951015Y-10888293D02*
X6951015Y-10840674D01*
X6951015Y-10840674D02*
X6960539Y-10802579D01*
X6960539Y-10802579D02*
X6970063Y-10783531D01*
X6970063Y-10783531D02*
X6979586Y-10774008D01*
X6979586Y-10774008D02*
X6998634Y-10764484D01*
X7151015Y-10945436D02*
X7160539Y-10954960D01*
X7160539Y-10954960D02*
X7151015Y-10964484D01*
X7151015Y-10964484D02*
X7141491Y-10954960D01*
X7141491Y-10954960D02*
X7151015Y-10945436D01*
X7151015Y-10945436D02*
X7151015Y-10964484D01*
X7284348Y-10764484D02*
X7303396Y-10764484D01*
X7303396Y-10764484D02*
X7322444Y-10774008D01*
X7322444Y-10774008D02*
X7331967Y-10783531D01*
X7331967Y-10783531D02*
X7341491Y-10802579D01*
X7341491Y-10802579D02*
X7351015Y-10840674D01*
X7351015Y-10840674D02*
X7351015Y-10888293D01*
X7351015Y-10888293D02*
X7341491Y-10926389D01*
X7341491Y-10926389D02*
X7331967Y-10945436D01*
X7331967Y-10945436D02*
X7322444Y-10954960D01*
X7322444Y-10954960D02*
X7303396Y-10964484D01*
X7303396Y-10964484D02*
X7284348Y-10964484D01*
X7284348Y-10964484D02*
X7265301Y-10954960D01*
X7265301Y-10954960D02*
X7255777Y-10945436D01*
X7255777Y-10945436D02*
X7246253Y-10926389D01*
X7246253Y-10926389D02*
X7236729Y-10888293D01*
X7236729Y-10888293D02*
X7236729Y-10840674D01*
X7236729Y-10840674D02*
X7246253Y-10802579D01*
X7246253Y-10802579D02*
X7255777Y-10783531D01*
X7255777Y-10783531D02*
X7265301Y-10774008D01*
X7265301Y-10774008D02*
X7284348Y-10764484D01*
X7417682Y-10764484D02*
X7541491Y-10764484D01*
X7541491Y-10764484D02*
X7474825Y-10840674D01*
X7474825Y-10840674D02*
X7503396Y-10840674D01*
X7503396Y-10840674D02*
X7522444Y-10850198D01*
X7522444Y-10850198D02*
X7531967Y-10859722D01*
X7531967Y-10859722D02*
X7541491Y-10878770D01*
X7541491Y-10878770D02*
X7541491Y-10926389D01*
X7541491Y-10926389D02*
X7531967Y-10945436D01*
X7531967Y-10945436D02*
X7522444Y-10954960D01*
X7522444Y-10954960D02*
X7503396Y-10964484D01*
X7503396Y-10964484D02*
X7446253Y-10964484D01*
X7446253Y-10964484D02*
X7427206Y-10954960D01*
X7427206Y-10954960D02*
X7417682Y-10945436D01*
X7722444Y-10764484D02*
X7627206Y-10764484D01*
X7627206Y-10764484D02*
X7617682Y-10859722D01*
X7617682Y-10859722D02*
X7627206Y-10850198D01*
X7627206Y-10850198D02*
X7646253Y-10840674D01*
X7646253Y-10840674D02*
X7693872Y-10840674D01*
X7693872Y-10840674D02*
X7712920Y-10850198D01*
X7712920Y-10850198D02*
X7722444Y-10859722D01*
X7722444Y-10859722D02*
X7731967Y-10878770D01*
X7731967Y-10878770D02*
X7731967Y-10926389D01*
X7731967Y-10926389D02*
X7722444Y-10945436D01*
X7722444Y-10945436D02*
X7712920Y-10954960D01*
X7712920Y-10954960D02*
X7693872Y-10964484D01*
X7693872Y-10964484D02*
X7646253Y-10964484D01*
X7646253Y-10964484D02*
X7627206Y-10954960D01*
X7627206Y-10954960D02*
X7617682Y-10945436D01*
X7903396Y-10831150D02*
X7903396Y-10964484D01*
X7855777Y-10754960D02*
X7808158Y-10897817D01*
X7808158Y-10897817D02*
X7931967Y-10897817D01*
X7998634Y-10764484D02*
X7998634Y-10802579D01*
X8074825Y-10764484D02*
X8074825Y-10802579D01*
X8370063Y-11040674D02*
X8360539Y-11031150D01*
X8360539Y-11031150D02*
X8341491Y-11002579D01*
X8341491Y-11002579D02*
X8331968Y-10983531D01*
X8331968Y-10983531D02*
X8322444Y-10954960D01*
X8322444Y-10954960D02*
X8312920Y-10907341D01*
X8312920Y-10907341D02*
X8312920Y-10869246D01*
X8312920Y-10869246D02*
X8322444Y-10821627D01*
X8322444Y-10821627D02*
X8331968Y-10793055D01*
X8331968Y-10793055D02*
X8341491Y-10774008D01*
X8341491Y-10774008D02*
X8360539Y-10745436D01*
X8360539Y-10745436D02*
X8370063Y-10735912D01*
X8474825Y-10850198D02*
X8455777Y-10840674D01*
X8455777Y-10840674D02*
X8446253Y-10831150D01*
X8446253Y-10831150D02*
X8436730Y-10812103D01*
X8436730Y-10812103D02*
X8436730Y-10802579D01*
X8436730Y-10802579D02*
X8446253Y-10783531D01*
X8446253Y-10783531D02*
X8455777Y-10774008D01*
X8455777Y-10774008D02*
X8474825Y-10764484D01*
X8474825Y-10764484D02*
X8512920Y-10764484D01*
X8512920Y-10764484D02*
X8531968Y-10774008D01*
X8531968Y-10774008D02*
X8541491Y-10783531D01*
X8541491Y-10783531D02*
X8551015Y-10802579D01*
X8551015Y-10802579D02*
X8551015Y-10812103D01*
X8551015Y-10812103D02*
X8541491Y-10831150D01*
X8541491Y-10831150D02*
X8531968Y-10840674D01*
X8531968Y-10840674D02*
X8512920Y-10850198D01*
X8512920Y-10850198D02*
X8474825Y-10850198D01*
X8474825Y-10850198D02*
X8455777Y-10859722D01*
X8455777Y-10859722D02*
X8446253Y-10869246D01*
X8446253Y-10869246D02*
X8436730Y-10888293D01*
X8436730Y-10888293D02*
X8436730Y-10926389D01*
X8436730Y-10926389D02*
X8446253Y-10945436D01*
X8446253Y-10945436D02*
X8455777Y-10954960D01*
X8455777Y-10954960D02*
X8474825Y-10964484D01*
X8474825Y-10964484D02*
X8512920Y-10964484D01*
X8512920Y-10964484D02*
X8531968Y-10954960D01*
X8531968Y-10954960D02*
X8541491Y-10945436D01*
X8541491Y-10945436D02*
X8551015Y-10926389D01*
X8551015Y-10926389D02*
X8551015Y-10888293D01*
X8551015Y-10888293D02*
X8541491Y-10869246D01*
X8541491Y-10869246D02*
X8531968Y-10859722D01*
X8531968Y-10859722D02*
X8512920Y-10850198D01*
X8789111Y-10964484D02*
X8789111Y-10764484D01*
X8874825Y-10964484D02*
X8874825Y-10859722D01*
X8874825Y-10859722D02*
X8865301Y-10840674D01*
X8865301Y-10840674D02*
X8846253Y-10831150D01*
X8846253Y-10831150D02*
X8817682Y-10831150D01*
X8817682Y-10831150D02*
X8798634Y-10840674D01*
X8798634Y-10840674D02*
X8789111Y-10850198D01*
X8998634Y-10964484D02*
X8979587Y-10954960D01*
X8979587Y-10954960D02*
X8970063Y-10945436D01*
X8970063Y-10945436D02*
X8960539Y-10926389D01*
X8960539Y-10926389D02*
X8960539Y-10869246D01*
X8960539Y-10869246D02*
X8970063Y-10850198D01*
X8970063Y-10850198D02*
X8979587Y-10840674D01*
X8979587Y-10840674D02*
X8998634Y-10831150D01*
X8998634Y-10831150D02*
X9027206Y-10831150D01*
X9027206Y-10831150D02*
X9046253Y-10840674D01*
X9046253Y-10840674D02*
X9055777Y-10850198D01*
X9055777Y-10850198D02*
X9065301Y-10869246D01*
X9065301Y-10869246D02*
X9065301Y-10926389D01*
X9065301Y-10926389D02*
X9055777Y-10945436D01*
X9055777Y-10945436D02*
X9046253Y-10954960D01*
X9046253Y-10954960D02*
X9027206Y-10964484D01*
X9027206Y-10964484D02*
X8998634Y-10964484D01*
X9179587Y-10964484D02*
X9160539Y-10954960D01*
X9160539Y-10954960D02*
X9151015Y-10935912D01*
X9151015Y-10935912D02*
X9151015Y-10764484D01*
X9331968Y-10954960D02*
X9312920Y-10964484D01*
X9312920Y-10964484D02*
X9274825Y-10964484D01*
X9274825Y-10964484D02*
X9255777Y-10954960D01*
X9255777Y-10954960D02*
X9246253Y-10935912D01*
X9246253Y-10935912D02*
X9246253Y-10859722D01*
X9246253Y-10859722D02*
X9255777Y-10840674D01*
X9255777Y-10840674D02*
X9274825Y-10831150D01*
X9274825Y-10831150D02*
X9312920Y-10831150D01*
X9312920Y-10831150D02*
X9331968Y-10840674D01*
X9331968Y-10840674D02*
X9341492Y-10859722D01*
X9341492Y-10859722D02*
X9341492Y-10878770D01*
X9341492Y-10878770D02*
X9246253Y-10897817D01*
X9417682Y-10954960D02*
X9436730Y-10964484D01*
X9436730Y-10964484D02*
X9474825Y-10964484D01*
X9474825Y-10964484D02*
X9493873Y-10954960D01*
X9493873Y-10954960D02*
X9503396Y-10935912D01*
X9503396Y-10935912D02*
X9503396Y-10926389D01*
X9503396Y-10926389D02*
X9493873Y-10907341D01*
X9493873Y-10907341D02*
X9474825Y-10897817D01*
X9474825Y-10897817D02*
X9446253Y-10897817D01*
X9446253Y-10897817D02*
X9427206Y-10888293D01*
X9427206Y-10888293D02*
X9417682Y-10869246D01*
X9417682Y-10869246D02*
X9417682Y-10859722D01*
X9417682Y-10859722D02*
X9427206Y-10840674D01*
X9427206Y-10840674D02*
X9446253Y-10831150D01*
X9446253Y-10831150D02*
X9474825Y-10831150D01*
X9474825Y-10831150D02*
X9493873Y-10840674D01*
X9570063Y-11040674D02*
X9579587Y-11031150D01*
X9579587Y-11031150D02*
X9598634Y-11002579D01*
X9598634Y-11002579D02*
X9608158Y-10983531D01*
X9608158Y-10983531D02*
X9617682Y-10954960D01*
X9617682Y-10954960D02*
X9627206Y-10907341D01*
X9627206Y-10907341D02*
X9627206Y-10869246D01*
X9627206Y-10869246D02*
X9617682Y-10821627D01*
X9617682Y-10821627D02*
X9608158Y-10793055D01*
X9608158Y-10793055D02*
X9598634Y-10774008D01*
X9598634Y-10774008D02*
X9579587Y-10745436D01*
X9579587Y-10745436D02*
X9570063Y-10735912D01*
D11*
X4780356Y-11172356D02*
X4780356Y-11101644D01*
X4709644Y-11101644D01*
X4709644Y-11172356D01*
X4780356Y-11172356D01*
D12*
X5160539Y-11228484D02*
X5046253Y-11228484D01*
X5103396Y-11228484D02*
X5103396Y-11028484D01*
X5103396Y-11028484D02*
X5084348Y-11057055D01*
X5084348Y-11057055D02*
X5065301Y-11076103D01*
X5065301Y-11076103D02*
X5046253Y-11085627D01*
X5246253Y-11209436D02*
X5255777Y-11218960D01*
X5255777Y-11218960D02*
X5246253Y-11228484D01*
X5246253Y-11228484D02*
X5236729Y-11218960D01*
X5236729Y-11218960D02*
X5246253Y-11209436D01*
X5246253Y-11209436D02*
X5246253Y-11228484D01*
X5379586Y-11028484D02*
X5398634Y-11028484D01*
X5398634Y-11028484D02*
X5417682Y-11038008D01*
X5417682Y-11038008D02*
X5427205Y-11047531D01*
X5427205Y-11047531D02*
X5436729Y-11066579D01*
X5436729Y-11066579D02*
X5446253Y-11104674D01*
X5446253Y-11104674D02*
X5446253Y-11152293D01*
X5446253Y-11152293D02*
X5436729Y-11190388D01*
X5436729Y-11190388D02*
X5427205Y-11209436D01*
X5427205Y-11209436D02*
X5417682Y-11218960D01*
X5417682Y-11218960D02*
X5398634Y-11228484D01*
X5398634Y-11228484D02*
X5379586Y-11228484D01*
X5379586Y-11228484D02*
X5360539Y-11218960D01*
X5360539Y-11218960D02*
X5351015Y-11209436D01*
X5351015Y-11209436D02*
X5341491Y-11190388D01*
X5341491Y-11190388D02*
X5331967Y-11152293D01*
X5331967Y-11152293D02*
X5331967Y-11104674D01*
X5331967Y-11104674D02*
X5341491Y-11066579D01*
X5341491Y-11066579D02*
X5351015Y-11047531D01*
X5351015Y-11047531D02*
X5360539Y-11038008D01*
X5360539Y-11038008D02*
X5379586Y-11028484D01*
X5570063Y-11028484D02*
X5589110Y-11028484D01*
X5589110Y-11028484D02*
X5608158Y-11038008D01*
X5608158Y-11038008D02*
X5617682Y-11047531D01*
X5617682Y-11047531D02*
X5627205Y-11066579D01*
X5627205Y-11066579D02*
X5636729Y-11104674D01*
X5636729Y-11104674D02*
X5636729Y-11152293D01*
X5636729Y-11152293D02*
X5627205Y-11190388D01*
X5627205Y-11190388D02*
X5617682Y-11209436D01*
X5617682Y-11209436D02*
X5608158Y-11218960D01*
X5608158Y-11218960D02*
X5589110Y-11228484D01*
X5589110Y-11228484D02*
X5570063Y-11228484D01*
X5570063Y-11228484D02*
X5551015Y-11218960D01*
X5551015Y-11218960D02*
X5541491Y-11209436D01*
X5541491Y-11209436D02*
X5531967Y-11190388D01*
X5531967Y-11190388D02*
X5522444Y-11152293D01*
X5522444Y-11152293D02*
X5522444Y-11104674D01*
X5522444Y-11104674D02*
X5531967Y-11066579D01*
X5531967Y-11066579D02*
X5541491Y-11047531D01*
X5541491Y-11047531D02*
X5551015Y-11038008D01*
X5551015Y-11038008D02*
X5570063Y-11028484D01*
X5760539Y-11028484D02*
X5779586Y-11028484D01*
X5779586Y-11028484D02*
X5798634Y-11038008D01*
X5798634Y-11038008D02*
X5808158Y-11047531D01*
X5808158Y-11047531D02*
X5817682Y-11066579D01*
X5817682Y-11066579D02*
X5827205Y-11104674D01*
X5827205Y-11104674D02*
X5827205Y-11152293D01*
X5827205Y-11152293D02*
X5817682Y-11190388D01*
X5817682Y-11190388D02*
X5808158Y-11209436D01*
X5808158Y-11209436D02*
X5798634Y-11218960D01*
X5798634Y-11218960D02*
X5779586Y-11228484D01*
X5779586Y-11228484D02*
X5760539Y-11228484D01*
X5760539Y-11228484D02*
X5741491Y-11218960D01*
X5741491Y-11218960D02*
X5731967Y-11209436D01*
X5731967Y-11209436D02*
X5722443Y-11190388D01*
X5722443Y-11190388D02*
X5712920Y-11152293D01*
X5712920Y-11152293D02*
X5712920Y-11104674D01*
X5712920Y-11104674D02*
X5722443Y-11066579D01*
X5722443Y-11066579D02*
X5731967Y-11047531D01*
X5731967Y-11047531D02*
X5741491Y-11038008D01*
X5741491Y-11038008D02*
X5760539Y-11028484D01*
X5912920Y-11228484D02*
X5912920Y-11095150D01*
X5912920Y-11114198D02*
X5922443Y-11104674D01*
X5922443Y-11104674D02*
X5941491Y-11095150D01*
X5941491Y-11095150D02*
X5970063Y-11095150D01*
X5970063Y-11095150D02*
X5989110Y-11104674D01*
X5989110Y-11104674D02*
X5998634Y-11123722D01*
X5998634Y-11123722D02*
X5998634Y-11228484D01*
X5998634Y-11123722D02*
X6008158Y-11104674D01*
X6008158Y-11104674D02*
X6027205Y-11095150D01*
X6027205Y-11095150D02*
X6055777Y-11095150D01*
X6055777Y-11095150D02*
X6074824Y-11104674D01*
X6074824Y-11104674D02*
X6084348Y-11123722D01*
X6084348Y-11123722D02*
X6084348Y-11228484D01*
X6179586Y-11228484D02*
X6179586Y-11095150D01*
X6179586Y-11114198D02*
X6189110Y-11104674D01*
X6189110Y-11104674D02*
X6208158Y-11095150D01*
X6208158Y-11095150D02*
X6236729Y-11095150D01*
X6236729Y-11095150D02*
X6255777Y-11104674D01*
X6255777Y-11104674D02*
X6265301Y-11123722D01*
X6265301Y-11123722D02*
X6265301Y-11228484D01*
X6265301Y-11123722D02*
X6274824Y-11104674D01*
X6274824Y-11104674D02*
X6293872Y-11095150D01*
X6293872Y-11095150D02*
X6322443Y-11095150D01*
X6322443Y-11095150D02*
X6341491Y-11104674D01*
X6341491Y-11104674D02*
X6351015Y-11123722D01*
X6351015Y-11123722D02*
X6351015Y-11228484D01*
X6741491Y-11018960D02*
X6570063Y-11276103D01*
X6998634Y-11028484D02*
X7017682Y-11028484D01*
X7017682Y-11028484D02*
X7036729Y-11038008D01*
X7036729Y-11038008D02*
X7046253Y-11047531D01*
X7046253Y-11047531D02*
X7055777Y-11066579D01*
X7055777Y-11066579D02*
X7065301Y-11104674D01*
X7065301Y-11104674D02*
X7065301Y-11152293D01*
X7065301Y-11152293D02*
X7055777Y-11190388D01*
X7055777Y-11190388D02*
X7046253Y-11209436D01*
X7046253Y-11209436D02*
X7036729Y-11218960D01*
X7036729Y-11218960D02*
X7017682Y-11228484D01*
X7017682Y-11228484D02*
X6998634Y-11228484D01*
X6998634Y-11228484D02*
X6979586Y-11218960D01*
X6979586Y-11218960D02*
X6970063Y-11209436D01*
X6970063Y-11209436D02*
X6960539Y-11190388D01*
X6960539Y-11190388D02*
X6951015Y-11152293D01*
X6951015Y-11152293D02*
X6951015Y-11104674D01*
X6951015Y-11104674D02*
X6960539Y-11066579D01*
X6960539Y-11066579D02*
X6970063Y-11047531D01*
X6970063Y-11047531D02*
X6979586Y-11038008D01*
X6979586Y-11038008D02*
X6998634Y-11028484D01*
X7151015Y-11209436D02*
X7160539Y-11218960D01*
X7160539Y-11218960D02*
X7151015Y-11228484D01*
X7151015Y-11228484D02*
X7141491Y-11218960D01*
X7141491Y-11218960D02*
X7151015Y-11209436D01*
X7151015Y-11209436D02*
X7151015Y-11228484D01*
X7284348Y-11028484D02*
X7303396Y-11028484D01*
X7303396Y-11028484D02*
X7322444Y-11038008D01*
X7322444Y-11038008D02*
X7331967Y-11047531D01*
X7331967Y-11047531D02*
X7341491Y-11066579D01*
X7341491Y-11066579D02*
X7351015Y-11104674D01*
X7351015Y-11104674D02*
X7351015Y-11152293D01*
X7351015Y-11152293D02*
X7341491Y-11190388D01*
X7341491Y-11190388D02*
X7331967Y-11209436D01*
X7331967Y-11209436D02*
X7322444Y-11218960D01*
X7322444Y-11218960D02*
X7303396Y-11228484D01*
X7303396Y-11228484D02*
X7284348Y-11228484D01*
X7284348Y-11228484D02*
X7265301Y-11218960D01*
X7265301Y-11218960D02*
X7255777Y-11209436D01*
X7255777Y-11209436D02*
X7246253Y-11190388D01*
X7246253Y-11190388D02*
X7236729Y-11152293D01*
X7236729Y-11152293D02*
X7236729Y-11104674D01*
X7236729Y-11104674D02*
X7246253Y-11066579D01*
X7246253Y-11066579D02*
X7255777Y-11047531D01*
X7255777Y-11047531D02*
X7265301Y-11038008D01*
X7265301Y-11038008D02*
X7284348Y-11028484D01*
X7417682Y-11028484D02*
X7541491Y-11028484D01*
X7541491Y-11028484D02*
X7474825Y-11104674D01*
X7474825Y-11104674D02*
X7503396Y-11104674D01*
X7503396Y-11104674D02*
X7522444Y-11114198D01*
X7522444Y-11114198D02*
X7531967Y-11123722D01*
X7531967Y-11123722D02*
X7541491Y-11142770D01*
X7541491Y-11142770D02*
X7541491Y-11190388D01*
X7541491Y-11190388D02*
X7531967Y-11209436D01*
X7531967Y-11209436D02*
X7522444Y-11218960D01*
X7522444Y-11218960D02*
X7503396Y-11228484D01*
X7503396Y-11228484D02*
X7446253Y-11228484D01*
X7446253Y-11228484D02*
X7427206Y-11218960D01*
X7427206Y-11218960D02*
X7417682Y-11209436D01*
X7636729Y-11228484D02*
X7674825Y-11228484D01*
X7674825Y-11228484D02*
X7693872Y-11218960D01*
X7693872Y-11218960D02*
X7703396Y-11209436D01*
X7703396Y-11209436D02*
X7722444Y-11180865D01*
X7722444Y-11180865D02*
X7731967Y-11142770D01*
X7731967Y-11142770D02*
X7731967Y-11066579D01*
X7731967Y-11066579D02*
X7722444Y-11047531D01*
X7722444Y-11047531D02*
X7712920Y-11038008D01*
X7712920Y-11038008D02*
X7693872Y-11028484D01*
X7693872Y-11028484D02*
X7655777Y-11028484D01*
X7655777Y-11028484D02*
X7636729Y-11038008D01*
X7636729Y-11038008D02*
X7627206Y-11047531D01*
X7627206Y-11047531D02*
X7617682Y-11066579D01*
X7617682Y-11066579D02*
X7617682Y-11114198D01*
X7617682Y-11114198D02*
X7627206Y-11133246D01*
X7627206Y-11133246D02*
X7636729Y-11142770D01*
X7636729Y-11142770D02*
X7655777Y-11152293D01*
X7655777Y-11152293D02*
X7693872Y-11152293D01*
X7693872Y-11152293D02*
X7712920Y-11142770D01*
X7712920Y-11142770D02*
X7722444Y-11133246D01*
X7722444Y-11133246D02*
X7731967Y-11114198D01*
X7903396Y-11095150D02*
X7903396Y-11228484D01*
X7855777Y-11018960D02*
X7808158Y-11161817D01*
X7808158Y-11161817D02*
X7931967Y-11161817D01*
X7998634Y-11028484D02*
X7998634Y-11066579D01*
X8074825Y-11028484D02*
X8074825Y-11066579D01*
X8370063Y-11304674D02*
X8360539Y-11295150D01*
X8360539Y-11295150D02*
X8341491Y-11266579D01*
X8341491Y-11266579D02*
X8331968Y-11247531D01*
X8331968Y-11247531D02*
X8322444Y-11218960D01*
X8322444Y-11218960D02*
X8312920Y-11171341D01*
X8312920Y-11171341D02*
X8312920Y-11133246D01*
X8312920Y-11133246D02*
X8322444Y-11085627D01*
X8322444Y-11085627D02*
X8331968Y-11057055D01*
X8331968Y-11057055D02*
X8341491Y-11038008D01*
X8341491Y-11038008D02*
X8360539Y-11009436D01*
X8360539Y-11009436D02*
X8370063Y-10999912D01*
X8531968Y-11095150D02*
X8531968Y-11228484D01*
X8484349Y-11018960D02*
X8436730Y-11161817D01*
X8436730Y-11161817D02*
X8560539Y-11161817D01*
X8646253Y-11228484D02*
X8684349Y-11228484D01*
X8684349Y-11228484D02*
X8703396Y-11218960D01*
X8703396Y-11218960D02*
X8712920Y-11209436D01*
X8712920Y-11209436D02*
X8731968Y-11180865D01*
X8731968Y-11180865D02*
X8741491Y-11142770D01*
X8741491Y-11142770D02*
X8741491Y-11066579D01*
X8741491Y-11066579D02*
X8731968Y-11047531D01*
X8731968Y-11047531D02*
X8722444Y-11038008D01*
X8722444Y-11038008D02*
X8703396Y-11028484D01*
X8703396Y-11028484D02*
X8665301Y-11028484D01*
X8665301Y-11028484D02*
X8646253Y-11038008D01*
X8646253Y-11038008D02*
X8636730Y-11047531D01*
X8636730Y-11047531D02*
X8627206Y-11066579D01*
X8627206Y-11066579D02*
X8627206Y-11114198D01*
X8627206Y-11114198D02*
X8636730Y-11133246D01*
X8636730Y-11133246D02*
X8646253Y-11142770D01*
X8646253Y-11142770D02*
X8665301Y-11152293D01*
X8665301Y-11152293D02*
X8703396Y-11152293D01*
X8703396Y-11152293D02*
X8722444Y-11142770D01*
X8722444Y-11142770D02*
X8731968Y-11133246D01*
X8731968Y-11133246D02*
X8741491Y-11114198D01*
X8979587Y-11228484D02*
X8979587Y-11028484D01*
X9065301Y-11228484D02*
X9065301Y-11123722D01*
X9065301Y-11123722D02*
X9055777Y-11104674D01*
X9055777Y-11104674D02*
X9036730Y-11095150D01*
X9036730Y-11095150D02*
X9008158Y-11095150D01*
X9008158Y-11095150D02*
X8989111Y-11104674D01*
X8989111Y-11104674D02*
X8979587Y-11114198D01*
X9189111Y-11228484D02*
X9170063Y-11218960D01*
X9170063Y-11218960D02*
X9160539Y-11209436D01*
X9160539Y-11209436D02*
X9151015Y-11190388D01*
X9151015Y-11190388D02*
X9151015Y-11133246D01*
X9151015Y-11133246D02*
X9160539Y-11114198D01*
X9160539Y-11114198D02*
X9170063Y-11104674D01*
X9170063Y-11104674D02*
X9189111Y-11095150D01*
X9189111Y-11095150D02*
X9217682Y-11095150D01*
X9217682Y-11095150D02*
X9236730Y-11104674D01*
X9236730Y-11104674D02*
X9246253Y-11114198D01*
X9246253Y-11114198D02*
X9255777Y-11133246D01*
X9255777Y-11133246D02*
X9255777Y-11190388D01*
X9255777Y-11190388D02*
X9246253Y-11209436D01*
X9246253Y-11209436D02*
X9236730Y-11218960D01*
X9236730Y-11218960D02*
X9217682Y-11228484D01*
X9217682Y-11228484D02*
X9189111Y-11228484D01*
X9370063Y-11228484D02*
X9351015Y-11218960D01*
X9351015Y-11218960D02*
X9341492Y-11199912D01*
X9341492Y-11199912D02*
X9341492Y-11028484D01*
X9522444Y-11218960D02*
X9503396Y-11228484D01*
X9503396Y-11228484D02*
X9465301Y-11228484D01*
X9465301Y-11228484D02*
X9446253Y-11218960D01*
X9446253Y-11218960D02*
X9436730Y-11199912D01*
X9436730Y-11199912D02*
X9436730Y-11123722D01*
X9436730Y-11123722D02*
X9446253Y-11104674D01*
X9446253Y-11104674D02*
X9465301Y-11095150D01*
X9465301Y-11095150D02*
X9503396Y-11095150D01*
X9503396Y-11095150D02*
X9522444Y-11104674D01*
X9522444Y-11104674D02*
X9531968Y-11123722D01*
X9531968Y-11123722D02*
X9531968Y-11142770D01*
X9531968Y-11142770D02*
X9436730Y-11161817D01*
X9608158Y-11218960D02*
X9627206Y-11228484D01*
X9627206Y-11228484D02*
X9665301Y-11228484D01*
X9665301Y-11228484D02*
X9684349Y-11218960D01*
X9684349Y-11218960D02*
X9693873Y-11199912D01*
X9693873Y-11199912D02*
X9693873Y-11190388D01*
X9693873Y-11190388D02*
X9684349Y-11171341D01*
X9684349Y-11171341D02*
X9665301Y-11161817D01*
X9665301Y-11161817D02*
X9636730Y-11161817D01*
X9636730Y-11161817D02*
X9617682Y-11152293D01*
X9617682Y-11152293D02*
X9608158Y-11133246D01*
X9608158Y-11133246D02*
X9608158Y-11123722D01*
X9608158Y-11123722D02*
X9617682Y-11104674D01*
X9617682Y-11104674D02*
X9636730Y-11095150D01*
X9636730Y-11095150D02*
X9665301Y-11095150D01*
X9665301Y-11095150D02*
X9684349Y-11104674D01*
X9931968Y-11152293D02*
X10084349Y-11152293D01*
X10008158Y-11228484D02*
X10008158Y-11076103D01*
X10417682Y-11028484D02*
X10379587Y-11028484D01*
X10379587Y-11028484D02*
X10360539Y-11038008D01*
X10360539Y-11038008D02*
X10351015Y-11047531D01*
X10351015Y-11047531D02*
X10331968Y-11076103D01*
X10331968Y-11076103D02*
X10322444Y-11114198D01*
X10322444Y-11114198D02*
X10322444Y-11190388D01*
X10322444Y-11190388D02*
X10331968Y-11209436D01*
X10331968Y-11209436D02*
X10341492Y-11218960D01*
X10341492Y-11218960D02*
X10360539Y-11228484D01*
X10360539Y-11228484D02*
X10398635Y-11228484D01*
X10398635Y-11228484D02*
X10417682Y-11218960D01*
X10417682Y-11218960D02*
X10427206Y-11209436D01*
X10427206Y-11209436D02*
X10436730Y-11190388D01*
X10436730Y-11190388D02*
X10436730Y-11142770D01*
X10436730Y-11142770D02*
X10427206Y-11123722D01*
X10427206Y-11123722D02*
X10417682Y-11114198D01*
X10417682Y-11114198D02*
X10398635Y-11104674D01*
X10398635Y-11104674D02*
X10360539Y-11104674D01*
X10360539Y-11104674D02*
X10341492Y-11114198D01*
X10341492Y-11114198D02*
X10331968Y-11123722D01*
X10331968Y-11123722D02*
X10322444Y-11142770D01*
X10665301Y-11218960D02*
X10684349Y-11228484D01*
X10684349Y-11228484D02*
X10722444Y-11228484D01*
X10722444Y-11228484D02*
X10741492Y-11218960D01*
X10741492Y-11218960D02*
X10751016Y-11199912D01*
X10751016Y-11199912D02*
X10751016Y-11190388D01*
X10751016Y-11190388D02*
X10741492Y-11171341D01*
X10741492Y-11171341D02*
X10722444Y-11161817D01*
X10722444Y-11161817D02*
X10693873Y-11161817D01*
X10693873Y-11161817D02*
X10674825Y-11152293D01*
X10674825Y-11152293D02*
X10665301Y-11133246D01*
X10665301Y-11133246D02*
X10665301Y-11123722D01*
X10665301Y-11123722D02*
X10674825Y-11104674D01*
X10674825Y-11104674D02*
X10693873Y-11095150D01*
X10693873Y-11095150D02*
X10722444Y-11095150D01*
X10722444Y-11095150D02*
X10741492Y-11104674D01*
X10865301Y-11228484D02*
X10846254Y-11218960D01*
X10846254Y-11218960D02*
X10836730Y-11199912D01*
X10836730Y-11199912D02*
X10836730Y-11028484D01*
X10970063Y-11228484D02*
X10951016Y-11218960D01*
X10951016Y-11218960D02*
X10941492Y-11209436D01*
X10941492Y-11209436D02*
X10931968Y-11190388D01*
X10931968Y-11190388D02*
X10931968Y-11133246D01*
X10931968Y-11133246D02*
X10941492Y-11114198D01*
X10941492Y-11114198D02*
X10951016Y-11104674D01*
X10951016Y-11104674D02*
X10970063Y-11095150D01*
X10970063Y-11095150D02*
X10998635Y-11095150D01*
X10998635Y-11095150D02*
X11017682Y-11104674D01*
X11017682Y-11104674D02*
X11027206Y-11114198D01*
X11027206Y-11114198D02*
X11036730Y-11133246D01*
X11036730Y-11133246D02*
X11036730Y-11190388D01*
X11036730Y-11190388D02*
X11027206Y-11209436D01*
X11027206Y-11209436D02*
X11017682Y-11218960D01*
X11017682Y-11218960D02*
X10998635Y-11228484D01*
X10998635Y-11228484D02*
X10970063Y-11228484D01*
X11093873Y-11095150D02*
X11170063Y-11095150D01*
X11122444Y-11028484D02*
X11122444Y-11199912D01*
X11122444Y-11199912D02*
X11131968Y-11218960D01*
X11131968Y-11218960D02*
X11151016Y-11228484D01*
X11151016Y-11228484D02*
X11170063Y-11228484D01*
X11227206Y-11218960D02*
X11246254Y-11228484D01*
X11246254Y-11228484D02*
X11284349Y-11228484D01*
X11284349Y-11228484D02*
X11303396Y-11218960D01*
X11303396Y-11218960D02*
X11312920Y-11199912D01*
X11312920Y-11199912D02*
X11312920Y-11190388D01*
X11312920Y-11190388D02*
X11303396Y-11171341D01*
X11303396Y-11171341D02*
X11284349Y-11161817D01*
X11284349Y-11161817D02*
X11255777Y-11161817D01*
X11255777Y-11161817D02*
X11236730Y-11152293D01*
X11236730Y-11152293D02*
X11227206Y-11133246D01*
X11227206Y-11133246D02*
X11227206Y-11123722D01*
X11227206Y-11123722D02*
X11236730Y-11104674D01*
X11236730Y-11104674D02*
X11255777Y-11095150D01*
X11255777Y-11095150D02*
X11284349Y-11095150D01*
X11284349Y-11095150D02*
X11303396Y-11104674D01*
X11379587Y-11304674D02*
X11389111Y-11295150D01*
X11389111Y-11295150D02*
X11408158Y-11266579D01*
X11408158Y-11266579D02*
X11417682Y-11247531D01*
X11417682Y-11247531D02*
X11427206Y-11218960D01*
X11427206Y-11218960D02*
X11436730Y-11171341D01*
X11436730Y-11171341D02*
X11436730Y-11133246D01*
X11436730Y-11133246D02*
X11427206Y-11085627D01*
X11427206Y-11085627D02*
X11417682Y-11057055D01*
X11417682Y-11057055D02*
X11408158Y-11038008D01*
X11408158Y-11038008D02*
X11389111Y-11009436D01*
X11389111Y-11009436D02*
X11379587Y-10999912D01*
D13*
X4740500Y-11455500D02*
X4795000Y-11401000D01*
X4740500Y-11346500D01*
X4686000Y-11401000D01*
X4740500Y-11455500D01*
D12*
X5160539Y-11492484D02*
X5046253Y-11492484D01*
X5103396Y-11492484D02*
X5103396Y-11292484D01*
X5103396Y-11292484D02*
X5084348Y-11321055D01*
X5084348Y-11321055D02*
X5065301Y-11340103D01*
X5065301Y-11340103D02*
X5046253Y-11349627D01*
X5246253Y-11473436D02*
X5255777Y-11482960D01*
X5255777Y-11482960D02*
X5246253Y-11492484D01*
X5246253Y-11492484D02*
X5236729Y-11482960D01*
X5236729Y-11482960D02*
X5246253Y-11473436D01*
X5246253Y-11473436D02*
X5246253Y-11492484D01*
X5379586Y-11292484D02*
X5398634Y-11292484D01*
X5398634Y-11292484D02*
X5417682Y-11302008D01*
X5417682Y-11302008D02*
X5427205Y-11311531D01*
X5427205Y-11311531D02*
X5436729Y-11330579D01*
X5436729Y-11330579D02*
X5446253Y-11368674D01*
X5446253Y-11368674D02*
X5446253Y-11416293D01*
X5446253Y-11416293D02*
X5436729Y-11454388D01*
X5436729Y-11454388D02*
X5427205Y-11473436D01*
X5427205Y-11473436D02*
X5417682Y-11482960D01*
X5417682Y-11482960D02*
X5398634Y-11492484D01*
X5398634Y-11492484D02*
X5379586Y-11492484D01*
X5379586Y-11492484D02*
X5360539Y-11482960D01*
X5360539Y-11482960D02*
X5351015Y-11473436D01*
X5351015Y-11473436D02*
X5341491Y-11454388D01*
X5341491Y-11454388D02*
X5331967Y-11416293D01*
X5331967Y-11416293D02*
X5331967Y-11368674D01*
X5331967Y-11368674D02*
X5341491Y-11330579D01*
X5341491Y-11330579D02*
X5351015Y-11311531D01*
X5351015Y-11311531D02*
X5360539Y-11302008D01*
X5360539Y-11302008D02*
X5379586Y-11292484D01*
X5541491Y-11492484D02*
X5579586Y-11492484D01*
X5579586Y-11492484D02*
X5598634Y-11482960D01*
X5598634Y-11482960D02*
X5608158Y-11473436D01*
X5608158Y-11473436D02*
X5627205Y-11444865D01*
X5627205Y-11444865D02*
X5636729Y-11406769D01*
X5636729Y-11406769D02*
X5636729Y-11330579D01*
X5636729Y-11330579D02*
X5627205Y-11311531D01*
X5627205Y-11311531D02*
X5617682Y-11302008D01*
X5617682Y-11302008D02*
X5598634Y-11292484D01*
X5598634Y-11292484D02*
X5560539Y-11292484D01*
X5560539Y-11292484D02*
X5541491Y-11302008D01*
X5541491Y-11302008D02*
X5531967Y-11311531D01*
X5531967Y-11311531D02*
X5522444Y-11330579D01*
X5522444Y-11330579D02*
X5522444Y-11378198D01*
X5522444Y-11378198D02*
X5531967Y-11397246D01*
X5531967Y-11397246D02*
X5541491Y-11406769D01*
X5541491Y-11406769D02*
X5560539Y-11416293D01*
X5560539Y-11416293D02*
X5598634Y-11416293D01*
X5598634Y-11416293D02*
X5617682Y-11406769D01*
X5617682Y-11406769D02*
X5627205Y-11397246D01*
X5627205Y-11397246D02*
X5636729Y-11378198D01*
X5760539Y-11292484D02*
X5779586Y-11292484D01*
X5779586Y-11292484D02*
X5798634Y-11302008D01*
X5798634Y-11302008D02*
X5808158Y-11311531D01*
X5808158Y-11311531D02*
X5817682Y-11330579D01*
X5817682Y-11330579D02*
X5827205Y-11368674D01*
X5827205Y-11368674D02*
X5827205Y-11416293D01*
X5827205Y-11416293D02*
X5817682Y-11454388D01*
X5817682Y-11454388D02*
X5808158Y-11473436D01*
X5808158Y-11473436D02*
X5798634Y-11482960D01*
X5798634Y-11482960D02*
X5779586Y-11492484D01*
X5779586Y-11492484D02*
X5760539Y-11492484D01*
X5760539Y-11492484D02*
X5741491Y-11482960D01*
X5741491Y-11482960D02*
X5731967Y-11473436D01*
X5731967Y-11473436D02*
X5722443Y-11454388D01*
X5722443Y-11454388D02*
X5712920Y-11416293D01*
X5712920Y-11416293D02*
X5712920Y-11368674D01*
X5712920Y-11368674D02*
X5722443Y-11330579D01*
X5722443Y-11330579D02*
X5731967Y-11311531D01*
X5731967Y-11311531D02*
X5741491Y-11302008D01*
X5741491Y-11302008D02*
X5760539Y-11292484D01*
X5912920Y-11492484D02*
X5912920Y-11359150D01*
X5912920Y-11378198D02*
X5922443Y-11368674D01*
X5922443Y-11368674D02*
X5941491Y-11359150D01*
X5941491Y-11359150D02*
X5970063Y-11359150D01*
X5970063Y-11359150D02*
X5989110Y-11368674D01*
X5989110Y-11368674D02*
X5998634Y-11387722D01*
X5998634Y-11387722D02*
X5998634Y-11492484D01*
X5998634Y-11387722D02*
X6008158Y-11368674D01*
X6008158Y-11368674D02*
X6027205Y-11359150D01*
X6027205Y-11359150D02*
X6055777Y-11359150D01*
X6055777Y-11359150D02*
X6074824Y-11368674D01*
X6074824Y-11368674D02*
X6084348Y-11387722D01*
X6084348Y-11387722D02*
X6084348Y-11492484D01*
X6179586Y-11492484D02*
X6179586Y-11359150D01*
X6179586Y-11378198D02*
X6189110Y-11368674D01*
X6189110Y-11368674D02*
X6208158Y-11359150D01*
X6208158Y-11359150D02*
X6236729Y-11359150D01*
X6236729Y-11359150D02*
X6255777Y-11368674D01*
X6255777Y-11368674D02*
X6265301Y-11387722D01*
X6265301Y-11387722D02*
X6265301Y-11492484D01*
X6265301Y-11387722D02*
X6274824Y-11368674D01*
X6274824Y-11368674D02*
X6293872Y-11359150D01*
X6293872Y-11359150D02*
X6322443Y-11359150D01*
X6322443Y-11359150D02*
X6341491Y-11368674D01*
X6341491Y-11368674D02*
X6351015Y-11387722D01*
X6351015Y-11387722D02*
X6351015Y-11492484D01*
X6741491Y-11282960D02*
X6570063Y-11540103D01*
X6998634Y-11292484D02*
X7017682Y-11292484D01*
X7017682Y-11292484D02*
X7036729Y-11302008D01*
X7036729Y-11302008D02*
X7046253Y-11311531D01*
X7046253Y-11311531D02*
X7055777Y-11330579D01*
X7055777Y-11330579D02*
X7065301Y-11368674D01*
X7065301Y-11368674D02*
X7065301Y-11416293D01*
X7065301Y-11416293D02*
X7055777Y-11454388D01*
X7055777Y-11454388D02*
X7046253Y-11473436D01*
X7046253Y-11473436D02*
X7036729Y-11482960D01*
X7036729Y-11482960D02*
X7017682Y-11492484D01*
X7017682Y-11492484D02*
X6998634Y-11492484D01*
X6998634Y-11492484D02*
X6979586Y-11482960D01*
X6979586Y-11482960D02*
X6970063Y-11473436D01*
X6970063Y-11473436D02*
X6960539Y-11454388D01*
X6960539Y-11454388D02*
X6951015Y-11416293D01*
X6951015Y-11416293D02*
X6951015Y-11368674D01*
X6951015Y-11368674D02*
X6960539Y-11330579D01*
X6960539Y-11330579D02*
X6970063Y-11311531D01*
X6970063Y-11311531D02*
X6979586Y-11302008D01*
X6979586Y-11302008D02*
X6998634Y-11292484D01*
X7151015Y-11473436D02*
X7160539Y-11482960D01*
X7160539Y-11482960D02*
X7151015Y-11492484D01*
X7151015Y-11492484D02*
X7141491Y-11482960D01*
X7141491Y-11482960D02*
X7151015Y-11473436D01*
X7151015Y-11473436D02*
X7151015Y-11492484D01*
X7284348Y-11292484D02*
X7303396Y-11292484D01*
X7303396Y-11292484D02*
X7322444Y-11302008D01*
X7322444Y-11302008D02*
X7331967Y-11311531D01*
X7331967Y-11311531D02*
X7341491Y-11330579D01*
X7341491Y-11330579D02*
X7351015Y-11368674D01*
X7351015Y-11368674D02*
X7351015Y-11416293D01*
X7351015Y-11416293D02*
X7341491Y-11454388D01*
X7341491Y-11454388D02*
X7331967Y-11473436D01*
X7331967Y-11473436D02*
X7322444Y-11482960D01*
X7322444Y-11482960D02*
X7303396Y-11492484D01*
X7303396Y-11492484D02*
X7284348Y-11492484D01*
X7284348Y-11492484D02*
X7265301Y-11482960D01*
X7265301Y-11482960D02*
X7255777Y-11473436D01*
X7255777Y-11473436D02*
X7246253Y-11454388D01*
X7246253Y-11454388D02*
X7236729Y-11416293D01*
X7236729Y-11416293D02*
X7236729Y-11368674D01*
X7236729Y-11368674D02*
X7246253Y-11330579D01*
X7246253Y-11330579D02*
X7255777Y-11311531D01*
X7255777Y-11311531D02*
X7265301Y-11302008D01*
X7265301Y-11302008D02*
X7284348Y-11292484D01*
X7522444Y-11359150D02*
X7522444Y-11492484D01*
X7474825Y-11282960D02*
X7427206Y-11425817D01*
X7427206Y-11425817D02*
X7551015Y-11425817D01*
X7617682Y-11311531D02*
X7627206Y-11302008D01*
X7627206Y-11302008D02*
X7646253Y-11292484D01*
X7646253Y-11292484D02*
X7693872Y-11292484D01*
X7693872Y-11292484D02*
X7712920Y-11302008D01*
X7712920Y-11302008D02*
X7722444Y-11311531D01*
X7722444Y-11311531D02*
X7731967Y-11330579D01*
X7731967Y-11330579D02*
X7731967Y-11349627D01*
X7731967Y-11349627D02*
X7722444Y-11378198D01*
X7722444Y-11378198D02*
X7608158Y-11492484D01*
X7608158Y-11492484D02*
X7731967Y-11492484D01*
X7827206Y-11492484D02*
X7865301Y-11492484D01*
X7865301Y-11492484D02*
X7884348Y-11482960D01*
X7884348Y-11482960D02*
X7893872Y-11473436D01*
X7893872Y-11473436D02*
X7912920Y-11444865D01*
X7912920Y-11444865D02*
X7922444Y-11406769D01*
X7922444Y-11406769D02*
X7922444Y-11330579D01*
X7922444Y-11330579D02*
X7912920Y-11311531D01*
X7912920Y-11311531D02*
X7903396Y-11302008D01*
X7903396Y-11302008D02*
X7884348Y-11292484D01*
X7884348Y-11292484D02*
X7846253Y-11292484D01*
X7846253Y-11292484D02*
X7827206Y-11302008D01*
X7827206Y-11302008D02*
X7817682Y-11311531D01*
X7817682Y-11311531D02*
X7808158Y-11330579D01*
X7808158Y-11330579D02*
X7808158Y-11378198D01*
X7808158Y-11378198D02*
X7817682Y-11397246D01*
X7817682Y-11397246D02*
X7827206Y-11406769D01*
X7827206Y-11406769D02*
X7846253Y-11416293D01*
X7846253Y-11416293D02*
X7884348Y-11416293D01*
X7884348Y-11416293D02*
X7903396Y-11406769D01*
X7903396Y-11406769D02*
X7912920Y-11397246D01*
X7912920Y-11397246D02*
X7922444Y-11378198D01*
X7998634Y-11292484D02*
X7998634Y-11330579D01*
X8074825Y-11292484D02*
X8074825Y-11330579D01*
X8370063Y-11568674D02*
X8360539Y-11559150D01*
X8360539Y-11559150D02*
X8341491Y-11530579D01*
X8341491Y-11530579D02*
X8331968Y-11511531D01*
X8331968Y-11511531D02*
X8322444Y-11482960D01*
X8322444Y-11482960D02*
X8312920Y-11435341D01*
X8312920Y-11435341D02*
X8312920Y-11397246D01*
X8312920Y-11397246D02*
X8322444Y-11349627D01*
X8322444Y-11349627D02*
X8331968Y-11321055D01*
X8331968Y-11321055D02*
X8341491Y-11302008D01*
X8341491Y-11302008D02*
X8360539Y-11273436D01*
X8360539Y-11273436D02*
X8370063Y-11263912D01*
X8427206Y-11292484D02*
X8551015Y-11292484D01*
X8551015Y-11292484D02*
X8484349Y-11368674D01*
X8484349Y-11368674D02*
X8512920Y-11368674D01*
X8512920Y-11368674D02*
X8531968Y-11378198D01*
X8531968Y-11378198D02*
X8541491Y-11387722D01*
X8541491Y-11387722D02*
X8551015Y-11406769D01*
X8551015Y-11406769D02*
X8551015Y-11454388D01*
X8551015Y-11454388D02*
X8541491Y-11473436D01*
X8541491Y-11473436D02*
X8531968Y-11482960D01*
X8531968Y-11482960D02*
X8512920Y-11492484D01*
X8512920Y-11492484D02*
X8455777Y-11492484D01*
X8455777Y-11492484D02*
X8436730Y-11482960D01*
X8436730Y-11482960D02*
X8427206Y-11473436D01*
X8789111Y-11492484D02*
X8789111Y-11292484D01*
X8874825Y-11492484D02*
X8874825Y-11387722D01*
X8874825Y-11387722D02*
X8865301Y-11368674D01*
X8865301Y-11368674D02*
X8846253Y-11359150D01*
X8846253Y-11359150D02*
X8817682Y-11359150D01*
X8817682Y-11359150D02*
X8798634Y-11368674D01*
X8798634Y-11368674D02*
X8789111Y-11378198D01*
X8998634Y-11492484D02*
X8979587Y-11482960D01*
X8979587Y-11482960D02*
X8970063Y-11473436D01*
X8970063Y-11473436D02*
X8960539Y-11454388D01*
X8960539Y-11454388D02*
X8960539Y-11397246D01*
X8960539Y-11397246D02*
X8970063Y-11378198D01*
X8970063Y-11378198D02*
X8979587Y-11368674D01*
X8979587Y-11368674D02*
X8998634Y-11359150D01*
X8998634Y-11359150D02*
X9027206Y-11359150D01*
X9027206Y-11359150D02*
X9046253Y-11368674D01*
X9046253Y-11368674D02*
X9055777Y-11378198D01*
X9055777Y-11378198D02*
X9065301Y-11397246D01*
X9065301Y-11397246D02*
X9065301Y-11454388D01*
X9065301Y-11454388D02*
X9055777Y-11473436D01*
X9055777Y-11473436D02*
X9046253Y-11482960D01*
X9046253Y-11482960D02*
X9027206Y-11492484D01*
X9027206Y-11492484D02*
X8998634Y-11492484D01*
X9179587Y-11492484D02*
X9160539Y-11482960D01*
X9160539Y-11482960D02*
X9151015Y-11463912D01*
X9151015Y-11463912D02*
X9151015Y-11292484D01*
X9331968Y-11482960D02*
X9312920Y-11492484D01*
X9312920Y-11492484D02*
X9274825Y-11492484D01*
X9274825Y-11492484D02*
X9255777Y-11482960D01*
X9255777Y-11482960D02*
X9246253Y-11463912D01*
X9246253Y-11463912D02*
X9246253Y-11387722D01*
X9246253Y-11387722D02*
X9255777Y-11368674D01*
X9255777Y-11368674D02*
X9274825Y-11359150D01*
X9274825Y-11359150D02*
X9312920Y-11359150D01*
X9312920Y-11359150D02*
X9331968Y-11368674D01*
X9331968Y-11368674D02*
X9341492Y-11387722D01*
X9341492Y-11387722D02*
X9341492Y-11406769D01*
X9341492Y-11406769D02*
X9246253Y-11425817D01*
X9417682Y-11482960D02*
X9436730Y-11492484D01*
X9436730Y-11492484D02*
X9474825Y-11492484D01*
X9474825Y-11492484D02*
X9493873Y-11482960D01*
X9493873Y-11482960D02*
X9503396Y-11463912D01*
X9503396Y-11463912D02*
X9503396Y-11454388D01*
X9503396Y-11454388D02*
X9493873Y-11435341D01*
X9493873Y-11435341D02*
X9474825Y-11425817D01*
X9474825Y-11425817D02*
X9446253Y-11425817D01*
X9446253Y-11425817D02*
X9427206Y-11416293D01*
X9427206Y-11416293D02*
X9417682Y-11397246D01*
X9417682Y-11397246D02*
X9417682Y-11387722D01*
X9417682Y-11387722D02*
X9427206Y-11368674D01*
X9427206Y-11368674D02*
X9446253Y-11359150D01*
X9446253Y-11359150D02*
X9474825Y-11359150D01*
X9474825Y-11359150D02*
X9493873Y-11368674D01*
X9570063Y-11568674D02*
X9579587Y-11559150D01*
X9579587Y-11559150D02*
X9598634Y-11530579D01*
X9598634Y-11530579D02*
X9608158Y-11511531D01*
X9608158Y-11511531D02*
X9617682Y-11482960D01*
X9617682Y-11482960D02*
X9627206Y-11435341D01*
X9627206Y-11435341D02*
X9627206Y-11397246D01*
X9627206Y-11397246D02*
X9617682Y-11349627D01*
X9617682Y-11349627D02*
X9608158Y-11321055D01*
X9608158Y-11321055D02*
X9598634Y-11302008D01*
X9598634Y-11302008D02*
X9579587Y-11273436D01*
X9579587Y-11273436D02*
X9570063Y-11263912D01*
D14*
X4685000Y-11610000D02*
X4795000Y-11720000D01*
X4795000Y-11610000D02*
X4685000Y-11720000D01*
X4795000Y-11665000D02*
G75*
G02*
X4685000Y-11665000I-55000J0D01*
G01*
X4685000Y-11665000D02*
G75*
G02*
X4795000Y-11665000I55000J0D01*
G01*
D12*
X5160539Y-11756484D02*
X5046253Y-11756484D01*
X5103396Y-11756484D02*
X5103396Y-11556484D01*
X5103396Y-11556484D02*
X5084348Y-11585055D01*
X5084348Y-11585055D02*
X5065301Y-11604103D01*
X5065301Y-11604103D02*
X5046253Y-11613627D01*
X5246253Y-11737436D02*
X5255777Y-11746960D01*
X5255777Y-11746960D02*
X5246253Y-11756484D01*
X5246253Y-11756484D02*
X5236729Y-11746960D01*
X5236729Y-11746960D02*
X5246253Y-11737436D01*
X5246253Y-11737436D02*
X5246253Y-11756484D01*
X5446253Y-11756484D02*
X5331967Y-11756484D01*
X5389110Y-11756484D02*
X5389110Y-11556484D01*
X5389110Y-11556484D02*
X5370063Y-11585055D01*
X5370063Y-11585055D02*
X5351015Y-11604103D01*
X5351015Y-11604103D02*
X5331967Y-11613627D01*
X5570063Y-11556484D02*
X5589110Y-11556484D01*
X5589110Y-11556484D02*
X5608158Y-11566008D01*
X5608158Y-11566008D02*
X5617682Y-11575531D01*
X5617682Y-11575531D02*
X5627205Y-11594579D01*
X5627205Y-11594579D02*
X5636729Y-11632674D01*
X5636729Y-11632674D02*
X5636729Y-11680293D01*
X5636729Y-11680293D02*
X5627205Y-11718388D01*
X5627205Y-11718388D02*
X5617682Y-11737436D01*
X5617682Y-11737436D02*
X5608158Y-11746960D01*
X5608158Y-11746960D02*
X5589110Y-11756484D01*
X5589110Y-11756484D02*
X5570063Y-11756484D01*
X5570063Y-11756484D02*
X5551015Y-11746960D01*
X5551015Y-11746960D02*
X5541491Y-11737436D01*
X5541491Y-11737436D02*
X5531967Y-11718388D01*
X5531967Y-11718388D02*
X5522444Y-11680293D01*
X5522444Y-11680293D02*
X5522444Y-11632674D01*
X5522444Y-11632674D02*
X5531967Y-11594579D01*
X5531967Y-11594579D02*
X5541491Y-11575531D01*
X5541491Y-11575531D02*
X5551015Y-11566008D01*
X5551015Y-11566008D02*
X5570063Y-11556484D01*
X5760539Y-11556484D02*
X5779586Y-11556484D01*
X5779586Y-11556484D02*
X5798634Y-11566008D01*
X5798634Y-11566008D02*
X5808158Y-11575531D01*
X5808158Y-11575531D02*
X5817682Y-11594579D01*
X5817682Y-11594579D02*
X5827205Y-11632674D01*
X5827205Y-11632674D02*
X5827205Y-11680293D01*
X5827205Y-11680293D02*
X5817682Y-11718388D01*
X5817682Y-11718388D02*
X5808158Y-11737436D01*
X5808158Y-11737436D02*
X5798634Y-11746960D01*
X5798634Y-11746960D02*
X5779586Y-11756484D01*
X5779586Y-11756484D02*
X5760539Y-11756484D01*
X5760539Y-11756484D02*
X5741491Y-11746960D01*
X5741491Y-11746960D02*
X5731967Y-11737436D01*
X5731967Y-11737436D02*
X5722443Y-11718388D01*
X5722443Y-11718388D02*
X5712920Y-11680293D01*
X5712920Y-11680293D02*
X5712920Y-11632674D01*
X5712920Y-11632674D02*
X5722443Y-11594579D01*
X5722443Y-11594579D02*
X5731967Y-11575531D01*
X5731967Y-11575531D02*
X5741491Y-11566008D01*
X5741491Y-11566008D02*
X5760539Y-11556484D01*
X5912920Y-11756484D02*
X5912920Y-11623150D01*
X5912920Y-11642198D02*
X5922443Y-11632674D01*
X5922443Y-11632674D02*
X5941491Y-11623150D01*
X5941491Y-11623150D02*
X5970063Y-11623150D01*
X5970063Y-11623150D02*
X5989110Y-11632674D01*
X5989110Y-11632674D02*
X5998634Y-11651722D01*
X5998634Y-11651722D02*
X5998634Y-11756484D01*
X5998634Y-11651722D02*
X6008158Y-11632674D01*
X6008158Y-11632674D02*
X6027205Y-11623150D01*
X6027205Y-11623150D02*
X6055777Y-11623150D01*
X6055777Y-11623150D02*
X6074824Y-11632674D01*
X6074824Y-11632674D02*
X6084348Y-11651722D01*
X6084348Y-11651722D02*
X6084348Y-11756484D01*
X6179586Y-11756484D02*
X6179586Y-11623150D01*
X6179586Y-11642198D02*
X6189110Y-11632674D01*
X6189110Y-11632674D02*
X6208158Y-11623150D01*
X6208158Y-11623150D02*
X6236729Y-11623150D01*
X6236729Y-11623150D02*
X6255777Y-11632674D01*
X6255777Y-11632674D02*
X6265301Y-11651722D01*
X6265301Y-11651722D02*
X6265301Y-11756484D01*
X6265301Y-11651722D02*
X6274824Y-11632674D01*
X6274824Y-11632674D02*
X6293872Y-11623150D01*
X6293872Y-11623150D02*
X6322443Y-11623150D01*
X6322443Y-11623150D02*
X6341491Y-11632674D01*
X6341491Y-11632674D02*
X6351015Y-11651722D01*
X6351015Y-11651722D02*
X6351015Y-11756484D01*
X6741491Y-11546960D02*
X6570063Y-11804103D01*
X6998634Y-11556484D02*
X7017682Y-11556484D01*
X7017682Y-11556484D02*
X7036729Y-11566008D01*
X7036729Y-11566008D02*
X7046253Y-11575531D01*
X7046253Y-11575531D02*
X7055777Y-11594579D01*
X7055777Y-11594579D02*
X7065301Y-11632674D01*
X7065301Y-11632674D02*
X7065301Y-11680293D01*
X7065301Y-11680293D02*
X7055777Y-11718388D01*
X7055777Y-11718388D02*
X7046253Y-11737436D01*
X7046253Y-11737436D02*
X7036729Y-11746960D01*
X7036729Y-11746960D02*
X7017682Y-11756484D01*
X7017682Y-11756484D02*
X6998634Y-11756484D01*
X6998634Y-11756484D02*
X6979586Y-11746960D01*
X6979586Y-11746960D02*
X6970063Y-11737436D01*
X6970063Y-11737436D02*
X6960539Y-11718388D01*
X6960539Y-11718388D02*
X6951015Y-11680293D01*
X6951015Y-11680293D02*
X6951015Y-11632674D01*
X6951015Y-11632674D02*
X6960539Y-11594579D01*
X6960539Y-11594579D02*
X6970063Y-11575531D01*
X6970063Y-11575531D02*
X6979586Y-11566008D01*
X6979586Y-11566008D02*
X6998634Y-11556484D01*
X7151015Y-11737436D02*
X7160539Y-11746960D01*
X7160539Y-11746960D02*
X7151015Y-11756484D01*
X7151015Y-11756484D02*
X7141491Y-11746960D01*
X7141491Y-11746960D02*
X7151015Y-11737436D01*
X7151015Y-11737436D02*
X7151015Y-11756484D01*
X7284348Y-11556484D02*
X7303396Y-11556484D01*
X7303396Y-11556484D02*
X7322444Y-11566008D01*
X7322444Y-11566008D02*
X7331967Y-11575531D01*
X7331967Y-11575531D02*
X7341491Y-11594579D01*
X7341491Y-11594579D02*
X7351015Y-11632674D01*
X7351015Y-11632674D02*
X7351015Y-11680293D01*
X7351015Y-11680293D02*
X7341491Y-11718388D01*
X7341491Y-11718388D02*
X7331967Y-11737436D01*
X7331967Y-11737436D02*
X7322444Y-11746960D01*
X7322444Y-11746960D02*
X7303396Y-11756484D01*
X7303396Y-11756484D02*
X7284348Y-11756484D01*
X7284348Y-11756484D02*
X7265301Y-11746960D01*
X7265301Y-11746960D02*
X7255777Y-11737436D01*
X7255777Y-11737436D02*
X7246253Y-11718388D01*
X7246253Y-11718388D02*
X7236729Y-11680293D01*
X7236729Y-11680293D02*
X7236729Y-11632674D01*
X7236729Y-11632674D02*
X7246253Y-11594579D01*
X7246253Y-11594579D02*
X7255777Y-11575531D01*
X7255777Y-11575531D02*
X7265301Y-11566008D01*
X7265301Y-11566008D02*
X7284348Y-11556484D01*
X7522444Y-11623150D02*
X7522444Y-11756484D01*
X7474825Y-11546960D02*
X7427206Y-11689817D01*
X7427206Y-11689817D02*
X7551015Y-11689817D01*
X7608158Y-11556484D02*
X7731967Y-11556484D01*
X7731967Y-11556484D02*
X7665301Y-11632674D01*
X7665301Y-11632674D02*
X7693872Y-11632674D01*
X7693872Y-11632674D02*
X7712920Y-11642198D01*
X7712920Y-11642198D02*
X7722444Y-11651722D01*
X7722444Y-11651722D02*
X7731967Y-11670769D01*
X7731967Y-11670769D02*
X7731967Y-11718388D01*
X7731967Y-11718388D02*
X7722444Y-11737436D01*
X7722444Y-11737436D02*
X7712920Y-11746960D01*
X7712920Y-11746960D02*
X7693872Y-11756484D01*
X7693872Y-11756484D02*
X7636729Y-11756484D01*
X7636729Y-11756484D02*
X7617682Y-11746960D01*
X7617682Y-11746960D02*
X7608158Y-11737436D01*
X7798634Y-11556484D02*
X7922444Y-11556484D01*
X7922444Y-11556484D02*
X7855777Y-11632674D01*
X7855777Y-11632674D02*
X7884348Y-11632674D01*
X7884348Y-11632674D02*
X7903396Y-11642198D01*
X7903396Y-11642198D02*
X7912920Y-11651722D01*
X7912920Y-11651722D02*
X7922444Y-11670769D01*
X7922444Y-11670769D02*
X7922444Y-11718388D01*
X7922444Y-11718388D02*
X7912920Y-11737436D01*
X7912920Y-11737436D02*
X7903396Y-11746960D01*
X7903396Y-11746960D02*
X7884348Y-11756484D01*
X7884348Y-11756484D02*
X7827206Y-11756484D01*
X7827206Y-11756484D02*
X7808158Y-11746960D01*
X7808158Y-11746960D02*
X7798634Y-11737436D01*
X7998634Y-11556484D02*
X7998634Y-11594579D01*
X8074825Y-11556484D02*
X8074825Y-11594579D01*
X8370063Y-11832674D02*
X8360539Y-11823150D01*
X8360539Y-11823150D02*
X8341491Y-11794579D01*
X8341491Y-11794579D02*
X8331968Y-11775531D01*
X8331968Y-11775531D02*
X8322444Y-11746960D01*
X8322444Y-11746960D02*
X8312920Y-11699341D01*
X8312920Y-11699341D02*
X8312920Y-11661246D01*
X8312920Y-11661246D02*
X8322444Y-11613627D01*
X8322444Y-11613627D02*
X8331968Y-11585055D01*
X8331968Y-11585055D02*
X8341491Y-11566008D01*
X8341491Y-11566008D02*
X8360539Y-11537436D01*
X8360539Y-11537436D02*
X8370063Y-11527912D01*
X8531968Y-11556484D02*
X8493872Y-11556484D01*
X8493872Y-11556484D02*
X8474825Y-11566008D01*
X8474825Y-11566008D02*
X8465301Y-11575531D01*
X8465301Y-11575531D02*
X8446253Y-11604103D01*
X8446253Y-11604103D02*
X8436730Y-11642198D01*
X8436730Y-11642198D02*
X8436730Y-11718388D01*
X8436730Y-11718388D02*
X8446253Y-11737436D01*
X8446253Y-11737436D02*
X8455777Y-11746960D01*
X8455777Y-11746960D02*
X8474825Y-11756484D01*
X8474825Y-11756484D02*
X8512920Y-11756484D01*
X8512920Y-11756484D02*
X8531968Y-11746960D01*
X8531968Y-11746960D02*
X8541491Y-11737436D01*
X8541491Y-11737436D02*
X8551015Y-11718388D01*
X8551015Y-11718388D02*
X8551015Y-11670769D01*
X8551015Y-11670769D02*
X8541491Y-11651722D01*
X8541491Y-11651722D02*
X8531968Y-11642198D01*
X8531968Y-11642198D02*
X8512920Y-11632674D01*
X8512920Y-11632674D02*
X8474825Y-11632674D01*
X8474825Y-11632674D02*
X8455777Y-11642198D01*
X8455777Y-11642198D02*
X8446253Y-11651722D01*
X8446253Y-11651722D02*
X8436730Y-11670769D01*
X8789111Y-11756484D02*
X8789111Y-11556484D01*
X8874825Y-11756484D02*
X8874825Y-11651722D01*
X8874825Y-11651722D02*
X8865301Y-11632674D01*
X8865301Y-11632674D02*
X8846253Y-11623150D01*
X8846253Y-11623150D02*
X8817682Y-11623150D01*
X8817682Y-11623150D02*
X8798634Y-11632674D01*
X8798634Y-11632674D02*
X8789111Y-11642198D01*
X8998634Y-11756484D02*
X8979587Y-11746960D01*
X8979587Y-11746960D02*
X8970063Y-11737436D01*
X8970063Y-11737436D02*
X8960539Y-11718388D01*
X8960539Y-11718388D02*
X8960539Y-11661246D01*
X8960539Y-11661246D02*
X8970063Y-11642198D01*
X8970063Y-11642198D02*
X8979587Y-11632674D01*
X8979587Y-11632674D02*
X8998634Y-11623150D01*
X8998634Y-11623150D02*
X9027206Y-11623150D01*
X9027206Y-11623150D02*
X9046253Y-11632674D01*
X9046253Y-11632674D02*
X9055777Y-11642198D01*
X9055777Y-11642198D02*
X9065301Y-11661246D01*
X9065301Y-11661246D02*
X9065301Y-11718388D01*
X9065301Y-11718388D02*
X9055777Y-11737436D01*
X9055777Y-11737436D02*
X9046253Y-11746960D01*
X9046253Y-11746960D02*
X9027206Y-11756484D01*
X9027206Y-11756484D02*
X8998634Y-11756484D01*
X9179587Y-11756484D02*
X9160539Y-11746960D01*
X9160539Y-11746960D02*
X9151015Y-11727912D01*
X9151015Y-11727912D02*
X9151015Y-11556484D01*
X9331968Y-11746960D02*
X9312920Y-11756484D01*
X9312920Y-11756484D02*
X9274825Y-11756484D01*
X9274825Y-11756484D02*
X9255777Y-11746960D01*
X9255777Y-11746960D02*
X9246253Y-11727912D01*
X9246253Y-11727912D02*
X9246253Y-11651722D01*
X9246253Y-11651722D02*
X9255777Y-11632674D01*
X9255777Y-11632674D02*
X9274825Y-11623150D01*
X9274825Y-11623150D02*
X9312920Y-11623150D01*
X9312920Y-11623150D02*
X9331968Y-11632674D01*
X9331968Y-11632674D02*
X9341492Y-11651722D01*
X9341492Y-11651722D02*
X9341492Y-11670769D01*
X9341492Y-11670769D02*
X9246253Y-11689817D01*
X9417682Y-11746960D02*
X9436730Y-11756484D01*
X9436730Y-11756484D02*
X9474825Y-11756484D01*
X9474825Y-11756484D02*
X9493873Y-11746960D01*
X9493873Y-11746960D02*
X9503396Y-11727912D01*
X9503396Y-11727912D02*
X9503396Y-11718388D01*
X9503396Y-11718388D02*
X9493873Y-11699341D01*
X9493873Y-11699341D02*
X9474825Y-11689817D01*
X9474825Y-11689817D02*
X9446253Y-11689817D01*
X9446253Y-11689817D02*
X9427206Y-11680293D01*
X9427206Y-11680293D02*
X9417682Y-11661246D01*
X9417682Y-11661246D02*
X9417682Y-11651722D01*
X9417682Y-11651722D02*
X9427206Y-11632674D01*
X9427206Y-11632674D02*
X9446253Y-11623150D01*
X9446253Y-11623150D02*
X9474825Y-11623150D01*
X9474825Y-11623150D02*
X9493873Y-11632674D01*
X9741492Y-11680293D02*
X9893873Y-11680293D01*
X9817682Y-11756484D02*
X9817682Y-11604103D01*
X10227206Y-11623150D02*
X10227206Y-11756484D01*
X10179587Y-11546960D02*
X10131968Y-11689817D01*
X10131968Y-11689817D02*
X10255777Y-11689817D01*
X10474825Y-11746960D02*
X10493873Y-11756484D01*
X10493873Y-11756484D02*
X10531968Y-11756484D01*
X10531968Y-11756484D02*
X10551016Y-11746960D01*
X10551016Y-11746960D02*
X10560539Y-11727912D01*
X10560539Y-11727912D02*
X10560539Y-11718388D01*
X10560539Y-11718388D02*
X10551016Y-11699341D01*
X10551016Y-11699341D02*
X10531968Y-11689817D01*
X10531968Y-11689817D02*
X10503396Y-11689817D01*
X10503396Y-11689817D02*
X10484349Y-11680293D01*
X10484349Y-11680293D02*
X10474825Y-11661246D01*
X10474825Y-11661246D02*
X10474825Y-11651722D01*
X10474825Y-11651722D02*
X10484349Y-11632674D01*
X10484349Y-11632674D02*
X10503396Y-11623150D01*
X10503396Y-11623150D02*
X10531968Y-11623150D01*
X10531968Y-11623150D02*
X10551016Y-11632674D01*
X10674825Y-11756484D02*
X10655777Y-11746960D01*
X10655777Y-11746960D02*
X10646254Y-11727912D01*
X10646254Y-11727912D02*
X10646254Y-11556484D01*
X10779587Y-11756484D02*
X10760539Y-11746960D01*
X10760539Y-11746960D02*
X10751016Y-11737436D01*
X10751016Y-11737436D02*
X10741492Y-11718388D01*
X10741492Y-11718388D02*
X10741492Y-11661246D01*
X10741492Y-11661246D02*
X10751016Y-11642198D01*
X10751016Y-11642198D02*
X10760539Y-11632674D01*
X10760539Y-11632674D02*
X10779587Y-11623150D01*
X10779587Y-11623150D02*
X10808158Y-11623150D01*
X10808158Y-11623150D02*
X10827206Y-11632674D01*
X10827206Y-11632674D02*
X10836730Y-11642198D01*
X10836730Y-11642198D02*
X10846254Y-11661246D01*
X10846254Y-11661246D02*
X10846254Y-11718388D01*
X10846254Y-11718388D02*
X10836730Y-11737436D01*
X10836730Y-11737436D02*
X10827206Y-11746960D01*
X10827206Y-11746960D02*
X10808158Y-11756484D01*
X10808158Y-11756484D02*
X10779587Y-11756484D01*
X10903397Y-11623150D02*
X10979587Y-11623150D01*
X10931968Y-11556484D02*
X10931968Y-11727912D01*
X10931968Y-11727912D02*
X10941492Y-11746960D01*
X10941492Y-11746960D02*
X10960539Y-11756484D01*
X10960539Y-11756484D02*
X10979587Y-11756484D01*
X11036730Y-11746960D02*
X11055777Y-11756484D01*
X11055777Y-11756484D02*
X11093873Y-11756484D01*
X11093873Y-11756484D02*
X11112920Y-11746960D01*
X11112920Y-11746960D02*
X11122444Y-11727912D01*
X11122444Y-11727912D02*
X11122444Y-11718388D01*
X11122444Y-11718388D02*
X11112920Y-11699341D01*
X11112920Y-11699341D02*
X11093873Y-11689817D01*
X11093873Y-11689817D02*
X11065301Y-11689817D01*
X11065301Y-11689817D02*
X11046254Y-11680293D01*
X11046254Y-11680293D02*
X11036730Y-11661246D01*
X11036730Y-11661246D02*
X11036730Y-11651722D01*
X11036730Y-11651722D02*
X11046254Y-11632674D01*
X11046254Y-11632674D02*
X11065301Y-11623150D01*
X11065301Y-11623150D02*
X11093873Y-11623150D01*
X11093873Y-11623150D02*
X11112920Y-11632674D01*
X11189111Y-11832674D02*
X11198635Y-11823150D01*
X11198635Y-11823150D02*
X11217682Y-11794579D01*
X11217682Y-11794579D02*
X11227206Y-11775531D01*
X11227206Y-11775531D02*
X11236730Y-11746960D01*
X11236730Y-11746960D02*
X11246254Y-11699341D01*
X11246254Y-11699341D02*
X11246254Y-11661246D01*
X11246254Y-11661246D02*
X11236730Y-11613627D01*
X11236730Y-11613627D02*
X11227206Y-11585055D01*
X11227206Y-11585055D02*
X11217682Y-11566008D01*
X11217682Y-11566008D02*
X11198635Y-11537436D01*
X11198635Y-11537436D02*
X11189111Y-11527912D01*
D15*
X4675000Y-11869000D02*
X4795000Y-11989000D01*
X4795000Y-11869000D02*
X4675000Y-11989000D01*
X4735000Y-11869000D02*
X4735000Y-11989000D01*
X4675000Y-11929000D02*
X4795000Y-11929000D01*
D12*
X5160539Y-12020484D02*
X5046253Y-12020484D01*
X5103396Y-12020484D02*
X5103396Y-11820484D01*
X5103396Y-11820484D02*
X5084348Y-11849055D01*
X5084348Y-11849055D02*
X5065301Y-11868103D01*
X5065301Y-11868103D02*
X5046253Y-11877627D01*
X5246253Y-12001436D02*
X5255777Y-12010960D01*
X5255777Y-12010960D02*
X5246253Y-12020484D01*
X5246253Y-12020484D02*
X5236729Y-12010960D01*
X5236729Y-12010960D02*
X5246253Y-12001436D01*
X5246253Y-12001436D02*
X5246253Y-12020484D01*
X5331967Y-11839531D02*
X5341491Y-11830008D01*
X5341491Y-11830008D02*
X5360539Y-11820484D01*
X5360539Y-11820484D02*
X5408158Y-11820484D01*
X5408158Y-11820484D02*
X5427205Y-11830008D01*
X5427205Y-11830008D02*
X5436729Y-11839531D01*
X5436729Y-11839531D02*
X5446253Y-11858579D01*
X5446253Y-11858579D02*
X5446253Y-11877627D01*
X5446253Y-11877627D02*
X5436729Y-11906198D01*
X5436729Y-11906198D02*
X5322444Y-12020484D01*
X5322444Y-12020484D02*
X5446253Y-12020484D01*
X5570063Y-11820484D02*
X5589110Y-11820484D01*
X5589110Y-11820484D02*
X5608158Y-11830008D01*
X5608158Y-11830008D02*
X5617682Y-11839531D01*
X5617682Y-11839531D02*
X5627205Y-11858579D01*
X5627205Y-11858579D02*
X5636729Y-11896674D01*
X5636729Y-11896674D02*
X5636729Y-11944293D01*
X5636729Y-11944293D02*
X5627205Y-11982388D01*
X5627205Y-11982388D02*
X5617682Y-12001436D01*
X5617682Y-12001436D02*
X5608158Y-12010960D01*
X5608158Y-12010960D02*
X5589110Y-12020484D01*
X5589110Y-12020484D02*
X5570063Y-12020484D01*
X5570063Y-12020484D02*
X5551015Y-12010960D01*
X5551015Y-12010960D02*
X5541491Y-12001436D01*
X5541491Y-12001436D02*
X5531967Y-11982388D01*
X5531967Y-11982388D02*
X5522444Y-11944293D01*
X5522444Y-11944293D02*
X5522444Y-11896674D01*
X5522444Y-11896674D02*
X5531967Y-11858579D01*
X5531967Y-11858579D02*
X5541491Y-11839531D01*
X5541491Y-11839531D02*
X5551015Y-11830008D01*
X5551015Y-11830008D02*
X5570063Y-11820484D01*
X5760539Y-11820484D02*
X5779586Y-11820484D01*
X5779586Y-11820484D02*
X5798634Y-11830008D01*
X5798634Y-11830008D02*
X5808158Y-11839531D01*
X5808158Y-11839531D02*
X5817682Y-11858579D01*
X5817682Y-11858579D02*
X5827205Y-11896674D01*
X5827205Y-11896674D02*
X5827205Y-11944293D01*
X5827205Y-11944293D02*
X5817682Y-11982388D01*
X5817682Y-11982388D02*
X5808158Y-12001436D01*
X5808158Y-12001436D02*
X5798634Y-12010960D01*
X5798634Y-12010960D02*
X5779586Y-12020484D01*
X5779586Y-12020484D02*
X5760539Y-12020484D01*
X5760539Y-12020484D02*
X5741491Y-12010960D01*
X5741491Y-12010960D02*
X5731967Y-12001436D01*
X5731967Y-12001436D02*
X5722443Y-11982388D01*
X5722443Y-11982388D02*
X5712920Y-11944293D01*
X5712920Y-11944293D02*
X5712920Y-11896674D01*
X5712920Y-11896674D02*
X5722443Y-11858579D01*
X5722443Y-11858579D02*
X5731967Y-11839531D01*
X5731967Y-11839531D02*
X5741491Y-11830008D01*
X5741491Y-11830008D02*
X5760539Y-11820484D01*
X5912920Y-12020484D02*
X5912920Y-11887150D01*
X5912920Y-11906198D02*
X5922443Y-11896674D01*
X5922443Y-11896674D02*
X5941491Y-11887150D01*
X5941491Y-11887150D02*
X5970063Y-11887150D01*
X5970063Y-11887150D02*
X5989110Y-11896674D01*
X5989110Y-11896674D02*
X5998634Y-11915722D01*
X5998634Y-11915722D02*
X5998634Y-12020484D01*
X5998634Y-11915722D02*
X6008158Y-11896674D01*
X6008158Y-11896674D02*
X6027205Y-11887150D01*
X6027205Y-11887150D02*
X6055777Y-11887150D01*
X6055777Y-11887150D02*
X6074824Y-11896674D01*
X6074824Y-11896674D02*
X6084348Y-11915722D01*
X6084348Y-11915722D02*
X6084348Y-12020484D01*
X6179586Y-12020484D02*
X6179586Y-11887150D01*
X6179586Y-11906198D02*
X6189110Y-11896674D01*
X6189110Y-11896674D02*
X6208158Y-11887150D01*
X6208158Y-11887150D02*
X6236729Y-11887150D01*
X6236729Y-11887150D02*
X6255777Y-11896674D01*
X6255777Y-11896674D02*
X6265301Y-11915722D01*
X6265301Y-11915722D02*
X6265301Y-12020484D01*
X6265301Y-11915722D02*
X6274824Y-11896674D01*
X6274824Y-11896674D02*
X6293872Y-11887150D01*
X6293872Y-11887150D02*
X6322443Y-11887150D01*
X6322443Y-11887150D02*
X6341491Y-11896674D01*
X6341491Y-11896674D02*
X6351015Y-11915722D01*
X6351015Y-11915722D02*
X6351015Y-12020484D01*
X6741491Y-11810960D02*
X6570063Y-12068103D01*
X6998634Y-11820484D02*
X7017682Y-11820484D01*
X7017682Y-11820484D02*
X7036729Y-11830008D01*
X7036729Y-11830008D02*
X7046253Y-11839531D01*
X7046253Y-11839531D02*
X7055777Y-11858579D01*
X7055777Y-11858579D02*
X7065301Y-11896674D01*
X7065301Y-11896674D02*
X7065301Y-11944293D01*
X7065301Y-11944293D02*
X7055777Y-11982388D01*
X7055777Y-11982388D02*
X7046253Y-12001436D01*
X7046253Y-12001436D02*
X7036729Y-12010960D01*
X7036729Y-12010960D02*
X7017682Y-12020484D01*
X7017682Y-12020484D02*
X6998634Y-12020484D01*
X6998634Y-12020484D02*
X6979586Y-12010960D01*
X6979586Y-12010960D02*
X6970063Y-12001436D01*
X6970063Y-12001436D02*
X6960539Y-11982388D01*
X6960539Y-11982388D02*
X6951015Y-11944293D01*
X6951015Y-11944293D02*
X6951015Y-11896674D01*
X6951015Y-11896674D02*
X6960539Y-11858579D01*
X6960539Y-11858579D02*
X6970063Y-11839531D01*
X6970063Y-11839531D02*
X6979586Y-11830008D01*
X6979586Y-11830008D02*
X6998634Y-11820484D01*
X7151015Y-12001436D02*
X7160539Y-12010960D01*
X7160539Y-12010960D02*
X7151015Y-12020484D01*
X7151015Y-12020484D02*
X7141491Y-12010960D01*
X7141491Y-12010960D02*
X7151015Y-12001436D01*
X7151015Y-12001436D02*
X7151015Y-12020484D01*
X7284348Y-11820484D02*
X7303396Y-11820484D01*
X7303396Y-11820484D02*
X7322444Y-11830008D01*
X7322444Y-11830008D02*
X7331967Y-11839531D01*
X7331967Y-11839531D02*
X7341491Y-11858579D01*
X7341491Y-11858579D02*
X7351015Y-11896674D01*
X7351015Y-11896674D02*
X7351015Y-11944293D01*
X7351015Y-11944293D02*
X7341491Y-11982388D01*
X7341491Y-11982388D02*
X7331967Y-12001436D01*
X7331967Y-12001436D02*
X7322444Y-12010960D01*
X7322444Y-12010960D02*
X7303396Y-12020484D01*
X7303396Y-12020484D02*
X7284348Y-12020484D01*
X7284348Y-12020484D02*
X7265301Y-12010960D01*
X7265301Y-12010960D02*
X7255777Y-12001436D01*
X7255777Y-12001436D02*
X7246253Y-11982388D01*
X7246253Y-11982388D02*
X7236729Y-11944293D01*
X7236729Y-11944293D02*
X7236729Y-11896674D01*
X7236729Y-11896674D02*
X7246253Y-11858579D01*
X7246253Y-11858579D02*
X7255777Y-11839531D01*
X7255777Y-11839531D02*
X7265301Y-11830008D01*
X7265301Y-11830008D02*
X7284348Y-11820484D01*
X7522444Y-11887150D02*
X7522444Y-12020484D01*
X7474825Y-11810960D02*
X7427206Y-11953817D01*
X7427206Y-11953817D02*
X7551015Y-11953817D01*
X7608158Y-11820484D02*
X7741491Y-11820484D01*
X7741491Y-11820484D02*
X7655777Y-12020484D01*
X7808158Y-11839531D02*
X7817682Y-11830008D01*
X7817682Y-11830008D02*
X7836729Y-11820484D01*
X7836729Y-11820484D02*
X7884348Y-11820484D01*
X7884348Y-11820484D02*
X7903396Y-11830008D01*
X7903396Y-11830008D02*
X7912920Y-11839531D01*
X7912920Y-11839531D02*
X7922444Y-11858579D01*
X7922444Y-11858579D02*
X7922444Y-11877627D01*
X7922444Y-11877627D02*
X7912920Y-11906198D01*
X7912920Y-11906198D02*
X7798634Y-12020484D01*
X7798634Y-12020484D02*
X7922444Y-12020484D01*
X7998634Y-11820484D02*
X7998634Y-11858579D01*
X8074825Y-11820484D02*
X8074825Y-11858579D01*
X8370063Y-12096674D02*
X8360539Y-12087150D01*
X8360539Y-12087150D02*
X8341491Y-12058579D01*
X8341491Y-12058579D02*
X8331968Y-12039531D01*
X8331968Y-12039531D02*
X8322444Y-12010960D01*
X8322444Y-12010960D02*
X8312920Y-11963341D01*
X8312920Y-11963341D02*
X8312920Y-11925246D01*
X8312920Y-11925246D02*
X8322444Y-11877627D01*
X8322444Y-11877627D02*
X8331968Y-11849055D01*
X8331968Y-11849055D02*
X8341491Y-11830008D01*
X8341491Y-11830008D02*
X8360539Y-11801436D01*
X8360539Y-11801436D02*
X8370063Y-11791912D01*
X8436730Y-11839531D02*
X8446253Y-11830008D01*
X8446253Y-11830008D02*
X8465301Y-11820484D01*
X8465301Y-11820484D02*
X8512920Y-11820484D01*
X8512920Y-11820484D02*
X8531968Y-11830008D01*
X8531968Y-11830008D02*
X8541491Y-11839531D01*
X8541491Y-11839531D02*
X8551015Y-11858579D01*
X8551015Y-11858579D02*
X8551015Y-11877627D01*
X8551015Y-11877627D02*
X8541491Y-11906198D01*
X8541491Y-11906198D02*
X8427206Y-12020484D01*
X8427206Y-12020484D02*
X8551015Y-12020484D01*
X8789111Y-12020484D02*
X8789111Y-11820484D01*
X8874825Y-12020484D02*
X8874825Y-11915722D01*
X8874825Y-11915722D02*
X8865301Y-11896674D01*
X8865301Y-11896674D02*
X8846253Y-11887150D01*
X8846253Y-11887150D02*
X8817682Y-11887150D01*
X8817682Y-11887150D02*
X8798634Y-11896674D01*
X8798634Y-11896674D02*
X8789111Y-11906198D01*
X8998634Y-12020484D02*
X8979587Y-12010960D01*
X8979587Y-12010960D02*
X8970063Y-12001436D01*
X8970063Y-12001436D02*
X8960539Y-11982388D01*
X8960539Y-11982388D02*
X8960539Y-11925246D01*
X8960539Y-11925246D02*
X8970063Y-11906198D01*
X8970063Y-11906198D02*
X8979587Y-11896674D01*
X8979587Y-11896674D02*
X8998634Y-11887150D01*
X8998634Y-11887150D02*
X9027206Y-11887150D01*
X9027206Y-11887150D02*
X9046253Y-11896674D01*
X9046253Y-11896674D02*
X9055777Y-11906198D01*
X9055777Y-11906198D02*
X9065301Y-11925246D01*
X9065301Y-11925246D02*
X9065301Y-11982388D01*
X9065301Y-11982388D02*
X9055777Y-12001436D01*
X9055777Y-12001436D02*
X9046253Y-12010960D01*
X9046253Y-12010960D02*
X9027206Y-12020484D01*
X9027206Y-12020484D02*
X8998634Y-12020484D01*
X9179587Y-12020484D02*
X9160539Y-12010960D01*
X9160539Y-12010960D02*
X9151015Y-11991912D01*
X9151015Y-11991912D02*
X9151015Y-11820484D01*
X9331968Y-12010960D02*
X9312920Y-12020484D01*
X9312920Y-12020484D02*
X9274825Y-12020484D01*
X9274825Y-12020484D02*
X9255777Y-12010960D01*
X9255777Y-12010960D02*
X9246253Y-11991912D01*
X9246253Y-11991912D02*
X9246253Y-11915722D01*
X9246253Y-11915722D02*
X9255777Y-11896674D01*
X9255777Y-11896674D02*
X9274825Y-11887150D01*
X9274825Y-11887150D02*
X9312920Y-11887150D01*
X9312920Y-11887150D02*
X9331968Y-11896674D01*
X9331968Y-11896674D02*
X9341492Y-11915722D01*
X9341492Y-11915722D02*
X9341492Y-11934769D01*
X9341492Y-11934769D02*
X9246253Y-11953817D01*
X9417682Y-12010960D02*
X9436730Y-12020484D01*
X9436730Y-12020484D02*
X9474825Y-12020484D01*
X9474825Y-12020484D02*
X9493873Y-12010960D01*
X9493873Y-12010960D02*
X9503396Y-11991912D01*
X9503396Y-11991912D02*
X9503396Y-11982388D01*
X9503396Y-11982388D02*
X9493873Y-11963341D01*
X9493873Y-11963341D02*
X9474825Y-11953817D01*
X9474825Y-11953817D02*
X9446253Y-11953817D01*
X9446253Y-11953817D02*
X9427206Y-11944293D01*
X9427206Y-11944293D02*
X9417682Y-11925246D01*
X9417682Y-11925246D02*
X9417682Y-11915722D01*
X9417682Y-11915722D02*
X9427206Y-11896674D01*
X9427206Y-11896674D02*
X9446253Y-11887150D01*
X9446253Y-11887150D02*
X9474825Y-11887150D01*
X9474825Y-11887150D02*
X9493873Y-11896674D01*
X9570063Y-12096674D02*
X9579587Y-12087150D01*
X9579587Y-12087150D02*
X9598634Y-12058579D01*
X9598634Y-12058579D02*
X9608158Y-12039531D01*
X9608158Y-12039531D02*
X9617682Y-12010960D01*
X9617682Y-12010960D02*
X9627206Y-11963341D01*
X9627206Y-11963341D02*
X9627206Y-11925246D01*
X9627206Y-11925246D02*
X9617682Y-11877627D01*
X9617682Y-11877627D02*
X9608158Y-11849055D01*
X9608158Y-11849055D02*
X9598634Y-11830008D01*
X9598634Y-11830008D02*
X9579587Y-11801436D01*
X9579587Y-11801436D02*
X9570063Y-11791912D01*
M02*
