%TF.GenerationSoftware,KiCad,Pcbnew,8.0.4*%
%TF.CreationDate,2024-08-25T20:19:00-07:00*%
%TF.ProjectId,Croissant,43726f69-7373-4616-9e74-2e6b69636164,rev?*%
%TF.SameCoordinates,Original*%
%TF.FileFunction,Copper,L1,Top*%
%TF.FilePolarity,Positive*%
%FSLAX46Y46*%
G04 Gerber Fmt 4.6, Leading zero omitted, Abs format (unit mm)*
G04 Created by KiCad (PCBNEW 8.0.4) date 2024-08-25 20:19:00*
%MOMM*%
%LPD*%
G01*
G04 APERTURE LIST*
G04 Aperture macros list*
%AMRoundRect*
0 Rectangle with rounded corners*
0 $1 Rounding radius*
0 $2 $3 $4 $5 $6 $7 $8 $9 X,Y pos of 4 corners*
0 Add a 4 corners polygon primitive as box body*
4,1,4,$2,$3,$4,$5,$6,$7,$8,$9,$2,$3,0*
0 Add four circle primitives for the rounded corners*
1,1,$1+$1,$2,$3*
1,1,$1+$1,$4,$5*
1,1,$1+$1,$6,$7*
1,1,$1+$1,$8,$9*
0 Add four rect primitives between the rounded corners*
20,1,$1+$1,$2,$3,$4,$5,0*
20,1,$1+$1,$4,$5,$6,$7,0*
20,1,$1+$1,$6,$7,$8,$9,0*
20,1,$1+$1,$8,$9,$2,$3,0*%
G04 Aperture macros list end*
%TA.AperFunction,SMDPad,CuDef*%
%ADD10RoundRect,0.250000X-0.337500X-0.475000X0.337500X-0.475000X0.337500X0.475000X-0.337500X0.475000X0*%
%TD*%
%TA.AperFunction,ComponentPad*%
%ADD11R,1.700000X1.700000*%
%TD*%
%TA.AperFunction,ComponentPad*%
%ADD12O,1.700000X1.700000*%
%TD*%
%TA.AperFunction,SMDPad,CuDef*%
%ADD13RoundRect,0.250000X0.337500X0.475000X-0.337500X0.475000X-0.337500X-0.475000X0.337500X-0.475000X0*%
%TD*%
%TA.AperFunction,SMDPad,CuDef*%
%ADD14RoundRect,0.250000X0.350000X0.450000X-0.350000X0.450000X-0.350000X-0.450000X0.350000X-0.450000X0*%
%TD*%
%TA.AperFunction,ComponentPad*%
%ADD15R,1.800000X1.800000*%
%TD*%
%TA.AperFunction,ComponentPad*%
%ADD16C,1.800000*%
%TD*%
%TA.AperFunction,ComponentPad*%
%ADD17R,1.905000X2.000000*%
%TD*%
%TA.AperFunction,ComponentPad*%
%ADD18O,1.905000X2.000000*%
%TD*%
%TA.AperFunction,SMDPad,CuDef*%
%ADD19RoundRect,0.250000X-0.350000X-0.450000X0.350000X-0.450000X0.350000X0.450000X-0.350000X0.450000X0*%
%TD*%
%TA.AperFunction,ComponentPad*%
%ADD20RoundRect,0.250000X-0.620000X-0.620000X0.620000X-0.620000X0.620000X0.620000X-0.620000X0.620000X0*%
%TD*%
%TA.AperFunction,ComponentPad*%
%ADD21C,1.740000*%
%TD*%
%TA.AperFunction,ComponentPad*%
%ADD22R,1.800000X3.500000*%
%TD*%
%TA.AperFunction,ComponentPad*%
%ADD23R,3.500000X1.800000*%
%TD*%
%TA.AperFunction,SMDPad,CuDef*%
%ADD24RoundRect,0.250000X0.475000X-0.337500X0.475000X0.337500X-0.475000X0.337500X-0.475000X-0.337500X0*%
%TD*%
%TA.AperFunction,ComponentPad*%
%ADD25O,2.700000X1.700000*%
%TD*%
%TA.AperFunction,SMDPad,CuDef*%
%ADD26RoundRect,0.250000X-0.325000X-0.450000X0.325000X-0.450000X0.325000X0.450000X-0.325000X0.450000X0*%
%TD*%
%TA.AperFunction,SMDPad,CuDef*%
%ADD27RoundRect,0.250000X-0.425000X0.537500X-0.425000X-0.537500X0.425000X-0.537500X0.425000X0.537500X0*%
%TD*%
%TA.AperFunction,SMDPad,CuDef*%
%ADD28RoundRect,0.375000X-0.375000X0.625000X-0.375000X-0.625000X0.375000X-0.625000X0.375000X0.625000X0*%
%TD*%
%TA.AperFunction,SMDPad,CuDef*%
%ADD29RoundRect,0.500000X-1.400000X0.500000X-1.400000X-0.500000X1.400000X-0.500000X1.400000X0.500000X0*%
%TD*%
%TA.AperFunction,ComponentPad*%
%ADD30C,1.700000*%
%TD*%
%TA.AperFunction,ComponentPad*%
%ADD31R,2.400000X2.400000*%
%TD*%
%TA.AperFunction,ComponentPad*%
%ADD32C,2.400000*%
%TD*%
%TA.AperFunction,SMDPad,CuDef*%
%ADD33RoundRect,0.250000X-0.475000X0.337500X-0.475000X-0.337500X0.475000X-0.337500X0.475000X0.337500X0*%
%TD*%
%TA.AperFunction,SMDPad,CuDef*%
%ADD34RoundRect,0.250000X-0.450000X0.350000X-0.450000X-0.350000X0.450000X-0.350000X0.450000X0.350000X0*%
%TD*%
%TA.AperFunction,ComponentPad*%
%ADD35RoundRect,0.250000X0.450000X0.450000X-0.450000X0.450000X-0.450000X-0.450000X0.450000X-0.450000X0*%
%TD*%
%TA.AperFunction,ComponentPad*%
%ADD36C,1.400000*%
%TD*%
%TA.AperFunction,SMDPad,CuDef*%
%ADD37RoundRect,0.150000X-0.675000X-0.150000X0.675000X-0.150000X0.675000X0.150000X-0.675000X0.150000X0*%
%TD*%
%TA.AperFunction,ComponentPad*%
%ADD38O,3.000000X1.800000*%
%TD*%
%TA.AperFunction,SMDPad,CuDef*%
%ADD39RoundRect,0.250000X0.450000X-0.325000X0.450000X0.325000X-0.450000X0.325000X-0.450000X-0.325000X0*%
%TD*%
%TA.AperFunction,ViaPad*%
%ADD40C,0.600000*%
%TD*%
%TA.AperFunction,Conductor*%
%ADD41C,0.500000*%
%TD*%
%TA.AperFunction,Conductor*%
%ADD42C,0.200000*%
%TD*%
G04 APERTURE END LIST*
D10*
%TO.P,C10,1*%
%TO.N,AudioIn*%
X77966275Y-66040000D03*
%TO.P,C10,2*%
%TO.N,Net-(C10-Pad2)*%
X80041275Y-66040000D03*
%TD*%
D11*
%TO.P,P2,+12V,+12V*%
%TO.N,+12v bypass*%
X65540000Y-49000000D03*
D12*
X65540000Y-51540000D03*
%TO.P,P2,-12V,-12V*%
%TO.N,-12v bypass*%
X55380000Y-49000000D03*
X55380000Y-51540000D03*
%TO.P,P2,GND,GND*%
%TO.N,Gnd*%
X63000000Y-49000000D03*
X60460000Y-49000000D03*
X57920000Y-49000000D03*
X63000000Y-51540000D03*
X60460000Y-51540000D03*
X57920000Y-51540000D03*
%TD*%
D13*
%TO.P,C5,1*%
%TO.N,Net-(D5-K)*%
X59518449Y-85100156D03*
%TO.P,C5,2*%
%TO.N,Gnd*%
X57443449Y-85100156D03*
%TD*%
D14*
%TO.P,R6,1*%
%TO.N,Net-(U5-+In)*%
X78908606Y-72278105D03*
%TO.P,R6,2*%
%TO.N,Net-(U5-Bypass)*%
X76908606Y-72278105D03*
%TD*%
D13*
%TO.P,C14,1*%
%TO.N,VCC*%
X87397500Y-65000000D03*
%TO.P,C14,2*%
%TO.N,AGnd*%
X85322500Y-65000000D03*
%TD*%
D15*
%TO.P,D6,1,K*%
%TO.N,Gnd*%
X68671500Y-69634025D03*
D16*
%TO.P,D6,2,A*%
%TO.N,Net-(D6-A)*%
X71211500Y-69634025D03*
%TD*%
D17*
%TO.P,U1,1,VI*%
%TO.N,Net-(D5-K)*%
X75510324Y-87983999D03*
D18*
%TO.P,U1,2,GND*%
%TO.N,Gnd*%
X72970324Y-87983999D03*
%TO.P,U1,3,VO*%
%TO.N,+5v*%
X70430324Y-87983999D03*
%TD*%
D14*
%TO.P,R5,1*%
%TO.N,Net-(R4-Pad2)*%
X78895578Y-74299061D03*
%TO.P,R5,2*%
%TO.N,Net-(U5--In)*%
X76895578Y-74299061D03*
%TD*%
D19*
%TO.P,R4,1*%
%TO.N,Net-(C10-Pad2)*%
X84067497Y-67121656D03*
%TO.P,R4,2*%
%TO.N,Net-(R4-Pad2)*%
X86067497Y-67121656D03*
%TD*%
D11*
%TO.P,J5,1,Pin_1*%
%TO.N,AudioIn*%
X77472723Y-61460000D03*
D12*
%TO.P,J5,2,Pin_2*%
%TO.N,VCC*%
X80012723Y-61460000D03*
%TO.P,J5,3,Pin_3*%
%TO.N,AGnd*%
X82552723Y-61460000D03*
%TD*%
D20*
%TO.P,P1,1,Pin_1*%
%TO.N,+12v bypass*%
X65540000Y-49000000D03*
D21*
%TO.P,P1,2,Pin_2*%
%TO.N,Gnd*%
X68080000Y-49000000D03*
%TO.P,P1,3,Pin_3*%
%TO.N,-12v bypass*%
X70620000Y-49000000D03*
%TD*%
D22*
%TO.P,J4,R*%
%TO.N,Net-(A2-Pin_2)*%
X59718449Y-81100156D03*
D23*
%TO.P,J4,S*%
%TO.N,Net-(A2-Pin_3)*%
X62218449Y-76700156D03*
D22*
%TO.P,J4,T*%
%TO.N,Net-(A2-Pin_1)*%
X67518449Y-81100156D03*
%TD*%
D24*
%TO.P,C12,1*%
%TO.N,AGnd*%
X76200000Y-79545000D03*
%TO.P,C12,2*%
%TO.N,Net-(U5-Bypass)*%
X76200000Y-77470000D03*
%TD*%
D25*
%TO.P,RV1,*%
%TO.N,*%
X63188260Y-65385027D03*
X63188260Y-55785027D03*
D15*
%TO.P,RV1,1,1*%
%TO.N,Net-(A1-Pin_1)*%
X70688260Y-63085027D03*
D16*
%TO.P,RV1,2,2*%
%TO.N,Net-(A1-Pin_2)*%
X70688260Y-60585027D03*
%TO.P,RV1,3,3*%
%TO.N,Net-(A1-Pin_3)*%
X70688260Y-58085027D03*
%TD*%
D13*
%TO.P,C9,1*%
%TO.N,+3.3v*%
X53772843Y-93968688D03*
%TO.P,C9,2*%
%TO.N,Gnd*%
X51697843Y-93968688D03*
%TD*%
D26*
%TO.P,D1,1,K*%
%TO.N,+12v bypass*%
X51519020Y-72460861D03*
%TO.P,D1,2,A*%
%TO.N,-12v clean*%
X53569020Y-72460861D03*
%TD*%
D27*
%TO.P,C3,1*%
%TO.N,Gnd*%
X51995534Y-48684028D03*
%TO.P,C3,2*%
%TO.N,-12v clean*%
X51995534Y-51559028D03*
%TD*%
D28*
%TO.P,U3,1,GND*%
%TO.N,Gnd*%
X61306548Y-88028448D03*
%TO.P,U3,2,VO*%
%TO.N,+3.3v*%
X59006548Y-88028448D03*
D29*
X59006548Y-94328448D03*
D28*
%TO.P,U3,3,VI*%
%TO.N,+12v*%
X56706548Y-88028448D03*
%TD*%
D30*
%TO.P,P9,1,Pin_1*%
%TO.N,+12v*%
X86357855Y-46990000D03*
D11*
%TO.P,P9,2,Pin_2*%
%TO.N,Gnd*%
X86357855Y-49530000D03*
%TD*%
D31*
%TO.P,J7,1,Pin_1*%
%TO.N,Out+*%
X84597376Y-79246295D03*
D32*
%TO.P,J7,2,Pin_2*%
%TO.N,Out-*%
X88097376Y-79246295D03*
%TD*%
D11*
%TO.P,P8,1,Pin_1*%
%TO.N,Gnd*%
X83814110Y-91788250D03*
D12*
%TO.P,P8,2,Pin_2*%
%TO.N,-12v*%
X83814110Y-94328250D03*
%TD*%
D11*
%TO.P,P10,1,Pin_1*%
%TO.N,Gnd*%
X86360000Y-91794963D03*
D12*
%TO.P,P10,2,Pin_2*%
%TO.N,-12v*%
X86360000Y-94334963D03*
%TD*%
D33*
%TO.P,C7,1*%
%TO.N,+12v*%
X52000000Y-88962500D03*
%TO.P,C7,2*%
%TO.N,Gnd*%
X52000000Y-91037500D03*
%TD*%
D11*
%TO.P,A1,1,Pin_1*%
%TO.N,Net-(A1-Pin_1)*%
X76191276Y-57069118D03*
D12*
%TO.P,A1,2,Pin_2*%
%TO.N,Net-(A1-Pin_2)*%
X78731276Y-57069118D03*
%TO.P,A1,3,Pin_3*%
%TO.N,Net-(A1-Pin_3)*%
X81271276Y-57069118D03*
%TO.P,A1,4,Pin_4*%
%TO.N,unconnected-(A1-Pin_4-Pad4)*%
X83811276Y-57069118D03*
%TO.P,A1,5,Pin_5*%
%TO.N,+3.3v*%
X86351276Y-57069118D03*
%TD*%
D30*
%TO.P,P7,1,Pin_1*%
%TO.N,+12v*%
X83811276Y-47000868D03*
D11*
%TO.P,P7,2,Pin_2*%
%TO.N,Gnd*%
X83811276Y-49540868D03*
%TD*%
%TO.P,A4,1,Pin_1*%
%TO.N,Net-(A2-Pin_1)*%
X50000000Y-75714262D03*
D12*
%TO.P,A4,2,Pin_2*%
%TO.N,Net-(A2-Pin_2)*%
X50000000Y-78254262D03*
%TO.P,A4,3,Pin_3*%
%TO.N,Net-(A2-Pin_3)*%
X50000000Y-80794262D03*
%TO.P,A4,4,Pin_4*%
%TO.N,unconnected-(A4-Pin_4-Pad4)*%
X50000000Y-83334262D03*
%TO.P,A4,5,Pin_5*%
%TO.N,+5v*%
X50000000Y-85874262D03*
%TD*%
D11*
%TO.P,A2,1,Pin_1*%
%TO.N,Net-(A2-Pin_1)*%
X76208801Y-85090000D03*
D12*
%TO.P,A2,2,Pin_2*%
%TO.N,Net-(A2-Pin_2)*%
X78748801Y-85090000D03*
%TO.P,A2,3,Pin_3*%
%TO.N,Net-(A2-Pin_3)*%
X81288801Y-85090000D03*
%TO.P,A2,4,Pin_4*%
%TO.N,unconnected-(A2-Pin_4-Pad4)*%
X83828801Y-85090000D03*
%TO.P,A2,5,Pin_5*%
%TO.N,+5v*%
X86368801Y-85090000D03*
%TD*%
D11*
%TO.P,A3,1,Pin_1*%
%TO.N,Net-(A1-Pin_1)*%
X50013691Y-57939292D03*
D12*
%TO.P,A3,2,Pin_2*%
%TO.N,Net-(A1-Pin_2)*%
X50013691Y-60479292D03*
%TO.P,A3,3,Pin_3*%
%TO.N,Net-(A1-Pin_3)*%
X50013691Y-63019292D03*
%TO.P,A3,4,Pin_4*%
%TO.N,unconnected-(A3-Pin_4-Pad4)*%
X50013691Y-65559292D03*
%TO.P,A3,5,Pin_5*%
%TO.N,+3.3v*%
X50013691Y-68099292D03*
%TD*%
D34*
%TO.P,R7,1*%
%TO.N,Net-(R4-Pad2)*%
X80010000Y-77470000D03*
%TO.P,R7,2*%
%TO.N,Out-*%
X80010000Y-79470000D03*
%TD*%
D35*
%TO.P,SW1,1,A*%
%TO.N,+12v*%
X64582831Y-71624680D03*
D36*
%TO.P,SW1,2,B*%
%TO.N,+12v clean*%
X62082831Y-71624680D03*
%TO.P,SW1,3,C*%
%TO.N,unconnected-(SW1-C-Pad3)*%
X59582831Y-71624680D03*
%TO.P,SW1,4,A*%
%TO.N,unconnected-(SW1-A-Pad4)*%
X59582831Y-68324680D03*
%TO.P,SW1,5,B*%
%TO.N,-12v clean*%
X62082831Y-68324680D03*
%TO.P,SW1,6,C*%
%TO.N,-12v*%
X64582831Y-68324680D03*
%TD*%
D28*
%TO.P,U4,1,VI*%
%TO.N,Net-(D5-K)*%
X75300000Y-87964264D03*
%TO.P,U4,2,GND*%
%TO.N,Gnd*%
X73000000Y-87964264D03*
D29*
X73000000Y-94264264D03*
D28*
%TO.P,U4,3,VO*%
%TO.N,+5v*%
X70700000Y-87964264D03*
%TD*%
D33*
%TO.P,C6,1*%
%TO.N,+5v*%
X66706548Y-87925000D03*
%TO.P,C6,2*%
%TO.N,Gnd*%
X66706548Y-90000000D03*
%TD*%
D10*
%TO.P,C8,1*%
%TO.N,+3.3v*%
X64962500Y-94000000D03*
%TO.P,C8,2*%
%TO.N,Gnd*%
X67037500Y-94000000D03*
%TD*%
D25*
%TO.P,RV2,*%
%TO.N,*%
X63656922Y-83813864D03*
X63656922Y-74213864D03*
D15*
%TO.P,RV2,1,1*%
%TO.N,Net-(A2-Pin_1)*%
X71156922Y-81513864D03*
D16*
%TO.P,RV2,2,2*%
%TO.N,Net-(A2-Pin_2)*%
X71156922Y-79013864D03*
%TO.P,RV2,3,3*%
%TO.N,Net-(A2-Pin_3)*%
X71156922Y-76513864D03*
%TD*%
D37*
%TO.P,U5,1,Shutdown*%
%TO.N,AGnd*%
X82380000Y-70257280D03*
%TO.P,U5,2,Bypass*%
%TO.N,Net-(U5-Bypass)*%
X82380000Y-71527280D03*
%TO.P,U5,3,+In*%
%TO.N,Net-(U5-+In)*%
X82380000Y-72797280D03*
%TO.P,U5,4,-In*%
%TO.N,Net-(U5--In)*%
X82380000Y-74067280D03*
%TO.P,U5,5,VO2*%
%TO.N,Out+*%
X87630000Y-74067280D03*
%TO.P,U5,6,Gnd*%
%TO.N,AGnd*%
X87630000Y-72797280D03*
%TO.P,U5,7,VDD*%
%TO.N,VCC*%
X87630000Y-71527280D03*
%TO.P,U5,8,VO1*%
%TO.N,Out-*%
X87630000Y-70257280D03*
%TD*%
D17*
%TO.P,U2,1,GND*%
%TO.N,Gnd*%
X61503159Y-87983999D03*
D18*
%TO.P,U2,2,VO*%
%TO.N,+3.3v*%
X58963159Y-87983999D03*
%TO.P,U2,3,VI*%
%TO.N,+12v*%
X56423159Y-87983999D03*
%TD*%
D38*
%TO.P,J1,R*%
%TO.N,Net-(A1-Pin_2)*%
X58251109Y-57209364D03*
%TO.P,J1,S*%
%TO.N,Net-(A1-Pin_3)*%
X56297109Y-62509364D03*
%TO.P,J1,T*%
%TO.N,Net-(A1-Pin_1)*%
X63155109Y-62509364D03*
%TD*%
D10*
%TO.P,C11,1*%
%TO.N,AudioIn*%
X76432500Y-68580000D03*
%TO.P,C11,2*%
%TO.N,Net-(C10-Pad2)*%
X78507500Y-68580000D03*
%TD*%
D22*
%TO.P,J3,R*%
%TO.N,Net-(A1-Pin_2)*%
X59292981Y-62697583D03*
D23*
%TO.P,J3,S*%
%TO.N,Net-(A1-Pin_3)*%
X61792981Y-58297583D03*
D22*
%TO.P,J3,T*%
%TO.N,Net-(A1-Pin_1)*%
X67092981Y-62697583D03*
%TD*%
D38*
%TO.P,J2,R*%
%TO.N,Net-(A2-Pin_2)*%
X58000000Y-75000000D03*
%TO.P,J2,S*%
%TO.N,Net-(A2-Pin_3)*%
X56046000Y-80300000D03*
%TO.P,J2,T*%
%TO.N,Net-(A2-Pin_1)*%
X62904000Y-80300000D03*
%TD*%
D11*
%TO.P,J6,1,Pin_1*%
%TO.N,Out+*%
X85090000Y-79240686D03*
D12*
%TO.P,J6,2,Pin_2*%
%TO.N,Out-*%
X87630000Y-79240686D03*
%TD*%
D39*
%TO.P,D4,1,K*%
%TO.N,+12v clean*%
X49342599Y-50298883D03*
%TO.P,D4,2,A*%
%TO.N,-12v bypass*%
X49342599Y-48248883D03*
%TD*%
D40*
%TO.N,*%
X84788701Y-58912857D03*
X77562583Y-81617045D03*
X86491374Y-58912857D03*
X80126801Y-81625211D03*
X78424128Y-81625211D03*
X79265257Y-81633378D03*
X85629830Y-58921024D03*
X83927156Y-58904691D03*
%TO.N,+12v*%
X65056171Y-66250001D03*
X51000000Y-71000000D03*
X68000000Y-57000000D03*
X78740000Y-49530000D03*
X58000000Y-70000000D03*
X66000000Y-79000000D03*
X61000000Y-84000000D03*
%TO.N,Gnd*%
X52000000Y-65000000D03*
X73000000Y-50000000D03*
X54000000Y-86000000D03*
X67000000Y-67000000D03*
X64992981Y-61520019D03*
X55000000Y-55000000D03*
X65070331Y-53070331D03*
X52000000Y-59000000D03*
X66986471Y-56666062D03*
X55000000Y-65000000D03*
X54000000Y-50000000D03*
X56000000Y-84000000D03*
%TO.N,-12v*%
X70000000Y-74000000D03*
X69000000Y-80000000D03*
X78740000Y-87860082D03*
X80010000Y-93980000D03*
%TO.N,Net-(A1-Pin_2)*%
X57785000Y-59690000D03*
%TO.N,Net-(D5-K)*%
X53000000Y-74000000D03*
%TO.N,+3.3v*%
X73000000Y-53000000D03*
X56168389Y-57168389D03*
X54000000Y-61000000D03*
X54000000Y-75000000D03*
X51973601Y-68063936D03*
%TO.N,+12v bypass*%
X70000000Y-68000000D03*
X64000000Y-67000000D03*
X74030331Y-53030331D03*
X56000000Y-71000000D03*
%TO.N,-12v bypass*%
X68775592Y-65347583D03*
X69030331Y-53030331D03*
X70000000Y-65000000D03*
X72561500Y-70438500D03*
X67000000Y-52290000D03*
X69000000Y-56000000D03*
%TO.N,+12v clean*%
X75950000Y-51020000D03*
X53000000Y-50000000D03*
X66482831Y-69074680D03*
X57043725Y-46930000D03*
X48800000Y-55000000D03*
%TO.N,-12v clean*%
X53000000Y-55000000D03*
X61523569Y-61562829D03*
X70030331Y-75030331D03*
X66000000Y-71000000D03*
X49742599Y-52000000D03*
X61000000Y-64000000D03*
X65000000Y-58000000D03*
%TO.N,AGnd*%
X81280000Y-68580000D03*
X83820000Y-64770000D03*
X85090000Y-73660000D03*
X77470000Y-78740000D03*
%TO.N,Out-*%
X82550000Y-77470000D03*
%TD*%
D41*
%TO.N,+12v*%
X61068449Y-83931551D02*
X61000000Y-84000000D01*
X66000000Y-65306172D02*
X66000000Y-64897583D01*
X65056171Y-66250001D02*
X66000000Y-65306172D01*
X55772496Y-88962500D02*
X56706548Y-88028448D01*
X52000000Y-88962500D02*
X55772496Y-88962500D01*
X86357855Y-46990000D02*
X83822144Y-46990000D01*
D42*
X83822144Y-46990000D02*
X83811276Y-47000868D01*
D41*
X51000000Y-71000000D02*
X52000000Y-70000000D01*
X66000000Y-79000000D02*
X66000000Y-79713188D01*
X65742981Y-64897583D02*
X65742981Y-60497583D01*
X66000000Y-64897583D02*
X65742981Y-64897583D01*
X81269132Y-47000868D02*
X83811276Y-47000868D01*
X65742981Y-60497583D02*
X67502417Y-60497583D01*
X66000000Y-79713188D02*
X63713188Y-82000000D01*
X63713188Y-82000000D02*
X62000000Y-82000000D01*
X67502417Y-60497583D02*
X68000000Y-60000000D01*
X62000000Y-82000000D02*
X61068449Y-82931551D01*
X61068449Y-82931551D02*
X61068449Y-83931551D01*
X78740000Y-49530000D02*
X81269132Y-47000868D01*
X52000000Y-70000000D02*
X58000000Y-70000000D01*
X68000000Y-60000000D02*
X68000000Y-57000000D01*
%TO.N,Gnd*%
X56000000Y-84000000D02*
X56343293Y-84000000D01*
X50695266Y-88304734D02*
X51825738Y-87174262D01*
D42*
X52684028Y-48684028D02*
X51995534Y-48684028D01*
X72970324Y-94234588D02*
X73000000Y-94264264D01*
D41*
X55000000Y-66098199D02*
X55000000Y-65000000D01*
X52098199Y-69000000D02*
X55000000Y-66098199D01*
X83814110Y-91788250D02*
X75476014Y-91788250D01*
X59553256Y-86275156D02*
X61306548Y-88028448D01*
D42*
X68671500Y-69634025D02*
X68671500Y-68671500D01*
X64992981Y-59425401D02*
X66986471Y-57431911D01*
D41*
X52000000Y-65000000D02*
X52000000Y-59000000D01*
D42*
X68671500Y-68671500D02*
X67000000Y-67000000D01*
X66986471Y-57431911D02*
X66986471Y-56666062D01*
X74670000Y-51670000D02*
X81682144Y-51670000D01*
D41*
X52825738Y-87174262D02*
X54000000Y-86000000D01*
X58618449Y-86275156D02*
X59553256Y-86275156D01*
X51825738Y-87174262D02*
X52825738Y-87174262D01*
X75476014Y-91788250D02*
X73000000Y-94264264D01*
X72970324Y-87983999D02*
X72970324Y-94234588D01*
X56343293Y-84000000D02*
X57443449Y-85100156D01*
X54000000Y-86000000D02*
X51300000Y-83300000D01*
X52000000Y-91037500D02*
X50695266Y-89732766D01*
X57443449Y-85100156D02*
X58618449Y-86275156D01*
X50250000Y-73250000D02*
X50250000Y-70689339D01*
X83814110Y-91788250D02*
X86353287Y-91788250D01*
X51300000Y-83300000D02*
X51300000Y-74300000D01*
X64530331Y-53070331D02*
X63000000Y-51540000D01*
X50695266Y-89732766D02*
X50695266Y-88304734D01*
D42*
X73000000Y-50000000D02*
X74670000Y-51670000D01*
D41*
X55000000Y-55000000D02*
X55000000Y-54460000D01*
X50250000Y-70689339D02*
X51939339Y-69000000D01*
X55000000Y-54460000D02*
X57920000Y-51540000D01*
X65070331Y-53070331D02*
X64530331Y-53070331D01*
D42*
X54000000Y-50000000D02*
X52684028Y-48684028D01*
D41*
X51939339Y-69000000D02*
X52098199Y-69000000D01*
X51300000Y-74300000D02*
X50250000Y-73250000D01*
D42*
X64992981Y-61520019D02*
X64992981Y-59425401D01*
X81682144Y-51670000D02*
X83811276Y-49540868D01*
D41*
%TO.N,-12v*%
X80010000Y-94328250D02*
X80010000Y-93980000D01*
X85096713Y-94334963D02*
X85090000Y-94328250D01*
X77269918Y-86390000D02*
X74908801Y-86390000D01*
X72637043Y-82863864D02*
X69806922Y-82863864D01*
X70000000Y-74000000D02*
X67321500Y-71321500D01*
X74908801Y-86090000D02*
X72637043Y-83818242D01*
X86360000Y-94334963D02*
X83820823Y-94334963D01*
X72637043Y-83818242D02*
X72637043Y-82863864D01*
X67321500Y-71321500D02*
X67321500Y-68324680D01*
X67321500Y-68324680D02*
X64582831Y-68324680D01*
X74908801Y-86390000D02*
X74908801Y-86090000D01*
X69806922Y-82863864D02*
X69000000Y-82056942D01*
X69000000Y-82056942D02*
X69000000Y-80000000D01*
X78740000Y-87860082D02*
X77269918Y-86390000D01*
X80010000Y-94328250D02*
X83814110Y-94328250D01*
D42*
%TO.N,Net-(A1-Pin_1)*%
X63155109Y-62509364D02*
X60891109Y-62509364D01*
X59742981Y-59497583D02*
X59245398Y-59000000D01*
X52008957Y-57939292D02*
X50013691Y-57939292D01*
X53069665Y-59000000D02*
X52008957Y-57939292D01*
X59245398Y-59000000D02*
X53069665Y-59000000D01*
X76191276Y-57069118D02*
X73349596Y-57069118D01*
X72894801Y-57523913D02*
X72894801Y-60878486D01*
X60891109Y-59868236D02*
X60520456Y-59497583D01*
X73349596Y-57069118D02*
X72894801Y-57523913D01*
X60520456Y-59497583D02*
X59742981Y-59497583D01*
X60891109Y-62509364D02*
X60891109Y-59868236D01*
X72894801Y-60878486D02*
X70688260Y-63085027D01*
%TO.N,Net-(A1-Pin_3)*%
X81008172Y-53600000D02*
X81271276Y-53863104D01*
X81271276Y-53863104D02*
X81271276Y-57069118D01*
X75177818Y-53600000D02*
X81008172Y-53600000D01*
X70688260Y-58085027D02*
X70692791Y-58085027D01*
X70692791Y-58085027D02*
X75177818Y-53600000D01*
%TO.N,Net-(A1-Pin_2)*%
X70191203Y-56191203D02*
X70191203Y-56885027D01*
X59292981Y-61197981D02*
X57785000Y-59690000D01*
X70191203Y-56885027D02*
X69488260Y-57587970D01*
X69488260Y-59385027D02*
X70688260Y-60585027D01*
X61085446Y-54375027D02*
X68375027Y-54375027D01*
X75476230Y-54000000D02*
X71888260Y-57587970D01*
X71888260Y-59385027D02*
X70688260Y-60585027D01*
X78731276Y-54136896D02*
X78731276Y-57069118D01*
X59292981Y-62697583D02*
X59292981Y-61197981D01*
X71888260Y-57587970D02*
X71888260Y-59385027D01*
X78868172Y-54000000D02*
X75476230Y-54000000D01*
X69488260Y-57587970D02*
X69488260Y-59385027D01*
X68375027Y-54375027D02*
X70191203Y-56191203D01*
X58251109Y-57209364D02*
X61085446Y-54375027D01*
X78868172Y-54000000D02*
X78731276Y-54136896D01*
%TO.N,Net-(A2-Pin_2)*%
X62818605Y-78000000D02*
X59718449Y-81100156D01*
X59718449Y-81100156D02*
X59718449Y-76718449D01*
X71156922Y-79013864D02*
X70143058Y-78000000D01*
X59718449Y-76718449D02*
X58000000Y-75000000D01*
X70143058Y-78000000D02*
X62818605Y-78000000D01*
%TO.N,Net-(A2-Pin_3)*%
X56190000Y-74512944D02*
X56190000Y-80156000D01*
X71156922Y-76513864D02*
X62404741Y-76513864D01*
X71156922Y-76513864D02*
X72894801Y-78251743D01*
X72894801Y-78251743D02*
X72894801Y-81185262D01*
X62218449Y-76700156D02*
X59318293Y-73800000D01*
X56190000Y-80156000D02*
X56046000Y-80300000D01*
X72894801Y-81185262D02*
X75529539Y-83820000D01*
X59318293Y-73800000D02*
X56902944Y-73800000D01*
X56902944Y-73800000D02*
X56190000Y-74512944D01*
X80018801Y-83820000D02*
X81288801Y-85090000D01*
X75529539Y-83820000D02*
X80018801Y-83820000D01*
X62404741Y-76513864D02*
X62218449Y-76700156D01*
D41*
%TO.N,Net-(D5-K)*%
X54750000Y-76825786D02*
X54750000Y-74689339D01*
X55236812Y-82000000D02*
X56418293Y-82000000D01*
X54750000Y-74689339D02*
X54060661Y-74000000D01*
D42*
X68000000Y-85223864D02*
X59642157Y-85223864D01*
D41*
X54000000Y-80763188D02*
X55236812Y-82000000D01*
X56418293Y-82000000D02*
X59518449Y-85100156D01*
D42*
X59642157Y-85223864D02*
X59518449Y-85100156D01*
D41*
X54060661Y-74000000D02*
X53000000Y-74000000D01*
D42*
X75510324Y-87983999D02*
X72750189Y-85223864D01*
D41*
X54000000Y-80763188D02*
X54000000Y-77575786D01*
X54000000Y-77575786D02*
X54750000Y-76825786D01*
D42*
X72750189Y-85223864D02*
X68000000Y-85223864D01*
D41*
%TO.N,+5v*%
X70430324Y-87983999D02*
X66765547Y-87983999D01*
X66765547Y-87983999D02*
X66706548Y-87925000D01*
%TO.N,+3.3v*%
X56168389Y-55831611D02*
X58174973Y-53825027D01*
X53300000Y-82766085D02*
X53300000Y-76700000D01*
X69825027Y-53825027D02*
X72000000Y-56000000D01*
X56168389Y-57168389D02*
X56168389Y-55831611D01*
X52044313Y-68063936D02*
X51973601Y-68063936D01*
X53000000Y-62000000D02*
X53308957Y-62308957D01*
X54096000Y-83562085D02*
X56809071Y-86275156D01*
X54000000Y-76000000D02*
X54000000Y-75000000D01*
X56809071Y-86275156D02*
X57254316Y-86275156D01*
X58646788Y-93968688D02*
X59006548Y-94328448D01*
X53308957Y-66799292D02*
X52044313Y-68063936D01*
X64962500Y-94000000D02*
X59334996Y-94000000D01*
X58174973Y-53825027D02*
X69825027Y-53825027D01*
X59334996Y-94000000D02*
X59006548Y-94328448D01*
X53772843Y-93968688D02*
X58646788Y-93968688D01*
X53308957Y-62308957D02*
X53308957Y-66799292D01*
D42*
X58730048Y-87983999D02*
X58963159Y-87983999D01*
D41*
X54096000Y-83562085D02*
X53300000Y-82766085D01*
X59006548Y-94328448D02*
X59006548Y-88028448D01*
X73000000Y-55000000D02*
X73000000Y-53000000D01*
X72000000Y-56000000D02*
X73000000Y-55000000D01*
X53300000Y-76700000D02*
X54000000Y-76000000D01*
X57254316Y-86275156D02*
X58963159Y-87983999D01*
X54000000Y-61000000D02*
X53000000Y-62000000D01*
%TO.N,+12v bypass*%
X74030331Y-52969670D02*
X74030331Y-53030331D01*
X71166762Y-50320000D02*
X71273712Y-50213051D01*
X69753238Y-50000000D02*
X70073238Y-50320000D01*
X67213238Y-50000000D02*
X67533238Y-50320000D01*
X67080000Y-50000000D02*
X67213238Y-50000000D01*
X68000000Y-66000000D02*
X70000000Y-68000000D01*
X67533238Y-50320000D02*
X68626762Y-50320000D01*
X64000000Y-67000000D02*
X65366833Y-67000000D01*
X68946762Y-50000000D02*
X69753238Y-50000000D01*
X70073238Y-50320000D02*
X71166762Y-50320000D01*
X71273712Y-50213051D02*
X74030331Y-52969670D01*
X68626762Y-50320000D02*
X68946762Y-50000000D01*
X56000000Y-71000000D02*
X52979881Y-71000000D01*
X65366833Y-67000000D02*
X66366833Y-66000000D01*
X65540000Y-51540000D02*
X67080000Y-50000000D01*
X52979881Y-71000000D02*
X51519020Y-72460861D01*
X65540000Y-51540000D02*
X65540000Y-49000000D01*
X66366833Y-66000000D02*
X68000000Y-66000000D01*
%TO.N,-12v bypass*%
X68938260Y-56061740D02*
X69000000Y-56000000D01*
X50144954Y-47446528D02*
X56466528Y-47446528D01*
X69030331Y-53030331D02*
X67740331Y-53030331D01*
X68775592Y-65347583D02*
X68938260Y-65184915D01*
X56466528Y-47446528D02*
X56700000Y-47680000D01*
X67740331Y-53030331D02*
X67000000Y-52290000D01*
X72561500Y-67561500D02*
X70000000Y-65000000D01*
X49342599Y-48248883D02*
X50144954Y-47446528D01*
X55380000Y-49000000D02*
X56700000Y-47680000D01*
X56700000Y-47680000D02*
X69300000Y-47680000D01*
X69300000Y-47680000D02*
X70620000Y-49000000D01*
X68938260Y-65184915D02*
X68938260Y-56061740D01*
X72561500Y-70438500D02*
X72561500Y-67561500D01*
%TO.N,+12v clean*%
X49641482Y-50000000D02*
X49342599Y-50298883D01*
X53000000Y-50000000D02*
X49641482Y-50000000D01*
X71860000Y-46930000D02*
X57043725Y-46930000D01*
X71860000Y-46930000D02*
X75950000Y-51020000D01*
X63886418Y-69821093D02*
X62082831Y-71624680D01*
X48800000Y-55000000D02*
X48750000Y-54950000D01*
X48750000Y-50891482D02*
X49342599Y-50298883D01*
X63886418Y-69821093D02*
X65736418Y-69821093D01*
X48750000Y-54950000D02*
X48750000Y-50891482D01*
X65736418Y-69821093D02*
X66482831Y-69074680D01*
%TO.N,-12v clean*%
X62554166Y-61086398D02*
X65000000Y-58640564D01*
X69030331Y-75030331D02*
X67000000Y-73000000D01*
X65000000Y-58640564D02*
X65000000Y-58000000D01*
X51995534Y-51559028D02*
X51995534Y-51004466D01*
X62082831Y-68324680D02*
X61000000Y-67241849D01*
X62000000Y-61086398D02*
X62554166Y-61086398D01*
X70030331Y-75030331D02*
X69030331Y-75030331D01*
X66000000Y-72000000D02*
X66000000Y-71000000D01*
X51995534Y-51559028D02*
X50183571Y-51559028D01*
X62082831Y-68324680D02*
X61209177Y-68324680D01*
X61000000Y-67241849D02*
X61000000Y-64000000D01*
X61209177Y-68324680D02*
X57072996Y-72460861D01*
X50183571Y-51559028D02*
X49742599Y-52000000D01*
X61523569Y-61562829D02*
X62000000Y-61086398D01*
X53000000Y-52563494D02*
X51995534Y-51559028D01*
X67000000Y-73000000D02*
X66000000Y-72000000D01*
X57072996Y-72460861D02*
X53569020Y-72460861D01*
X53000000Y-55000000D02*
X53000000Y-52563494D01*
D42*
%TO.N,Net-(C10-Pad2)*%
X80041275Y-67046225D02*
X78507500Y-68580000D01*
X82361656Y-67121656D02*
X84067497Y-67121656D01*
X81280000Y-66040000D02*
X82361656Y-67121656D01*
X80041275Y-66040000D02*
X81280000Y-66040000D01*
X80041275Y-66040000D02*
X80041275Y-67046225D01*
%TO.N,AudioIn*%
X77472723Y-61460000D02*
X77472723Y-65546448D01*
X77472723Y-65546448D02*
X77966275Y-66040000D01*
X77966275Y-66040000D02*
X77470000Y-66040000D01*
X76432500Y-67077500D02*
X76432500Y-68580000D01*
X77470000Y-66040000D02*
X76432500Y-67077500D01*
%TO.N,AGnd*%
X85090000Y-73660000D02*
X85952720Y-72797280D01*
X85952720Y-72797280D02*
X87630000Y-72797280D01*
X81280000Y-68580000D02*
X81280000Y-69157280D01*
X81280000Y-69157280D02*
X82380000Y-70257280D01*
D41*
X83820000Y-64770000D02*
X85092500Y-64770000D01*
D42*
X76200000Y-79545000D02*
X76665000Y-79545000D01*
X76665000Y-79545000D02*
X77470000Y-78740000D01*
X85092500Y-64770000D02*
X85322500Y-65000000D01*
%TO.N,Net-(U5-Bypass)*%
X82080001Y-71227281D02*
X77959430Y-71227281D01*
X75278376Y-76548376D02*
X75278376Y-73311624D01*
X75278376Y-73311624D02*
X76311895Y-72278105D01*
X82380000Y-71527280D02*
X82080001Y-71227281D01*
X76311895Y-72278105D02*
X76908606Y-72278105D01*
X76200000Y-77470000D02*
X75278376Y-76548376D01*
X77959430Y-71227281D02*
X76908606Y-72278105D01*
D41*
%TO.N,VCC*%
X86071076Y-62850000D02*
X87397500Y-64176424D01*
X86355000Y-69854596D02*
X86355000Y-71077279D01*
X87397500Y-65000000D02*
X87397500Y-68812096D01*
X86071076Y-62850000D02*
X81402723Y-62850000D01*
X87397500Y-64176424D02*
X87397500Y-65000000D01*
X86355000Y-71077279D02*
X86805001Y-71527280D01*
X86805001Y-71527280D02*
X87630000Y-71527280D01*
X81402723Y-62850000D02*
X80012723Y-61460000D01*
X87397500Y-68812096D02*
X86355000Y-69854596D01*
D42*
%TO.N,Out+*%
X87630000Y-74067280D02*
X85090000Y-76607280D01*
X85090000Y-76607280D02*
X85090000Y-79240686D01*
X84602985Y-79240686D02*
X84597376Y-79246295D01*
X85090000Y-79240686D02*
X84602985Y-79240686D01*
%TO.N,Out-*%
X87635609Y-79246295D02*
X87630000Y-79240686D01*
X87630000Y-70257280D02*
X88454999Y-70257280D01*
X82010000Y-77470000D02*
X82550000Y-77470000D01*
X80010000Y-79470000D02*
X82010000Y-77470000D01*
X88454999Y-70257280D02*
X88900000Y-70702281D01*
X88900000Y-78443671D02*
X88097376Y-79246295D01*
X88900000Y-70702281D02*
X88900000Y-78443671D01*
X88097376Y-79246295D02*
X87635609Y-79246295D01*
%TO.N,Net-(R4-Pad2)*%
X83505000Y-69684153D02*
X83505000Y-74675000D01*
X83505000Y-74675000D02*
X80710000Y-77470000D01*
X78895578Y-74299061D02*
X78895578Y-76355578D01*
X86067497Y-67121656D02*
X83505000Y-69684153D01*
X78895578Y-76355578D02*
X80010000Y-77470000D01*
X80710000Y-77470000D02*
X80010000Y-77470000D01*
X79370307Y-74208105D02*
X79178420Y-74016218D01*
%TO.N,Net-(U5--In)*%
X82380000Y-74067280D02*
X80248541Y-74067280D01*
X79480322Y-73299061D02*
X77895578Y-73299061D01*
X77895578Y-73299061D02*
X76895578Y-74299061D01*
X80248541Y-74067280D02*
X79480322Y-73299061D01*
%TO.N,Net-(U5-+In)*%
X78908606Y-72278105D02*
X81860825Y-72278105D01*
X81860825Y-72278105D02*
X82380000Y-72797280D01*
%TD*%
%TA.AperFunction,Conductor*%
%TO.N,AGnd*%
G36*
X77938912Y-75219609D02*
G01*
X77983259Y-75248110D01*
X78076922Y-75341773D01*
X78226244Y-75433875D01*
X78226245Y-75433875D01*
X78232391Y-75437666D01*
X78231284Y-75439460D01*
X78275915Y-75478748D01*
X78295078Y-75544969D01*
X78295078Y-76268908D01*
X78295077Y-76268926D01*
X78295077Y-76434632D01*
X78295076Y-76434632D01*
X78317954Y-76520010D01*
X78336001Y-76587363D01*
X78359136Y-76627433D01*
X78393144Y-76686337D01*
X78415057Y-76724293D01*
X78533927Y-76843163D01*
X78533933Y-76843168D01*
X78773181Y-77082416D01*
X78806666Y-77143739D01*
X78809500Y-77170097D01*
X78809500Y-77870001D01*
X78809501Y-77870019D01*
X78820000Y-77972796D01*
X78820001Y-77972799D01*
X78875185Y-78139331D01*
X78875187Y-78139336D01*
X78894053Y-78169922D01*
X78959213Y-78275565D01*
X78967289Y-78288657D01*
X79060951Y-78382319D01*
X79094436Y-78443642D01*
X79089452Y-78513334D01*
X79060951Y-78557681D01*
X78967289Y-78651342D01*
X78875187Y-78800663D01*
X78875186Y-78800666D01*
X78820001Y-78967203D01*
X78820001Y-78967204D01*
X78820000Y-78967204D01*
X78809500Y-79069983D01*
X78809500Y-79870001D01*
X78809501Y-79870019D01*
X78820000Y-79972796D01*
X78820001Y-79972799D01*
X78866157Y-80112087D01*
X78875186Y-80139334D01*
X78967288Y-80288656D01*
X79091344Y-80412712D01*
X79240666Y-80504814D01*
X79407203Y-80559999D01*
X79509991Y-80570500D01*
X80510008Y-80570499D01*
X80510016Y-80570498D01*
X80510019Y-80570498D01*
X80595254Y-80561791D01*
X80612797Y-80559999D01*
X80779334Y-80504814D01*
X80928656Y-80412712D01*
X81052712Y-80288656D01*
X81144814Y-80139334D01*
X81199999Y-79972797D01*
X81210500Y-79870009D01*
X81210499Y-79170095D01*
X81230183Y-79103057D01*
X81246813Y-79082420D01*
X82095729Y-78233504D01*
X82157050Y-78200021D01*
X82224360Y-78204145D01*
X82308267Y-78233506D01*
X82370740Y-78255367D01*
X82370750Y-78255369D01*
X82549996Y-78275565D01*
X82550000Y-78275565D01*
X82550004Y-78275565D01*
X82729249Y-78255369D01*
X82729250Y-78255368D01*
X82729255Y-78255368D01*
X82731921Y-78254434D01*
X82733753Y-78254341D01*
X82736037Y-78253820D01*
X82736128Y-78254220D01*
X82801699Y-78250872D01*
X82862326Y-78285600D01*
X82894554Y-78347593D01*
X82896876Y-78371476D01*
X82896876Y-80494165D01*
X82896877Y-80494171D01*
X82904114Y-80561491D01*
X82901317Y-80561791D01*
X82898282Y-80618252D01*
X82857407Y-80674917D01*
X82792384Y-80700488D01*
X82781383Y-80700980D01*
X81288919Y-80701359D01*
X81186565Y-80701359D01*
X81003298Y-80737813D01*
X81003290Y-80737815D01*
X80830656Y-80809321D01*
X80830643Y-80809328D01*
X80675280Y-80913139D01*
X80670573Y-80917003D01*
X80669437Y-80915619D01*
X80615509Y-80945054D01*
X80545818Y-80940057D01*
X80523201Y-80928877D01*
X80476324Y-80899422D01*
X80306055Y-80839842D01*
X80306050Y-80839841D01*
X80126805Y-80819646D01*
X80126797Y-80819646D01*
X79947551Y-80839841D01*
X79947538Y-80839844D01*
X79777281Y-80899420D01*
X79755500Y-80913106D01*
X79688263Y-80932105D01*
X79623558Y-80913105D01*
X79614779Y-80907588D01*
X79614775Y-80907587D01*
X79444519Y-80848011D01*
X79444506Y-80848008D01*
X79265261Y-80827813D01*
X79265253Y-80827813D01*
X79086007Y-80848008D01*
X79085994Y-80848011D01*
X78915735Y-80907588D01*
X78909463Y-80910609D01*
X78908726Y-80909079D01*
X78849905Y-80925690D01*
X78785222Y-80906692D01*
X78773651Y-80899422D01*
X78773649Y-80899421D01*
X78603390Y-80839844D01*
X78603377Y-80839841D01*
X78424132Y-80819646D01*
X78424124Y-80819646D01*
X78244878Y-80839841D01*
X78244865Y-80839844D01*
X78074606Y-80899421D01*
X78065821Y-80904941D01*
X77998583Y-80923939D01*
X77933880Y-80904938D01*
X77912107Y-80891256D01*
X77741837Y-80831676D01*
X77741832Y-80831675D01*
X77562587Y-80811480D01*
X77562579Y-80811480D01*
X77383333Y-80831675D01*
X77383328Y-80831676D01*
X77213057Y-80891257D01*
X77110017Y-80956001D01*
X77042780Y-80975001D01*
X76975945Y-80954633D01*
X76956366Y-80938690D01*
X76946553Y-80928877D01*
X76930822Y-80913146D01*
X76930816Y-80913142D01*
X76833337Y-80848008D01*
X76816361Y-80836665D01*
X76771557Y-80783054D01*
X76762850Y-80713729D01*
X76793004Y-80650702D01*
X76846249Y-80615858D01*
X76994119Y-80566858D01*
X76994124Y-80566856D01*
X77143345Y-80474815D01*
X77267315Y-80350845D01*
X77359356Y-80201624D01*
X77359358Y-80201619D01*
X77414505Y-80035197D01*
X77414506Y-80035190D01*
X77424999Y-79932486D01*
X77425000Y-79932473D01*
X77425000Y-79795000D01*
X76074000Y-79795000D01*
X76006961Y-79775315D01*
X75961206Y-79722511D01*
X75950000Y-79671000D01*
X75950000Y-79419000D01*
X75969685Y-79351961D01*
X76022489Y-79306206D01*
X76074000Y-79295000D01*
X77424999Y-79295000D01*
X77424999Y-79157528D01*
X77424998Y-79157513D01*
X77414505Y-79054802D01*
X77359358Y-78888380D01*
X77359356Y-78888375D01*
X77267315Y-78739154D01*
X77143344Y-78615183D01*
X77143341Y-78615181D01*
X77140339Y-78613329D01*
X77138713Y-78611521D01*
X77137677Y-78610702D01*
X77137817Y-78610524D01*
X77093617Y-78561380D01*
X77082397Y-78492417D01*
X77110243Y-78428336D01*
X77140344Y-78402254D01*
X77143656Y-78400212D01*
X77267712Y-78276156D01*
X77359814Y-78126834D01*
X77414999Y-77960297D01*
X77425500Y-77857509D01*
X77425499Y-77082492D01*
X77414999Y-76979703D01*
X77359814Y-76813166D01*
X77267712Y-76663844D01*
X77143656Y-76539788D01*
X76994334Y-76447686D01*
X76827797Y-76392501D01*
X76827795Y-76392500D01*
X76725016Y-76382000D01*
X76725009Y-76382000D01*
X76012597Y-76382000D01*
X75945558Y-76362315D01*
X75924916Y-76345681D01*
X75915195Y-76335960D01*
X75881710Y-76274637D01*
X75878876Y-76248279D01*
X75878876Y-75441304D01*
X75898561Y-75374265D01*
X75951365Y-75328510D01*
X76020523Y-75318566D01*
X76069709Y-75339708D01*
X76070775Y-75337981D01*
X76076920Y-75341771D01*
X76076922Y-75341773D01*
X76226244Y-75433875D01*
X76392781Y-75489060D01*
X76495569Y-75499561D01*
X77295586Y-75499560D01*
X77295594Y-75499559D01*
X77295597Y-75499559D01*
X77351880Y-75493809D01*
X77398375Y-75489060D01*
X77564912Y-75433875D01*
X77714234Y-75341773D01*
X77807897Y-75248110D01*
X77869220Y-75214625D01*
X77938912Y-75219609D01*
G37*
%TD.AperFunction*%
%TA.AperFunction,Conductor*%
G36*
X86579090Y-68330542D02*
G01*
X86629975Y-68378422D01*
X86647000Y-68441131D01*
X86647000Y-68449865D01*
X86627315Y-68516904D01*
X86610681Y-68537546D01*
X85772050Y-69376176D01*
X85772044Y-69376184D01*
X85722812Y-69449864D01*
X85722813Y-69449865D01*
X85689921Y-69499092D01*
X85689914Y-69499104D01*
X85633342Y-69635682D01*
X85633340Y-69635688D01*
X85604500Y-69780675D01*
X85604500Y-69780678D01*
X85604500Y-71151197D01*
X85604500Y-71151199D01*
X85604499Y-71151199D01*
X85633340Y-71296186D01*
X85633343Y-71296196D01*
X85689914Y-71432772D01*
X85689915Y-71432774D01*
X85703672Y-71453363D01*
X85772046Y-71555693D01*
X85772052Y-71555700D01*
X86222050Y-72005696D01*
X86326585Y-72110231D01*
X86365804Y-72136436D01*
X86410608Y-72190047D01*
X86419317Y-72259372D01*
X86403645Y-72302658D01*
X86353719Y-72387079D01*
X86307899Y-72544793D01*
X86307704Y-72547278D01*
X86307705Y-72547280D01*
X87756000Y-72547280D01*
X87823039Y-72566965D01*
X87868794Y-72619769D01*
X87880000Y-72671280D01*
X87880000Y-72923280D01*
X87860315Y-72990319D01*
X87807511Y-73036074D01*
X87756000Y-73047280D01*
X86307705Y-73047280D01*
X86307704Y-73047281D01*
X86307899Y-73049766D01*
X86353718Y-73207478D01*
X86437314Y-73348832D01*
X86442100Y-73355002D01*
X86439640Y-73356909D01*
X86466210Y-73405568D01*
X86461226Y-73475260D01*
X86440162Y-73508061D01*
X86441699Y-73509254D01*
X86436915Y-73515420D01*
X86353255Y-73656883D01*
X86353254Y-73656886D01*
X86307402Y-73814706D01*
X86307401Y-73814712D01*
X86304500Y-73851578D01*
X86304500Y-74282981D01*
X86307401Y-74319847D01*
X86307402Y-74319853D01*
X86336648Y-74420514D01*
X86336449Y-74490383D01*
X86305253Y-74542790D01*
X84721286Y-76126758D01*
X84609481Y-76238562D01*
X84609477Y-76238567D01*
X84587568Y-76276517D01*
X84587566Y-76276521D01*
X84574218Y-76299641D01*
X84538033Y-76362315D01*
X84530423Y-76375495D01*
X84489499Y-76528223D01*
X84489499Y-76528225D01*
X84489499Y-76696326D01*
X84489500Y-76696339D01*
X84489500Y-77421795D01*
X84469815Y-77488834D01*
X84417011Y-77534589D01*
X84365500Y-77545795D01*
X83474918Y-77545795D01*
X83407879Y-77526110D01*
X83362124Y-77473306D01*
X83351698Y-77435678D01*
X83335369Y-77290750D01*
X83335368Y-77290745D01*
X83275788Y-77120476D01*
X83179815Y-76967737D01*
X83052262Y-76840184D01*
X82899523Y-76744211D01*
X82729254Y-76684631D01*
X82729250Y-76684630D01*
X82639422Y-76674509D01*
X82575008Y-76647442D01*
X82535453Y-76589847D01*
X82533316Y-76520010D01*
X82565623Y-76463610D01*
X83873713Y-75155521D01*
X83873716Y-75155520D01*
X83985520Y-75043716D01*
X84035639Y-74956904D01*
X84064577Y-74906785D01*
X84105501Y-74754057D01*
X84105501Y-74595943D01*
X84105501Y-74588348D01*
X84105500Y-74588330D01*
X84105500Y-69984249D01*
X84125185Y-69917210D01*
X84141814Y-69896573D01*
X85679913Y-68358473D01*
X85741236Y-68324989D01*
X85767594Y-68322155D01*
X86467499Y-68322155D01*
X86467505Y-68322155D01*
X86510398Y-68317773D01*
X86579090Y-68330542D01*
G37*
%TD.AperFunction*%
%TA.AperFunction,Conductor*%
G36*
X81227867Y-66837810D02*
G01*
X81236093Y-66845328D01*
X81992940Y-67602176D01*
X81992942Y-67602177D01*
X81992946Y-67602180D01*
X82109172Y-67669282D01*
X82129872Y-67681233D01*
X82282599Y-67722157D01*
X82282601Y-67722157D01*
X82448310Y-67722157D01*
X82448326Y-67722156D01*
X82887196Y-67722156D01*
X82954235Y-67741841D01*
X82999990Y-67794645D01*
X83004900Y-67807148D01*
X83032683Y-67890990D01*
X83124785Y-68040312D01*
X83248841Y-68164368D01*
X83398163Y-68256470D01*
X83564700Y-68311655D01*
X83667488Y-68322156D01*
X83718399Y-68322155D01*
X83785437Y-68341838D01*
X83831192Y-68394641D01*
X83841137Y-68463800D01*
X83812113Y-68527356D01*
X83806080Y-68533836D01*
X83136286Y-69203631D01*
X83024481Y-69315435D01*
X83024479Y-69315438D01*
X82978519Y-69395045D01*
X82978403Y-69395246D01*
X82927851Y-69443477D01*
X82870996Y-69457280D01*
X82630000Y-69457280D01*
X82630000Y-70383280D01*
X82610315Y-70450319D01*
X82557511Y-70496074D01*
X82506000Y-70507280D01*
X81057705Y-70507280D01*
X81052387Y-70513032D01*
X81042219Y-70561432D01*
X80993167Y-70611187D01*
X80932967Y-70626781D01*
X78046100Y-70626781D01*
X78046084Y-70626780D01*
X78038488Y-70626780D01*
X77880373Y-70626780D01*
X77804009Y-70647242D01*
X77727644Y-70667704D01*
X77727639Y-70667707D01*
X77590720Y-70746756D01*
X77590712Y-70746762D01*
X77296188Y-71041286D01*
X77234865Y-71074771D01*
X77208507Y-71077605D01*
X76508604Y-71077605D01*
X76508586Y-71077606D01*
X76405809Y-71088105D01*
X76405806Y-71088106D01*
X76239274Y-71143290D01*
X76239269Y-71143292D01*
X76089948Y-71235394D01*
X75965895Y-71359447D01*
X75873793Y-71508768D01*
X75873791Y-71508773D01*
X75858243Y-71555695D01*
X75818607Y-71675308D01*
X75818607Y-71675309D01*
X75818606Y-71675309D01*
X75808106Y-71778088D01*
X75808106Y-71881295D01*
X75788421Y-71948334D01*
X75771787Y-71968976D01*
X75390557Y-72350206D01*
X75329234Y-72383691D01*
X75259542Y-72378707D01*
X75203609Y-72336835D01*
X75179192Y-72271371D01*
X75178876Y-72262525D01*
X75178876Y-70007278D01*
X81057704Y-70007278D01*
X81057705Y-70007280D01*
X82130000Y-70007280D01*
X82130000Y-69457280D01*
X81639350Y-69457280D01*
X81602510Y-69460179D01*
X81602504Y-69460180D01*
X81444806Y-69505996D01*
X81444803Y-69505997D01*
X81303447Y-69589594D01*
X81303438Y-69589601D01*
X81187321Y-69705718D01*
X81187314Y-69705727D01*
X81103718Y-69847081D01*
X81057899Y-70004793D01*
X81057704Y-70007278D01*
X75178876Y-70007278D01*
X75178876Y-69436558D01*
X75198561Y-69369519D01*
X75251365Y-69323764D01*
X75320523Y-69313820D01*
X75384079Y-69342845D01*
X75408415Y-69371462D01*
X75410185Y-69374331D01*
X75410186Y-69374334D01*
X75456773Y-69449864D01*
X75499590Y-69519283D01*
X75502288Y-69523656D01*
X75626344Y-69647712D01*
X75775666Y-69739814D01*
X75942203Y-69794999D01*
X76044991Y-69805500D01*
X76820008Y-69805499D01*
X76820016Y-69805498D01*
X76820019Y-69805498D01*
X76876302Y-69799748D01*
X76922797Y-69794999D01*
X77089334Y-69739814D01*
X77238656Y-69647712D01*
X77362712Y-69523656D01*
X77364461Y-69520819D01*
X77366169Y-69519283D01*
X77367193Y-69517989D01*
X77367414Y-69518163D01*
X77416406Y-69474096D01*
X77485368Y-69462872D01*
X77549451Y-69490713D01*
X77575537Y-69520817D01*
X77577288Y-69523656D01*
X77701344Y-69647712D01*
X77850666Y-69739814D01*
X78017203Y-69794999D01*
X78119991Y-69805500D01*
X78895008Y-69805499D01*
X78895016Y-69805498D01*
X78895019Y-69805498D01*
X78951302Y-69799748D01*
X78997797Y-69794999D01*
X79164334Y-69739814D01*
X79313656Y-69647712D01*
X79437712Y-69523656D01*
X79529814Y-69374334D01*
X79584999Y-69207797D01*
X79595500Y-69105009D01*
X79595499Y-68392595D01*
X79615183Y-68325557D01*
X79631813Y-68304920D01*
X80399781Y-67536953D01*
X80399786Y-67536949D01*
X80409989Y-67526745D01*
X80409991Y-67526745D01*
X80521795Y-67414941D01*
X80600852Y-67278009D01*
X80600854Y-67277998D01*
X80601209Y-67277146D01*
X80601709Y-67276524D01*
X80604916Y-67270971D01*
X80605781Y-67271470D01*
X80645046Y-67222740D01*
X80676770Y-67206884D01*
X80698109Y-67199814D01*
X80847431Y-67107712D01*
X80971487Y-66983656D01*
X81042877Y-66867912D01*
X81094822Y-66821190D01*
X81163784Y-66809967D01*
X81227867Y-66837810D01*
G37*
%TD.AperFunction*%
%TA.AperFunction,Conductor*%
G36*
X87085312Y-59570678D02*
G01*
X87104893Y-59586624D01*
X87130743Y-59612477D01*
X87130746Y-59612479D01*
X87130745Y-59612479D01*
X87246828Y-59690057D01*
X87286087Y-59716294D01*
X87458698Y-59787814D01*
X87641939Y-59824287D01*
X87641938Y-59824287D01*
X87641944Y-59824288D01*
X87735237Y-59824298D01*
X87735348Y-59824331D01*
X87735349Y-59824299D01*
X88549099Y-59825146D01*
X88550301Y-59825225D01*
X88557691Y-59825224D01*
X88557696Y-59825226D01*
X88616622Y-59825224D01*
X88630502Y-59826002D01*
X88720855Y-59836181D01*
X88747926Y-59842360D01*
X88827120Y-59870070D01*
X88852138Y-59882118D01*
X88923188Y-59926761D01*
X88944898Y-59944074D01*
X89004225Y-60003401D01*
X89021538Y-60025111D01*
X89066181Y-60096161D01*
X89078229Y-60121179D01*
X89105939Y-60200373D01*
X89112118Y-60227445D01*
X89122296Y-60317795D01*
X89123075Y-60331678D01*
X89123074Y-60399227D01*
X89123076Y-60399256D01*
X89123076Y-69759410D01*
X89103391Y-69826449D01*
X89050587Y-69872204D01*
X88981429Y-69882148D01*
X88917873Y-69853123D01*
X88892344Y-69822531D01*
X88823083Y-69705418D01*
X88823076Y-69705409D01*
X88706870Y-69589203D01*
X88706862Y-69589197D01*
X88586455Y-69517989D01*
X88565398Y-69505536D01*
X88565397Y-69505535D01*
X88565396Y-69505535D01*
X88565393Y-69505534D01*
X88407573Y-69459682D01*
X88407567Y-69459681D01*
X88370701Y-69456780D01*
X88370694Y-69456780D01*
X88101342Y-69456780D01*
X88034303Y-69437095D01*
X87988548Y-69384291D01*
X87978604Y-69315133D01*
X87998240Y-69263889D01*
X88035719Y-69207797D01*
X88062584Y-69167591D01*
X88097352Y-69083653D01*
X88119159Y-69031008D01*
X88148000Y-68886013D01*
X88148000Y-68738178D01*
X88148000Y-66171248D01*
X88167685Y-66104209D01*
X88198996Y-66073471D01*
X88197987Y-66072195D01*
X88203654Y-66067713D01*
X88203653Y-66067713D01*
X88203656Y-66067712D01*
X88327712Y-65943656D01*
X88419814Y-65794334D01*
X88474999Y-65627797D01*
X88485500Y-65525009D01*
X88485499Y-64474992D01*
X88474999Y-64372203D01*
X88419814Y-64205666D01*
X88327712Y-64056344D01*
X88203656Y-63932288D01*
X88110251Y-63874676D01*
X88066325Y-63825839D01*
X88065457Y-63826304D01*
X88063574Y-63822781D01*
X88063527Y-63822729D01*
X88063430Y-63822513D01*
X88062583Y-63820928D01*
X88029686Y-63771694D01*
X88029685Y-63771692D01*
X87980456Y-63698013D01*
X87980452Y-63698008D01*
X86549497Y-62267052D01*
X86549490Y-62267046D01*
X86475805Y-62217812D01*
X86475805Y-62217813D01*
X86426567Y-62184913D01*
X86289993Y-62128343D01*
X86289983Y-62128340D01*
X86144996Y-62099500D01*
X86144994Y-62099500D01*
X83938720Y-62099500D01*
X83871681Y-62079815D01*
X83825926Y-62027011D01*
X83815982Y-61957853D01*
X83824667Y-61928704D01*
X83824304Y-61928572D01*
X83826155Y-61923486D01*
X83883359Y-61710000D01*
X82985735Y-61710000D01*
X83018648Y-61652993D01*
X83052723Y-61525826D01*
X83052723Y-61394174D01*
X83018648Y-61267007D01*
X82985735Y-61210000D01*
X83883359Y-61210000D01*
X83883358Y-61209999D01*
X83826155Y-60996513D01*
X83826152Y-60996507D01*
X83726323Y-60782422D01*
X83726322Y-60782420D01*
X83590836Y-60588926D01*
X83590831Y-60588920D01*
X83423805Y-60421894D01*
X83230301Y-60286399D01*
X83016215Y-60186570D01*
X83016209Y-60186567D01*
X82802723Y-60129364D01*
X82802723Y-61026988D01*
X82745716Y-60994075D01*
X82618549Y-60960000D01*
X82486897Y-60960000D01*
X82359730Y-60994075D01*
X82302723Y-61026988D01*
X82302723Y-60129364D01*
X82302722Y-60129364D01*
X82089236Y-60186567D01*
X82089230Y-60186570D01*
X81875145Y-60286399D01*
X81875143Y-60286400D01*
X81681649Y-60421886D01*
X81681643Y-60421891D01*
X81514614Y-60588920D01*
X81514613Y-60588922D01*
X81384603Y-60774595D01*
X81330026Y-60818219D01*
X81260527Y-60825412D01*
X81198173Y-60793890D01*
X81181453Y-60774594D01*
X81051217Y-60588597D01*
X80884125Y-60421506D01*
X80884118Y-60421501D01*
X80690557Y-60285967D01*
X80690553Y-60285965D01*
X80690551Y-60285964D01*
X80476386Y-60186097D01*
X80476382Y-60186096D01*
X80476378Y-60186094D01*
X80248136Y-60124938D01*
X80248126Y-60124936D01*
X80012724Y-60104341D01*
X80012722Y-60104341D01*
X79777319Y-60124936D01*
X79777309Y-60124938D01*
X79549067Y-60186094D01*
X79549058Y-60186098D01*
X79334894Y-60285964D01*
X79334892Y-60285965D01*
X79141323Y-60421503D01*
X79019396Y-60543430D01*
X78958073Y-60576914D01*
X78888381Y-60571930D01*
X78832448Y-60530058D01*
X78815533Y-60499081D01*
X78766520Y-60367671D01*
X78766516Y-60367664D01*
X78680270Y-60252455D01*
X78680267Y-60252452D01*
X78565058Y-60166206D01*
X78565051Y-60166202D01*
X78430205Y-60115908D01*
X78430206Y-60115908D01*
X78370606Y-60109501D01*
X78370604Y-60109500D01*
X78370596Y-60109500D01*
X78370587Y-60109500D01*
X76574852Y-60109500D01*
X76574846Y-60109501D01*
X76515239Y-60115908D01*
X76380394Y-60166202D01*
X76380387Y-60166206D01*
X76265178Y-60252452D01*
X76265175Y-60252455D01*
X76178929Y-60367664D01*
X76178925Y-60367671D01*
X76128631Y-60502517D01*
X76122224Y-60562116D01*
X76122223Y-60562135D01*
X76122223Y-62357870D01*
X76122224Y-62357876D01*
X76128631Y-62417483D01*
X76178925Y-62552328D01*
X76178929Y-62552335D01*
X76265175Y-62667544D01*
X76265178Y-62667547D01*
X76380387Y-62753793D01*
X76380394Y-62753797D01*
X76425341Y-62770561D01*
X76515240Y-62804091D01*
X76574850Y-62810500D01*
X76748223Y-62810499D01*
X76815262Y-62830183D01*
X76861017Y-62882987D01*
X76872223Y-62934499D01*
X76872223Y-65459778D01*
X76872222Y-65459796D01*
X76872222Y-65467391D01*
X76872222Y-65625505D01*
X76872809Y-65627697D01*
X76874050Y-65632326D01*
X76878275Y-65664419D01*
X76878275Y-65731126D01*
X76858590Y-65798165D01*
X76841956Y-65818807D01*
X76063786Y-66596978D01*
X75951981Y-66708782D01*
X75951979Y-66708784D01*
X75934061Y-66739820D01*
X75926487Y-66752940D01*
X75872923Y-66845715D01*
X75831999Y-66998443D01*
X75831999Y-66998445D01*
X75831999Y-67166546D01*
X75832000Y-67166559D01*
X75832000Y-67316232D01*
X75812315Y-67383271D01*
X75773098Y-67421769D01*
X75693768Y-67470701D01*
X75626342Y-67512289D01*
X75502289Y-67636342D01*
X75481972Y-67669282D01*
X75425664Y-67760573D01*
X75408415Y-67788538D01*
X75356467Y-67835262D01*
X75287505Y-67846485D01*
X75223422Y-67818641D01*
X75184566Y-67760573D01*
X75178876Y-67723441D01*
X75178876Y-60403210D01*
X75178878Y-60403181D01*
X75178877Y-60390606D01*
X75178879Y-60390604D01*
X75178877Y-60331673D01*
X75179656Y-60317794D01*
X75180675Y-60308748D01*
X75189834Y-60227434D01*
X75196013Y-60200366D01*
X75200841Y-60186570D01*
X75223725Y-60121162D01*
X75235772Y-60096147D01*
X75280419Y-60025088D01*
X75297722Y-60003388D01*
X75357071Y-59944035D01*
X75378767Y-59926734D01*
X75449826Y-59882083D01*
X75474839Y-59870036D01*
X75554050Y-59842317D01*
X75581115Y-59836139D01*
X75671056Y-59826003D01*
X75684943Y-59825223D01*
X75753146Y-59825223D01*
X75753262Y-59825213D01*
X82683908Y-59824304D01*
X82684138Y-59824372D01*
X82735365Y-59824378D01*
X82735365Y-59824379D01*
X82828629Y-59824390D01*
X82828806Y-59824391D01*
X82828806Y-59824390D01*
X82828810Y-59824391D01*
X83012114Y-59787954D01*
X83184785Y-59716452D01*
X83340188Y-59612635D01*
X83346862Y-59605962D01*
X83350938Y-59601887D01*
X83412263Y-59568406D01*
X83481954Y-59573395D01*
X83504586Y-59584581D01*
X83577631Y-59630479D01*
X83747901Y-59690059D01*
X83747906Y-59690060D01*
X83927152Y-59710256D01*
X83927156Y-59710256D01*
X83927160Y-59710256D01*
X84106405Y-59690060D01*
X84106407Y-59690059D01*
X84106411Y-59690059D01*
X84106414Y-59690057D01*
X84106418Y-59690057D01*
X84157456Y-59672197D01*
X84276678Y-59630480D01*
X84285454Y-59624965D01*
X84352688Y-59605962D01*
X84417400Y-59624961D01*
X84439179Y-59638646D01*
X84586103Y-59690057D01*
X84609446Y-59698225D01*
X84609451Y-59698226D01*
X84788697Y-59718422D01*
X84788701Y-59718422D01*
X84788705Y-59718422D01*
X84967950Y-59698226D01*
X84967952Y-59698225D01*
X84967956Y-59698225D01*
X84967959Y-59698223D01*
X84967963Y-59698223D01*
X85019001Y-59680363D01*
X85138223Y-59638646D01*
X85138232Y-59638639D01*
X85144500Y-59635623D01*
X85145240Y-59637160D01*
X85204014Y-59620543D01*
X85268739Y-59639543D01*
X85280306Y-59646812D01*
X85280308Y-59646813D01*
X85450575Y-59706392D01*
X85450580Y-59706393D01*
X85629826Y-59726589D01*
X85629830Y-59726589D01*
X85629834Y-59726589D01*
X85809079Y-59706393D01*
X85809081Y-59706392D01*
X85809085Y-59706392D01*
X85809088Y-59706390D01*
X85809092Y-59706390D01*
X85860130Y-59688530D01*
X85979352Y-59646813D01*
X86001127Y-59633130D01*
X86068361Y-59614129D01*
X86133074Y-59633131D01*
X86141848Y-59638644D01*
X86141849Y-59638644D01*
X86141852Y-59638646D01*
X86288776Y-59690057D01*
X86312119Y-59698225D01*
X86312124Y-59698226D01*
X86491370Y-59718422D01*
X86491374Y-59718422D01*
X86491378Y-59718422D01*
X86670623Y-59698226D01*
X86670626Y-59698225D01*
X86670629Y-59698225D01*
X86840896Y-59638646D01*
X86840900Y-59638644D01*
X86951240Y-59569312D01*
X87018477Y-59550311D01*
X87085312Y-59570678D01*
G37*
%TD.AperFunction*%
%TA.AperFunction,Conductor*%
G36*
X78991141Y-62355417D02*
G01*
X79019396Y-62376569D01*
X79141322Y-62498495D01*
X79238107Y-62566265D01*
X79334888Y-62634032D01*
X79334890Y-62634033D01*
X79334893Y-62634035D01*
X79549060Y-62733903D01*
X79777315Y-62795063D01*
X79965641Y-62811539D01*
X80012722Y-62815659D01*
X80012723Y-62815659D01*
X80012724Y-62815659D01*
X80048007Y-62812571D01*
X80225736Y-62797022D01*
X80294235Y-62810788D01*
X80324224Y-62832869D01*
X80924309Y-63432954D01*
X80953781Y-63452645D01*
X80997993Y-63482186D01*
X81047228Y-63515084D01*
X81047229Y-63515084D01*
X81047230Y-63515085D01*
X81047232Y-63515086D01*
X81183805Y-63571656D01*
X81183810Y-63571658D01*
X81183814Y-63571658D01*
X81183815Y-63571659D01*
X81328802Y-63600500D01*
X81328805Y-63600500D01*
X81328806Y-63600500D01*
X81476641Y-63600500D01*
X84622156Y-63600500D01*
X84689195Y-63620185D01*
X84734950Y-63672989D01*
X84744894Y-63742147D01*
X84715869Y-63805703D01*
X84671389Y-63835378D01*
X84672421Y-63837592D01*
X84665875Y-63840643D01*
X84516654Y-63932684D01*
X84392684Y-64056654D01*
X84300643Y-64205875D01*
X84300641Y-64205880D01*
X84245494Y-64372302D01*
X84245493Y-64372309D01*
X84235000Y-64475013D01*
X84235000Y-64750000D01*
X85448500Y-64750000D01*
X85515539Y-64769685D01*
X85561294Y-64822489D01*
X85572500Y-64874000D01*
X85572500Y-65126000D01*
X85552815Y-65193039D01*
X85500011Y-65238794D01*
X85448500Y-65250000D01*
X84235001Y-65250000D01*
X84235001Y-65524986D01*
X84245494Y-65627697D01*
X84288723Y-65758152D01*
X84291125Y-65827980D01*
X84255393Y-65888022D01*
X84192873Y-65919215D01*
X84171017Y-65921156D01*
X83667495Y-65921156D01*
X83667477Y-65921157D01*
X83564700Y-65931656D01*
X83564697Y-65931657D01*
X83398165Y-65986841D01*
X83398160Y-65986843D01*
X83248839Y-66078945D01*
X83124786Y-66202998D01*
X83032684Y-66352319D01*
X83032682Y-66352324D01*
X83004902Y-66436160D01*
X82965129Y-66493605D01*
X82900613Y-66520428D01*
X82887196Y-66521156D01*
X82661754Y-66521156D01*
X82594715Y-66501471D01*
X82574073Y-66484837D01*
X81767590Y-65678355D01*
X81767588Y-65678352D01*
X81648717Y-65559481D01*
X81648716Y-65559480D01*
X81561904Y-65509360D01*
X81561904Y-65509359D01*
X81561900Y-65509358D01*
X81511785Y-65480423D01*
X81359057Y-65439499D01*
X81217360Y-65439499D01*
X81150321Y-65419814D01*
X81104566Y-65367010D01*
X81099654Y-65354503D01*
X81065025Y-65250000D01*
X81063589Y-65245666D01*
X80971487Y-65096344D01*
X80847431Y-64972288D01*
X80698109Y-64880186D01*
X80531572Y-64825001D01*
X80531570Y-64825000D01*
X80428785Y-64814500D01*
X79653773Y-64814500D01*
X79653755Y-64814501D01*
X79550978Y-64825000D01*
X79550975Y-64825001D01*
X79384443Y-64880185D01*
X79384438Y-64880187D01*
X79235117Y-64972289D01*
X79111060Y-65096346D01*
X79109312Y-65099182D01*
X79107604Y-65100717D01*
X79106582Y-65102011D01*
X79106360Y-65101836D01*
X79057364Y-65145905D01*
X78988401Y-65157126D01*
X78924319Y-65129282D01*
X78898238Y-65099182D01*
X78896489Y-65096346D01*
X78772432Y-64972289D01*
X78772431Y-64972288D01*
X78623109Y-64880186D01*
X78456572Y-64825001D01*
X78456570Y-64825000D01*
X78353791Y-64814500D01*
X78353784Y-64814500D01*
X78197223Y-64814500D01*
X78130184Y-64794815D01*
X78084429Y-64742011D01*
X78073223Y-64690500D01*
X78073223Y-62934499D01*
X78092908Y-62867460D01*
X78145712Y-62821705D01*
X78197223Y-62810499D01*
X78370594Y-62810499D01*
X78370595Y-62810499D01*
X78430206Y-62804091D01*
X78565054Y-62753796D01*
X78680269Y-62667546D01*
X78766519Y-62552331D01*
X78815533Y-62420916D01*
X78857404Y-62364984D01*
X78922868Y-62340566D01*
X78991141Y-62355417D01*
G37*
%TD.AperFunction*%
%TD*%
%TA.AperFunction,Conductor*%
%TO.N,Gnd*%
G36*
X85171897Y-91544963D02*
G01*
X85926988Y-91544963D01*
X85894075Y-91601970D01*
X85860000Y-91729137D01*
X85860000Y-91860789D01*
X85894075Y-91987956D01*
X85926988Y-92044963D01*
X85025075Y-92044963D01*
X85002213Y-92038250D01*
X84247122Y-92038250D01*
X84280035Y-91981243D01*
X84314110Y-91854076D01*
X84314110Y-91722424D01*
X84280035Y-91595257D01*
X84247122Y-91538250D01*
X85149035Y-91538250D01*
X85171897Y-91544963D01*
G37*
%TD.AperFunction*%
%TA.AperFunction,Conductor*%
G36*
X54264660Y-62604120D02*
G01*
X54302434Y-62662898D01*
X54305930Y-62678435D01*
X54331094Y-62837316D01*
X54399212Y-63046967D01*
X54399213Y-63046970D01*
X54499296Y-63243389D01*
X54628861Y-63421722D01*
X54628865Y-63421727D01*
X54784745Y-63577607D01*
X54784750Y-63577611D01*
X54940301Y-63690624D01*
X54963087Y-63707179D01*
X55090522Y-63772111D01*
X55159502Y-63807259D01*
X55159505Y-63807260D01*
X55201009Y-63820745D01*
X55369158Y-63875379D01*
X55586887Y-63909864D01*
X55586888Y-63909864D01*
X57007330Y-63909864D01*
X57007331Y-63909864D01*
X57225060Y-63875379D01*
X57434715Y-63807259D01*
X57631131Y-63707179D01*
X57695596Y-63660342D01*
X57761401Y-63636862D01*
X57829455Y-63652687D01*
X57878150Y-63702792D01*
X57892481Y-63760660D01*
X57892481Y-64495453D01*
X57892482Y-64495459D01*
X57898889Y-64555066D01*
X57949183Y-64689911D01*
X57949187Y-64689918D01*
X58035433Y-64805127D01*
X58035436Y-64805130D01*
X58150645Y-64891376D01*
X58150652Y-64891380D01*
X58285498Y-64941674D01*
X58285497Y-64941674D01*
X58292425Y-64942418D01*
X58345108Y-64948083D01*
X60125500Y-64948082D01*
X60192539Y-64967767D01*
X60238294Y-65020570D01*
X60249500Y-65072082D01*
X60249500Y-67114493D01*
X60229815Y-67181532D01*
X60177011Y-67227287D01*
X60107853Y-67237231D01*
X60080707Y-67230120D01*
X59946411Y-67178094D01*
X59912771Y-67165062D01*
X59694074Y-67124180D01*
X59471588Y-67124180D01*
X59252891Y-67165062D01*
X59177084Y-67194430D01*
X59045432Y-67245432D01*
X59045426Y-67245434D01*
X58856270Y-67362554D01*
X58856268Y-67362556D01*
X58691851Y-67512441D01*
X58557774Y-67689988D01*
X58557769Y-67689996D01*
X58458606Y-67889141D01*
X58458600Y-67889156D01*
X58397716Y-68103142D01*
X58397715Y-68103144D01*
X58377188Y-68324679D01*
X58377188Y-68324680D01*
X58397715Y-68546215D01*
X58397716Y-68546217D01*
X58458600Y-68760203D01*
X58458606Y-68760218D01*
X58557769Y-68959363D01*
X58557774Y-68959371D01*
X58691851Y-69136918D01*
X58821641Y-69255236D01*
X58856269Y-69286804D01*
X58910223Y-69320211D01*
X58926616Y-69330361D01*
X58973251Y-69382389D01*
X58984355Y-69451371D01*
X58956402Y-69515405D01*
X58949019Y-69523469D01*
X58872867Y-69599621D01*
X58811544Y-69633106D01*
X58741852Y-69628122D01*
X58685919Y-69586250D01*
X58680200Y-69577924D01*
X58629816Y-69497738D01*
X58502262Y-69370184D01*
X58446138Y-69334919D01*
X58349523Y-69274211D01*
X58179254Y-69214631D01*
X58179249Y-69214630D01*
X58000004Y-69194435D01*
X57999996Y-69194435D01*
X57820750Y-69214630D01*
X57820745Y-69214631D01*
X57740983Y-69242542D01*
X57700028Y-69249500D01*
X51926076Y-69249500D01*
X51897242Y-69255234D01*
X51897243Y-69255235D01*
X51781092Y-69278339D01*
X51781086Y-69278341D01*
X51742941Y-69294142D01*
X51644508Y-69334914D01*
X51644499Y-69334919D01*
X51585513Y-69374333D01*
X51521586Y-69417047D01*
X51521582Y-69417050D01*
X50691937Y-70246693D01*
X50655873Y-70269370D01*
X50656750Y-70271191D01*
X50650475Y-70274212D01*
X50497737Y-70370184D01*
X50370184Y-70497737D01*
X50274211Y-70650476D01*
X50214631Y-70820745D01*
X50214630Y-70820750D01*
X50194435Y-70999996D01*
X50194435Y-71000003D01*
X50214630Y-71179249D01*
X50214631Y-71179254D01*
X50274211Y-71349523D01*
X50370184Y-71502262D01*
X50467627Y-71599705D01*
X50501112Y-71661028D01*
X50497652Y-71726389D01*
X50454021Y-71858061D01*
X50454020Y-71858065D01*
X50443520Y-71960844D01*
X50443520Y-72960862D01*
X50443521Y-72960880D01*
X50454020Y-73063657D01*
X50454021Y-73063660D01*
X50509205Y-73230192D01*
X50509207Y-73230197D01*
X50536353Y-73274207D01*
X50601308Y-73379517D01*
X50725364Y-73503573D01*
X50874686Y-73595675D01*
X51041223Y-73650860D01*
X51144011Y-73661361D01*
X51894028Y-73661360D01*
X51894036Y-73661359D01*
X51894039Y-73661359D01*
X51950322Y-73655609D01*
X51996817Y-73650860D01*
X52071130Y-73626234D01*
X52140957Y-73623832D01*
X52200999Y-73659563D01*
X52232192Y-73722082D01*
X52227176Y-73784893D01*
X52214633Y-73820739D01*
X52214630Y-73820750D01*
X52194435Y-73999996D01*
X52194435Y-74000003D01*
X52214630Y-74179249D01*
X52214631Y-74179254D01*
X52274211Y-74349523D01*
X52327221Y-74433887D01*
X52370184Y-74502262D01*
X52497738Y-74629816D01*
X52650478Y-74725789D01*
X52820745Y-74785368D01*
X52820750Y-74785369D01*
X52999996Y-74805565D01*
X53000000Y-74805565D01*
X53000002Y-74805565D01*
X53029449Y-74802246D01*
X53064610Y-74798285D01*
X53133432Y-74810339D01*
X53184811Y-74857688D01*
X53202436Y-74925298D01*
X53201714Y-74935388D01*
X53194435Y-74999995D01*
X53194435Y-75000003D01*
X53214630Y-75179249D01*
X53214631Y-75179254D01*
X53242542Y-75259017D01*
X53249500Y-75299972D01*
X53249500Y-75637770D01*
X53229815Y-75704809D01*
X53213181Y-75725451D01*
X52717048Y-76221583D01*
X52696770Y-76251932D01*
X52676627Y-76282080D01*
X52634919Y-76344499D01*
X52634912Y-76344511D01*
X52578343Y-76481082D01*
X52578340Y-76481092D01*
X52549500Y-76626079D01*
X52549500Y-76626082D01*
X52549500Y-82840003D01*
X52549500Y-82840005D01*
X52549499Y-82840005D01*
X52578340Y-82984992D01*
X52578343Y-82985002D01*
X52634912Y-83121573D01*
X52634916Y-83121580D01*
X52654213Y-83150460D01*
X52654214Y-83150463D01*
X52717046Y-83244499D01*
X52717052Y-83244506D01*
X53513048Y-84040501D01*
X55875286Y-86402739D01*
X55908771Y-86464062D01*
X55903787Y-86533754D01*
X55861915Y-86589687D01*
X55843900Y-86600904D01*
X55661625Y-86693778D01*
X55567785Y-86761958D01*
X55476593Y-86828213D01*
X55476591Y-86828215D01*
X55476590Y-86828215D01*
X55314875Y-86989930D01*
X55314875Y-86989931D01*
X55314873Y-86989933D01*
X55311346Y-86994788D01*
X55180442Y-87174960D01*
X55076609Y-87378743D01*
X55005937Y-87596249D01*
X55005937Y-87596252D01*
X54970159Y-87822145D01*
X54970159Y-88088000D01*
X54950474Y-88155039D01*
X54897670Y-88200794D01*
X54846159Y-88212000D01*
X53171248Y-88212000D01*
X53104209Y-88192315D01*
X53073468Y-88161002D01*
X53072193Y-88162011D01*
X53067711Y-88156343D01*
X52943657Y-88032289D01*
X52943656Y-88032288D01*
X52794334Y-87940186D01*
X52627797Y-87885001D01*
X52627795Y-87885000D01*
X52525010Y-87874500D01*
X51474998Y-87874500D01*
X51474980Y-87874501D01*
X51372203Y-87885000D01*
X51372200Y-87885001D01*
X51205668Y-87940185D01*
X51205663Y-87940187D01*
X51056342Y-88032289D01*
X50932289Y-88156342D01*
X50840187Y-88305663D01*
X50840185Y-88305668D01*
X50821405Y-88362344D01*
X50785001Y-88472203D01*
X50785001Y-88472204D01*
X50785000Y-88472204D01*
X50774500Y-88574983D01*
X50774500Y-89350001D01*
X50774501Y-89350019D01*
X50785000Y-89452796D01*
X50785001Y-89452799D01*
X50840185Y-89619331D01*
X50840187Y-89619336D01*
X50845276Y-89627586D01*
X50932288Y-89768656D01*
X51056344Y-89892712D01*
X51059628Y-89894737D01*
X51059653Y-89894753D01*
X51061445Y-89896746D01*
X51062011Y-89897193D01*
X51061934Y-89897289D01*
X51106379Y-89946699D01*
X51117603Y-90015661D01*
X51089761Y-90079744D01*
X51059665Y-90105826D01*
X51056660Y-90107679D01*
X51056655Y-90107683D01*
X50932684Y-90231654D01*
X50840643Y-90380875D01*
X50840641Y-90380880D01*
X50785494Y-90547302D01*
X50785493Y-90547309D01*
X50775000Y-90650013D01*
X50775000Y-90787500D01*
X53224999Y-90787500D01*
X53224999Y-90650028D01*
X53224998Y-90650013D01*
X53214505Y-90547302D01*
X53159358Y-90380880D01*
X53159356Y-90380875D01*
X53067315Y-90231654D01*
X52943344Y-90107683D01*
X52943341Y-90107681D01*
X52940339Y-90105829D01*
X52938713Y-90104021D01*
X52937677Y-90103202D01*
X52937817Y-90103024D01*
X52893617Y-90053880D01*
X52882397Y-89984917D01*
X52910243Y-89920836D01*
X52940344Y-89894754D01*
X52943656Y-89892712D01*
X53067712Y-89768656D01*
X53067715Y-89768650D01*
X53072193Y-89762989D01*
X53074015Y-89764430D01*
X53117665Y-89725175D01*
X53171248Y-89713000D01*
X55846416Y-89713000D01*
X55943958Y-89693596D01*
X55991409Y-89684158D01*
X56127991Y-89627584D01*
X56177225Y-89594686D01*
X56244339Y-89549844D01*
X56311016Y-89528967D01*
X56313228Y-89528947D01*
X57157671Y-89528947D01*
X57157671Y-89528946D01*
X57200437Y-89526048D01*
X57385241Y-89480089D01*
X57555844Y-89395478D01*
X57704270Y-89276170D01*
X57755861Y-89211988D01*
X57759901Y-89206962D01*
X57817244Y-89167043D01*
X57887066Y-89164463D01*
X57947199Y-89200042D01*
X57953195Y-89206962D01*
X58008825Y-89276169D01*
X58008826Y-89276170D01*
X58157252Y-89395478D01*
X58187142Y-89410302D01*
X58238455Y-89457723D01*
X58256048Y-89521390D01*
X58256048Y-92703948D01*
X58236363Y-92770987D01*
X58183559Y-92816742D01*
X58132048Y-92827948D01*
X57548519Y-92827948D01*
X57548513Y-92827948D01*
X57548512Y-92827949D01*
X57536864Y-92828984D01*
X57429132Y-92838561D01*
X57233502Y-92894537D01*
X57175213Y-92924985D01*
X57053141Y-92988750D01*
X57053139Y-92988751D01*
X57053138Y-92988752D01*
X56895436Y-93117341D01*
X56850421Y-93172549D01*
X56792800Y-93212066D01*
X56754319Y-93218188D01*
X54891401Y-93218188D01*
X54824362Y-93198503D01*
X54785862Y-93159285D01*
X54703055Y-93025032D01*
X54578999Y-92900976D01*
X54429677Y-92808874D01*
X54263140Y-92753689D01*
X54263138Y-92753688D01*
X54160353Y-92743188D01*
X53385341Y-92743188D01*
X53385323Y-92743189D01*
X53282546Y-92753688D01*
X53282543Y-92753689D01*
X53116011Y-92808873D01*
X53116006Y-92808875D01*
X52966685Y-92900977D01*
X52842631Y-93025031D01*
X52842626Y-93025037D01*
X52840584Y-93028349D01*
X52838590Y-93030141D01*
X52838150Y-93030699D01*
X52838054Y-93030623D01*
X52788634Y-93075071D01*
X52719671Y-93086290D01*
X52655590Y-93058443D01*
X52629511Y-93028344D01*
X52627662Y-93025347D01*
X52627659Y-93025343D01*
X52503688Y-92901372D01*
X52354467Y-92809331D01*
X52354462Y-92809329D01*
X52188040Y-92754182D01*
X52188033Y-92754181D01*
X52085329Y-92743688D01*
X51947843Y-92743688D01*
X51947843Y-95193687D01*
X52085315Y-95193687D01*
X52085329Y-95193686D01*
X52188040Y-95183193D01*
X52354462Y-95128046D01*
X52354467Y-95128044D01*
X52503688Y-95036003D01*
X52627661Y-94912030D01*
X52629508Y-94909036D01*
X52631312Y-94907412D01*
X52632141Y-94906365D01*
X52632319Y-94906506D01*
X52681453Y-94862309D01*
X52750416Y-94851084D01*
X52814499Y-94878924D01*
X52840586Y-94909029D01*
X52842631Y-94912344D01*
X52966687Y-95036400D01*
X53116009Y-95128502D01*
X53282546Y-95183687D01*
X53385334Y-95194188D01*
X54160351Y-95194187D01*
X54160359Y-95194186D01*
X54160362Y-95194186D01*
X54216645Y-95188436D01*
X54263140Y-95183687D01*
X54429677Y-95128502D01*
X54578999Y-95036400D01*
X54703055Y-94912344D01*
X54785862Y-94778090D01*
X54837810Y-94731367D01*
X54891401Y-94719188D01*
X56482049Y-94719188D01*
X56549088Y-94738873D01*
X56594843Y-94791677D01*
X56606049Y-94843188D01*
X56606049Y-94886484D01*
X56608053Y-94909031D01*
X56616661Y-95005863D01*
X56672637Y-95201493D01*
X56672638Y-95201496D01*
X56672639Y-95201497D01*
X56766850Y-95381855D01*
X56792887Y-95413787D01*
X56895438Y-95539557D01*
X56972207Y-95602153D01*
X57053141Y-95668146D01*
X57233499Y-95762357D01*
X57233501Y-95762357D01*
X57233502Y-95762358D01*
X57252903Y-95767909D01*
X57429130Y-95818334D01*
X57548511Y-95828948D01*
X60464584Y-95828947D01*
X60583966Y-95818334D01*
X60779597Y-95762357D01*
X60959955Y-95668146D01*
X61117657Y-95539557D01*
X61246246Y-95381855D01*
X61340457Y-95201497D01*
X61396434Y-95005866D01*
X61407048Y-94886485D01*
X61407048Y-94874500D01*
X61426733Y-94807461D01*
X61479537Y-94761706D01*
X61531048Y-94750500D01*
X63843942Y-94750500D01*
X63910981Y-94770185D01*
X63949479Y-94809401D01*
X64032288Y-94943656D01*
X64156344Y-95067712D01*
X64305666Y-95159814D01*
X64472203Y-95214999D01*
X64574991Y-95225500D01*
X65350008Y-95225499D01*
X65350016Y-95225498D01*
X65350019Y-95225498D01*
X65406302Y-95219748D01*
X65452797Y-95214999D01*
X65619334Y-95159814D01*
X65768656Y-95067712D01*
X65892712Y-94943656D01*
X65894752Y-94940347D01*
X65896745Y-94938555D01*
X65897193Y-94937989D01*
X65897289Y-94938065D01*
X65946694Y-94893623D01*
X66015656Y-94882395D01*
X66079740Y-94910234D01*
X66105829Y-94940339D01*
X66107681Y-94943341D01*
X66107683Y-94943344D01*
X66231654Y-95067315D01*
X66380875Y-95159356D01*
X66380880Y-95159358D01*
X66547302Y-95214505D01*
X66547309Y-95214506D01*
X66650019Y-95224999D01*
X66787499Y-95224999D01*
X67287500Y-95224999D01*
X67424972Y-95224999D01*
X67424986Y-95224998D01*
X67527697Y-95214505D01*
X67694119Y-95159358D01*
X67694124Y-95159356D01*
X67843345Y-95067315D01*
X67967315Y-94943345D01*
X68041999Y-94822264D01*
X70600000Y-94822264D01*
X70610608Y-94941589D01*
X70610609Y-94941592D01*
X70666557Y-95137125D01*
X70760721Y-95317393D01*
X70889246Y-95475017D01*
X71046870Y-95603542D01*
X71227138Y-95697706D01*
X71422671Y-95753654D01*
X71422674Y-95753655D01*
X71541999Y-95764263D01*
X71542002Y-95764264D01*
X72750000Y-95764264D01*
X73250000Y-95764264D01*
X74457998Y-95764264D01*
X74458000Y-95764263D01*
X74577325Y-95753655D01*
X74577328Y-95753654D01*
X74772861Y-95697706D01*
X74953129Y-95603542D01*
X75110753Y-95475017D01*
X75239278Y-95317393D01*
X75333442Y-95137125D01*
X75389390Y-94941592D01*
X75389391Y-94941589D01*
X75399999Y-94822264D01*
X75400000Y-94822262D01*
X75400000Y-94514264D01*
X73250000Y-94514264D01*
X73250000Y-95764264D01*
X72750000Y-95764264D01*
X72750000Y-94514264D01*
X70600000Y-94514264D01*
X70600000Y-94822264D01*
X68041999Y-94822264D01*
X68059356Y-94794124D01*
X68059358Y-94794119D01*
X68114505Y-94627697D01*
X68114506Y-94627690D01*
X68124999Y-94524986D01*
X68125000Y-94524973D01*
X68125000Y-94250000D01*
X67287500Y-94250000D01*
X67287500Y-95224999D01*
X66787499Y-95224999D01*
X66787500Y-95224998D01*
X66787500Y-93750000D01*
X67287500Y-93750000D01*
X68124999Y-93750000D01*
X68124999Y-93706263D01*
X70600000Y-93706263D01*
X70600000Y-94014264D01*
X72750000Y-94014264D01*
X73250000Y-94014264D01*
X75400000Y-94014264D01*
X75400000Y-93979996D01*
X79204435Y-93979996D01*
X79204435Y-93980003D01*
X79224630Y-94159249D01*
X79224631Y-94159254D01*
X79252542Y-94239017D01*
X79259500Y-94279972D01*
X79259500Y-94402168D01*
X79259500Y-94402170D01*
X79259499Y-94402170D01*
X79288340Y-94547157D01*
X79288343Y-94547167D01*
X79344912Y-94683738D01*
X79344919Y-94683751D01*
X79427048Y-94806665D01*
X79427051Y-94806669D01*
X79531580Y-94911198D01*
X79531584Y-94911201D01*
X79654498Y-94993330D01*
X79654511Y-94993337D01*
X79791082Y-95049906D01*
X79791087Y-95049908D01*
X79791091Y-95049908D01*
X79791092Y-95049909D01*
X79936079Y-95078750D01*
X79936082Y-95078750D01*
X82626409Y-95078750D01*
X82693448Y-95098435D01*
X82727983Y-95131626D01*
X82747400Y-95159356D01*
X82775615Y-95199651D01*
X82942709Y-95366745D01*
X83022275Y-95422458D01*
X83136275Y-95502282D01*
X83136277Y-95502283D01*
X83136280Y-95502285D01*
X83350447Y-95602153D01*
X83350453Y-95602154D01*
X83350454Y-95602155D01*
X83375508Y-95608868D01*
X83578702Y-95663313D01*
X83767028Y-95679789D01*
X83814109Y-95683909D01*
X83814110Y-95683909D01*
X83814111Y-95683909D01*
X83853344Y-95680476D01*
X84049518Y-95663313D01*
X84277773Y-95602153D01*
X84491940Y-95502285D01*
X84685511Y-95366745D01*
X84852605Y-95199651D01*
X84895535Y-95138339D01*
X84950111Y-95094715D01*
X84997110Y-95085463D01*
X85022796Y-95085463D01*
X85170631Y-95085463D01*
X85172299Y-95085463D01*
X85239338Y-95105148D01*
X85273873Y-95138339D01*
X85288591Y-95159358D01*
X85321505Y-95206364D01*
X85488599Y-95373458D01*
X85558578Y-95422458D01*
X85682165Y-95508995D01*
X85682167Y-95508996D01*
X85682170Y-95508998D01*
X85896337Y-95608866D01*
X86124592Y-95670026D01*
X86283272Y-95683909D01*
X86359999Y-95690622D01*
X86360000Y-95690622D01*
X86360001Y-95690622D01*
X86399234Y-95687189D01*
X86595408Y-95670026D01*
X86823663Y-95608866D01*
X87037830Y-95508998D01*
X87231401Y-95373458D01*
X87398495Y-95206364D01*
X87534035Y-95012793D01*
X87633903Y-94798626D01*
X87695063Y-94570371D01*
X87715659Y-94334963D01*
X87695063Y-94099555D01*
X87633903Y-93871300D01*
X87534035Y-93657134D01*
X87515370Y-93630478D01*
X87398496Y-93463563D01*
X87378612Y-93443679D01*
X87276179Y-93341246D01*
X87242696Y-93279926D01*
X87247680Y-93210234D01*
X87289551Y-93154300D01*
X87320529Y-93137385D01*
X87452086Y-93088317D01*
X87452093Y-93088313D01*
X87567187Y-93002153D01*
X87567190Y-93002150D01*
X87653350Y-92887056D01*
X87653354Y-92887049D01*
X87703596Y-92752342D01*
X87703598Y-92752335D01*
X87709999Y-92692807D01*
X87710000Y-92692790D01*
X87710000Y-92044963D01*
X86793012Y-92044963D01*
X86825925Y-91987956D01*
X86860000Y-91860789D01*
X86860000Y-91729137D01*
X86825925Y-91601970D01*
X86793012Y-91544963D01*
X87710000Y-91544963D01*
X87710000Y-90897135D01*
X87709999Y-90897118D01*
X87703598Y-90837590D01*
X87703596Y-90837583D01*
X87653354Y-90702876D01*
X87653350Y-90702869D01*
X87567190Y-90587775D01*
X87567187Y-90587772D01*
X87452093Y-90501612D01*
X87452086Y-90501608D01*
X87317379Y-90451366D01*
X87317372Y-90451364D01*
X87257844Y-90444963D01*
X86610000Y-90444963D01*
X86610000Y-91361951D01*
X86552993Y-91329038D01*
X86425826Y-91294963D01*
X86294174Y-91294963D01*
X86167007Y-91329038D01*
X86110000Y-91361951D01*
X86110000Y-90444963D01*
X85462155Y-90444963D01*
X85402627Y-90451364D01*
X85402620Y-90451366D01*
X85267913Y-90501608D01*
X85267910Y-90501610D01*
X85165849Y-90578013D01*
X85100384Y-90602430D01*
X85032111Y-90587578D01*
X85017227Y-90578013D01*
X84906198Y-90494896D01*
X84906196Y-90494895D01*
X84771489Y-90444653D01*
X84771482Y-90444651D01*
X84711954Y-90438250D01*
X84064110Y-90438250D01*
X84064110Y-91355238D01*
X84007103Y-91322325D01*
X83879936Y-91288250D01*
X83748284Y-91288250D01*
X83621117Y-91322325D01*
X83564110Y-91355238D01*
X83564110Y-90438250D01*
X82916265Y-90438250D01*
X82856737Y-90444651D01*
X82856730Y-90444653D01*
X82722023Y-90494895D01*
X82722016Y-90494899D01*
X82606922Y-90581059D01*
X82606919Y-90581062D01*
X82520759Y-90696156D01*
X82520755Y-90696163D01*
X82470513Y-90830870D01*
X82470511Y-90830877D01*
X82464110Y-90890405D01*
X82464110Y-91538250D01*
X83381098Y-91538250D01*
X83348185Y-91595257D01*
X83314110Y-91722424D01*
X83314110Y-91854076D01*
X83348185Y-91981243D01*
X83381098Y-92038250D01*
X82464110Y-92038250D01*
X82464110Y-92686094D01*
X82470511Y-92745622D01*
X82470513Y-92745629D01*
X82520755Y-92880336D01*
X82520759Y-92880343D01*
X82606919Y-92995437D01*
X82606922Y-92995440D01*
X82722016Y-93081600D01*
X82722023Y-93081604D01*
X82853580Y-93130671D01*
X82909513Y-93172542D01*
X82933931Y-93238006D01*
X82919080Y-93306279D01*
X82897929Y-93334534D01*
X82775613Y-93456850D01*
X82727984Y-93524873D01*
X82673407Y-93568498D01*
X82626409Y-93577750D01*
X80771190Y-93577750D01*
X80704151Y-93558065D01*
X80666196Y-93519722D01*
X80639815Y-93477737D01*
X80512262Y-93350184D01*
X80359523Y-93254211D01*
X80189254Y-93194631D01*
X80189249Y-93194630D01*
X80010004Y-93174435D01*
X80009996Y-93174435D01*
X79830750Y-93194630D01*
X79830745Y-93194631D01*
X79660476Y-93254211D01*
X79507737Y-93350184D01*
X79380184Y-93477737D01*
X79284211Y-93630476D01*
X79224631Y-93800745D01*
X79224630Y-93800750D01*
X79204435Y-93979996D01*
X75400000Y-93979996D01*
X75400000Y-93706266D01*
X75399999Y-93706263D01*
X75389391Y-93586938D01*
X75389390Y-93586935D01*
X75333442Y-93391402D01*
X75239278Y-93211134D01*
X75110753Y-93053510D01*
X74953129Y-92924985D01*
X74772861Y-92830821D01*
X74577328Y-92774873D01*
X74577325Y-92774872D01*
X74458000Y-92764264D01*
X73250000Y-92764264D01*
X73250000Y-94014264D01*
X72750000Y-94014264D01*
X72750000Y-92764264D01*
X71541999Y-92764264D01*
X71422674Y-92774872D01*
X71422671Y-92774873D01*
X71227138Y-92830821D01*
X71046870Y-92924985D01*
X70889246Y-93053510D01*
X70760721Y-93211134D01*
X70666557Y-93391402D01*
X70610609Y-93586935D01*
X70610608Y-93586938D01*
X70600000Y-93706263D01*
X68124999Y-93706263D01*
X68124999Y-93475028D01*
X68124998Y-93475013D01*
X68114505Y-93372302D01*
X68059358Y-93205880D01*
X68059356Y-93205875D01*
X67967315Y-93056654D01*
X67843345Y-92932684D01*
X67694124Y-92840643D01*
X67694119Y-92840641D01*
X67527697Y-92785494D01*
X67527690Y-92785493D01*
X67424986Y-92775000D01*
X67287500Y-92775000D01*
X67287500Y-93750000D01*
X66787500Y-93750000D01*
X66787500Y-92775000D01*
X66650027Y-92775000D01*
X66650012Y-92775001D01*
X66547302Y-92785494D01*
X66380880Y-92840641D01*
X66380875Y-92840643D01*
X66231654Y-92932684D01*
X66107683Y-93056655D01*
X66107679Y-93056660D01*
X66105826Y-93059665D01*
X66104018Y-93061290D01*
X66103202Y-93062323D01*
X66103025Y-93062183D01*
X66053874Y-93106385D01*
X65984911Y-93117601D01*
X65920831Y-93089752D01*
X65894753Y-93059653D01*
X65894737Y-93059628D01*
X65892712Y-93056344D01*
X65768656Y-92932288D01*
X65619334Y-92840186D01*
X65452797Y-92785001D01*
X65452795Y-92785000D01*
X65350010Y-92774500D01*
X64574998Y-92774500D01*
X64574980Y-92774501D01*
X64472203Y-92785000D01*
X64472200Y-92785001D01*
X64305668Y-92840185D01*
X64305663Y-92840187D01*
X64156342Y-92932289D01*
X64032289Y-93056342D01*
X64013817Y-93086290D01*
X63956477Y-93179255D01*
X63949481Y-93190597D01*
X63897533Y-93237321D01*
X63843942Y-93249500D01*
X61284308Y-93249500D01*
X61217269Y-93229815D01*
X61188206Y-93203860D01*
X61117659Y-93117340D01*
X61004833Y-93025343D01*
X60959955Y-92988750D01*
X60779597Y-92894539D01*
X60779596Y-92894538D01*
X60779593Y-92894537D01*
X60662377Y-92860998D01*
X60583966Y-92838562D01*
X60583963Y-92838561D01*
X60583961Y-92838561D01*
X60511179Y-92832090D01*
X60464585Y-92827948D01*
X60464581Y-92827948D01*
X59881048Y-92827948D01*
X59814009Y-92808263D01*
X59768254Y-92755459D01*
X59757048Y-92703948D01*
X59757048Y-90387486D01*
X65481549Y-90387486D01*
X65492042Y-90490197D01*
X65547189Y-90656619D01*
X65547191Y-90656624D01*
X65639232Y-90805845D01*
X65763202Y-90929815D01*
X65912423Y-91021856D01*
X65912428Y-91021858D01*
X66078850Y-91077005D01*
X66078857Y-91077006D01*
X66181567Y-91087499D01*
X66456547Y-91087499D01*
X66956548Y-91087499D01*
X67231520Y-91087499D01*
X67231534Y-91087498D01*
X67334245Y-91077005D01*
X67500667Y-91021858D01*
X67500672Y-91021856D01*
X67649893Y-90929815D01*
X67773863Y-90805845D01*
X67865904Y-90656624D01*
X67865906Y-90656619D01*
X67921053Y-90490197D01*
X67921054Y-90490190D01*
X67931547Y-90387486D01*
X67931548Y-90387473D01*
X67931548Y-90250000D01*
X66956548Y-90250000D01*
X66956548Y-91087499D01*
X66456547Y-91087499D01*
X66456548Y-91087498D01*
X66456548Y-90250000D01*
X65481549Y-90250000D01*
X65481549Y-90387486D01*
X59757048Y-90387486D01*
X59757048Y-89521390D01*
X59776733Y-89454351D01*
X59825954Y-89410302D01*
X59826462Y-89410049D01*
X59855844Y-89395478D01*
X59991971Y-89286055D01*
X60056550Y-89259399D01*
X60125294Y-89271889D01*
X60168921Y-89308394D01*
X60193472Y-89341189D01*
X60308565Y-89427349D01*
X60308572Y-89427353D01*
X60443279Y-89477595D01*
X60443286Y-89477597D01*
X60502814Y-89483998D01*
X60502831Y-89483999D01*
X60630455Y-89483999D01*
X60660381Y-89487664D01*
X60812721Y-89525550D01*
X60855451Y-89528448D01*
X61056548Y-89528448D01*
X61056548Y-88310446D01*
X61063049Y-88321707D01*
X61165451Y-88424109D01*
X61290867Y-88496517D01*
X61430750Y-88533999D01*
X61556548Y-88533999D01*
X61556548Y-89528448D01*
X61757645Y-89528448D01*
X61800374Y-89525550D01*
X61952715Y-89487664D01*
X61982641Y-89483999D01*
X62503487Y-89483999D01*
X62503503Y-89483998D01*
X62563031Y-89477597D01*
X62563038Y-89477595D01*
X62697745Y-89427353D01*
X62697752Y-89427349D01*
X62812846Y-89341189D01*
X62812849Y-89341186D01*
X62899009Y-89226092D01*
X62899013Y-89226085D01*
X62949255Y-89091378D01*
X62949257Y-89091371D01*
X62955658Y-89031843D01*
X62955659Y-89031826D01*
X62955659Y-88233999D01*
X61993907Y-88233999D01*
X62015677Y-88196291D01*
X62053159Y-88056408D01*
X62053159Y-87911590D01*
X62015677Y-87771707D01*
X61993907Y-87733999D01*
X62955659Y-87733999D01*
X62955659Y-86936171D01*
X62955658Y-86936154D01*
X62949257Y-86876626D01*
X62949255Y-86876619D01*
X62899013Y-86741912D01*
X62899009Y-86741905D01*
X62812849Y-86626811D01*
X62812846Y-86626808D01*
X62697752Y-86540648D01*
X62697745Y-86540644D01*
X62563038Y-86490402D01*
X62563031Y-86490400D01*
X62503503Y-86483999D01*
X61753159Y-86483999D01*
X61753159Y-87493251D01*
X61715451Y-87471481D01*
X61575568Y-87433999D01*
X61430750Y-87433999D01*
X61290867Y-87471481D01*
X61253159Y-87493251D01*
X61253159Y-86483999D01*
X60502814Y-86483999D01*
X60443286Y-86490400D01*
X60443279Y-86490402D01*
X60308572Y-86540644D01*
X60308565Y-86540648D01*
X60193471Y-86626808D01*
X60127372Y-86715104D01*
X60071438Y-86756974D01*
X60001746Y-86761958D01*
X59950420Y-86737440D01*
X59855844Y-86661418D01*
X59855841Y-86661416D01*
X59855838Y-86661414D01*
X59685244Y-86576808D01*
X59685237Y-86576805D01*
X59657827Y-86569989D01*
X59597520Y-86534707D01*
X59565862Y-86472421D01*
X59572903Y-86402908D01*
X59616409Y-86348236D01*
X59682566Y-86325764D01*
X59687740Y-86325655D01*
X59905957Y-86325655D01*
X59905965Y-86325654D01*
X59905968Y-86325654D01*
X59962251Y-86319904D01*
X60008746Y-86315155D01*
X60175283Y-86259970D01*
X60324605Y-86167868D01*
X60448661Y-86043812D01*
X60540763Y-85894490D01*
X60540763Y-85894488D01*
X60544554Y-85888343D01*
X60545999Y-85889234D01*
X60586251Y-85843520D01*
X60652460Y-85824364D01*
X67920943Y-85824364D01*
X72450092Y-85824364D01*
X72517131Y-85844049D01*
X72537773Y-85860683D01*
X72929673Y-86252583D01*
X72963158Y-86313906D01*
X72958174Y-86383598D01*
X72916302Y-86439531D01*
X72850838Y-86463948D01*
X72841992Y-86464264D01*
X72548903Y-86464264D01*
X72506175Y-86467161D01*
X72321476Y-86513095D01*
X72150977Y-86597654D01*
X72150974Y-86597656D01*
X72002635Y-86716895D01*
X71946967Y-86786149D01*
X71889624Y-86826067D01*
X71819801Y-86828647D01*
X71759669Y-86793068D01*
X71753673Y-86786148D01*
X71697722Y-86716542D01*
X71697721Y-86716541D01*
X71549295Y-86597233D01*
X71549292Y-86597231D01*
X71378697Y-86512624D01*
X71193892Y-86466664D01*
X71172506Y-86465214D01*
X71151123Y-86463764D01*
X71151120Y-86463764D01*
X70248877Y-86463764D01*
X70248874Y-86463765D01*
X70206113Y-86466663D01*
X70206112Y-86466663D01*
X70021303Y-86512624D01*
X70021302Y-86512624D01*
X69850705Y-86597232D01*
X69850700Y-86597235D01*
X69847576Y-86599747D01*
X69826193Y-86613577D01*
X69668788Y-86693780D01*
X69602541Y-86741912D01*
X69483758Y-86828213D01*
X69483756Y-86828215D01*
X69483755Y-86828215D01*
X69322040Y-86989930D01*
X69322040Y-86989931D01*
X69322038Y-86989933D01*
X69207074Y-87148167D01*
X69184743Y-87178903D01*
X69183732Y-87178168D01*
X69136201Y-87221167D01*
X69082291Y-87233499D01*
X67914186Y-87233499D01*
X67847147Y-87213814D01*
X67808648Y-87174598D01*
X67774260Y-87118844D01*
X67650204Y-86994788D01*
X67555143Y-86936154D01*
X67500884Y-86902687D01*
X67500879Y-86902685D01*
X67499410Y-86902198D01*
X67334345Y-86847501D01*
X67334343Y-86847500D01*
X67231558Y-86837000D01*
X66181546Y-86837000D01*
X66181528Y-86837001D01*
X66078751Y-86847500D01*
X66078748Y-86847501D01*
X65912216Y-86902685D01*
X65912211Y-86902687D01*
X65762890Y-86994789D01*
X65638837Y-87118842D01*
X65546735Y-87268163D01*
X65546734Y-87268166D01*
X65491549Y-87434703D01*
X65491549Y-87434704D01*
X65491548Y-87434704D01*
X65481048Y-87537483D01*
X65481048Y-88312501D01*
X65481049Y-88312519D01*
X65491548Y-88415296D01*
X65491549Y-88415299D01*
X65546733Y-88581831D01*
X65546735Y-88581836D01*
X65581617Y-88638388D01*
X65638836Y-88731156D01*
X65762892Y-88855212D01*
X65766176Y-88857237D01*
X65766201Y-88857253D01*
X65767993Y-88859246D01*
X65768559Y-88859693D01*
X65768482Y-88859789D01*
X65812927Y-88909199D01*
X65824151Y-88978161D01*
X65796309Y-89042244D01*
X65766213Y-89068326D01*
X65763208Y-89070179D01*
X65763203Y-89070183D01*
X65639232Y-89194154D01*
X65547191Y-89343375D01*
X65547189Y-89343380D01*
X65492042Y-89509802D01*
X65492041Y-89509809D01*
X65481548Y-89612513D01*
X65481548Y-89750000D01*
X67931547Y-89750000D01*
X67931547Y-89612528D01*
X67931546Y-89612513D01*
X67921053Y-89509802D01*
X67865906Y-89343380D01*
X67865904Y-89343375D01*
X67773863Y-89194154D01*
X67649892Y-89070183D01*
X67649889Y-89070181D01*
X67646887Y-89068329D01*
X67645261Y-89066521D01*
X67644225Y-89065702D01*
X67644365Y-89065524D01*
X67600165Y-89016380D01*
X67588945Y-88947417D01*
X67616791Y-88883336D01*
X67646892Y-88857254D01*
X67650204Y-88855212D01*
X67734598Y-88770818D01*
X67795921Y-88737333D01*
X67822279Y-88734499D01*
X69082291Y-88734499D01*
X69149330Y-88754184D01*
X69184018Y-88789621D01*
X69184743Y-88789095D01*
X69187606Y-88793036D01*
X69187607Y-88793037D01*
X69322038Y-88978065D01*
X69483758Y-89139785D01*
X69668786Y-89274216D01*
X69817558Y-89350019D01*
X69872568Y-89378048D01*
X70090075Y-89448720D01*
X70090076Y-89448720D01*
X70090079Y-89448721D01*
X70315970Y-89484499D01*
X70315971Y-89484499D01*
X70544677Y-89484499D01*
X70544678Y-89484499D01*
X70612452Y-89473764D01*
X70659641Y-89466290D01*
X70679039Y-89464763D01*
X71151123Y-89464763D01*
X71151123Y-89464762D01*
X71193889Y-89461864D01*
X71378693Y-89415905D01*
X71549296Y-89331294D01*
X71697722Y-89211986D01*
X71753675Y-89142376D01*
X71811015Y-89102460D01*
X71880837Y-89099880D01*
X71940970Y-89135458D01*
X71946967Y-89142379D01*
X72002632Y-89211630D01*
X72002633Y-89211631D01*
X72150974Y-89330871D01*
X72150977Y-89330873D01*
X72321476Y-89415432D01*
X72506175Y-89461366D01*
X72548903Y-89464264D01*
X72720324Y-89464264D01*
X72720324Y-88474746D01*
X72758032Y-88496517D01*
X72897915Y-88533999D01*
X73042733Y-88533999D01*
X73182616Y-88496517D01*
X73250000Y-88457613D01*
X73250000Y-89464264D01*
X73451097Y-89464264D01*
X73493824Y-89461366D01*
X73678523Y-89415432D01*
X73849021Y-89330874D01*
X73963293Y-89239019D01*
X74027877Y-89212360D01*
X74096622Y-89224850D01*
X74140247Y-89261355D01*
X74200276Y-89341543D01*
X74200279Y-89341546D01*
X74315488Y-89427792D01*
X74315495Y-89427796D01*
X74450341Y-89478090D01*
X74450340Y-89478090D01*
X74457268Y-89478834D01*
X74509951Y-89484499D01*
X76510696Y-89484498D01*
X76570307Y-89478090D01*
X76705155Y-89427795D01*
X76820370Y-89341545D01*
X76906620Y-89226330D01*
X76956915Y-89091482D01*
X76963324Y-89031872D01*
X76963323Y-87444134D01*
X76983008Y-87377096D01*
X77035811Y-87331341D01*
X77104970Y-87321397D01*
X77168526Y-87350422D01*
X77175004Y-87356454D01*
X77986692Y-88168142D01*
X78009356Y-88204211D01*
X78011188Y-88203329D01*
X78014207Y-88209598D01*
X78078870Y-88312508D01*
X78110184Y-88362344D01*
X78237738Y-88489898D01*
X78307924Y-88533999D01*
X78373162Y-88574991D01*
X78390478Y-88585871D01*
X78400155Y-88589257D01*
X78560745Y-88645450D01*
X78560750Y-88645451D01*
X78739996Y-88665647D01*
X78740000Y-88665647D01*
X78740004Y-88665647D01*
X78919249Y-88645451D01*
X78919252Y-88645450D01*
X78919255Y-88645450D01*
X79089522Y-88585871D01*
X79242262Y-88489898D01*
X79369816Y-88362344D01*
X79465789Y-88209604D01*
X79525368Y-88039337D01*
X79526162Y-88032289D01*
X79545565Y-87860085D01*
X79545565Y-87860078D01*
X79525369Y-87680832D01*
X79525368Y-87680827D01*
X79513283Y-87646291D01*
X79465789Y-87510560D01*
X79369816Y-87357820D01*
X79242262Y-87230266D01*
X79208935Y-87209325D01*
X79089516Y-87134289D01*
X79083247Y-87131270D01*
X79084129Y-87129438D01*
X79048060Y-87106774D01*
X78593153Y-86651867D01*
X78559668Y-86590544D01*
X78564652Y-86520852D01*
X78606524Y-86464919D01*
X78671988Y-86440502D01*
X78691640Y-86440657D01*
X78724892Y-86443567D01*
X78748800Y-86445659D01*
X78748801Y-86445659D01*
X78748802Y-86445659D01*
X78807744Y-86440502D01*
X78984209Y-86425063D01*
X79212464Y-86363903D01*
X79426631Y-86264035D01*
X79620202Y-86128495D01*
X79787296Y-85961401D01*
X79917226Y-85775842D01*
X79971803Y-85732217D01*
X80041301Y-85725023D01*
X80103656Y-85756546D01*
X80120376Y-85775842D01*
X80250301Y-85961395D01*
X80250306Y-85961401D01*
X80417400Y-86128495D01*
X80514185Y-86196265D01*
X80610966Y-86264032D01*
X80610968Y-86264033D01*
X80610971Y-86264035D01*
X80825138Y-86363903D01*
X81053393Y-86425063D01*
X81229858Y-86440502D01*
X81288800Y-86445659D01*
X81288801Y-86445659D01*
X81288802Y-86445659D01*
X81347744Y-86440502D01*
X81524209Y-86425063D01*
X81752464Y-86363903D01*
X81966631Y-86264035D01*
X82160202Y-86128495D01*
X82327296Y-85961401D01*
X82457226Y-85775842D01*
X82511803Y-85732217D01*
X82581301Y-85725023D01*
X82643656Y-85756546D01*
X82660376Y-85775842D01*
X82790301Y-85961395D01*
X82790306Y-85961401D01*
X82957400Y-86128495D01*
X83054185Y-86196265D01*
X83150966Y-86264032D01*
X83150968Y-86264033D01*
X83150971Y-86264035D01*
X83365138Y-86363903D01*
X83593393Y-86425063D01*
X83769858Y-86440502D01*
X83828800Y-86445659D01*
X83828801Y-86445659D01*
X83828802Y-86445659D01*
X83887744Y-86440502D01*
X84064209Y-86425063D01*
X84292464Y-86363903D01*
X84506631Y-86264035D01*
X84700202Y-86128495D01*
X84867296Y-85961401D01*
X84997226Y-85775842D01*
X85051803Y-85732217D01*
X85121301Y-85725023D01*
X85183656Y-85756546D01*
X85200376Y-85775842D01*
X85330301Y-85961395D01*
X85330306Y-85961401D01*
X85497400Y-86128495D01*
X85594185Y-86196265D01*
X85690966Y-86264032D01*
X85690968Y-86264033D01*
X85690971Y-86264035D01*
X85905138Y-86363903D01*
X86133393Y-86425063D01*
X86309858Y-86440502D01*
X86368800Y-86445659D01*
X86368801Y-86445659D01*
X86368802Y-86445659D01*
X86427744Y-86440502D01*
X86604209Y-86425063D01*
X86832464Y-86363903D01*
X87046631Y-86264035D01*
X87240202Y-86128495D01*
X87407296Y-85961401D01*
X87542836Y-85767830D01*
X87642704Y-85553663D01*
X87703864Y-85325408D01*
X87724460Y-85090000D01*
X87703864Y-84854592D01*
X87642704Y-84626337D01*
X87542836Y-84412171D01*
X87542495Y-84411683D01*
X87407295Y-84218597D01*
X87240203Y-84051506D01*
X87240196Y-84051501D01*
X87222638Y-84039207D01*
X87183920Y-84012096D01*
X87046635Y-83915967D01*
X87046631Y-83915965D01*
X86995581Y-83892160D01*
X86832464Y-83816097D01*
X86832460Y-83816096D01*
X86832456Y-83816094D01*
X86604214Y-83754938D01*
X86604204Y-83754936D01*
X86368802Y-83734341D01*
X86368800Y-83734341D01*
X86133397Y-83754936D01*
X86133387Y-83754938D01*
X85905145Y-83816094D01*
X85905136Y-83816098D01*
X85690972Y-83915964D01*
X85690970Y-83915965D01*
X85497398Y-84051505D01*
X85330306Y-84218597D01*
X85200376Y-84404158D01*
X85145799Y-84447783D01*
X85076301Y-84454977D01*
X85013946Y-84423454D01*
X84997226Y-84404158D01*
X84867295Y-84218597D01*
X84700203Y-84051506D01*
X84700196Y-84051501D01*
X84682638Y-84039207D01*
X84643920Y-84012096D01*
X84506635Y-83915967D01*
X84506631Y-83915965D01*
X84455581Y-83892160D01*
X84292464Y-83816097D01*
X84292460Y-83816096D01*
X84292456Y-83816094D01*
X84064214Y-83754938D01*
X84064204Y-83754936D01*
X83828802Y-83734341D01*
X83828800Y-83734341D01*
X83593397Y-83754936D01*
X83593387Y-83754938D01*
X83365145Y-83816094D01*
X83365136Y-83816098D01*
X83150972Y-83915964D01*
X83150970Y-83915965D01*
X82957398Y-84051505D01*
X82790306Y-84218597D01*
X82660376Y-84404158D01*
X82605799Y-84447783D01*
X82536301Y-84454977D01*
X82473946Y-84423454D01*
X82457226Y-84404158D01*
X82327295Y-84218597D01*
X82160203Y-84051506D01*
X82160196Y-84051501D01*
X82142638Y-84039207D01*
X82103920Y-84012096D01*
X81966635Y-83915967D01*
X81966631Y-83915965D01*
X81915581Y-83892160D01*
X81752464Y-83816097D01*
X81752460Y-83816096D01*
X81752456Y-83816094D01*
X81524214Y-83754938D01*
X81524204Y-83754936D01*
X81288802Y-83734341D01*
X81288800Y-83734341D01*
X81053397Y-83754936D01*
X81053384Y-83754939D01*
X80925042Y-83789327D01*
X80855193Y-83787664D01*
X80805269Y-83757233D01*
X80506391Y-83458355D01*
X80506389Y-83458352D01*
X80387518Y-83339481D01*
X80387510Y-83339475D01*
X80261055Y-83266467D01*
X80261052Y-83266466D01*
X80250586Y-83260423D01*
X80097858Y-83219499D01*
X79939744Y-83219499D01*
X79932148Y-83219499D01*
X79932132Y-83219500D01*
X75829636Y-83219500D01*
X75762597Y-83199815D01*
X75741955Y-83183181D01*
X75366231Y-82807457D01*
X75332746Y-82746134D01*
X75337730Y-82676442D01*
X75379602Y-82620509D01*
X75445066Y-82596092D01*
X75453912Y-82595776D01*
X75493808Y-82595776D01*
X75494235Y-82595777D01*
X76250563Y-82598382D01*
X76254384Y-82598640D01*
X76260210Y-82598640D01*
X76325113Y-82598640D01*
X76325540Y-82598641D01*
X76390268Y-82598864D01*
X76390268Y-82598863D01*
X76396088Y-82598884D01*
X76399944Y-82598638D01*
X76419537Y-82598638D01*
X76565240Y-82569655D01*
X76602809Y-82562182D01*
X76775450Y-82490671D01*
X76930822Y-82386854D01*
X76996844Y-82320832D01*
X77058164Y-82287349D01*
X77127856Y-82292333D01*
X77150495Y-82303522D01*
X77213056Y-82342832D01*
X77213060Y-82342833D01*
X77213061Y-82342834D01*
X77383322Y-82402411D01*
X77383328Y-82402413D01*
X77383333Y-82402414D01*
X77562579Y-82422610D01*
X77562583Y-82422610D01*
X77562587Y-82422610D01*
X77741832Y-82402414D01*
X77741834Y-82402413D01*
X77741838Y-82402413D01*
X77741841Y-82402411D01*
X77741845Y-82402411D01*
X77792883Y-82384551D01*
X77912105Y-82342834D01*
X77920881Y-82337319D01*
X77988115Y-82318316D01*
X78052827Y-82337315D01*
X78074606Y-82351000D01*
X78244867Y-82410577D01*
X78244873Y-82410579D01*
X78244878Y-82410580D01*
X78424124Y-82430776D01*
X78424128Y-82430776D01*
X78424132Y-82430776D01*
X78603377Y-82410580D01*
X78603379Y-82410579D01*
X78603383Y-82410579D01*
X78603386Y-82410577D01*
X78603390Y-82410577D01*
X78654428Y-82392717D01*
X78773650Y-82351000D01*
X78773659Y-82350993D01*
X78779927Y-82347977D01*
X78780667Y-82349514D01*
X78839441Y-82332897D01*
X78904166Y-82351897D01*
X78913859Y-82357988D01*
X78915735Y-82359167D01*
X79086002Y-82418746D01*
X79086007Y-82418747D01*
X79265253Y-82438943D01*
X79265257Y-82438943D01*
X79265261Y-82438943D01*
X79444506Y-82418747D01*
X79444508Y-82418746D01*
X79444512Y-82418746D01*
X79444515Y-82418744D01*
X79444519Y-82418744D01*
X79495557Y-82400884D01*
X79614779Y-82359167D01*
X79636554Y-82345484D01*
X79703788Y-82326483D01*
X79768501Y-82345485D01*
X79777275Y-82350998D01*
X79777276Y-82350998D01*
X79777279Y-82351000D01*
X79947540Y-82410577D01*
X79947546Y-82410579D01*
X79947551Y-82410580D01*
X80126797Y-82430776D01*
X80126801Y-82430776D01*
X80126805Y-82430776D01*
X80306050Y-82410580D01*
X80306052Y-82410579D01*
X80306056Y-82410579D01*
X80306059Y-82410577D01*
X80306063Y-82410577D01*
X80401788Y-82377080D01*
X80476323Y-82351000D01*
X80492752Y-82340676D01*
X80559987Y-82321675D01*
X80626823Y-82342041D01*
X80646406Y-82357988D01*
X80675273Y-82386855D01*
X80675277Y-82386858D01*
X80830643Y-82490671D01*
X80830656Y-82490678D01*
X80947139Y-82538926D01*
X81003292Y-82562185D01*
X81040846Y-82569655D01*
X81186564Y-82598641D01*
X81186567Y-82598641D01*
X81206037Y-82598641D01*
X81206511Y-82598671D01*
X81214319Y-82598667D01*
X81214324Y-82598669D01*
X81279135Y-82598641D01*
X81279158Y-82598641D01*
X81353810Y-82598641D01*
X81354292Y-82598608D01*
X87909551Y-82595777D01*
X87918426Y-82596092D01*
X88118563Y-82610406D01*
X88136065Y-82612923D01*
X88314415Y-82651720D01*
X88327792Y-82654630D01*
X88344768Y-82659614D01*
X88528614Y-82728185D01*
X88544707Y-82735535D01*
X88716911Y-82829565D01*
X88731794Y-82839129D01*
X88773831Y-82870597D01*
X88811566Y-82898845D01*
X88888873Y-82956715D01*
X88902244Y-82968301D01*
X89040991Y-83107046D01*
X89052576Y-83120417D01*
X89170155Y-83277481D01*
X89179721Y-83292364D01*
X89273761Y-83464582D01*
X89281110Y-83480675D01*
X89287431Y-83497621D01*
X89344445Y-83650478D01*
X89349679Y-83664509D01*
X89354664Y-83681485D01*
X89396373Y-83873213D01*
X89398891Y-83890724D01*
X89413184Y-84090529D01*
X89413500Y-84099375D01*
X89413500Y-84167708D01*
X89413676Y-84170335D01*
X89439273Y-94995451D01*
X89438957Y-95004590D01*
X89424655Y-95204555D01*
X89422137Y-95222067D01*
X89380432Y-95413785D01*
X89375448Y-95430761D01*
X89306877Y-95614605D01*
X89299527Y-95630698D01*
X89205497Y-95802900D01*
X89195932Y-95817784D01*
X89078348Y-95974857D01*
X89066762Y-95988228D01*
X88928017Y-96126972D01*
X88914646Y-96138557D01*
X88757581Y-96256134D01*
X88742697Y-96265700D01*
X88570483Y-96359734D01*
X88554390Y-96367083D01*
X88370552Y-96435650D01*
X88353577Y-96440634D01*
X88161858Y-96482339D01*
X88144345Y-96484857D01*
X87944012Y-96499183D01*
X87935167Y-96499499D01*
X87866303Y-96499499D01*
X87866287Y-96499500D01*
X50004428Y-96499500D01*
X49995582Y-96499184D01*
X49973622Y-96497613D01*
X49795442Y-96484869D01*
X49777931Y-96482351D01*
X49586212Y-96440646D01*
X49569236Y-96435662D01*
X49385390Y-96367090D01*
X49369298Y-96359740D01*
X49197095Y-96265711D01*
X49182210Y-96256146D01*
X49025132Y-96138558D01*
X49011762Y-96126972D01*
X48873027Y-95988237D01*
X48861441Y-95974867D01*
X48752206Y-95828947D01*
X48743849Y-95817784D01*
X48734288Y-95802904D01*
X48640259Y-95630701D01*
X48632909Y-95614609D01*
X48593518Y-95508998D01*
X48564334Y-95430755D01*
X48559355Y-95413797D01*
X48517647Y-95222063D01*
X48515130Y-95204556D01*
X48514911Y-95201497D01*
X48500816Y-95004418D01*
X48500500Y-94995572D01*
X48500500Y-94493674D01*
X50610344Y-94493674D01*
X50620837Y-94596385D01*
X50675984Y-94762807D01*
X50675986Y-94762812D01*
X50768027Y-94912033D01*
X50891997Y-95036003D01*
X51041218Y-95128044D01*
X51041223Y-95128046D01*
X51207645Y-95183193D01*
X51207652Y-95183194D01*
X51310362Y-95193687D01*
X51447842Y-95193687D01*
X51447843Y-95193686D01*
X51447843Y-94218688D01*
X50610344Y-94218688D01*
X50610344Y-94493674D01*
X48500500Y-94493674D01*
X48500500Y-93443701D01*
X50610343Y-93443701D01*
X50610343Y-93718688D01*
X51447843Y-93718688D01*
X51447843Y-92743688D01*
X51310370Y-92743688D01*
X51310355Y-92743689D01*
X51207645Y-92754182D01*
X51041223Y-92809329D01*
X51041218Y-92809331D01*
X50891997Y-92901372D01*
X50768027Y-93025342D01*
X50675986Y-93174563D01*
X50675984Y-93174568D01*
X50620837Y-93340990D01*
X50620836Y-93340997D01*
X50610343Y-93443701D01*
X48500500Y-93443701D01*
X48500500Y-91424986D01*
X50775001Y-91424986D01*
X50785494Y-91527697D01*
X50840641Y-91694119D01*
X50840643Y-91694124D01*
X50932684Y-91843345D01*
X51056654Y-91967315D01*
X51205875Y-92059356D01*
X51205880Y-92059358D01*
X51372302Y-92114505D01*
X51372309Y-92114506D01*
X51475019Y-92124999D01*
X51749999Y-92124999D01*
X52250000Y-92124999D01*
X52524972Y-92124999D01*
X52524986Y-92124998D01*
X52627697Y-92114505D01*
X52794119Y-92059358D01*
X52794124Y-92059356D01*
X52943345Y-91967315D01*
X53067315Y-91843345D01*
X53159356Y-91694124D01*
X53159358Y-91694119D01*
X53214505Y-91527697D01*
X53214506Y-91527690D01*
X53224999Y-91424986D01*
X53225000Y-91424973D01*
X53225000Y-91287500D01*
X52250000Y-91287500D01*
X52250000Y-92124999D01*
X51749999Y-92124999D01*
X51750000Y-92124998D01*
X51750000Y-91287500D01*
X50775001Y-91287500D01*
X50775001Y-91424986D01*
X48500500Y-91424986D01*
X48500500Y-86413458D01*
X48520185Y-86346419D01*
X48572989Y-86300664D01*
X48642147Y-86290720D01*
X48705703Y-86319745D01*
X48736881Y-86361052D01*
X48797198Y-86490402D01*
X48825965Y-86552092D01*
X48825967Y-86552096D01*
X48895828Y-86651867D01*
X48961505Y-86745663D01*
X49128599Y-86912757D01*
X49162038Y-86936171D01*
X49322165Y-87048294D01*
X49322167Y-87048295D01*
X49322170Y-87048297D01*
X49536337Y-87148165D01*
X49764592Y-87209325D01*
X49952918Y-87225801D01*
X49999999Y-87229921D01*
X50000000Y-87229921D01*
X50000001Y-87229921D01*
X50039234Y-87226488D01*
X50235408Y-87209325D01*
X50463663Y-87148165D01*
X50677830Y-87048297D01*
X50871401Y-86912757D01*
X51038495Y-86745663D01*
X51174035Y-86552092D01*
X51273903Y-86337925D01*
X51335063Y-86109670D01*
X51355659Y-85874262D01*
X51335063Y-85638854D01*
X51286888Y-85459061D01*
X51273905Y-85410606D01*
X51273904Y-85410605D01*
X51273903Y-85410599D01*
X51174035Y-85196433D01*
X51099511Y-85090000D01*
X51038494Y-85002859D01*
X50871402Y-84835768D01*
X50871396Y-84835763D01*
X50685842Y-84705837D01*
X50642217Y-84651260D01*
X50635023Y-84581762D01*
X50666546Y-84519407D01*
X50685842Y-84502687D01*
X50815112Y-84412171D01*
X50871401Y-84372757D01*
X51038495Y-84205663D01*
X51174035Y-84012092D01*
X51273903Y-83797925D01*
X51335063Y-83569670D01*
X51355659Y-83334262D01*
X51352263Y-83295452D01*
X51347806Y-83244501D01*
X51335063Y-83098854D01*
X51286888Y-82919061D01*
X51273905Y-82870606D01*
X51273904Y-82870605D01*
X51273903Y-82870599D01*
X51174035Y-82656433D01*
X51165996Y-82644951D01*
X51038494Y-82462859D01*
X50871402Y-82295768D01*
X50871396Y-82295763D01*
X50685842Y-82165837D01*
X50642217Y-82111260D01*
X50635023Y-82041762D01*
X50666546Y-81979407D01*
X50685842Y-81962687D01*
X50810993Y-81875055D01*
X50871401Y-81832757D01*
X51038495Y-81665663D01*
X51174035Y-81472092D01*
X51273903Y-81257925D01*
X51335063Y-81029670D01*
X51355659Y-80794262D01*
X51335063Y-80558854D01*
X51284871Y-80371533D01*
X51273905Y-80330606D01*
X51273904Y-80330605D01*
X51273903Y-80330599D01*
X51174035Y-80116433D01*
X51113085Y-80029386D01*
X51038494Y-79922859D01*
X50871402Y-79755768D01*
X50871396Y-79755763D01*
X50685842Y-79625837D01*
X50642217Y-79571260D01*
X50635023Y-79501762D01*
X50666546Y-79439407D01*
X50685842Y-79422687D01*
X50788283Y-79350957D01*
X50871401Y-79292757D01*
X51038495Y-79125663D01*
X51174035Y-78932092D01*
X51273903Y-78717925D01*
X51335063Y-78489670D01*
X51355659Y-78254262D01*
X51353794Y-78232951D01*
X51335063Y-78018858D01*
X51335063Y-78018854D01*
X51286888Y-77839061D01*
X51273905Y-77790606D01*
X51273904Y-77790605D01*
X51273903Y-77790599D01*
X51174035Y-77576433D01*
X51121922Y-77502008D01*
X51038496Y-77382862D01*
X50981018Y-77325384D01*
X50916567Y-77260933D01*
X50883084Y-77199613D01*
X50888068Y-77129921D01*
X50929939Y-77073987D01*
X50960915Y-77057072D01*
X51092331Y-77008058D01*
X51207546Y-76921808D01*
X51293796Y-76806593D01*
X51344091Y-76671745D01*
X51350500Y-76612135D01*
X51350499Y-74816390D01*
X51344091Y-74756779D01*
X51332532Y-74725789D01*
X51293797Y-74621933D01*
X51293793Y-74621926D01*
X51207547Y-74506717D01*
X51207544Y-74506714D01*
X51092335Y-74420468D01*
X51092328Y-74420464D01*
X50957482Y-74370170D01*
X50957483Y-74370170D01*
X50897883Y-74363763D01*
X50897881Y-74363762D01*
X50897873Y-74363762D01*
X50897864Y-74363762D01*
X49102129Y-74363762D01*
X49102123Y-74363763D01*
X49042516Y-74370170D01*
X48907671Y-74420464D01*
X48907664Y-74420468D01*
X48792455Y-74506714D01*
X48792452Y-74506717D01*
X48723766Y-74598470D01*
X48667832Y-74640341D01*
X48598141Y-74645325D01*
X48536818Y-74611839D01*
X48503334Y-74550516D01*
X48500500Y-74524159D01*
X48500500Y-68608755D01*
X48520185Y-68541716D01*
X48572989Y-68495961D01*
X48642147Y-68486017D01*
X48705703Y-68515042D01*
X48735841Y-68558821D01*
X48737500Y-68558048D01*
X48739787Y-68562954D01*
X48739788Y-68562955D01*
X48784134Y-68658055D01*
X48839656Y-68777122D01*
X48839658Y-68777126D01*
X48947972Y-68931813D01*
X48975196Y-68970693D01*
X49142290Y-69137787D01*
X49208325Y-69184025D01*
X49335856Y-69273324D01*
X49335858Y-69273325D01*
X49335861Y-69273327D01*
X49550028Y-69373195D01*
X49550034Y-69373196D01*
X49550035Y-69373197D01*
X49584341Y-69382389D01*
X49778283Y-69434355D01*
X49966609Y-69450831D01*
X50013690Y-69454951D01*
X50013691Y-69454951D01*
X50013692Y-69454951D01*
X50054610Y-69451371D01*
X50249099Y-69434355D01*
X50477354Y-69373195D01*
X50691521Y-69273327D01*
X50885092Y-69137787D01*
X51052186Y-68970693D01*
X51187726Y-68777122D01*
X51229592Y-68687338D01*
X51275761Y-68634903D01*
X51342955Y-68615751D01*
X51409836Y-68635966D01*
X51429653Y-68652066D01*
X51471339Y-68693752D01*
X51624079Y-68789725D01*
X51720800Y-68823569D01*
X51794346Y-68849304D01*
X51794351Y-68849305D01*
X51973597Y-68869501D01*
X51973601Y-68869501D01*
X51973605Y-68869501D01*
X52152850Y-68849305D01*
X52152853Y-68849304D01*
X52152856Y-68849304D01*
X52323123Y-68789725D01*
X52475863Y-68693752D01*
X52516877Y-68652736D01*
X52516891Y-68652725D01*
X52522726Y-68646889D01*
X52522729Y-68646888D01*
X53891909Y-67277708D01*
X53947549Y-67194435D01*
X53974041Y-67154787D01*
X54007538Y-67073918D01*
X54030616Y-67018204D01*
X54056143Y-66889871D01*
X54059457Y-66873210D01*
X54059457Y-62697833D01*
X54079142Y-62630794D01*
X54131946Y-62585039D01*
X54201104Y-62575095D01*
X54264660Y-62604120D01*
G37*
%TD.AperFunction*%
%TA.AperFunction,Conductor*%
G36*
X58560105Y-86010392D02*
G01*
X58586192Y-86040497D01*
X58588237Y-86043812D01*
X58712293Y-86167868D01*
X58861615Y-86259970D01*
X58861616Y-86259970D01*
X58862551Y-86260547D01*
X58909276Y-86312495D01*
X58920499Y-86381457D01*
X58892656Y-86445539D01*
X58834587Y-86484396D01*
X58816853Y-86488559D01*
X58630837Y-86518022D01*
X58561544Y-86509068D01*
X58523758Y-86483230D01*
X58316328Y-86275800D01*
X58282843Y-86214477D01*
X58287827Y-86144785D01*
X58316328Y-86100438D01*
X58373265Y-86043500D01*
X58373267Y-86043498D01*
X58375114Y-86040504D01*
X58376918Y-86038880D01*
X58377747Y-86037833D01*
X58377925Y-86037974D01*
X58427059Y-85993777D01*
X58496022Y-85982552D01*
X58560105Y-86010392D01*
G37*
%TD.AperFunction*%
%TA.AperFunction,Conductor*%
G36*
X54255703Y-82080704D02*
G01*
X54262181Y-82086736D01*
X54758392Y-82582948D01*
X54758396Y-82582951D01*
X54881310Y-82665080D01*
X54881323Y-82665087D01*
X54998945Y-82713807D01*
X55017899Y-82721658D01*
X55017903Y-82721658D01*
X55017904Y-82721659D01*
X55162891Y-82750500D01*
X55162894Y-82750500D01*
X55310729Y-82750500D01*
X56056063Y-82750500D01*
X56123102Y-82770185D01*
X56143744Y-82786819D01*
X57031239Y-83674314D01*
X57064724Y-83735636D01*
X57059740Y-83805327D01*
X57017868Y-83861261D01*
X56959805Y-83883932D01*
X56959870Y-83884233D01*
X56958024Y-83884628D01*
X56956173Y-83885351D01*
X56953253Y-83885649D01*
X56786829Y-83940797D01*
X56786824Y-83940799D01*
X56637603Y-84032840D01*
X56513633Y-84156810D01*
X56421592Y-84306031D01*
X56421590Y-84306036D01*
X56366443Y-84472458D01*
X56366440Y-84472473D01*
X56365275Y-84483880D01*
X56338877Y-84548571D01*
X56281695Y-84588720D01*
X56211884Y-84591581D01*
X56154237Y-84558954D01*
X54086819Y-82491536D01*
X54053334Y-82430213D01*
X54050500Y-82403855D01*
X54050500Y-82174417D01*
X54070185Y-82107378D01*
X54122989Y-82061623D01*
X54192147Y-82051679D01*
X54255703Y-82080704D01*
G37*
%TD.AperFunction*%
%TA.AperFunction,Conductor*%
G36*
X68921500Y-71034025D02*
G01*
X69619328Y-71034025D01*
X69619344Y-71034024D01*
X69678872Y-71027623D01*
X69678879Y-71027621D01*
X69813586Y-70977379D01*
X69813593Y-70977375D01*
X69928687Y-70891215D01*
X69928690Y-70891212D01*
X70014850Y-70776118D01*
X70014855Y-70776109D01*
X70043575Y-70699106D01*
X70085445Y-70643172D01*
X70150909Y-70618754D01*
X70219182Y-70633605D01*
X70250984Y-70658453D01*
X70259716Y-70667938D01*
X70259719Y-70667940D01*
X70259722Y-70667943D01*
X70442865Y-70810489D01*
X70442871Y-70810493D01*
X70442874Y-70810495D01*
X70646997Y-70920961D01*
X70748197Y-70955703D01*
X70866515Y-70996322D01*
X70866517Y-70996322D01*
X70866519Y-70996323D01*
X71095451Y-71034525D01*
X71095452Y-71034525D01*
X71327548Y-71034525D01*
X71327549Y-71034525D01*
X71556481Y-70996323D01*
X71776003Y-70920961D01*
X71782845Y-70917257D01*
X71851173Y-70902659D01*
X71916546Y-70927318D01*
X71929550Y-70938628D01*
X71931684Y-70940762D01*
X72059238Y-71068316D01*
X72211978Y-71164289D01*
X72293655Y-71192869D01*
X72382245Y-71223868D01*
X72382250Y-71223869D01*
X72561496Y-71244065D01*
X72561500Y-71244065D01*
X72561504Y-71244065D01*
X72740749Y-71223869D01*
X72740751Y-71223868D01*
X72740755Y-71223868D01*
X72740758Y-71223866D01*
X72740762Y-71223866D01*
X72829346Y-71192869D01*
X72899124Y-71189306D01*
X72959752Y-71224035D01*
X72991980Y-71286028D01*
X72994301Y-71309910D01*
X72994301Y-77202646D01*
X72974616Y-77269685D01*
X72921812Y-77315440D01*
X72852654Y-77325384D01*
X72789098Y-77296359D01*
X72782620Y-77290327D01*
X72531126Y-77038833D01*
X72497641Y-76977510D01*
X72498602Y-76920711D01*
X72499777Y-76916074D01*
X72543056Y-76745169D01*
X72552924Y-76626079D01*
X72562222Y-76513870D01*
X72562222Y-76513857D01*
X72543057Y-76282566D01*
X72543055Y-76282555D01*
X72486079Y-76057563D01*
X72392846Y-75845015D01*
X72265905Y-75650716D01*
X72265902Y-75650713D01*
X72265901Y-75650711D01*
X72108706Y-75479951D01*
X72108701Y-75479947D01*
X72108699Y-75479945D01*
X71925556Y-75337399D01*
X71925550Y-75337395D01*
X71721426Y-75226928D01*
X71721417Y-75226925D01*
X71501906Y-75151566D01*
X71285753Y-75115497D01*
X71272971Y-75113364D01*
X71040873Y-75113364D01*
X71040872Y-75113364D01*
X70977848Y-75123880D01*
X70908483Y-75115497D01*
X70854662Y-75070944D01*
X70834220Y-75015454D01*
X70815700Y-74851081D01*
X70815699Y-74851076D01*
X70803560Y-74816385D01*
X70756120Y-74680809D01*
X70733824Y-74645325D01*
X70678326Y-74557000D01*
X70659326Y-74489763D01*
X70678326Y-74425057D01*
X70725789Y-74349522D01*
X70785368Y-74179255D01*
X70805565Y-74000000D01*
X70794030Y-73897624D01*
X70785369Y-73820750D01*
X70785368Y-73820745D01*
X70729597Y-73661361D01*
X70725789Y-73650478D01*
X70629816Y-73497738D01*
X70502262Y-73370184D01*
X70369720Y-73286902D01*
X70349516Y-73274207D01*
X70343247Y-73271188D01*
X70344129Y-73269356D01*
X70308060Y-73246692D01*
X68307074Y-71245706D01*
X68273589Y-71184383D01*
X68278573Y-71114691D01*
X68320445Y-71058758D01*
X68385909Y-71034341D01*
X68394755Y-71034025D01*
X68421500Y-71034025D01*
X68421500Y-70009302D01*
X68497806Y-70053358D01*
X68612256Y-70084025D01*
X68730744Y-70084025D01*
X68845194Y-70053358D01*
X68921500Y-70009302D01*
X68921500Y-71034025D01*
G37*
%TD.AperFunction*%
%TA.AperFunction,Conductor*%
G36*
X67704809Y-66770185D02*
G01*
X67725451Y-66786819D01*
X68470409Y-67531777D01*
X68960977Y-68022344D01*
X68994462Y-68083667D01*
X68989478Y-68153359D01*
X68956938Y-68196825D01*
X68957819Y-68197706D01*
X68951694Y-68203830D01*
X68947606Y-68209292D01*
X68945416Y-68210108D01*
X68921500Y-68234025D01*
X68921500Y-69258747D01*
X68845194Y-69214692D01*
X68730744Y-69184025D01*
X68612256Y-69184025D01*
X68497806Y-69214692D01*
X68421500Y-69258747D01*
X68421500Y-68234025D01*
X68170435Y-68234025D01*
X68103396Y-68214340D01*
X68057641Y-68161536D01*
X68048818Y-68134218D01*
X68043159Y-68105771D01*
X68043156Y-68105762D01*
X67986587Y-67969191D01*
X67986580Y-67969178D01*
X67904451Y-67846264D01*
X67904448Y-67846260D01*
X67799919Y-67741731D01*
X67799915Y-67741728D01*
X67677001Y-67659599D01*
X67676988Y-67659592D01*
X67540417Y-67603023D01*
X67540407Y-67603020D01*
X67395420Y-67574180D01*
X67395418Y-67574180D01*
X66153383Y-67574180D01*
X66086344Y-67554495D01*
X66040589Y-67501691D01*
X66030645Y-67432533D01*
X66059670Y-67368977D01*
X66065702Y-67362499D01*
X66641381Y-66786819D01*
X66702704Y-66753334D01*
X66729062Y-66750500D01*
X67637770Y-66750500D01*
X67704809Y-66770185D01*
G37*
%TD.AperFunction*%
%TA.AperFunction,Conductor*%
G36*
X51775899Y-58559477D02*
G01*
X51796540Y-58576110D01*
X52700949Y-59480520D01*
X52700951Y-59480521D01*
X52700955Y-59480524D01*
X52837874Y-59559573D01*
X52837881Y-59559577D01*
X52990608Y-59600501D01*
X52990610Y-59600501D01*
X53156319Y-59600501D01*
X53156335Y-59600500D01*
X54726303Y-59600500D01*
X54793342Y-59620185D01*
X54839097Y-59672989D01*
X54849041Y-59742147D01*
X54847920Y-59748693D01*
X54842503Y-59775926D01*
X54840609Y-59785446D01*
X54840609Y-59933282D01*
X54840609Y-59933284D01*
X54840608Y-59933284D01*
X54869449Y-60078271D01*
X54869452Y-60078281D01*
X54926021Y-60214852D01*
X54926028Y-60214865D01*
X55008157Y-60337779D01*
X55008160Y-60337783D01*
X55112689Y-60442312D01*
X55112693Y-60442315D01*
X55235607Y-60524444D01*
X55235620Y-60524451D01*
X55372191Y-60581020D01*
X55372196Y-60581022D01*
X55372200Y-60581022D01*
X55372201Y-60581023D01*
X55517188Y-60609864D01*
X55517191Y-60609864D01*
X55665029Y-60609864D01*
X55762571Y-60590460D01*
X55810022Y-60581022D01*
X55946604Y-60524448D01*
X56069525Y-60442315D01*
X56174060Y-60337780D01*
X56256193Y-60214859D01*
X56256288Y-60214631D01*
X56286336Y-60142088D01*
X56312767Y-60078277D01*
X56332693Y-59978107D01*
X56341609Y-59933284D01*
X56341609Y-59785444D01*
X56334298Y-59748693D01*
X56340525Y-59679101D01*
X56383387Y-59623923D01*
X56449276Y-59600678D01*
X56455915Y-59600500D01*
X56858537Y-59600500D01*
X56925576Y-59620185D01*
X56971331Y-59672989D01*
X56981757Y-59710616D01*
X56999630Y-59869250D01*
X56999631Y-59869254D01*
X57059211Y-60039523D01*
X57123661Y-60142094D01*
X57155184Y-60192262D01*
X57282738Y-60319816D01*
X57435478Y-60415789D01*
X57605745Y-60475368D01*
X57692669Y-60485161D01*
X57757080Y-60512226D01*
X57766465Y-60520700D01*
X57893333Y-60647568D01*
X57926818Y-60708891D01*
X57921834Y-60778581D01*
X57898890Y-60840097D01*
X57898889Y-60840099D01*
X57892482Y-60899699D01*
X57892481Y-60899718D01*
X57892481Y-61258066D01*
X57872796Y-61325105D01*
X57819992Y-61370860D01*
X57750834Y-61380804D01*
X57695596Y-61358385D01*
X57631130Y-61311548D01*
X57434715Y-61211468D01*
X57434712Y-61211467D01*
X57225061Y-61143349D01*
X57116195Y-61126106D01*
X57007331Y-61108864D01*
X55586887Y-61108864D01*
X55514310Y-61120359D01*
X55369156Y-61143349D01*
X55159505Y-61211467D01*
X55159502Y-61211468D01*
X54963977Y-61311095D01*
X54895308Y-61323991D01*
X54830567Y-61297715D01*
X54790310Y-61240609D01*
X54787540Y-61186507D01*
X54784589Y-61186175D01*
X54805565Y-61000003D01*
X54805565Y-60999996D01*
X54785369Y-60820750D01*
X54785368Y-60820745D01*
X54748261Y-60714700D01*
X54725789Y-60650478D01*
X54712765Y-60629751D01*
X54646599Y-60524448D01*
X54629816Y-60497738D01*
X54502262Y-60370184D01*
X54450696Y-60337783D01*
X54349523Y-60274211D01*
X54179254Y-60214631D01*
X54179249Y-60214630D01*
X54000004Y-60194435D01*
X53999996Y-60194435D01*
X53820750Y-60214630D01*
X53820745Y-60214631D01*
X53650476Y-60274211D01*
X53497737Y-60370184D01*
X53370184Y-60497737D01*
X53299730Y-60609864D01*
X53276040Y-60647568D01*
X53274208Y-60650483D01*
X53271186Y-60656758D01*
X53269361Y-60655878D01*
X53246692Y-60691939D01*
X52417052Y-61521578D01*
X52417052Y-61521579D01*
X52417049Y-61521582D01*
X52417048Y-61521584D01*
X52391059Y-61560480D01*
X52334918Y-61644502D01*
X52334914Y-61644509D01*
X52278342Y-61781087D01*
X52278340Y-61781093D01*
X52249500Y-61926080D01*
X52249500Y-61926083D01*
X52249500Y-62073917D01*
X52249500Y-62073919D01*
X52249499Y-62073919D01*
X52278340Y-62218906D01*
X52278342Y-62218912D01*
X52334916Y-62355494D01*
X52417048Y-62478416D01*
X52472394Y-62533762D01*
X52522138Y-62583505D01*
X52555623Y-62644828D01*
X52558457Y-62671187D01*
X52558457Y-66437061D01*
X52538772Y-66504100D01*
X52522138Y-66524742D01*
X51774312Y-67272567D01*
X51727587Y-67301927D01*
X51624077Y-67338147D01*
X51624076Y-67338148D01*
X51471340Y-67434119D01*
X51407166Y-67498293D01*
X51345842Y-67531777D01*
X51276151Y-67526792D01*
X51220217Y-67484921D01*
X51207103Y-67463016D01*
X51187726Y-67421463D01*
X51187725Y-67421461D01*
X51052185Y-67227889D01*
X50885093Y-67060798D01*
X50885087Y-67060793D01*
X50699533Y-66930867D01*
X50655908Y-66876290D01*
X50648714Y-66806792D01*
X50680237Y-66744437D01*
X50699533Y-66727717D01*
X50858541Y-66616378D01*
X50885092Y-66597787D01*
X51052186Y-66430693D01*
X51187726Y-66237122D01*
X51287594Y-66022955D01*
X51348754Y-65794700D01*
X51369350Y-65559292D01*
X51348754Y-65323884D01*
X51288909Y-65100536D01*
X51287596Y-65095636D01*
X51287595Y-65095635D01*
X51287594Y-65095629D01*
X51187726Y-64881463D01*
X51177330Y-64866615D01*
X51052185Y-64687889D01*
X50885093Y-64520798D01*
X50885087Y-64520793D01*
X50699533Y-64390867D01*
X50655908Y-64336290D01*
X50648714Y-64266792D01*
X50680237Y-64204437D01*
X50699533Y-64187717D01*
X50777004Y-64133471D01*
X50885092Y-64057787D01*
X51052186Y-63890693D01*
X51187726Y-63697122D01*
X51287594Y-63482955D01*
X51348754Y-63254700D01*
X51369350Y-63019292D01*
X51348754Y-62783884D01*
X51288909Y-62560536D01*
X51287596Y-62555636D01*
X51287595Y-62555635D01*
X51287594Y-62555629D01*
X51187726Y-62341463D01*
X51173324Y-62320894D01*
X51052185Y-62147889D01*
X50885093Y-61980798D01*
X50885087Y-61980793D01*
X50699533Y-61850867D01*
X50655908Y-61796290D01*
X50648714Y-61726792D01*
X50680237Y-61664437D01*
X50699533Y-61647717D01*
X50740631Y-61618940D01*
X50885092Y-61517787D01*
X51052186Y-61350693D01*
X51187726Y-61157122D01*
X51287594Y-60942955D01*
X51348754Y-60714700D01*
X51369350Y-60479292D01*
X51348754Y-60243884D01*
X51293996Y-60039522D01*
X51287596Y-60015636D01*
X51287595Y-60015635D01*
X51287594Y-60015629D01*
X51187726Y-59801463D01*
X51176509Y-59785444D01*
X51052187Y-59607892D01*
X51003868Y-59559573D01*
X50930258Y-59485963D01*
X50896775Y-59424643D01*
X50901759Y-59354951D01*
X50943630Y-59299017D01*
X50974606Y-59282102D01*
X51106022Y-59233088D01*
X51221237Y-59146838D01*
X51307487Y-59031623D01*
X51357782Y-58896775D01*
X51364191Y-58837165D01*
X51364191Y-58663792D01*
X51383876Y-58596753D01*
X51436680Y-58550998D01*
X51488191Y-58539792D01*
X51708860Y-58539792D01*
X51775899Y-58559477D01*
G37*
%TD.AperFunction*%
%TA.AperFunction,Conductor*%
G36*
X68141969Y-54995212D02*
G01*
X68162611Y-55011846D01*
X68421662Y-55270897D01*
X68455147Y-55332220D01*
X68450163Y-55401912D01*
X68421663Y-55446258D01*
X68370184Y-55497737D01*
X68274210Y-55650478D01*
X68214632Y-55820744D01*
X68214631Y-55820748D01*
X68206904Y-55889322D01*
X68205302Y-55899625D01*
X68187760Y-55987822D01*
X68187760Y-56076834D01*
X68168075Y-56143873D01*
X68115271Y-56189628D01*
X68049877Y-56200054D01*
X68000004Y-56194435D01*
X67999996Y-56194435D01*
X67820750Y-56214630D01*
X67820745Y-56214631D01*
X67650476Y-56274211D01*
X67497737Y-56370184D01*
X67370184Y-56497737D01*
X67274211Y-56650476D01*
X67214631Y-56820745D01*
X67214630Y-56820750D01*
X67194435Y-56999996D01*
X67194435Y-57000003D01*
X67214630Y-57179249D01*
X67214631Y-57179254D01*
X67242542Y-57259017D01*
X67249500Y-57299972D01*
X67249500Y-59623083D01*
X67229815Y-59690122D01*
X67177011Y-59735877D01*
X67125500Y-59747083D01*
X65669061Y-59747083D01*
X65524073Y-59775923D01*
X65524063Y-59775926D01*
X65387492Y-59832495D01*
X65387479Y-59832502D01*
X65264565Y-59914631D01*
X65264561Y-59914634D01*
X65160032Y-60019163D01*
X65160029Y-60019167D01*
X65077900Y-60142081D01*
X65077893Y-60142094D01*
X65021324Y-60278665D01*
X65021321Y-60278675D01*
X64992481Y-60423662D01*
X64992481Y-61466767D01*
X64972796Y-61533806D01*
X64919992Y-61579561D01*
X64850834Y-61589505D01*
X64787278Y-61560480D01*
X64780800Y-61554448D01*
X64667472Y-61441120D01*
X64667467Y-61441116D01*
X64489134Y-61311551D01*
X64489133Y-61311550D01*
X64489131Y-61311549D01*
X64384166Y-61258066D01*
X64292715Y-61211468D01*
X64292712Y-61211467D01*
X64083061Y-61143349D01*
X63870660Y-61109708D01*
X63807525Y-61079779D01*
X63770594Y-61020467D01*
X63771592Y-60950605D01*
X63802375Y-60899556D01*
X65582952Y-59118979D01*
X65619556Y-59064196D01*
X65665084Y-58996059D01*
X65693941Y-58926392D01*
X65721659Y-58859476D01*
X65745710Y-58738566D01*
X65748582Y-58724129D01*
X65750499Y-58714485D01*
X65750500Y-58714483D01*
X65750500Y-58299972D01*
X65757458Y-58259017D01*
X65762221Y-58245405D01*
X65785368Y-58179255D01*
X65786614Y-58168197D01*
X65805565Y-58000003D01*
X65805565Y-57999996D01*
X65785369Y-57820750D01*
X65785368Y-57820745D01*
X65768538Y-57772648D01*
X65725789Y-57650478D01*
X65629816Y-57497738D01*
X65502262Y-57370184D01*
X65469681Y-57349712D01*
X65349523Y-57274211D01*
X65179254Y-57214631D01*
X65179249Y-57214630D01*
X65000004Y-57194435D01*
X64999996Y-57194435D01*
X64820750Y-57214630D01*
X64820745Y-57214631D01*
X64650476Y-57274211D01*
X64497737Y-57370184D01*
X64370182Y-57497739D01*
X64272473Y-57653242D01*
X64220139Y-57699532D01*
X64151085Y-57710180D01*
X64087237Y-57681805D01*
X64048865Y-57623415D01*
X64043480Y-57587269D01*
X64043480Y-57349712D01*
X64043479Y-57349706D01*
X64043257Y-57347644D01*
X64037072Y-57290100D01*
X64032895Y-57278902D01*
X64016299Y-57234404D01*
X64011315Y-57164712D01*
X64044800Y-57103389D01*
X64094161Y-57073141D01*
X64206672Y-57036584D01*
X64396076Y-56940078D01*
X64418049Y-56924113D01*
X64568046Y-56815136D01*
X64568048Y-56815133D01*
X64568052Y-56815131D01*
X64718364Y-56664819D01*
X64718366Y-56664815D01*
X64718369Y-56664813D01*
X64843308Y-56492847D01*
X64843307Y-56492847D01*
X64843311Y-56492843D01*
X64939817Y-56303439D01*
X65005506Y-56101270D01*
X65038760Y-55891314D01*
X65038760Y-55678740D01*
X65005506Y-55468784D01*
X64939817Y-55266615D01*
X64883364Y-55155821D01*
X64870469Y-55087153D01*
X64896745Y-55022412D01*
X64953852Y-54982155D01*
X64993850Y-54975527D01*
X68074930Y-54975527D01*
X68141969Y-54995212D01*
G37*
%TD.AperFunction*%
%TA.AperFunction,Conductor*%
G36*
X50763573Y-48216713D02*
G01*
X50809328Y-48269517D01*
X50820534Y-48321028D01*
X50820534Y-48434028D01*
X53170533Y-48434028D01*
X53170533Y-48321028D01*
X53190218Y-48253989D01*
X53243022Y-48208234D01*
X53294533Y-48197028D01*
X54069679Y-48197028D01*
X54136718Y-48216713D01*
X54182473Y-48269517D01*
X54192417Y-48338675D01*
X54182061Y-48373432D01*
X54151997Y-48437906D01*
X54106098Y-48536335D01*
X54106094Y-48536344D01*
X54044938Y-48764586D01*
X54044936Y-48764596D01*
X54024341Y-48999999D01*
X54024341Y-49000000D01*
X54044936Y-49235403D01*
X54044938Y-49235413D01*
X54106094Y-49463655D01*
X54106096Y-49463659D01*
X54106097Y-49463663D01*
X54188951Y-49641344D01*
X54205965Y-49677830D01*
X54205967Y-49677834D01*
X54277505Y-49780000D01*
X54341501Y-49871396D01*
X54341506Y-49871402D01*
X54508597Y-50038493D01*
X54508603Y-50038498D01*
X54694158Y-50168425D01*
X54737783Y-50223002D01*
X54744977Y-50292500D01*
X54713454Y-50354855D01*
X54694158Y-50371575D01*
X54508597Y-50501505D01*
X54341505Y-50668597D01*
X54205965Y-50862169D01*
X54205964Y-50862171D01*
X54106098Y-51076335D01*
X54106094Y-51076344D01*
X54044938Y-51304586D01*
X54044936Y-51304596D01*
X54024341Y-51539999D01*
X54024341Y-51540000D01*
X54044936Y-51775403D01*
X54044938Y-51775413D01*
X54106094Y-52003655D01*
X54106096Y-52003659D01*
X54106097Y-52003663D01*
X54185801Y-52174588D01*
X54205965Y-52217830D01*
X54205967Y-52217834D01*
X54298177Y-52349522D01*
X54341505Y-52411401D01*
X54508599Y-52578495D01*
X54581893Y-52629816D01*
X54702165Y-52714032D01*
X54702167Y-52714033D01*
X54702170Y-52714035D01*
X54916337Y-52813903D01*
X54916343Y-52813904D01*
X54916344Y-52813905D01*
X54971285Y-52828626D01*
X55144592Y-52875063D01*
X55332918Y-52891539D01*
X55379999Y-52895659D01*
X55380000Y-52895659D01*
X55380001Y-52895659D01*
X55419234Y-52892226D01*
X55615408Y-52875063D01*
X55843663Y-52813903D01*
X56057830Y-52714035D01*
X56251401Y-52578495D01*
X56418495Y-52411401D01*
X56548730Y-52225405D01*
X56603307Y-52181781D01*
X56672805Y-52174587D01*
X56735160Y-52206110D01*
X56751879Y-52225405D01*
X56881890Y-52411078D01*
X57048917Y-52578105D01*
X57242421Y-52713600D01*
X57456507Y-52813429D01*
X57456516Y-52813433D01*
X57670000Y-52870634D01*
X57670000Y-51973012D01*
X57727007Y-52005925D01*
X57854174Y-52040000D01*
X57985826Y-52040000D01*
X58112993Y-52005925D01*
X58170000Y-51973012D01*
X58170000Y-52882857D01*
X58190905Y-52911488D01*
X58195060Y-52981234D01*
X58160847Y-53042155D01*
X58099130Y-53074907D01*
X58098408Y-53075053D01*
X57956065Y-53103367D01*
X57956055Y-53103370D01*
X57819484Y-53159939D01*
X57819471Y-53159946D01*
X57696557Y-53242075D01*
X57696553Y-53242078D01*
X55585439Y-55353192D01*
X55585437Y-55353195D01*
X55574086Y-55370184D01*
X55574084Y-55370185D01*
X55574084Y-55370186D01*
X55503305Y-55476114D01*
X55503303Y-55476117D01*
X55446732Y-55612693D01*
X55446729Y-55612703D01*
X55417889Y-55757690D01*
X55417889Y-56868417D01*
X55410931Y-56909371D01*
X55383020Y-56989136D01*
X55362824Y-57168385D01*
X55362824Y-57168392D01*
X55383019Y-57347638D01*
X55383020Y-57347643D01*
X55442600Y-57517912D01*
X55525896Y-57650476D01*
X55538573Y-57670651D01*
X55666127Y-57798205D01*
X55818867Y-57894178D01*
X55961902Y-57944228D01*
X55989134Y-57953757D01*
X55989139Y-57953758D01*
X56168385Y-57973954D01*
X56168389Y-57973954D01*
X56168393Y-57973954D01*
X56347635Y-57953758D01*
X56347634Y-57953758D01*
X56347644Y-57953757D01*
X56350822Y-57952644D01*
X56353002Y-57952533D01*
X56354428Y-57952208D01*
X56354485Y-57952457D01*
X56420599Y-57949079D01*
X56481228Y-57983805D01*
X56492099Y-57996799D01*
X56582861Y-58121722D01*
X56582865Y-58121727D01*
X56648957Y-58187819D01*
X56682442Y-58249142D01*
X56677458Y-58318834D01*
X56635586Y-58374767D01*
X56570122Y-58399184D01*
X56561276Y-58399500D01*
X53369763Y-58399500D01*
X53302724Y-58379815D01*
X53282082Y-58363181D01*
X52496547Y-57577647D01*
X52496545Y-57577644D01*
X52377674Y-57458773D01*
X52377666Y-57458767D01*
X52253887Y-57387304D01*
X52253884Y-57387303D01*
X52240742Y-57379715D01*
X52205172Y-57370184D01*
X52088014Y-57338791D01*
X51929900Y-57338791D01*
X51922304Y-57338791D01*
X51922288Y-57338792D01*
X51488190Y-57338792D01*
X51421151Y-57319107D01*
X51375396Y-57266303D01*
X51364190Y-57214792D01*
X51364190Y-57041421D01*
X51364189Y-57041415D01*
X51357782Y-56981808D01*
X51307488Y-56846963D01*
X51307484Y-56846956D01*
X51221238Y-56731747D01*
X51221235Y-56731744D01*
X51106026Y-56645498D01*
X51106019Y-56645494D01*
X50971173Y-56595200D01*
X50971174Y-56595200D01*
X50911574Y-56588793D01*
X50911572Y-56588792D01*
X50911564Y-56588792D01*
X50911555Y-56588792D01*
X49115820Y-56588792D01*
X49115814Y-56588793D01*
X49056207Y-56595200D01*
X48921362Y-56645494D01*
X48921355Y-56645498D01*
X48806146Y-56731744D01*
X48723766Y-56841789D01*
X48667832Y-56883659D01*
X48598140Y-56888643D01*
X48536818Y-56855157D01*
X48503333Y-56793834D01*
X48500500Y-56767477D01*
X48500500Y-55910576D01*
X48520185Y-55843537D01*
X48572989Y-55797782D01*
X48638383Y-55787356D01*
X48799996Y-55805565D01*
X48800000Y-55805565D01*
X48800004Y-55805565D01*
X48979249Y-55785369D01*
X48979252Y-55785368D01*
X48979255Y-55785368D01*
X49149522Y-55725789D01*
X49302262Y-55629816D01*
X49429816Y-55502262D01*
X49525789Y-55349522D01*
X49585368Y-55179255D01*
X49585369Y-55179249D01*
X49605565Y-55000003D01*
X49605565Y-54999996D01*
X49585369Y-54820750D01*
X49585366Y-54820737D01*
X49525790Y-54650479D01*
X49519506Y-54640478D01*
X49500500Y-54574507D01*
X49500500Y-52917043D01*
X49520185Y-52850004D01*
X49572989Y-52804249D01*
X49638384Y-52793823D01*
X49742596Y-52805565D01*
X49742599Y-52805565D01*
X49742603Y-52805565D01*
X49921848Y-52785369D01*
X49921851Y-52785368D01*
X49921854Y-52785368D01*
X50092121Y-52725789D01*
X50244861Y-52629816D01*
X50372415Y-52502262D01*
X50457057Y-52367555D01*
X50509391Y-52321265D01*
X50562050Y-52309528D01*
X50760943Y-52309528D01*
X50827982Y-52329213D01*
X50873737Y-52382017D01*
X50878648Y-52394522D01*
X50885718Y-52415859D01*
X50885720Y-52415862D01*
X50977822Y-52565184D01*
X51101878Y-52689240D01*
X51251200Y-52781342D01*
X51417737Y-52836527D01*
X51520525Y-52847028D01*
X52125500Y-52847027D01*
X52192539Y-52866711D01*
X52238294Y-52919515D01*
X52249500Y-52971027D01*
X52249500Y-54700028D01*
X52242542Y-54740982D01*
X52214631Y-54820747D01*
X52194435Y-54999996D01*
X52194435Y-55000003D01*
X52214630Y-55179249D01*
X52214631Y-55179254D01*
X52274211Y-55349523D01*
X52334994Y-55446258D01*
X52370184Y-55502262D01*
X52497738Y-55629816D01*
X52557261Y-55667217D01*
X52649263Y-55725026D01*
X52650478Y-55725789D01*
X52820745Y-55785368D01*
X52820750Y-55785369D01*
X52999996Y-55805565D01*
X53000000Y-55805565D01*
X53000004Y-55805565D01*
X53179249Y-55785369D01*
X53179252Y-55785368D01*
X53179255Y-55785368D01*
X53349522Y-55725789D01*
X53502262Y-55629816D01*
X53629816Y-55502262D01*
X53725789Y-55349522D01*
X53785368Y-55179255D01*
X53785369Y-55179249D01*
X53805565Y-55000003D01*
X53805565Y-54999996D01*
X53788771Y-54850951D01*
X53785368Y-54820745D01*
X53757458Y-54740982D01*
X53750500Y-54700028D01*
X53750500Y-52489573D01*
X53721659Y-52344586D01*
X53721658Y-52344585D01*
X53721658Y-52344581D01*
X53721656Y-52344576D01*
X53665087Y-52208005D01*
X53665080Y-52207992D01*
X53582952Y-52085079D01*
X53537873Y-52040000D01*
X53478416Y-51980543D01*
X53207352Y-51709479D01*
X53173867Y-51648156D01*
X53171033Y-51621798D01*
X53171033Y-50971526D01*
X53171032Y-50971511D01*
X53168142Y-50943217D01*
X53162899Y-50891897D01*
X53175668Y-50823208D01*
X53223549Y-50772323D01*
X53245295Y-50762259D01*
X53349522Y-50725789D01*
X53502262Y-50629816D01*
X53629816Y-50502262D01*
X53725789Y-50349522D01*
X53785368Y-50179255D01*
X53785956Y-50174035D01*
X53805565Y-50000003D01*
X53805565Y-49999996D01*
X53785369Y-49820750D01*
X53785368Y-49820745D01*
X53746356Y-49709255D01*
X53725789Y-49650478D01*
X53720324Y-49641781D01*
X53650089Y-49530003D01*
X53629816Y-49497738D01*
X53502262Y-49370184D01*
X53471325Y-49350745D01*
X53349521Y-49274210D01*
X53253579Y-49240639D01*
X53196803Y-49199917D01*
X53171055Y-49134964D01*
X53170533Y-49123596D01*
X53170534Y-48934028D01*
X50820535Y-48934028D01*
X50820535Y-49125500D01*
X50800850Y-49192539D01*
X50748046Y-49238294D01*
X50696535Y-49249500D01*
X50477712Y-49249500D01*
X50410673Y-49229815D01*
X50364918Y-49177011D01*
X50354974Y-49107853D01*
X50381848Y-49049005D01*
X50380833Y-49048202D01*
X50385304Y-49042545D01*
X50385311Y-49042539D01*
X50477413Y-48893217D01*
X50532598Y-48726680D01*
X50543099Y-48623892D01*
X50543098Y-48321027D01*
X50562782Y-48253989D01*
X50615586Y-48208234D01*
X50667098Y-48197028D01*
X50696534Y-48197028D01*
X50763573Y-48216713D01*
G37*
%TD.AperFunction*%
%TA.AperFunction,Conductor*%
G36*
X85891930Y-49337007D02*
G01*
X85857855Y-49464174D01*
X85857855Y-49595826D01*
X85891930Y-49722993D01*
X85924843Y-49780000D01*
X85183117Y-49780000D01*
X85168404Y-49788034D01*
X85142046Y-49790868D01*
X84244288Y-49790868D01*
X84277201Y-49733861D01*
X84311276Y-49606694D01*
X84311276Y-49475042D01*
X84277201Y-49347875D01*
X84244288Y-49290868D01*
X84986014Y-49290868D01*
X85000727Y-49282834D01*
X85027085Y-49280000D01*
X85924843Y-49280000D01*
X85891930Y-49337007D01*
G37*
%TD.AperFunction*%
%TA.AperFunction,Conductor*%
G36*
X87917444Y-45221422D02*
G01*
X88117567Y-45235737D01*
X88135072Y-45238254D01*
X88326796Y-45279963D01*
X88343770Y-45284946D01*
X88527620Y-45353520D01*
X88543695Y-45360861D01*
X88715913Y-45454901D01*
X88730792Y-45464463D01*
X88887865Y-45582047D01*
X88901236Y-45593633D01*
X89039975Y-45732374D01*
X89051561Y-45745745D01*
X89169147Y-45902824D01*
X89178711Y-45917707D01*
X89272737Y-46089904D01*
X89280087Y-46105998D01*
X89348657Y-46289842D01*
X89353641Y-46306817D01*
X89395346Y-46498535D01*
X89397864Y-46516047D01*
X89412198Y-46716469D01*
X89412514Y-46725315D01*
X89412514Y-46794351D01*
X89412520Y-46794458D01*
X89413500Y-56454682D01*
X89413500Y-56455539D01*
X89413184Y-56464391D01*
X89398860Y-56664533D01*
X89396341Y-56682044D01*
X89354628Y-56873762D01*
X89349643Y-56890736D01*
X89281066Y-57074581D01*
X89273717Y-57090672D01*
X89179681Y-57262881D01*
X89170116Y-57277764D01*
X89052533Y-57434833D01*
X89040948Y-57448203D01*
X88902203Y-57586948D01*
X88888833Y-57598533D01*
X88731764Y-57716116D01*
X88716881Y-57725681D01*
X88544672Y-57819717D01*
X88528581Y-57827066D01*
X88344736Y-57895643D01*
X88327762Y-57900628D01*
X88136045Y-57942341D01*
X88118533Y-57944860D01*
X87962018Y-57956060D01*
X87930977Y-57954374D01*
X87850137Y-57939670D01*
X87840253Y-57937452D01*
X87801260Y-57927010D01*
X87801253Y-57927009D01*
X87791737Y-57927011D01*
X87769533Y-57925009D01*
X87760180Y-57923307D01*
X87718977Y-57926687D01*
X87708858Y-57927102D01*
X87635956Y-57927112D01*
X87568914Y-57907437D01*
X87523152Y-57854639D01*
X87513199Y-57785482D01*
X87523557Y-57750707D01*
X87525307Y-57746952D01*
X87525311Y-57746948D01*
X87625179Y-57532781D01*
X87686339Y-57304526D01*
X87706935Y-57069118D01*
X87686339Y-56833710D01*
X87625179Y-56605455D01*
X87525311Y-56391289D01*
X87519701Y-56383276D01*
X87389770Y-56197715D01*
X87222678Y-56030624D01*
X87222671Y-56030619D01*
X87221351Y-56029695D01*
X87145794Y-55976789D01*
X87029110Y-55895085D01*
X87029106Y-55895083D01*
X87021021Y-55891313D01*
X86814939Y-55795215D01*
X86814935Y-55795214D01*
X86814931Y-55795212D01*
X86586689Y-55734056D01*
X86586679Y-55734054D01*
X86351277Y-55713459D01*
X86351275Y-55713459D01*
X86115872Y-55734054D01*
X86115862Y-55734056D01*
X85887620Y-55795212D01*
X85887611Y-55795216D01*
X85673447Y-55895082D01*
X85673445Y-55895083D01*
X85479873Y-56030623D01*
X85312781Y-56197715D01*
X85182851Y-56383276D01*
X85128274Y-56426901D01*
X85058776Y-56434095D01*
X84996421Y-56402572D01*
X84979701Y-56383276D01*
X84849770Y-56197715D01*
X84682678Y-56030624D01*
X84682671Y-56030619D01*
X84681351Y-56029695D01*
X84605794Y-55976789D01*
X84489110Y-55895085D01*
X84489106Y-55895083D01*
X84481021Y-55891313D01*
X84274939Y-55795215D01*
X84274935Y-55795214D01*
X84274931Y-55795212D01*
X84046689Y-55734056D01*
X84046679Y-55734054D01*
X83811277Y-55713459D01*
X83811275Y-55713459D01*
X83575872Y-55734054D01*
X83575862Y-55734056D01*
X83347620Y-55795212D01*
X83347611Y-55795216D01*
X83133447Y-55895082D01*
X83133445Y-55895083D01*
X82939873Y-56030623D01*
X82772781Y-56197715D01*
X82642851Y-56383276D01*
X82588274Y-56426901D01*
X82518776Y-56434095D01*
X82456421Y-56402572D01*
X82439701Y-56383276D01*
X82309770Y-56197715D01*
X82142678Y-56030624D01*
X82142671Y-56030619D01*
X82141351Y-56029695D01*
X82065794Y-55976789D01*
X81949107Y-55895083D01*
X81949102Y-55895080D01*
X81943367Y-55892406D01*
X81890929Y-55846231D01*
X81871776Y-55780026D01*
X81871776Y-53784045D01*
X81870918Y-53780843D01*
X81870918Y-53780844D01*
X81870915Y-53780831D01*
X81830853Y-53631319D01*
X81785417Y-53552622D01*
X81751796Y-53494388D01*
X81639992Y-53382584D01*
X81639991Y-53382583D01*
X81635661Y-53378253D01*
X81635650Y-53378243D01*
X81495762Y-53238355D01*
X81495760Y-53238352D01*
X81376889Y-53119481D01*
X81376888Y-53119480D01*
X81290076Y-53069360D01*
X81290076Y-53069359D01*
X81290072Y-53069358D01*
X81239957Y-53040423D01*
X81087229Y-52999499D01*
X80929115Y-52999499D01*
X80921519Y-52999499D01*
X80921503Y-52999500D01*
X75264487Y-52999500D01*
X75264471Y-52999499D01*
X75256875Y-52999499D01*
X75098761Y-52999499D01*
X74979407Y-53031480D01*
X74909557Y-53029817D01*
X74851695Y-52990654D01*
X74824191Y-52926426D01*
X74824129Y-52925900D01*
X74815699Y-52851076D01*
X74756120Y-52680809D01*
X74737060Y-52650476D01*
X74691832Y-52578495D01*
X74660147Y-52528069D01*
X74532593Y-52400515D01*
X74529304Y-52398448D01*
X74517381Y-52390956D01*
X74495674Y-52373645D01*
X71873227Y-49751198D01*
X71839742Y-49689875D01*
X71844726Y-49620183D01*
X71847343Y-49613727D01*
X71920685Y-49446526D01*
X71976441Y-49226350D01*
X71989252Y-49071751D01*
X71995197Y-49000005D01*
X71995197Y-48999994D01*
X71978723Y-48801188D01*
X71976441Y-48773650D01*
X71920685Y-48553474D01*
X71829450Y-48345479D01*
X71758458Y-48236818D01*
X71738272Y-48169930D01*
X71757452Y-48102745D01*
X71809910Y-48056594D01*
X71878992Y-48046131D01*
X71942764Y-48074677D01*
X71949949Y-48081317D01*
X75196692Y-51328059D01*
X75219358Y-51364125D01*
X75221188Y-51363244D01*
X75224209Y-51369518D01*
X75224211Y-51369522D01*
X75320184Y-51522262D01*
X75447738Y-51649816D01*
X75464239Y-51660184D01*
X75580186Y-51733039D01*
X75600478Y-51745789D01*
X75726826Y-51790000D01*
X75770745Y-51805368D01*
X75770750Y-51805369D01*
X75949996Y-51825565D01*
X75950000Y-51825565D01*
X75950004Y-51825565D01*
X76129249Y-51805369D01*
X76129252Y-51805368D01*
X76129255Y-51805368D01*
X76299522Y-51745789D01*
X76452262Y-51649816D01*
X76579816Y-51522262D01*
X76675789Y-51369522D01*
X76735368Y-51199255D01*
X76749217Y-51076344D01*
X76755565Y-51020003D01*
X76755565Y-51019996D01*
X76735369Y-50840750D01*
X76735368Y-50840745D01*
X76675789Y-50670478D01*
X76674811Y-50668922D01*
X76579815Y-50517737D01*
X76452262Y-50390184D01*
X76422646Y-50371575D01*
X76299522Y-50294211D01*
X76299518Y-50294209D01*
X76293244Y-50291188D01*
X76294125Y-50289358D01*
X76258059Y-50266692D01*
X75521363Y-49529996D01*
X77934435Y-49529996D01*
X77934435Y-49530003D01*
X77954630Y-49709249D01*
X77954631Y-49709254D01*
X78014211Y-49879523D01*
X78052819Y-49940967D01*
X78110184Y-50032262D01*
X78237738Y-50159816D01*
X78268675Y-50179255D01*
X78377284Y-50247499D01*
X78390478Y-50255789D01*
X78499096Y-50293796D01*
X78560745Y-50315368D01*
X78560750Y-50315369D01*
X78739996Y-50335565D01*
X78740000Y-50335565D01*
X78740004Y-50335565D01*
X78919249Y-50315369D01*
X78919252Y-50315368D01*
X78919255Y-50315368D01*
X79089522Y-50255789D01*
X79242262Y-50159816D01*
X79369816Y-50032262D01*
X79465789Y-49879522D01*
X79465790Y-49879518D01*
X79468811Y-49873246D01*
X79470655Y-49874134D01*
X79493305Y-49838061D01*
X81543681Y-47787687D01*
X81605004Y-47754202D01*
X81631362Y-47751368D01*
X82623575Y-47751368D01*
X82690614Y-47771053D01*
X82725149Y-47804244D01*
X82772781Y-47872269D01*
X82895094Y-47994582D01*
X82928579Y-48055905D01*
X82923595Y-48125597D01*
X82881723Y-48181530D01*
X82850747Y-48198445D01*
X82719188Y-48247514D01*
X82719182Y-48247517D01*
X82604088Y-48333677D01*
X82604085Y-48333680D01*
X82517925Y-48448774D01*
X82517921Y-48448781D01*
X82467679Y-48583488D01*
X82467677Y-48583495D01*
X82461276Y-48643023D01*
X82461276Y-49290868D01*
X83378264Y-49290868D01*
X83345351Y-49347875D01*
X83311276Y-49475042D01*
X83311276Y-49606694D01*
X83345351Y-49733861D01*
X83378264Y-49790868D01*
X82461276Y-49790868D01*
X82461276Y-50438712D01*
X82467677Y-50498240D01*
X82467679Y-50498247D01*
X82517921Y-50632954D01*
X82517925Y-50632961D01*
X82604085Y-50748055D01*
X82604088Y-50748058D01*
X82719182Y-50834218D01*
X82719189Y-50834222D01*
X82853896Y-50884464D01*
X82853903Y-50884466D01*
X82913431Y-50890867D01*
X82913448Y-50890868D01*
X83561276Y-50890868D01*
X83561276Y-49973880D01*
X83618283Y-50006793D01*
X83745450Y-50040868D01*
X83877102Y-50040868D01*
X84004269Y-50006793D01*
X84061276Y-49973880D01*
X84061276Y-50890868D01*
X84709104Y-50890868D01*
X84709120Y-50890867D01*
X84768648Y-50884466D01*
X84768655Y-50884464D01*
X84903362Y-50834222D01*
X84903369Y-50834218D01*
X85017513Y-50748770D01*
X85082977Y-50724352D01*
X85151250Y-50739203D01*
X85166135Y-50748769D01*
X85265766Y-50823353D01*
X85265768Y-50823354D01*
X85400475Y-50873596D01*
X85400482Y-50873598D01*
X85460010Y-50879999D01*
X85460027Y-50880000D01*
X86107855Y-50880000D01*
X86107855Y-49963012D01*
X86164862Y-49995925D01*
X86292029Y-50030000D01*
X86423681Y-50030000D01*
X86550848Y-49995925D01*
X86607855Y-49963012D01*
X86607855Y-50880000D01*
X87255683Y-50880000D01*
X87255699Y-50879999D01*
X87315227Y-50873598D01*
X87315234Y-50873596D01*
X87449941Y-50823354D01*
X87449948Y-50823350D01*
X87565042Y-50737190D01*
X87565045Y-50737187D01*
X87651205Y-50622093D01*
X87651209Y-50622086D01*
X87701451Y-50487379D01*
X87701453Y-50487372D01*
X87707854Y-50427844D01*
X87707855Y-50427827D01*
X87707855Y-49780000D01*
X86790867Y-49780000D01*
X86823780Y-49722993D01*
X86857855Y-49595826D01*
X86857855Y-49464174D01*
X86823780Y-49337007D01*
X86790867Y-49280000D01*
X87707855Y-49280000D01*
X87707855Y-48632172D01*
X87707854Y-48632155D01*
X87701453Y-48572627D01*
X87701451Y-48572620D01*
X87651209Y-48437913D01*
X87651205Y-48437906D01*
X87565045Y-48322812D01*
X87565042Y-48322809D01*
X87449948Y-48236649D01*
X87449943Y-48236646D01*
X87318383Y-48187577D01*
X87262450Y-48145705D01*
X87238033Y-48080241D01*
X87252885Y-48011968D01*
X87274030Y-47983720D01*
X87396350Y-47861401D01*
X87531890Y-47667830D01*
X87631758Y-47453663D01*
X87692918Y-47225408D01*
X87713514Y-46990000D01*
X87692918Y-46754592D01*
X87631758Y-46526337D01*
X87531890Y-46312171D01*
X87528142Y-46306817D01*
X87396349Y-46118597D01*
X87229257Y-45951506D01*
X87229250Y-45951501D01*
X87035689Y-45815967D01*
X87035685Y-45815965D01*
X87035683Y-45815964D01*
X86821518Y-45716097D01*
X86821514Y-45716096D01*
X86821510Y-45716094D01*
X86593268Y-45654938D01*
X86593258Y-45654936D01*
X86357856Y-45634341D01*
X86357854Y-45634341D01*
X86122451Y-45654936D01*
X86122441Y-45654938D01*
X85894199Y-45716094D01*
X85894190Y-45716098D01*
X85680026Y-45815964D01*
X85680024Y-45815965D01*
X85486452Y-45951505D01*
X85319361Y-46118596D01*
X85271729Y-46186623D01*
X85217152Y-46230248D01*
X85170154Y-46239500D01*
X84991368Y-46239500D01*
X84924329Y-46219815D01*
X84889794Y-46186624D01*
X84849776Y-46129474D01*
X84849769Y-46129465D01*
X84682678Y-45962374D01*
X84682671Y-45962369D01*
X84489110Y-45826835D01*
X84489106Y-45826833D01*
X84465804Y-45815967D01*
X84274939Y-45726965D01*
X84274935Y-45726964D01*
X84274931Y-45726962D01*
X84046689Y-45665806D01*
X84046679Y-45665804D01*
X83811277Y-45645209D01*
X83811275Y-45645209D01*
X83575872Y-45665804D01*
X83575862Y-45665806D01*
X83347620Y-45726962D01*
X83347611Y-45726966D01*
X83133447Y-45826832D01*
X83133445Y-45826833D01*
X82939873Y-45962373D01*
X82772782Y-46129464D01*
X82725150Y-46197491D01*
X82670573Y-46241116D01*
X82623575Y-46250368D01*
X81195212Y-46250368D01*
X81050224Y-46279208D01*
X81050214Y-46279211D01*
X80913641Y-46335781D01*
X80913636Y-46335784D01*
X80896777Y-46347048D01*
X80896778Y-46347049D01*
X80790711Y-46417919D01*
X78431937Y-48776693D01*
X78395876Y-48799362D01*
X78396756Y-48801188D01*
X78390478Y-48804211D01*
X78237737Y-48900184D01*
X78110184Y-49027737D01*
X78014211Y-49180476D01*
X77954631Y-49350745D01*
X77954630Y-49350750D01*
X77934435Y-49529996D01*
X75521363Y-49529996D01*
X72338421Y-46347052D01*
X72338414Y-46347046D01*
X72264729Y-46297812D01*
X72264729Y-46297813D01*
X72215491Y-46264913D01*
X72078917Y-46208343D01*
X72078907Y-46208340D01*
X71933920Y-46179500D01*
X71933918Y-46179500D01*
X57343697Y-46179500D01*
X57302742Y-46172542D01*
X57222979Y-46144631D01*
X57222974Y-46144630D01*
X57043729Y-46124435D01*
X57043721Y-46124435D01*
X56864475Y-46144630D01*
X56864470Y-46144631D01*
X56694201Y-46204211D01*
X56541462Y-46300184D01*
X56413909Y-46427737D01*
X56317938Y-46580473D01*
X56317936Y-46580477D01*
X56317936Y-46580478D01*
X56306560Y-46612985D01*
X56265841Y-46669759D01*
X56200888Y-46695506D01*
X56189521Y-46696028D01*
X50071034Y-46696028D01*
X49926046Y-46724868D01*
X49926036Y-46724871D01*
X49789465Y-46781440D01*
X49789452Y-46781447D01*
X49666538Y-46863576D01*
X49666534Y-46863579D01*
X49393049Y-47137064D01*
X49331726Y-47170549D01*
X49305368Y-47173383D01*
X48842597Y-47173383D01*
X48842579Y-47173384D01*
X48739802Y-47183883D01*
X48739796Y-47183885D01*
X48663503Y-47209166D01*
X48593675Y-47211568D01*
X48533633Y-47175836D01*
X48502441Y-47113315D01*
X48500500Y-47091460D01*
X48500500Y-46734427D01*
X48500816Y-46725581D01*
X48502967Y-46695506D01*
X48515130Y-46525436D01*
X48517646Y-46507938D01*
X48559356Y-46316199D01*
X48564333Y-46299248D01*
X48632911Y-46115385D01*
X48640259Y-46099298D01*
X48707942Y-45975345D01*
X48734291Y-45927089D01*
X48743845Y-45912221D01*
X48861448Y-45755123D01*
X48873020Y-45741769D01*
X49011769Y-45603020D01*
X49025123Y-45591448D01*
X49182221Y-45473845D01*
X49197089Y-45464291D01*
X49369298Y-45370258D01*
X49385385Y-45362911D01*
X49569248Y-45294333D01*
X49586199Y-45289356D01*
X49777938Y-45247646D01*
X49795436Y-45245130D01*
X49995582Y-45230816D01*
X50004428Y-45230500D01*
X50074028Y-45230500D01*
X50074297Y-45230480D01*
X87908571Y-45221107D01*
X87917444Y-45221422D01*
G37*
%TD.AperFunction*%
%TA.AperFunction,Conductor*%
G36*
X64354549Y-52206110D02*
G01*
X64371269Y-52225405D01*
X64501505Y-52411401D01*
X64668599Y-52578495D01*
X64741893Y-52629816D01*
X64862165Y-52714032D01*
X64862167Y-52714033D01*
X64862170Y-52714035D01*
X65076337Y-52813903D01*
X65076343Y-52813904D01*
X65076344Y-52813905D01*
X65139218Y-52830752D01*
X65198879Y-52867117D01*
X65229408Y-52929964D01*
X65221113Y-52999339D01*
X65176628Y-53053217D01*
X65110076Y-53074492D01*
X65107125Y-53074527D01*
X63430942Y-53074527D01*
X63363903Y-53054842D01*
X63318148Y-53002038D01*
X63308204Y-52932880D01*
X63337229Y-52869324D01*
X63396007Y-52831550D01*
X63398849Y-52830752D01*
X63463483Y-52813433D01*
X63463492Y-52813429D01*
X63677578Y-52713600D01*
X63871082Y-52578105D01*
X64038105Y-52411082D01*
X64168119Y-52225405D01*
X64222696Y-52181781D01*
X64292195Y-52174588D01*
X64354549Y-52206110D01*
G37*
%TD.AperFunction*%
%TA.AperFunction,Conductor*%
G36*
X59994075Y-51347007D02*
G01*
X59960000Y-51474174D01*
X59960000Y-51605826D01*
X59994075Y-51732993D01*
X60026988Y-51790000D01*
X58353012Y-51790000D01*
X58385925Y-51732993D01*
X58420000Y-51605826D01*
X58420000Y-51474174D01*
X58385925Y-51347007D01*
X58353012Y-51290000D01*
X60026988Y-51290000D01*
X59994075Y-51347007D01*
G37*
%TD.AperFunction*%
%TA.AperFunction,Conductor*%
G36*
X62534075Y-51347007D02*
G01*
X62500000Y-51474174D01*
X62500000Y-51605826D01*
X62534075Y-51732993D01*
X62566988Y-51790000D01*
X60893012Y-51790000D01*
X60925925Y-51732993D01*
X60960000Y-51605826D01*
X60960000Y-51474174D01*
X60925925Y-51347007D01*
X60893012Y-51290000D01*
X62566988Y-51290000D01*
X62534075Y-51347007D01*
G37*
%TD.AperFunction*%
%TA.AperFunction,Conductor*%
G36*
X58170000Y-51106988D02*
G01*
X58112993Y-51074075D01*
X57985826Y-51040000D01*
X57854174Y-51040000D01*
X57727007Y-51074075D01*
X57670000Y-51106988D01*
X57670000Y-49433012D01*
X57727007Y-49465925D01*
X57854174Y-49500000D01*
X57985826Y-49500000D01*
X58112993Y-49465925D01*
X58170000Y-49433012D01*
X58170000Y-51106988D01*
G37*
%TD.AperFunction*%
%TA.AperFunction,Conductor*%
G36*
X60710000Y-51106988D02*
G01*
X60652993Y-51074075D01*
X60525826Y-51040000D01*
X60394174Y-51040000D01*
X60267007Y-51074075D01*
X60210000Y-51106988D01*
X60210000Y-49433012D01*
X60267007Y-49465925D01*
X60394174Y-49500000D01*
X60525826Y-49500000D01*
X60652993Y-49465925D01*
X60710000Y-49433012D01*
X60710000Y-51106988D01*
G37*
%TD.AperFunction*%
%TA.AperFunction,Conductor*%
G36*
X63250000Y-51106988D02*
G01*
X63192993Y-51074075D01*
X63065826Y-51040000D01*
X62934174Y-51040000D01*
X62807007Y-51074075D01*
X62750000Y-51106988D01*
X62750000Y-49433012D01*
X62807007Y-49465925D01*
X62934174Y-49500000D01*
X63065826Y-49500000D01*
X63192993Y-49465925D01*
X63250000Y-49433012D01*
X63250000Y-51106988D01*
G37*
%TD.AperFunction*%
%TA.AperFunction,Conductor*%
G36*
X59994075Y-48807007D02*
G01*
X59960000Y-48934174D01*
X59960000Y-49065826D01*
X59994075Y-49192993D01*
X60026988Y-49250000D01*
X58353012Y-49250000D01*
X58385925Y-49192993D01*
X58420000Y-49065826D01*
X58420000Y-48934174D01*
X58385925Y-48807007D01*
X58353012Y-48750000D01*
X60026988Y-48750000D01*
X59994075Y-48807007D01*
G37*
%TD.AperFunction*%
%TA.AperFunction,Conductor*%
G36*
X62534075Y-48807007D02*
G01*
X62500000Y-48934174D01*
X62500000Y-49065826D01*
X62534075Y-49192993D01*
X62566988Y-49250000D01*
X60893012Y-49250000D01*
X60925925Y-49192993D01*
X60960000Y-49065826D01*
X60960000Y-48934174D01*
X60925925Y-48807007D01*
X60893012Y-48750000D01*
X62566988Y-48750000D01*
X62534075Y-48807007D01*
G37*
%TD.AperFunction*%
%TD*%
M02*
