%TF.GenerationSoftware,KiCad,Pcbnew,8.0.4*%
%TF.CreationDate,2024-08-25T20:25:01-07:00*%
%TF.ProjectId,Croissant_Offset,43726f69-7373-4616-9e74-5f4f66667365,rev?*%
%TF.SameCoordinates,Original*%
%TF.FileFunction,Profile,NP*%
%FSLAX46Y46*%
G04 Gerber Fmt 4.6, Leading zero omitted, Abs format (unit mm)*
G04 Created by KiCad (PCBNEW 8.0.4) date 2024-08-25 20:25:01*
%MOMM*%
%LPD*%
G01*
G04 APERTURE LIST*
%TA.AperFunction,Profile*%
%ADD10C,0.050000*%
%TD*%
%TA.AperFunction,Profile*%
%ADD11C,0.100000*%
%TD*%
G04 APERTURE END LIST*
D10*
X87735436Y-59323800D02*
G75*
G02*
X87735436Y-58427600I64J448100D01*
G01*
D11*
X75494801Y-82095276D02*
X76326101Y-82098140D01*
D10*
X88623576Y-59324724D02*
G75*
G02*
X89623576Y-60324724I24J-999976D01*
G01*
X87735436Y-59323800D02*
X88623576Y-59324724D01*
X75678377Y-59324724D02*
X82735436Y-59323799D01*
D11*
X87939786Y-97000000D02*
X50000000Y-97000000D01*
D10*
X76326101Y-81201862D02*
X75678377Y-81200000D01*
X74678377Y-60324724D02*
G75*
G02*
X75678377Y-59324677I1000023J24D01*
G01*
X88623576Y-81200000D02*
X81280000Y-81201861D01*
D11*
X89914000Y-56460000D02*
G75*
G02*
X87914000Y-58460000I-2000100J100D01*
G01*
D10*
X89623576Y-60324724D02*
X89623576Y-80200000D01*
D11*
X89913014Y-46720606D02*
X89914000Y-56460000D01*
X50000000Y-44730000D02*
X87913014Y-44720606D01*
X73494801Y-60460000D02*
X73494801Y-80095276D01*
X87914000Y-82095276D02*
G75*
G02*
X89914024Y-84095276I0J-2000024D01*
G01*
D10*
X82735436Y-58427521D02*
G75*
G02*
X82735436Y-59323879I64J-448179D01*
G01*
X89623576Y-80200000D02*
G75*
G02*
X88623576Y-81199976I-999976J0D01*
G01*
X74678376Y-80200000D02*
X74678377Y-60324724D01*
D11*
X48000000Y-95000000D02*
X48000000Y-46730000D01*
X50000000Y-97000000D02*
G75*
G02*
X48000000Y-95000000I0J2000000D01*
G01*
D10*
X81280000Y-82098141D02*
G75*
G02*
X81280000Y-81201859I0J448141D01*
G01*
D11*
X89939786Y-95000000D02*
G75*
G02*
X87939786Y-96999986I-1999986J0D01*
G01*
X82735436Y-58427521D02*
X75494801Y-58460000D01*
X89914000Y-84095276D02*
X89939786Y-95000000D01*
D10*
X75678377Y-81200000D02*
G75*
G02*
X74678400Y-80200000I23J1000000D01*
G01*
X76326101Y-81201862D02*
G75*
G02*
X76326101Y-82098138I-1J-448138D01*
G01*
D11*
X48000000Y-46730000D02*
G75*
G02*
X50000000Y-44730000I2000000J0D01*
G01*
X73494801Y-60460000D02*
G75*
G02*
X75494801Y-58460001I1999999J0D01*
G01*
X75494801Y-82095276D02*
G75*
G02*
X73494824Y-80095276I-1J1999976D01*
G01*
X87914000Y-58460000D02*
X87735436Y-58427520D01*
X87913014Y-44720606D02*
G75*
G02*
X89912994Y-46720606I-14J-1999994D01*
G01*
X81280000Y-82098141D02*
X87914000Y-82095276D01*
M02*
