%TF.GenerationSoftware,KiCad,Pcbnew,8.0.4*%
%TF.CreationDate,2024-08-25T20:25:00-07:00*%
%TF.ProjectId,Croissant_Offset,43726f69-7373-4616-9e74-5f4f66667365,rev?*%
%TF.SameCoordinates,Original*%
%TF.FileFunction,Legend,Top*%
%TF.FilePolarity,Positive*%
%FSLAX46Y46*%
G04 Gerber Fmt 4.6, Leading zero omitted, Abs format (unit mm)*
G04 Created by KiCad (PCBNEW 8.0.4) date 2024-08-25 20:25:00*
%MOMM*%
%LPD*%
G01*
G04 APERTURE LIST*
%ADD10C,0.200000*%
%ADD11C,0.100000*%
%ADD12C,0.250000*%
%ADD13C,0.300000*%
%ADD14C,0.150000*%
%ADD15C,0.120000*%
G04 APERTURE END LIST*
D10*
X75453201Y-45346045D02*
X86881852Y-45346045D01*
X48431598Y-83705189D02*
X52998300Y-83705189D01*
X52998300Y-87598641D01*
X48431598Y-87598641D01*
X48431598Y-83705189D01*
X80824221Y-48230668D02*
X86991872Y-48230668D01*
X86991872Y-53124120D01*
X80824221Y-53124120D01*
X80824221Y-48230668D01*
D11*
X80462576Y-73211516D02*
X80462576Y-73211516D01*
X80062576Y-73211516D02*
X80062576Y-73211516D01*
X79662576Y-73211516D02*
X79662576Y-73211516D01*
X79262576Y-73211516D02*
X79262576Y-73211516D01*
X78862576Y-73211516D02*
X78862576Y-73211516D01*
X78462576Y-73211516D02*
X78462576Y-73211516D01*
X78062576Y-73211516D02*
X78062576Y-73211516D01*
X77662576Y-73211516D02*
X77662576Y-73211516D01*
X77262576Y-73211516D02*
X77262576Y-73211516D01*
X76862576Y-73211516D02*
X76862576Y-73211516D01*
X76462576Y-73211516D02*
X76462576Y-73211516D01*
X76062576Y-73211516D02*
X76062576Y-73211516D01*
X75662576Y-73211516D02*
X75662576Y-73211516D01*
D10*
X86881852Y-48262983D02*
X86981852Y-48162983D01*
D11*
X75455949Y-70267306D02*
X80462576Y-70267306D01*
X80462576Y-76155726D01*
X75455949Y-76155726D01*
X75455949Y-70267306D01*
D10*
X85201602Y-53692885D02*
X88817175Y-53692885D01*
X88817175Y-58576748D01*
X85201602Y-58576748D01*
X85201602Y-53692885D01*
X80722349Y-88176511D02*
X86890000Y-88176511D01*
X86890000Y-93069963D01*
X80722349Y-93069963D01*
X80722349Y-88176511D01*
X76014110Y-93063250D02*
X86911761Y-93063250D01*
X86911761Y-96094952D01*
X76014110Y-96094952D01*
X76014110Y-93063250D01*
X48406178Y-66720279D02*
X52972880Y-66720279D01*
X52972880Y-70613731D01*
X48406178Y-70613731D01*
X48406178Y-66720279D01*
X85210326Y-83760000D02*
X88723831Y-83760000D01*
X88723831Y-88854466D01*
X85210326Y-88854466D01*
X85210326Y-83760000D01*
D11*
X77959263Y-70267306D02*
X77959263Y-70267306D01*
X77959263Y-70667306D02*
X77959263Y-70667306D01*
X77959263Y-71067306D02*
X77959263Y-71067306D01*
X77959263Y-71467306D02*
X77959263Y-71467306D01*
X77959263Y-71867306D02*
X77959263Y-71867306D01*
X77959263Y-72267306D02*
X77959263Y-72267306D01*
X77959263Y-72667306D02*
X77959263Y-72667306D01*
X77959263Y-73067306D02*
X77959263Y-73067306D01*
X77959262Y-73467306D02*
X77959262Y-73467306D01*
X77959262Y-73867306D02*
X77959262Y-73867306D01*
X77959262Y-74267306D02*
X77959262Y-74267306D01*
X77959262Y-74667306D02*
X77959262Y-74667306D01*
X77959262Y-75067306D02*
X77959262Y-75067306D01*
X77959262Y-75467306D02*
X77959262Y-75467306D01*
X77959262Y-75867306D02*
X77959262Y-75867306D01*
D10*
X86981852Y-48162983D02*
X86981852Y-45446045D01*
X75361925Y-49422115D02*
X75361925Y-46705177D01*
D11*
X76445673Y-64470578D02*
X76445673Y-63470578D01*
X76921863Y-63803911D02*
X76921863Y-64470578D01*
X76921863Y-63899149D02*
X76969482Y-63851530D01*
X76969482Y-63851530D02*
X77064720Y-63803911D01*
X77064720Y-63803911D02*
X77207577Y-63803911D01*
X77207577Y-63803911D02*
X77302815Y-63851530D01*
X77302815Y-63851530D02*
X77350434Y-63946768D01*
X77350434Y-63946768D02*
X77350434Y-64470578D01*
X78445673Y-63470578D02*
X78779006Y-64470578D01*
X78779006Y-64470578D02*
X79112339Y-63470578D01*
X79874244Y-64422959D02*
X79779006Y-64470578D01*
X79779006Y-64470578D02*
X79588530Y-64470578D01*
X79588530Y-64470578D02*
X79493292Y-64422959D01*
X79493292Y-64422959D02*
X79445673Y-64375339D01*
X79445673Y-64375339D02*
X79398054Y-64280101D01*
X79398054Y-64280101D02*
X79398054Y-63994387D01*
X79398054Y-63994387D02*
X79445673Y-63899149D01*
X79445673Y-63899149D02*
X79493292Y-63851530D01*
X79493292Y-63851530D02*
X79588530Y-63803911D01*
X79588530Y-63803911D02*
X79779006Y-63803911D01*
X79779006Y-63803911D02*
X79874244Y-63851530D01*
X80731387Y-64422959D02*
X80636149Y-64470578D01*
X80636149Y-64470578D02*
X80445673Y-64470578D01*
X80445673Y-64470578D02*
X80350435Y-64422959D01*
X80350435Y-64422959D02*
X80302816Y-64375339D01*
X80302816Y-64375339D02*
X80255197Y-64280101D01*
X80255197Y-64280101D02*
X80255197Y-63994387D01*
X80255197Y-63994387D02*
X80302816Y-63899149D01*
X80302816Y-63899149D02*
X80350435Y-63851530D01*
X80350435Y-63851530D02*
X80445673Y-63803911D01*
X80445673Y-63803911D02*
X80636149Y-63803911D01*
X80636149Y-63803911D02*
X80731387Y-63851530D01*
X82445673Y-63518197D02*
X82350435Y-63470578D01*
X82350435Y-63470578D02*
X82207578Y-63470578D01*
X82207578Y-63470578D02*
X82064721Y-63518197D01*
X82064721Y-63518197D02*
X81969483Y-63613435D01*
X81969483Y-63613435D02*
X81921864Y-63708673D01*
X81921864Y-63708673D02*
X81874245Y-63899149D01*
X81874245Y-63899149D02*
X81874245Y-64042006D01*
X81874245Y-64042006D02*
X81921864Y-64232482D01*
X81921864Y-64232482D02*
X81969483Y-64327720D01*
X81969483Y-64327720D02*
X82064721Y-64422959D01*
X82064721Y-64422959D02*
X82207578Y-64470578D01*
X82207578Y-64470578D02*
X82302816Y-64470578D01*
X82302816Y-64470578D02*
X82445673Y-64422959D01*
X82445673Y-64422959D02*
X82493292Y-64375339D01*
X82493292Y-64375339D02*
X82493292Y-64042006D01*
X82493292Y-64042006D02*
X82302816Y-64042006D01*
X82921864Y-63803911D02*
X82921864Y-64470578D01*
X82921864Y-63899149D02*
X82969483Y-63851530D01*
X82969483Y-63851530D02*
X83064721Y-63803911D01*
X83064721Y-63803911D02*
X83207578Y-63803911D01*
X83207578Y-63803911D02*
X83302816Y-63851530D01*
X83302816Y-63851530D02*
X83350435Y-63946768D01*
X83350435Y-63946768D02*
X83350435Y-64470578D01*
X84255197Y-64470578D02*
X84255197Y-63470578D01*
X84255197Y-64422959D02*
X84159959Y-64470578D01*
X84159959Y-64470578D02*
X83969483Y-64470578D01*
X83969483Y-64470578D02*
X83874245Y-64422959D01*
X83874245Y-64422959D02*
X83826626Y-64375339D01*
X83826626Y-64375339D02*
X83779007Y-64280101D01*
X83779007Y-64280101D02*
X83779007Y-63994387D01*
X83779007Y-63994387D02*
X83826626Y-63899149D01*
X83826626Y-63899149D02*
X83874245Y-63851530D01*
X83874245Y-63851530D02*
X83969483Y-63803911D01*
X83969483Y-63803911D02*
X84159959Y-63803911D01*
X84159959Y-63803911D02*
X84255197Y-63851530D01*
D12*
X52586418Y-67394715D02*
X52586418Y-68013762D01*
X52586418Y-68013762D02*
X52205466Y-67680429D01*
X52205466Y-67680429D02*
X52205466Y-67823286D01*
X52205466Y-67823286D02*
X52157847Y-67918524D01*
X52157847Y-67918524D02*
X52110228Y-67966143D01*
X52110228Y-67966143D02*
X52014990Y-68013762D01*
X52014990Y-68013762D02*
X51776895Y-68013762D01*
X51776895Y-68013762D02*
X51681657Y-67966143D01*
X51681657Y-67966143D02*
X51634038Y-67918524D01*
X51634038Y-67918524D02*
X51586418Y-67823286D01*
X51586418Y-67823286D02*
X51586418Y-67537572D01*
X51586418Y-67537572D02*
X51634038Y-67442334D01*
X51634038Y-67442334D02*
X51681657Y-67394715D01*
X51681657Y-68442334D02*
X51634038Y-68489953D01*
X51634038Y-68489953D02*
X51586418Y-68442334D01*
X51586418Y-68442334D02*
X51634038Y-68394715D01*
X51634038Y-68394715D02*
X51681657Y-68442334D01*
X51681657Y-68442334D02*
X51586418Y-68442334D01*
X52586418Y-68823286D02*
X52586418Y-69442333D01*
X52586418Y-69442333D02*
X52205466Y-69109000D01*
X52205466Y-69109000D02*
X52205466Y-69251857D01*
X52205466Y-69251857D02*
X52157847Y-69347095D01*
X52157847Y-69347095D02*
X52110228Y-69394714D01*
X52110228Y-69394714D02*
X52014990Y-69442333D01*
X52014990Y-69442333D02*
X51776895Y-69442333D01*
X51776895Y-69442333D02*
X51681657Y-69394714D01*
X51681657Y-69394714D02*
X51634038Y-69347095D01*
X51634038Y-69347095D02*
X51586418Y-69251857D01*
X51586418Y-69251857D02*
X51586418Y-68966143D01*
X51586418Y-68966143D02*
X51634038Y-68870905D01*
X51634038Y-68870905D02*
X51681657Y-68823286D01*
X52253085Y-69775667D02*
X51586418Y-70013762D01*
X51586418Y-70013762D02*
X52253085Y-70251857D01*
D13*
X84046810Y-53803780D02*
X83261096Y-54803780D01*
X84046810Y-54803780D02*
X83261096Y-53803780D01*
X81618238Y-53875209D02*
X81403953Y-53803780D01*
X81403953Y-53803780D02*
X81046810Y-53803780D01*
X81046810Y-53803780D02*
X80903953Y-53875209D01*
X80903953Y-53875209D02*
X80832524Y-53946637D01*
X80832524Y-53946637D02*
X80761095Y-54089494D01*
X80761095Y-54089494D02*
X80761095Y-54232351D01*
X80761095Y-54232351D02*
X80832524Y-54375209D01*
X80832524Y-54375209D02*
X80903953Y-54446637D01*
X80903953Y-54446637D02*
X81046810Y-54518066D01*
X81046810Y-54518066D02*
X81332524Y-54589494D01*
X81332524Y-54589494D02*
X81475381Y-54660923D01*
X81475381Y-54660923D02*
X81546810Y-54732351D01*
X81546810Y-54732351D02*
X81618238Y-54875209D01*
X81618238Y-54875209D02*
X81618238Y-55018066D01*
X81618238Y-55018066D02*
X81546810Y-55160923D01*
X81546810Y-55160923D02*
X81475381Y-55232351D01*
X81475381Y-55232351D02*
X81332524Y-55303780D01*
X81332524Y-55303780D02*
X80975381Y-55303780D01*
X80975381Y-55303780D02*
X80761095Y-55232351D01*
X78118239Y-53803780D02*
X78618239Y-54518066D01*
X78975382Y-53803780D02*
X78975382Y-55303780D01*
X78975382Y-55303780D02*
X78403953Y-55303780D01*
X78403953Y-55303780D02*
X78261096Y-55232351D01*
X78261096Y-55232351D02*
X78189667Y-55160923D01*
X78189667Y-55160923D02*
X78118239Y-55018066D01*
X78118239Y-55018066D02*
X78118239Y-54803780D01*
X78118239Y-54803780D02*
X78189667Y-54660923D01*
X78189667Y-54660923D02*
X78261096Y-54589494D01*
X78261096Y-54589494D02*
X78403953Y-54518066D01*
X78403953Y-54518066D02*
X78975382Y-54518066D01*
X76546810Y-55303780D02*
X75689668Y-55303780D01*
X76118239Y-53803780D02*
X76118239Y-55303780D01*
X76362712Y-46371986D02*
X77505570Y-46371986D01*
X76934141Y-46943414D02*
X76934141Y-45800557D01*
X79005570Y-46943414D02*
X78148427Y-46943414D01*
X78576998Y-46943414D02*
X78576998Y-45443414D01*
X78576998Y-45443414D02*
X78434141Y-45657700D01*
X78434141Y-45657700D02*
X78291284Y-45800557D01*
X78291284Y-45800557D02*
X78148427Y-45871986D01*
X79576998Y-45586271D02*
X79648426Y-45514843D01*
X79648426Y-45514843D02*
X79791284Y-45443414D01*
X79791284Y-45443414D02*
X80148426Y-45443414D01*
X80148426Y-45443414D02*
X80291284Y-45514843D01*
X80291284Y-45514843D02*
X80362712Y-45586271D01*
X80362712Y-45586271D02*
X80434141Y-45729128D01*
X80434141Y-45729128D02*
X80434141Y-45871986D01*
X80434141Y-45871986D02*
X80362712Y-46086271D01*
X80362712Y-46086271D02*
X79505569Y-46943414D01*
X79505569Y-46943414D02*
X80434141Y-46943414D01*
X80934140Y-45943414D02*
X81291283Y-46943414D01*
X81291283Y-46943414D02*
X81648426Y-45943414D01*
X83219335Y-88830507D02*
X83076478Y-88759078D01*
X83076478Y-88759078D02*
X82862192Y-88759078D01*
X82862192Y-88759078D02*
X82647906Y-88830507D01*
X82647906Y-88830507D02*
X82505049Y-88973364D01*
X82505049Y-88973364D02*
X82433620Y-89116221D01*
X82433620Y-89116221D02*
X82362192Y-89401935D01*
X82362192Y-89401935D02*
X82362192Y-89616221D01*
X82362192Y-89616221D02*
X82433620Y-89901935D01*
X82433620Y-89901935D02*
X82505049Y-90044792D01*
X82505049Y-90044792D02*
X82647906Y-90187650D01*
X82647906Y-90187650D02*
X82862192Y-90259078D01*
X82862192Y-90259078D02*
X83005049Y-90259078D01*
X83005049Y-90259078D02*
X83219335Y-90187650D01*
X83219335Y-90187650D02*
X83290763Y-90116221D01*
X83290763Y-90116221D02*
X83290763Y-89616221D01*
X83290763Y-89616221D02*
X83005049Y-89616221D01*
X83933620Y-89259078D02*
X83933620Y-90259078D01*
X83933620Y-89401935D02*
X84005049Y-89330507D01*
X84005049Y-89330507D02*
X84147906Y-89259078D01*
X84147906Y-89259078D02*
X84362192Y-89259078D01*
X84362192Y-89259078D02*
X84505049Y-89330507D01*
X84505049Y-89330507D02*
X84576478Y-89473364D01*
X84576478Y-89473364D02*
X84576478Y-90259078D01*
X85933621Y-90259078D02*
X85933621Y-88759078D01*
X85933621Y-90187650D02*
X85790763Y-90259078D01*
X85790763Y-90259078D02*
X85505049Y-90259078D01*
X85505049Y-90259078D02*
X85362192Y-90187650D01*
X85362192Y-90187650D02*
X85290763Y-90116221D01*
X85290763Y-90116221D02*
X85219335Y-89973364D01*
X85219335Y-89973364D02*
X85219335Y-89544792D01*
X85219335Y-89544792D02*
X85290763Y-89401935D01*
X85290763Y-89401935D02*
X85362192Y-89330507D01*
X85362192Y-89330507D02*
X85505049Y-89259078D01*
X85505049Y-89259078D02*
X85790763Y-89259078D01*
X85790763Y-89259078D02*
X85933621Y-89330507D01*
X76049832Y-94894552D02*
X77192690Y-94894552D01*
X78692690Y-95465980D02*
X77835547Y-95465980D01*
X78264118Y-95465980D02*
X78264118Y-93965980D01*
X78264118Y-93965980D02*
X78121261Y-94180266D01*
X78121261Y-94180266D02*
X77978404Y-94323123D01*
X77978404Y-94323123D02*
X77835547Y-94394552D01*
X79264118Y-94108837D02*
X79335546Y-94037409D01*
X79335546Y-94037409D02*
X79478404Y-93965980D01*
X79478404Y-93965980D02*
X79835546Y-93965980D01*
X79835546Y-93965980D02*
X79978404Y-94037409D01*
X79978404Y-94037409D02*
X80049832Y-94108837D01*
X80049832Y-94108837D02*
X80121261Y-94251694D01*
X80121261Y-94251694D02*
X80121261Y-94394552D01*
X80121261Y-94394552D02*
X80049832Y-94608837D01*
X80049832Y-94608837D02*
X79192689Y-95465980D01*
X79192689Y-95465980D02*
X80121261Y-95465980D01*
X80621260Y-94465980D02*
X80978403Y-95465980D01*
X80978403Y-95465980D02*
X81335546Y-94465980D01*
X52957638Y-57444219D02*
X52957638Y-58301362D01*
X51457638Y-57872790D02*
X52957638Y-57872790D01*
X51457638Y-60801361D02*
X52171924Y-60301361D01*
X51457638Y-59944218D02*
X52957638Y-59944218D01*
X52957638Y-59944218D02*
X52957638Y-60515647D01*
X52957638Y-60515647D02*
X52886209Y-60658504D01*
X52886209Y-60658504D02*
X52814781Y-60729933D01*
X52814781Y-60729933D02*
X52671924Y-60801361D01*
X52671924Y-60801361D02*
X52457638Y-60801361D01*
X52457638Y-60801361D02*
X52314781Y-60729933D01*
X52314781Y-60729933D02*
X52243352Y-60658504D01*
X52243352Y-60658504D02*
X52171924Y-60515647D01*
X52171924Y-60515647D02*
X52171924Y-59944218D01*
X51529067Y-62515647D02*
X51457638Y-62729933D01*
X51457638Y-62729933D02*
X51457638Y-63087075D01*
X51457638Y-63087075D02*
X51529067Y-63229933D01*
X51529067Y-63229933D02*
X51600495Y-63301361D01*
X51600495Y-63301361D02*
X51743352Y-63372790D01*
X51743352Y-63372790D02*
X51886209Y-63372790D01*
X51886209Y-63372790D02*
X52029067Y-63301361D01*
X52029067Y-63301361D02*
X52100495Y-63229933D01*
X52100495Y-63229933D02*
X52171924Y-63087075D01*
X52171924Y-63087075D02*
X52243352Y-62801361D01*
X52243352Y-62801361D02*
X52314781Y-62658504D01*
X52314781Y-62658504D02*
X52386209Y-62587075D01*
X52386209Y-62587075D02*
X52529067Y-62515647D01*
X52529067Y-62515647D02*
X52671924Y-62515647D01*
X52671924Y-62515647D02*
X52814781Y-62587075D01*
X52814781Y-62587075D02*
X52886209Y-62658504D01*
X52886209Y-62658504D02*
X52957638Y-62801361D01*
X52957638Y-62801361D02*
X52957638Y-63158504D01*
X52957638Y-63158504D02*
X52886209Y-63372790D01*
X51457638Y-65015646D02*
X52457638Y-65801361D01*
X52457638Y-65015646D02*
X51457638Y-65801361D01*
D12*
X86328861Y-87517168D02*
X85852671Y-87517168D01*
X85852671Y-87517168D02*
X85805052Y-87993358D01*
X85805052Y-87993358D02*
X85852671Y-87945739D01*
X85852671Y-87945739D02*
X85947909Y-87898120D01*
X85947909Y-87898120D02*
X86186004Y-87898120D01*
X86186004Y-87898120D02*
X86281242Y-87945739D01*
X86281242Y-87945739D02*
X86328861Y-87993358D01*
X86328861Y-87993358D02*
X86376480Y-88088596D01*
X86376480Y-88088596D02*
X86376480Y-88326691D01*
X86376480Y-88326691D02*
X86328861Y-88421929D01*
X86328861Y-88421929D02*
X86281242Y-88469549D01*
X86281242Y-88469549D02*
X86186004Y-88517168D01*
X86186004Y-88517168D02*
X85947909Y-88517168D01*
X85947909Y-88517168D02*
X85852671Y-88469549D01*
X85852671Y-88469549D02*
X85805052Y-88421929D01*
X86709814Y-87850501D02*
X86947909Y-88517168D01*
X86947909Y-88517168D02*
X87186004Y-87850501D01*
D14*
X83520355Y-76488866D02*
X84282260Y-76488866D01*
X83901307Y-76869819D02*
X83901307Y-76107914D01*
D13*
X53092249Y-75296988D02*
X53092249Y-76154131D01*
X51592249Y-75725559D02*
X53092249Y-75725559D01*
X51592249Y-78654130D02*
X52306535Y-78154130D01*
X51592249Y-77796987D02*
X53092249Y-77796987D01*
X53092249Y-77796987D02*
X53092249Y-78368416D01*
X53092249Y-78368416D02*
X53020820Y-78511273D01*
X53020820Y-78511273D02*
X52949392Y-78582702D01*
X52949392Y-78582702D02*
X52806535Y-78654130D01*
X52806535Y-78654130D02*
X52592249Y-78654130D01*
X52592249Y-78654130D02*
X52449392Y-78582702D01*
X52449392Y-78582702D02*
X52377963Y-78511273D01*
X52377963Y-78511273D02*
X52306535Y-78368416D01*
X52306535Y-78368416D02*
X52306535Y-77796987D01*
X51663678Y-80368416D02*
X51592249Y-80582702D01*
X51592249Y-80582702D02*
X51592249Y-80939844D01*
X51592249Y-80939844D02*
X51663678Y-81082702D01*
X51663678Y-81082702D02*
X51735106Y-81154130D01*
X51735106Y-81154130D02*
X51877963Y-81225559D01*
X51877963Y-81225559D02*
X52020820Y-81225559D01*
X52020820Y-81225559D02*
X52163678Y-81154130D01*
X52163678Y-81154130D02*
X52235106Y-81082702D01*
X52235106Y-81082702D02*
X52306535Y-80939844D01*
X52306535Y-80939844D02*
X52377963Y-80654130D01*
X52377963Y-80654130D02*
X52449392Y-80511273D01*
X52449392Y-80511273D02*
X52520820Y-80439844D01*
X52520820Y-80439844D02*
X52663678Y-80368416D01*
X52663678Y-80368416D02*
X52806535Y-80368416D01*
X52806535Y-80368416D02*
X52949392Y-80439844D01*
X52949392Y-80439844D02*
X53020820Y-80511273D01*
X53020820Y-80511273D02*
X53092249Y-80654130D01*
X53092249Y-80654130D02*
X53092249Y-81011273D01*
X53092249Y-81011273D02*
X53020820Y-81225559D01*
X51592249Y-82868415D02*
X52592249Y-83654130D01*
X52592249Y-82868415D02*
X51592249Y-83654130D01*
X82841929Y-51140384D02*
X82699072Y-51068955D01*
X82699072Y-51068955D02*
X82484786Y-51068955D01*
X82484786Y-51068955D02*
X82270500Y-51140384D01*
X82270500Y-51140384D02*
X82127643Y-51283241D01*
X82127643Y-51283241D02*
X82056214Y-51426098D01*
X82056214Y-51426098D02*
X81984786Y-51711812D01*
X81984786Y-51711812D02*
X81984786Y-51926098D01*
X81984786Y-51926098D02*
X82056214Y-52211812D01*
X82056214Y-52211812D02*
X82127643Y-52354669D01*
X82127643Y-52354669D02*
X82270500Y-52497527D01*
X82270500Y-52497527D02*
X82484786Y-52568955D01*
X82484786Y-52568955D02*
X82627643Y-52568955D01*
X82627643Y-52568955D02*
X82841929Y-52497527D01*
X82841929Y-52497527D02*
X82913357Y-52426098D01*
X82913357Y-52426098D02*
X82913357Y-51926098D01*
X82913357Y-51926098D02*
X82627643Y-51926098D01*
X83556214Y-51568955D02*
X83556214Y-52568955D01*
X83556214Y-51711812D02*
X83627643Y-51640384D01*
X83627643Y-51640384D02*
X83770500Y-51568955D01*
X83770500Y-51568955D02*
X83984786Y-51568955D01*
X83984786Y-51568955D02*
X84127643Y-51640384D01*
X84127643Y-51640384D02*
X84199072Y-51783241D01*
X84199072Y-51783241D02*
X84199072Y-52568955D01*
X85556215Y-52568955D02*
X85556215Y-51068955D01*
X85556215Y-52497527D02*
X85413357Y-52568955D01*
X85413357Y-52568955D02*
X85127643Y-52568955D01*
X85127643Y-52568955D02*
X84984786Y-52497527D01*
X84984786Y-52497527D02*
X84913357Y-52426098D01*
X84913357Y-52426098D02*
X84841929Y-52283241D01*
X84841929Y-52283241D02*
X84841929Y-51854669D01*
X84841929Y-51854669D02*
X84913357Y-51711812D01*
X84913357Y-51711812D02*
X84984786Y-51640384D01*
X84984786Y-51640384D02*
X85127643Y-51568955D01*
X85127643Y-51568955D02*
X85413357Y-51568955D01*
X85413357Y-51568955D02*
X85556215Y-51640384D01*
D14*
X88520355Y-76488866D02*
X89282260Y-76488866D01*
D12*
X52099879Y-84583472D02*
X52099879Y-85345377D01*
X51718926Y-84964424D02*
X52480831Y-84964424D01*
X52718926Y-86297757D02*
X52718926Y-85821567D01*
X52718926Y-85821567D02*
X52242736Y-85773948D01*
X52242736Y-85773948D02*
X52290355Y-85821567D01*
X52290355Y-85821567D02*
X52337974Y-85916805D01*
X52337974Y-85916805D02*
X52337974Y-86154900D01*
X52337974Y-86154900D02*
X52290355Y-86250138D01*
X52290355Y-86250138D02*
X52242736Y-86297757D01*
X52242736Y-86297757D02*
X52147498Y-86345376D01*
X52147498Y-86345376D02*
X51909403Y-86345376D01*
X51909403Y-86345376D02*
X51814165Y-86297757D01*
X51814165Y-86297757D02*
X51766546Y-86250138D01*
X51766546Y-86250138D02*
X51718926Y-86154900D01*
X51718926Y-86154900D02*
X51718926Y-85916805D01*
X51718926Y-85916805D02*
X51766546Y-85821567D01*
X51766546Y-85821567D02*
X51814165Y-85773948D01*
X52385593Y-86678710D02*
X51718926Y-86916805D01*
X51718926Y-86916805D02*
X52385593Y-87154900D01*
D13*
X75923061Y-82521579D02*
X76780204Y-82521579D01*
X76351632Y-84021579D02*
X76351632Y-82521579D01*
X79280203Y-84021579D02*
X78780203Y-83307293D01*
X78423060Y-84021579D02*
X78423060Y-82521579D01*
X78423060Y-82521579D02*
X78994489Y-82521579D01*
X78994489Y-82521579D02*
X79137346Y-82593008D01*
X79137346Y-82593008D02*
X79208775Y-82664436D01*
X79208775Y-82664436D02*
X79280203Y-82807293D01*
X79280203Y-82807293D02*
X79280203Y-83021579D01*
X79280203Y-83021579D02*
X79208775Y-83164436D01*
X79208775Y-83164436D02*
X79137346Y-83235865D01*
X79137346Y-83235865D02*
X78994489Y-83307293D01*
X78994489Y-83307293D02*
X78423060Y-83307293D01*
X80994489Y-83950151D02*
X81208775Y-84021579D01*
X81208775Y-84021579D02*
X81565917Y-84021579D01*
X81565917Y-84021579D02*
X81708775Y-83950151D01*
X81708775Y-83950151D02*
X81780203Y-83878722D01*
X81780203Y-83878722D02*
X81851632Y-83735865D01*
X81851632Y-83735865D02*
X81851632Y-83593008D01*
X81851632Y-83593008D02*
X81780203Y-83450151D01*
X81780203Y-83450151D02*
X81708775Y-83378722D01*
X81708775Y-83378722D02*
X81565917Y-83307293D01*
X81565917Y-83307293D02*
X81280203Y-83235865D01*
X81280203Y-83235865D02*
X81137346Y-83164436D01*
X81137346Y-83164436D02*
X81065917Y-83093008D01*
X81065917Y-83093008D02*
X80994489Y-82950151D01*
X80994489Y-82950151D02*
X80994489Y-82807293D01*
X80994489Y-82807293D02*
X81065917Y-82664436D01*
X81065917Y-82664436D02*
X81137346Y-82593008D01*
X81137346Y-82593008D02*
X81280203Y-82521579D01*
X81280203Y-82521579D02*
X81637346Y-82521579D01*
X81637346Y-82521579D02*
X81851632Y-82593008D01*
X83494488Y-84021579D02*
X84280203Y-83021579D01*
X83494488Y-83021579D02*
X84280203Y-84021579D01*
D12*
X88320547Y-54998632D02*
X87701500Y-54998632D01*
X87701500Y-54998632D02*
X88034833Y-54617680D01*
X88034833Y-54617680D02*
X87891976Y-54617680D01*
X87891976Y-54617680D02*
X87796738Y-54570061D01*
X87796738Y-54570061D02*
X87749119Y-54522442D01*
X87749119Y-54522442D02*
X87701500Y-54427204D01*
X87701500Y-54427204D02*
X87701500Y-54189109D01*
X87701500Y-54189109D02*
X87749119Y-54093871D01*
X87749119Y-54093871D02*
X87796738Y-54046252D01*
X87796738Y-54046252D02*
X87891976Y-53998632D01*
X87891976Y-53998632D02*
X88177690Y-53998632D01*
X88177690Y-53998632D02*
X88272928Y-54046252D01*
X88272928Y-54046252D02*
X88320547Y-54093871D01*
X87272928Y-54093871D02*
X87225309Y-54046252D01*
X87225309Y-54046252D02*
X87272928Y-53998632D01*
X87272928Y-53998632D02*
X87320547Y-54046252D01*
X87320547Y-54046252D02*
X87272928Y-54093871D01*
X87272928Y-54093871D02*
X87272928Y-53998632D01*
X86891976Y-54998632D02*
X86272929Y-54998632D01*
X86272929Y-54998632D02*
X86606262Y-54617680D01*
X86606262Y-54617680D02*
X86463405Y-54617680D01*
X86463405Y-54617680D02*
X86368167Y-54570061D01*
X86368167Y-54570061D02*
X86320548Y-54522442D01*
X86320548Y-54522442D02*
X86272929Y-54427204D01*
X86272929Y-54427204D02*
X86272929Y-54189109D01*
X86272929Y-54189109D02*
X86320548Y-54093871D01*
X86320548Y-54093871D02*
X86368167Y-54046252D01*
X86368167Y-54046252D02*
X86463405Y-53998632D01*
X86463405Y-53998632D02*
X86749119Y-53998632D01*
X86749119Y-53998632D02*
X86844357Y-54046252D01*
X86844357Y-54046252D02*
X86891976Y-54093871D01*
X85939595Y-54665299D02*
X85701500Y-53998632D01*
X85701500Y-53998632D02*
X85463405Y-54665299D01*
D14*
X81827654Y-66541738D02*
X81863369Y-66577452D01*
X81863369Y-66577452D02*
X81899083Y-66684595D01*
X81899083Y-66684595D02*
X81899083Y-66756023D01*
X81899083Y-66756023D02*
X81863369Y-66863166D01*
X81863369Y-66863166D02*
X81791940Y-66934595D01*
X81791940Y-66934595D02*
X81720511Y-66970309D01*
X81720511Y-66970309D02*
X81577654Y-67006023D01*
X81577654Y-67006023D02*
X81470511Y-67006023D01*
X81470511Y-67006023D02*
X81327654Y-66970309D01*
X81327654Y-66970309D02*
X81256226Y-66934595D01*
X81256226Y-66934595D02*
X81184797Y-66863166D01*
X81184797Y-66863166D02*
X81149083Y-66756023D01*
X81149083Y-66756023D02*
X81149083Y-66684595D01*
X81149083Y-66684595D02*
X81184797Y-66577452D01*
X81184797Y-66577452D02*
X81220511Y-66541738D01*
X81899083Y-65827452D02*
X81899083Y-66256023D01*
X81899083Y-66041738D02*
X81149083Y-66041738D01*
X81149083Y-66041738D02*
X81256226Y-66113166D01*
X81256226Y-66113166D02*
X81327654Y-66184595D01*
X81327654Y-66184595D02*
X81363369Y-66256023D01*
X81149083Y-65363166D02*
X81149083Y-65291737D01*
X81149083Y-65291737D02*
X81184797Y-65220309D01*
X81184797Y-65220309D02*
X81220511Y-65184595D01*
X81220511Y-65184595D02*
X81291940Y-65148880D01*
X81291940Y-65148880D02*
X81434797Y-65113166D01*
X81434797Y-65113166D02*
X81613369Y-65113166D01*
X81613369Y-65113166D02*
X81756226Y-65148880D01*
X81756226Y-65148880D02*
X81827654Y-65184595D01*
X81827654Y-65184595D02*
X81863369Y-65220309D01*
X81863369Y-65220309D02*
X81899083Y-65291737D01*
X81899083Y-65291737D02*
X81899083Y-65363166D01*
X81899083Y-65363166D02*
X81863369Y-65434595D01*
X81863369Y-65434595D02*
X81827654Y-65470309D01*
X81827654Y-65470309D02*
X81756226Y-65506023D01*
X81756226Y-65506023D02*
X81613369Y-65541737D01*
X81613369Y-65541737D02*
X81434797Y-65541737D01*
X81434797Y-65541737D02*
X81291940Y-65506023D01*
X81291940Y-65506023D02*
X81220511Y-65470309D01*
X81220511Y-65470309D02*
X81184797Y-65434595D01*
X81184797Y-65434595D02*
X81149083Y-65363166D01*
D11*
X54922857Y-46189895D02*
X54656190Y-45808942D01*
X54465714Y-46189895D02*
X54465714Y-45389895D01*
X54465714Y-45389895D02*
X54770476Y-45389895D01*
X54770476Y-45389895D02*
X54846666Y-45427990D01*
X54846666Y-45427990D02*
X54884761Y-45466085D01*
X54884761Y-45466085D02*
X54922857Y-45542276D01*
X54922857Y-45542276D02*
X54922857Y-45656561D01*
X54922857Y-45656561D02*
X54884761Y-45732752D01*
X54884761Y-45732752D02*
X54846666Y-45770847D01*
X54846666Y-45770847D02*
X54770476Y-45808942D01*
X54770476Y-45808942D02*
X54465714Y-45808942D01*
X55570476Y-46151800D02*
X55494285Y-46189895D01*
X55494285Y-46189895D02*
X55341904Y-46189895D01*
X55341904Y-46189895D02*
X55265714Y-46151800D01*
X55265714Y-46151800D02*
X55227618Y-46075609D01*
X55227618Y-46075609D02*
X55227618Y-45770847D01*
X55227618Y-45770847D02*
X55265714Y-45694657D01*
X55265714Y-45694657D02*
X55341904Y-45656561D01*
X55341904Y-45656561D02*
X55494285Y-45656561D01*
X55494285Y-45656561D02*
X55570476Y-45694657D01*
X55570476Y-45694657D02*
X55608571Y-45770847D01*
X55608571Y-45770847D02*
X55608571Y-45847038D01*
X55608571Y-45847038D02*
X55227618Y-45923228D01*
X56294285Y-46189895D02*
X56294285Y-45389895D01*
X56294285Y-46151800D02*
X56218094Y-46189895D01*
X56218094Y-46189895D02*
X56065713Y-46189895D01*
X56065713Y-46189895D02*
X55989523Y-46151800D01*
X55989523Y-46151800D02*
X55951428Y-46113704D01*
X55951428Y-46113704D02*
X55913332Y-46037514D01*
X55913332Y-46037514D02*
X55913332Y-45808942D01*
X55913332Y-45808942D02*
X55951428Y-45732752D01*
X55951428Y-45732752D02*
X55989523Y-45694657D01*
X55989523Y-45694657D02*
X56065713Y-45656561D01*
X56065713Y-45656561D02*
X56218094Y-45656561D01*
X56218094Y-45656561D02*
X56294285Y-45694657D01*
X54922857Y-55079895D02*
X54656190Y-54698942D01*
X54465714Y-55079895D02*
X54465714Y-54279895D01*
X54465714Y-54279895D02*
X54770476Y-54279895D01*
X54770476Y-54279895D02*
X54846666Y-54317990D01*
X54846666Y-54317990D02*
X54884761Y-54356085D01*
X54884761Y-54356085D02*
X54922857Y-54432276D01*
X54922857Y-54432276D02*
X54922857Y-54546561D01*
X54922857Y-54546561D02*
X54884761Y-54622752D01*
X54884761Y-54622752D02*
X54846666Y-54660847D01*
X54846666Y-54660847D02*
X54770476Y-54698942D01*
X54770476Y-54698942D02*
X54465714Y-54698942D01*
X55570476Y-55041800D02*
X55494285Y-55079895D01*
X55494285Y-55079895D02*
X55341904Y-55079895D01*
X55341904Y-55079895D02*
X55265714Y-55041800D01*
X55265714Y-55041800D02*
X55227618Y-54965609D01*
X55227618Y-54965609D02*
X55227618Y-54660847D01*
X55227618Y-54660847D02*
X55265714Y-54584657D01*
X55265714Y-54584657D02*
X55341904Y-54546561D01*
X55341904Y-54546561D02*
X55494285Y-54546561D01*
X55494285Y-54546561D02*
X55570476Y-54584657D01*
X55570476Y-54584657D02*
X55608571Y-54660847D01*
X55608571Y-54660847D02*
X55608571Y-54737038D01*
X55608571Y-54737038D02*
X55227618Y-54813228D01*
X56294285Y-55079895D02*
X56294285Y-54279895D01*
X56294285Y-55041800D02*
X56218094Y-55079895D01*
X56218094Y-55079895D02*
X56065713Y-55079895D01*
X56065713Y-55079895D02*
X55989523Y-55041800D01*
X55989523Y-55041800D02*
X55951428Y-55003704D01*
X55951428Y-55003704D02*
X55913332Y-54927514D01*
X55913332Y-54927514D02*
X55913332Y-54698942D01*
X55913332Y-54698942D02*
X55951428Y-54622752D01*
X55951428Y-54622752D02*
X55989523Y-54584657D01*
X55989523Y-54584657D02*
X56065713Y-54546561D01*
X56065713Y-54546561D02*
X56218094Y-54546561D01*
X56218094Y-54546561D02*
X56294285Y-54584657D01*
D14*
X57833333Y-84359580D02*
X57785714Y-84407200D01*
X57785714Y-84407200D02*
X57642857Y-84454819D01*
X57642857Y-84454819D02*
X57547619Y-84454819D01*
X57547619Y-84454819D02*
X57404762Y-84407200D01*
X57404762Y-84407200D02*
X57309524Y-84311961D01*
X57309524Y-84311961D02*
X57261905Y-84216723D01*
X57261905Y-84216723D02*
X57214286Y-84026247D01*
X57214286Y-84026247D02*
X57214286Y-83883390D01*
X57214286Y-83883390D02*
X57261905Y-83692914D01*
X57261905Y-83692914D02*
X57309524Y-83597676D01*
X57309524Y-83597676D02*
X57404762Y-83502438D01*
X57404762Y-83502438D02*
X57547619Y-83454819D01*
X57547619Y-83454819D02*
X57642857Y-83454819D01*
X57642857Y-83454819D02*
X57785714Y-83502438D01*
X57785714Y-83502438D02*
X57833333Y-83550057D01*
X58738095Y-83454819D02*
X58261905Y-83454819D01*
X58261905Y-83454819D02*
X58214286Y-83931009D01*
X58214286Y-83931009D02*
X58261905Y-83883390D01*
X58261905Y-83883390D02*
X58357143Y-83835771D01*
X58357143Y-83835771D02*
X58595238Y-83835771D01*
X58595238Y-83835771D02*
X58690476Y-83883390D01*
X58690476Y-83883390D02*
X58738095Y-83931009D01*
X58738095Y-83931009D02*
X58785714Y-84026247D01*
X58785714Y-84026247D02*
X58785714Y-84264342D01*
X58785714Y-84264342D02*
X58738095Y-84359580D01*
X58738095Y-84359580D02*
X58690476Y-84407200D01*
X58690476Y-84407200D02*
X58595238Y-84454819D01*
X58595238Y-84454819D02*
X58357143Y-84454819D01*
X58357143Y-84454819D02*
X58261905Y-84407200D01*
X58261905Y-84407200D02*
X58214286Y-84359580D01*
X76161278Y-71187516D02*
X75827945Y-70711325D01*
X75589850Y-71187516D02*
X75589850Y-70187516D01*
X75589850Y-70187516D02*
X75970802Y-70187516D01*
X75970802Y-70187516D02*
X76066040Y-70235135D01*
X76066040Y-70235135D02*
X76113659Y-70282754D01*
X76113659Y-70282754D02*
X76161278Y-70377992D01*
X76161278Y-70377992D02*
X76161278Y-70520849D01*
X76161278Y-70520849D02*
X76113659Y-70616087D01*
X76113659Y-70616087D02*
X76066040Y-70663706D01*
X76066040Y-70663706D02*
X75970802Y-70711325D01*
X75970802Y-70711325D02*
X75589850Y-70711325D01*
X77018421Y-70187516D02*
X76827945Y-70187516D01*
X76827945Y-70187516D02*
X76732707Y-70235135D01*
X76732707Y-70235135D02*
X76685088Y-70282754D01*
X76685088Y-70282754D02*
X76589850Y-70425611D01*
X76589850Y-70425611D02*
X76542231Y-70616087D01*
X76542231Y-70616087D02*
X76542231Y-70997039D01*
X76542231Y-70997039D02*
X76589850Y-71092277D01*
X76589850Y-71092277D02*
X76637469Y-71139897D01*
X76637469Y-71139897D02*
X76732707Y-71187516D01*
X76732707Y-71187516D02*
X76923183Y-71187516D01*
X76923183Y-71187516D02*
X77018421Y-71139897D01*
X77018421Y-71139897D02*
X77066040Y-71092277D01*
X77066040Y-71092277D02*
X77113659Y-70997039D01*
X77113659Y-70997039D02*
X77113659Y-70758944D01*
X77113659Y-70758944D02*
X77066040Y-70663706D01*
X77066040Y-70663706D02*
X77018421Y-70616087D01*
X77018421Y-70616087D02*
X76923183Y-70568468D01*
X76923183Y-70568468D02*
X76732707Y-70568468D01*
X76732707Y-70568468D02*
X76637469Y-70616087D01*
X76637469Y-70616087D02*
X76589850Y-70663706D01*
X76589850Y-70663706D02*
X76542231Y-70758944D01*
X86903458Y-63317212D02*
X86855839Y-63364832D01*
X86855839Y-63364832D02*
X86712982Y-63412451D01*
X86712982Y-63412451D02*
X86617744Y-63412451D01*
X86617744Y-63412451D02*
X86474887Y-63364832D01*
X86474887Y-63364832D02*
X86379649Y-63269593D01*
X86379649Y-63269593D02*
X86332030Y-63174355D01*
X86332030Y-63174355D02*
X86284411Y-62983879D01*
X86284411Y-62983879D02*
X86284411Y-62841022D01*
X86284411Y-62841022D02*
X86332030Y-62650546D01*
X86332030Y-62650546D02*
X86379649Y-62555308D01*
X86379649Y-62555308D02*
X86474887Y-62460070D01*
X86474887Y-62460070D02*
X86617744Y-62412451D01*
X86617744Y-62412451D02*
X86712982Y-62412451D01*
X86712982Y-62412451D02*
X86855839Y-62460070D01*
X86855839Y-62460070D02*
X86903458Y-62507689D01*
X87855839Y-63412451D02*
X87284411Y-63412451D01*
X87570125Y-63412451D02*
X87570125Y-62412451D01*
X87570125Y-62412451D02*
X87474887Y-62555308D01*
X87474887Y-62555308D02*
X87379649Y-62650546D01*
X87379649Y-62650546D02*
X87284411Y-62698165D01*
X88712982Y-62745784D02*
X88712982Y-63412451D01*
X88474887Y-62364832D02*
X88236792Y-63079117D01*
X88236792Y-63079117D02*
X88855839Y-63079117D01*
X67498168Y-72481426D02*
X67498168Y-71481426D01*
X67498168Y-71481426D02*
X67736263Y-71481426D01*
X67736263Y-71481426D02*
X67879120Y-71529045D01*
X67879120Y-71529045D02*
X67974358Y-71624283D01*
X67974358Y-71624283D02*
X68021977Y-71719521D01*
X68021977Y-71719521D02*
X68069596Y-71909997D01*
X68069596Y-71909997D02*
X68069596Y-72052854D01*
X68069596Y-72052854D02*
X68021977Y-72243330D01*
X68021977Y-72243330D02*
X67974358Y-72338568D01*
X67974358Y-72338568D02*
X67879120Y-72433807D01*
X67879120Y-72433807D02*
X67736263Y-72481426D01*
X67736263Y-72481426D02*
X67498168Y-72481426D01*
X68926739Y-71481426D02*
X68736263Y-71481426D01*
X68736263Y-71481426D02*
X68641025Y-71529045D01*
X68641025Y-71529045D02*
X68593406Y-71576664D01*
X68593406Y-71576664D02*
X68498168Y-71719521D01*
X68498168Y-71719521D02*
X68450549Y-71909997D01*
X68450549Y-71909997D02*
X68450549Y-72290949D01*
X68450549Y-72290949D02*
X68498168Y-72386187D01*
X68498168Y-72386187D02*
X68545787Y-72433807D01*
X68545787Y-72433807D02*
X68641025Y-72481426D01*
X68641025Y-72481426D02*
X68831501Y-72481426D01*
X68831501Y-72481426D02*
X68926739Y-72433807D01*
X68926739Y-72433807D02*
X68974358Y-72386187D01*
X68974358Y-72386187D02*
X69021977Y-72290949D01*
X69021977Y-72290949D02*
X69021977Y-72052854D01*
X69021977Y-72052854D02*
X68974358Y-71957616D01*
X68974358Y-71957616D02*
X68926739Y-71909997D01*
X68926739Y-71909997D02*
X68831501Y-71862378D01*
X68831501Y-71862378D02*
X68641025Y-71862378D01*
X68641025Y-71862378D02*
X68545787Y-71909997D01*
X68545787Y-71909997D02*
X68498168Y-71957616D01*
X68498168Y-71957616D02*
X68450549Y-72052854D01*
X72208419Y-91708818D02*
X72208419Y-92518341D01*
X72208419Y-92518341D02*
X72256038Y-92613579D01*
X72256038Y-92613579D02*
X72303657Y-92661199D01*
X72303657Y-92661199D02*
X72398895Y-92708818D01*
X72398895Y-92708818D02*
X72589371Y-92708818D01*
X72589371Y-92708818D02*
X72684609Y-92661199D01*
X72684609Y-92661199D02*
X72732228Y-92613579D01*
X72732228Y-92613579D02*
X72779847Y-92518341D01*
X72779847Y-92518341D02*
X72779847Y-91708818D01*
X73779847Y-92708818D02*
X73208419Y-92708818D01*
X73494133Y-92708818D02*
X73494133Y-91708818D01*
X73494133Y-91708818D02*
X73398895Y-91851675D01*
X73398895Y-91851675D02*
X73303657Y-91946913D01*
X73303657Y-91946913D02*
X73208419Y-91994532D01*
X79365127Y-76125559D02*
X79031794Y-75649368D01*
X78793699Y-76125559D02*
X78793699Y-75125559D01*
X78793699Y-75125559D02*
X79174651Y-75125559D01*
X79174651Y-75125559D02*
X79269889Y-75173178D01*
X79269889Y-75173178D02*
X79317508Y-75220797D01*
X79317508Y-75220797D02*
X79365127Y-75316035D01*
X79365127Y-75316035D02*
X79365127Y-75458892D01*
X79365127Y-75458892D02*
X79317508Y-75554130D01*
X79317508Y-75554130D02*
X79269889Y-75601749D01*
X79269889Y-75601749D02*
X79174651Y-75649368D01*
X79174651Y-75649368D02*
X78793699Y-75649368D01*
X80269889Y-75125559D02*
X79793699Y-75125559D01*
X79793699Y-75125559D02*
X79746080Y-75601749D01*
X79746080Y-75601749D02*
X79793699Y-75554130D01*
X79793699Y-75554130D02*
X79888937Y-75506511D01*
X79888937Y-75506511D02*
X80127032Y-75506511D01*
X80127032Y-75506511D02*
X80222270Y-75554130D01*
X80222270Y-75554130D02*
X80269889Y-75601749D01*
X80269889Y-75601749D02*
X80317508Y-75696987D01*
X80317508Y-75696987D02*
X80317508Y-75935082D01*
X80317508Y-75935082D02*
X80269889Y-76030320D01*
X80269889Y-76030320D02*
X80222270Y-76077940D01*
X80222270Y-76077940D02*
X80127032Y-76125559D01*
X80127032Y-76125559D02*
X79888937Y-76125559D01*
X79888937Y-76125559D02*
X79793699Y-76077940D01*
X79793699Y-76077940D02*
X79746080Y-76030320D01*
X88053519Y-67942580D02*
X87577328Y-68275913D01*
X88053519Y-68514008D02*
X87053519Y-68514008D01*
X87053519Y-68514008D02*
X87053519Y-68133056D01*
X87053519Y-68133056D02*
X87101138Y-68037818D01*
X87101138Y-68037818D02*
X87148757Y-67990199D01*
X87148757Y-67990199D02*
X87243995Y-67942580D01*
X87243995Y-67942580D02*
X87386852Y-67942580D01*
X87386852Y-67942580D02*
X87482090Y-67990199D01*
X87482090Y-67990199D02*
X87529709Y-68037818D01*
X87529709Y-68037818D02*
X87577328Y-68133056D01*
X87577328Y-68133056D02*
X87577328Y-68514008D01*
X87386852Y-67085437D02*
X88053519Y-67085437D01*
X87005900Y-67323532D02*
X87720185Y-67561627D01*
X87720185Y-67561627D02*
X87720185Y-66942580D01*
X69261905Y-47454819D02*
X69261905Y-46454819D01*
X69261905Y-46454819D02*
X69642857Y-46454819D01*
X69642857Y-46454819D02*
X69738095Y-46502438D01*
X69738095Y-46502438D02*
X69785714Y-46550057D01*
X69785714Y-46550057D02*
X69833333Y-46645295D01*
X69833333Y-46645295D02*
X69833333Y-46788152D01*
X69833333Y-46788152D02*
X69785714Y-46883390D01*
X69785714Y-46883390D02*
X69738095Y-46931009D01*
X69738095Y-46931009D02*
X69642857Y-46978628D01*
X69642857Y-46978628D02*
X69261905Y-46978628D01*
X70785714Y-47454819D02*
X70214286Y-47454819D01*
X70500000Y-47454819D02*
X70500000Y-46454819D01*
X70500000Y-46454819D02*
X70404762Y-46597676D01*
X70404762Y-46597676D02*
X70309524Y-46692914D01*
X70309524Y-46692914D02*
X70214286Y-46740533D01*
X68173268Y-77933489D02*
X68887553Y-77933489D01*
X68887553Y-77933489D02*
X69030410Y-77981108D01*
X69030410Y-77981108D02*
X69125649Y-78076346D01*
X69125649Y-78076346D02*
X69173268Y-78219203D01*
X69173268Y-78219203D02*
X69173268Y-78314441D01*
X68506601Y-77028727D02*
X69173268Y-77028727D01*
X68125649Y-77266822D02*
X68839934Y-77504917D01*
X68839934Y-77504917D02*
X68839934Y-76885870D01*
X73201659Y-80728808D02*
X73165945Y-80764523D01*
X73165945Y-80764523D02*
X73058802Y-80800237D01*
X73058802Y-80800237D02*
X72987374Y-80800237D01*
X72987374Y-80800237D02*
X72880231Y-80764523D01*
X72880231Y-80764523D02*
X72808802Y-80693094D01*
X72808802Y-80693094D02*
X72773088Y-80621665D01*
X72773088Y-80621665D02*
X72737374Y-80478808D01*
X72737374Y-80478808D02*
X72737374Y-80371665D01*
X72737374Y-80371665D02*
X72773088Y-80228808D01*
X72773088Y-80228808D02*
X72808802Y-80157380D01*
X72808802Y-80157380D02*
X72880231Y-80085951D01*
X72880231Y-80085951D02*
X72987374Y-80050237D01*
X72987374Y-80050237D02*
X73058802Y-80050237D01*
X73058802Y-80050237D02*
X73165945Y-80085951D01*
X73165945Y-80085951D02*
X73201659Y-80121665D01*
X73915945Y-80800237D02*
X73487374Y-80800237D01*
X73701659Y-80800237D02*
X73701659Y-80050237D01*
X73701659Y-80050237D02*
X73630231Y-80157380D01*
X73630231Y-80157380D02*
X73558802Y-80228808D01*
X73558802Y-80228808D02*
X73487374Y-80264523D01*
X74201660Y-80121665D02*
X74237374Y-80085951D01*
X74237374Y-80085951D02*
X74308803Y-80050237D01*
X74308803Y-80050237D02*
X74487374Y-80050237D01*
X74487374Y-80050237D02*
X74558803Y-80085951D01*
X74558803Y-80085951D02*
X74594517Y-80121665D01*
X74594517Y-80121665D02*
X74630231Y-80193094D01*
X74630231Y-80193094D02*
X74630231Y-80264523D01*
X74630231Y-80264523D02*
X74594517Y-80371665D01*
X74594517Y-80371665D02*
X74165945Y-80800237D01*
X74165945Y-80800237D02*
X74630231Y-80800237D01*
X58404761Y-66454819D02*
X58071428Y-65978628D01*
X57833333Y-66454819D02*
X57833333Y-65454819D01*
X57833333Y-65454819D02*
X58214285Y-65454819D01*
X58214285Y-65454819D02*
X58309523Y-65502438D01*
X58309523Y-65502438D02*
X58357142Y-65550057D01*
X58357142Y-65550057D02*
X58404761Y-65645295D01*
X58404761Y-65645295D02*
X58404761Y-65788152D01*
X58404761Y-65788152D02*
X58357142Y-65883390D01*
X58357142Y-65883390D02*
X58309523Y-65931009D01*
X58309523Y-65931009D02*
X58214285Y-65978628D01*
X58214285Y-65978628D02*
X57833333Y-65978628D01*
X58690476Y-65454819D02*
X59023809Y-66454819D01*
X59023809Y-66454819D02*
X59357142Y-65454819D01*
X60214285Y-66454819D02*
X59642857Y-66454819D01*
X59928571Y-66454819D02*
X59928571Y-65454819D01*
X59928571Y-65454819D02*
X59833333Y-65597676D01*
X59833333Y-65597676D02*
X59738095Y-65692914D01*
X59738095Y-65692914D02*
X59642857Y-65740533D01*
X50359580Y-94166666D02*
X50407200Y-94214285D01*
X50407200Y-94214285D02*
X50454819Y-94357142D01*
X50454819Y-94357142D02*
X50454819Y-94452380D01*
X50454819Y-94452380D02*
X50407200Y-94595237D01*
X50407200Y-94595237D02*
X50311961Y-94690475D01*
X50311961Y-94690475D02*
X50216723Y-94738094D01*
X50216723Y-94738094D02*
X50026247Y-94785713D01*
X50026247Y-94785713D02*
X49883390Y-94785713D01*
X49883390Y-94785713D02*
X49692914Y-94738094D01*
X49692914Y-94738094D02*
X49597676Y-94690475D01*
X49597676Y-94690475D02*
X49502438Y-94595237D01*
X49502438Y-94595237D02*
X49454819Y-94452380D01*
X49454819Y-94452380D02*
X49454819Y-94357142D01*
X49454819Y-94357142D02*
X49502438Y-94214285D01*
X49502438Y-94214285D02*
X49550057Y-94166666D01*
X50454819Y-93690475D02*
X50454819Y-93499999D01*
X50454819Y-93499999D02*
X50407200Y-93404761D01*
X50407200Y-93404761D02*
X50359580Y-93357142D01*
X50359580Y-93357142D02*
X50216723Y-93261904D01*
X50216723Y-93261904D02*
X50026247Y-93214285D01*
X50026247Y-93214285D02*
X49645295Y-93214285D01*
X49645295Y-93214285D02*
X49550057Y-93261904D01*
X49550057Y-93261904D02*
X49502438Y-93309523D01*
X49502438Y-93309523D02*
X49454819Y-93404761D01*
X49454819Y-93404761D02*
X49454819Y-93595237D01*
X49454819Y-93595237D02*
X49502438Y-93690475D01*
X49502438Y-93690475D02*
X49550057Y-93738094D01*
X49550057Y-93738094D02*
X49645295Y-93785713D01*
X49645295Y-93785713D02*
X49883390Y-93785713D01*
X49883390Y-93785713D02*
X49978628Y-93738094D01*
X49978628Y-93738094D02*
X50026247Y-93690475D01*
X50026247Y-93690475D02*
X50073866Y-93595237D01*
X50073866Y-93595237D02*
X50073866Y-93404761D01*
X50073866Y-93404761D02*
X50026247Y-93309523D01*
X50026247Y-93309523D02*
X49978628Y-93261904D01*
X49978628Y-93261904D02*
X49883390Y-93214285D01*
X54726972Y-73100293D02*
X54726972Y-72100293D01*
X54726972Y-72100293D02*
X54965067Y-72100293D01*
X54965067Y-72100293D02*
X55107924Y-72147912D01*
X55107924Y-72147912D02*
X55203162Y-72243150D01*
X55203162Y-72243150D02*
X55250781Y-72338388D01*
X55250781Y-72338388D02*
X55298400Y-72528864D01*
X55298400Y-72528864D02*
X55298400Y-72671721D01*
X55298400Y-72671721D02*
X55250781Y-72862197D01*
X55250781Y-72862197D02*
X55203162Y-72957435D01*
X55203162Y-72957435D02*
X55107924Y-73052674D01*
X55107924Y-73052674D02*
X54965067Y-73100293D01*
X54965067Y-73100293D02*
X54726972Y-73100293D01*
X56250781Y-73100293D02*
X55679353Y-73100293D01*
X55965067Y-73100293D02*
X55965067Y-72100293D01*
X55965067Y-72100293D02*
X55869829Y-72243150D01*
X55869829Y-72243150D02*
X55774591Y-72338388D01*
X55774591Y-72338388D02*
X55679353Y-72386007D01*
X51312851Y-47308111D02*
X51360471Y-47355730D01*
X51360471Y-47355730D02*
X51408090Y-47498587D01*
X51408090Y-47498587D02*
X51408090Y-47593825D01*
X51408090Y-47593825D02*
X51360471Y-47736682D01*
X51360471Y-47736682D02*
X51265232Y-47831920D01*
X51265232Y-47831920D02*
X51169994Y-47879539D01*
X51169994Y-47879539D02*
X50979518Y-47927158D01*
X50979518Y-47927158D02*
X50836661Y-47927158D01*
X50836661Y-47927158D02*
X50646185Y-47879539D01*
X50646185Y-47879539D02*
X50550947Y-47831920D01*
X50550947Y-47831920D02*
X50455709Y-47736682D01*
X50455709Y-47736682D02*
X50408090Y-47593825D01*
X50408090Y-47593825D02*
X50408090Y-47498587D01*
X50408090Y-47498587D02*
X50455709Y-47355730D01*
X50455709Y-47355730D02*
X50503328Y-47308111D01*
X50408090Y-46974777D02*
X50408090Y-46355730D01*
X50408090Y-46355730D02*
X50789042Y-46689063D01*
X50789042Y-46689063D02*
X50789042Y-46546206D01*
X50789042Y-46546206D02*
X50836661Y-46450968D01*
X50836661Y-46450968D02*
X50884280Y-46403349D01*
X50884280Y-46403349D02*
X50979518Y-46355730D01*
X50979518Y-46355730D02*
X51217613Y-46355730D01*
X51217613Y-46355730D02*
X51312851Y-46403349D01*
X51312851Y-46403349D02*
X51360471Y-46450968D01*
X51360471Y-46450968D02*
X51408090Y-46546206D01*
X51408090Y-46546206D02*
X51408090Y-46831920D01*
X51408090Y-46831920D02*
X51360471Y-46927158D01*
X51360471Y-46927158D02*
X51312851Y-46974777D01*
X62961367Y-91940352D02*
X63770890Y-91940352D01*
X63770890Y-91940352D02*
X63866128Y-91892733D01*
X63866128Y-91892733D02*
X63913748Y-91845114D01*
X63913748Y-91845114D02*
X63961367Y-91749876D01*
X63961367Y-91749876D02*
X63961367Y-91559400D01*
X63961367Y-91559400D02*
X63913748Y-91464162D01*
X63913748Y-91464162D02*
X63866128Y-91416543D01*
X63866128Y-91416543D02*
X63770890Y-91368924D01*
X63770890Y-91368924D02*
X62961367Y-91368924D01*
X62961367Y-90987971D02*
X62961367Y-90368924D01*
X62961367Y-90368924D02*
X63342319Y-90702257D01*
X63342319Y-90702257D02*
X63342319Y-90559400D01*
X63342319Y-90559400D02*
X63389938Y-90464162D01*
X63389938Y-90464162D02*
X63437557Y-90416543D01*
X63437557Y-90416543D02*
X63532795Y-90368924D01*
X63532795Y-90368924D02*
X63770890Y-90368924D01*
X63770890Y-90368924D02*
X63866128Y-90416543D01*
X63866128Y-90416543D02*
X63913748Y-90464162D01*
X63913748Y-90464162D02*
X63961367Y-90559400D01*
X63961367Y-90559400D02*
X63961367Y-90845114D01*
X63961367Y-90845114D02*
X63913748Y-90940352D01*
X63913748Y-90940352D02*
X63866128Y-90987971D01*
X85832618Y-76560428D02*
X85832618Y-77274713D01*
X85832618Y-77274713D02*
X85784999Y-77417570D01*
X85784999Y-77417570D02*
X85689761Y-77512809D01*
X85689761Y-77512809D02*
X85546904Y-77560428D01*
X85546904Y-77560428D02*
X85451666Y-77560428D01*
X86213571Y-76560428D02*
X86880237Y-76560428D01*
X86880237Y-76560428D02*
X86451666Y-77560428D01*
X50359580Y-89166666D02*
X50407200Y-89214285D01*
X50407200Y-89214285D02*
X50454819Y-89357142D01*
X50454819Y-89357142D02*
X50454819Y-89452380D01*
X50454819Y-89452380D02*
X50407200Y-89595237D01*
X50407200Y-89595237D02*
X50311961Y-89690475D01*
X50311961Y-89690475D02*
X50216723Y-89738094D01*
X50216723Y-89738094D02*
X50026247Y-89785713D01*
X50026247Y-89785713D02*
X49883390Y-89785713D01*
X49883390Y-89785713D02*
X49692914Y-89738094D01*
X49692914Y-89738094D02*
X49597676Y-89690475D01*
X49597676Y-89690475D02*
X49502438Y-89595237D01*
X49502438Y-89595237D02*
X49454819Y-89452380D01*
X49454819Y-89452380D02*
X49454819Y-89357142D01*
X49454819Y-89357142D02*
X49502438Y-89214285D01*
X49502438Y-89214285D02*
X49550057Y-89166666D01*
X49454819Y-88833332D02*
X49454819Y-88166666D01*
X49454819Y-88166666D02*
X50454819Y-88595237D01*
X74030380Y-57783403D02*
X74030380Y-57307213D01*
X74316095Y-57878641D02*
X73316095Y-57545308D01*
X73316095Y-57545308D02*
X74316095Y-57211975D01*
X74316095Y-56354832D02*
X74316095Y-56926260D01*
X74316095Y-56640546D02*
X73316095Y-56640546D01*
X73316095Y-56640546D02*
X73458952Y-56735784D01*
X73458952Y-56735784D02*
X73554190Y-56831022D01*
X73554190Y-56831022D02*
X73601809Y-56926260D01*
X54169104Y-79714285D02*
X54169104Y-79238095D01*
X54454819Y-79809523D02*
X53454819Y-79476190D01*
X53454819Y-79476190D02*
X54454819Y-79142857D01*
X53788152Y-78380952D02*
X54454819Y-78380952D01*
X53407200Y-78619047D02*
X54121485Y-78857142D01*
X54121485Y-78857142D02*
X54121485Y-78238095D01*
X74047905Y-85804285D02*
X74047905Y-85328095D01*
X74333620Y-85899523D02*
X73333620Y-85566190D01*
X73333620Y-85566190D02*
X74333620Y-85232857D01*
X73428858Y-84947142D02*
X73381239Y-84899523D01*
X73381239Y-84899523D02*
X73333620Y-84804285D01*
X73333620Y-84804285D02*
X73333620Y-84566190D01*
X73333620Y-84566190D02*
X73381239Y-84470952D01*
X73381239Y-84470952D02*
X73428858Y-84423333D01*
X73428858Y-84423333D02*
X73524096Y-84375714D01*
X73524096Y-84375714D02*
X73619334Y-84375714D01*
X73619334Y-84375714D02*
X73762191Y-84423333D01*
X73762191Y-84423333D02*
X74333620Y-84994761D01*
X74333620Y-84994761D02*
X74333620Y-84375714D01*
X54169104Y-65714285D02*
X54169104Y-65238095D01*
X54454819Y-65809523D02*
X53454819Y-65476190D01*
X53454819Y-65476190D02*
X54454819Y-65142857D01*
X53454819Y-64904761D02*
X53454819Y-64285714D01*
X53454819Y-64285714D02*
X53835771Y-64619047D01*
X53835771Y-64619047D02*
X53835771Y-64476190D01*
X53835771Y-64476190D02*
X53883390Y-64380952D01*
X53883390Y-64380952D02*
X53931009Y-64333333D01*
X53931009Y-64333333D02*
X54026247Y-64285714D01*
X54026247Y-64285714D02*
X54264342Y-64285714D01*
X54264342Y-64285714D02*
X54359580Y-64333333D01*
X54359580Y-64333333D02*
X54407200Y-64380952D01*
X54407200Y-64380952D02*
X54454819Y-64476190D01*
X54454819Y-64476190D02*
X54454819Y-64761904D01*
X54454819Y-64761904D02*
X54407200Y-64857142D01*
X54407200Y-64857142D02*
X54359580Y-64904761D01*
X82114819Y-78636666D02*
X81638628Y-78969999D01*
X82114819Y-79208094D02*
X81114819Y-79208094D01*
X81114819Y-79208094D02*
X81114819Y-78827142D01*
X81114819Y-78827142D02*
X81162438Y-78731904D01*
X81162438Y-78731904D02*
X81210057Y-78684285D01*
X81210057Y-78684285D02*
X81305295Y-78636666D01*
X81305295Y-78636666D02*
X81448152Y-78636666D01*
X81448152Y-78636666D02*
X81543390Y-78684285D01*
X81543390Y-78684285D02*
X81591009Y-78731904D01*
X81591009Y-78731904D02*
X81638628Y-78827142D01*
X81638628Y-78827142D02*
X81638628Y-79208094D01*
X81114819Y-78303332D02*
X81114819Y-77636666D01*
X81114819Y-77636666D02*
X82114819Y-78065237D01*
X60749498Y-70389380D02*
X60892355Y-70436999D01*
X60892355Y-70436999D02*
X61130450Y-70436999D01*
X61130450Y-70436999D02*
X61225688Y-70389380D01*
X61225688Y-70389380D02*
X61273307Y-70341760D01*
X61273307Y-70341760D02*
X61320926Y-70246522D01*
X61320926Y-70246522D02*
X61320926Y-70151284D01*
X61320926Y-70151284D02*
X61273307Y-70056046D01*
X61273307Y-70056046D02*
X61225688Y-70008427D01*
X61225688Y-70008427D02*
X61130450Y-69960808D01*
X61130450Y-69960808D02*
X60939974Y-69913189D01*
X60939974Y-69913189D02*
X60844736Y-69865570D01*
X60844736Y-69865570D02*
X60797117Y-69817951D01*
X60797117Y-69817951D02*
X60749498Y-69722713D01*
X60749498Y-69722713D02*
X60749498Y-69627475D01*
X60749498Y-69627475D02*
X60797117Y-69532237D01*
X60797117Y-69532237D02*
X60844736Y-69484618D01*
X60844736Y-69484618D02*
X60939974Y-69436999D01*
X60939974Y-69436999D02*
X61178069Y-69436999D01*
X61178069Y-69436999D02*
X61320926Y-69484618D01*
X61654260Y-69436999D02*
X61892355Y-70436999D01*
X61892355Y-70436999D02*
X62082831Y-69722713D01*
X62082831Y-69722713D02*
X62273307Y-70436999D01*
X62273307Y-70436999D02*
X62511403Y-69436999D01*
X63416164Y-70436999D02*
X62844736Y-70436999D01*
X63130450Y-70436999D02*
X63130450Y-69436999D01*
X63130450Y-69436999D02*
X63035212Y-69579856D01*
X63035212Y-69579856D02*
X62939974Y-69675094D01*
X62939974Y-69675094D02*
X62844736Y-69722713D01*
X78224819Y-91876168D02*
X79034342Y-91876168D01*
X79034342Y-91876168D02*
X79129580Y-91828549D01*
X79129580Y-91828549D02*
X79177200Y-91780930D01*
X79177200Y-91780930D02*
X79224819Y-91685692D01*
X79224819Y-91685692D02*
X79224819Y-91495216D01*
X79224819Y-91495216D02*
X79177200Y-91399978D01*
X79177200Y-91399978D02*
X79129580Y-91352359D01*
X79129580Y-91352359D02*
X79034342Y-91304740D01*
X79034342Y-91304740D02*
X78224819Y-91304740D01*
X78558152Y-90399978D02*
X79224819Y-90399978D01*
X78177200Y-90638073D02*
X78891485Y-90876168D01*
X78891485Y-90876168D02*
X78891485Y-90257121D01*
X68746128Y-89129166D02*
X68793748Y-89176785D01*
X68793748Y-89176785D02*
X68841367Y-89319642D01*
X68841367Y-89319642D02*
X68841367Y-89414880D01*
X68841367Y-89414880D02*
X68793748Y-89557737D01*
X68793748Y-89557737D02*
X68698509Y-89652975D01*
X68698509Y-89652975D02*
X68603271Y-89700594D01*
X68603271Y-89700594D02*
X68412795Y-89748213D01*
X68412795Y-89748213D02*
X68269938Y-89748213D01*
X68269938Y-89748213D02*
X68079462Y-89700594D01*
X68079462Y-89700594D02*
X67984224Y-89652975D01*
X67984224Y-89652975D02*
X67888986Y-89557737D01*
X67888986Y-89557737D02*
X67841367Y-89414880D01*
X67841367Y-89414880D02*
X67841367Y-89319642D01*
X67841367Y-89319642D02*
X67888986Y-89176785D01*
X67888986Y-89176785D02*
X67936605Y-89129166D01*
X67841367Y-88272023D02*
X67841367Y-88462499D01*
X67841367Y-88462499D02*
X67888986Y-88557737D01*
X67888986Y-88557737D02*
X67936605Y-88605356D01*
X67936605Y-88605356D02*
X68079462Y-88700594D01*
X68079462Y-88700594D02*
X68269938Y-88748213D01*
X68269938Y-88748213D02*
X68650890Y-88748213D01*
X68650890Y-88748213D02*
X68746128Y-88700594D01*
X68746128Y-88700594D02*
X68793748Y-88652975D01*
X68793748Y-88652975D02*
X68841367Y-88557737D01*
X68841367Y-88557737D02*
X68841367Y-88367261D01*
X68841367Y-88367261D02*
X68793748Y-88272023D01*
X68793748Y-88272023D02*
X68746128Y-88224404D01*
X68746128Y-88224404D02*
X68650890Y-88176785D01*
X68650890Y-88176785D02*
X68412795Y-88176785D01*
X68412795Y-88176785D02*
X68317557Y-88224404D01*
X68317557Y-88224404D02*
X68269938Y-88272023D01*
X68269938Y-88272023D02*
X68222319Y-88367261D01*
X68222319Y-88367261D02*
X68222319Y-88557737D01*
X68222319Y-88557737D02*
X68269938Y-88652975D01*
X68269938Y-88652975D02*
X68317557Y-88700594D01*
X68317557Y-88700594D02*
X68412795Y-88748213D01*
X65833333Y-92679580D02*
X65785714Y-92727200D01*
X65785714Y-92727200D02*
X65642857Y-92774819D01*
X65642857Y-92774819D02*
X65547619Y-92774819D01*
X65547619Y-92774819D02*
X65404762Y-92727200D01*
X65404762Y-92727200D02*
X65309524Y-92631961D01*
X65309524Y-92631961D02*
X65261905Y-92536723D01*
X65261905Y-92536723D02*
X65214286Y-92346247D01*
X65214286Y-92346247D02*
X65214286Y-92203390D01*
X65214286Y-92203390D02*
X65261905Y-92012914D01*
X65261905Y-92012914D02*
X65309524Y-91917676D01*
X65309524Y-91917676D02*
X65404762Y-91822438D01*
X65404762Y-91822438D02*
X65547619Y-91774819D01*
X65547619Y-91774819D02*
X65642857Y-91774819D01*
X65642857Y-91774819D02*
X65785714Y-91822438D01*
X65785714Y-91822438D02*
X65833333Y-91870057D01*
X66404762Y-92203390D02*
X66309524Y-92155771D01*
X66309524Y-92155771D02*
X66261905Y-92108152D01*
X66261905Y-92108152D02*
X66214286Y-92012914D01*
X66214286Y-92012914D02*
X66214286Y-91965295D01*
X66214286Y-91965295D02*
X66261905Y-91870057D01*
X66261905Y-91870057D02*
X66309524Y-91822438D01*
X66309524Y-91822438D02*
X66404762Y-91774819D01*
X66404762Y-91774819D02*
X66595238Y-91774819D01*
X66595238Y-91774819D02*
X66690476Y-91822438D01*
X66690476Y-91822438D02*
X66738095Y-91870057D01*
X66738095Y-91870057D02*
X66785714Y-91965295D01*
X66785714Y-91965295D02*
X66785714Y-92012914D01*
X66785714Y-92012914D02*
X66738095Y-92108152D01*
X66738095Y-92108152D02*
X66690476Y-92155771D01*
X66690476Y-92155771D02*
X66595238Y-92203390D01*
X66595238Y-92203390D02*
X66404762Y-92203390D01*
X66404762Y-92203390D02*
X66309524Y-92251009D01*
X66309524Y-92251009D02*
X66261905Y-92298628D01*
X66261905Y-92298628D02*
X66214286Y-92393866D01*
X66214286Y-92393866D02*
X66214286Y-92584342D01*
X66214286Y-92584342D02*
X66261905Y-92679580D01*
X66261905Y-92679580D02*
X66309524Y-92727200D01*
X66309524Y-92727200D02*
X66404762Y-92774819D01*
X66404762Y-92774819D02*
X66595238Y-92774819D01*
X66595238Y-92774819D02*
X66690476Y-92727200D01*
X66690476Y-92727200D02*
X66738095Y-92679580D01*
X66738095Y-92679580D02*
X66785714Y-92584342D01*
X66785714Y-92584342D02*
X66785714Y-92393866D01*
X66785714Y-92393866D02*
X66738095Y-92298628D01*
X66738095Y-92298628D02*
X66690476Y-92251009D01*
X66690476Y-92251009D02*
X66595238Y-92203390D01*
X63851683Y-86608683D02*
X63518350Y-86132492D01*
X63280255Y-86608683D02*
X63280255Y-85608683D01*
X63280255Y-85608683D02*
X63661207Y-85608683D01*
X63661207Y-85608683D02*
X63756445Y-85656302D01*
X63756445Y-85656302D02*
X63804064Y-85703921D01*
X63804064Y-85703921D02*
X63851683Y-85799159D01*
X63851683Y-85799159D02*
X63851683Y-85942016D01*
X63851683Y-85942016D02*
X63804064Y-86037254D01*
X63804064Y-86037254D02*
X63756445Y-86084873D01*
X63756445Y-86084873D02*
X63661207Y-86132492D01*
X63661207Y-86132492D02*
X63280255Y-86132492D01*
X64137398Y-85608683D02*
X64470731Y-86608683D01*
X64470731Y-86608683D02*
X64804064Y-85608683D01*
X65089779Y-85703921D02*
X65137398Y-85656302D01*
X65137398Y-85656302D02*
X65232636Y-85608683D01*
X65232636Y-85608683D02*
X65470731Y-85608683D01*
X65470731Y-85608683D02*
X65565969Y-85656302D01*
X65565969Y-85656302D02*
X65613588Y-85703921D01*
X65613588Y-85703921D02*
X65661207Y-85799159D01*
X65661207Y-85799159D02*
X65661207Y-85894397D01*
X65661207Y-85894397D02*
X65613588Y-86037254D01*
X65613588Y-86037254D02*
X65042160Y-86608683D01*
X65042160Y-86608683D02*
X65661207Y-86608683D01*
X84243095Y-71454819D02*
X84243095Y-72264342D01*
X84243095Y-72264342D02*
X84290714Y-72359580D01*
X84290714Y-72359580D02*
X84338333Y-72407200D01*
X84338333Y-72407200D02*
X84433571Y-72454819D01*
X84433571Y-72454819D02*
X84624047Y-72454819D01*
X84624047Y-72454819D02*
X84719285Y-72407200D01*
X84719285Y-72407200D02*
X84766904Y-72359580D01*
X84766904Y-72359580D02*
X84814523Y-72264342D01*
X84814523Y-72264342D02*
X84814523Y-71454819D01*
X85766904Y-71454819D02*
X85290714Y-71454819D01*
X85290714Y-71454819D02*
X85243095Y-71931009D01*
X85243095Y-71931009D02*
X85290714Y-71883390D01*
X85290714Y-71883390D02*
X85385952Y-71835771D01*
X85385952Y-71835771D02*
X85624047Y-71835771D01*
X85624047Y-71835771D02*
X85719285Y-71883390D01*
X85719285Y-71883390D02*
X85766904Y-71931009D01*
X85766904Y-71931009D02*
X85814523Y-72026247D01*
X85814523Y-72026247D02*
X85814523Y-72264342D01*
X85814523Y-72264342D02*
X85766904Y-72359580D01*
X85766904Y-72359580D02*
X85719285Y-72407200D01*
X85719285Y-72407200D02*
X85624047Y-72454819D01*
X85624047Y-72454819D02*
X85385952Y-72454819D01*
X85385952Y-72454819D02*
X85290714Y-72407200D01*
X85290714Y-72407200D02*
X85243095Y-72359580D01*
X58201254Y-91708818D02*
X58201254Y-92518341D01*
X58201254Y-92518341D02*
X58248873Y-92613579D01*
X58248873Y-92613579D02*
X58296492Y-92661199D01*
X58296492Y-92661199D02*
X58391730Y-92708818D01*
X58391730Y-92708818D02*
X58582206Y-92708818D01*
X58582206Y-92708818D02*
X58677444Y-92661199D01*
X58677444Y-92661199D02*
X58725063Y-92613579D01*
X58725063Y-92613579D02*
X58772682Y-92518341D01*
X58772682Y-92518341D02*
X58772682Y-91708818D01*
X59201254Y-91804056D02*
X59248873Y-91756437D01*
X59248873Y-91756437D02*
X59344111Y-91708818D01*
X59344111Y-91708818D02*
X59582206Y-91708818D01*
X59582206Y-91708818D02*
X59677444Y-91756437D01*
X59677444Y-91756437D02*
X59725063Y-91804056D01*
X59725063Y-91804056D02*
X59772682Y-91899294D01*
X59772682Y-91899294D02*
X59772682Y-91994532D01*
X59772682Y-91994532D02*
X59725063Y-92137389D01*
X59725063Y-92137389D02*
X59153635Y-92708818D01*
X59153635Y-92708818D02*
X59772682Y-92708818D01*
X54454819Y-58333333D02*
X55169104Y-58333333D01*
X55169104Y-58333333D02*
X55311961Y-58380952D01*
X55311961Y-58380952D02*
X55407200Y-58476190D01*
X55407200Y-58476190D02*
X55454819Y-58619047D01*
X55454819Y-58619047D02*
X55454819Y-58714285D01*
X55454819Y-57333333D02*
X55454819Y-57904761D01*
X55454819Y-57619047D02*
X54454819Y-57619047D01*
X54454819Y-57619047D02*
X54597676Y-57714285D01*
X54597676Y-57714285D02*
X54692914Y-57809523D01*
X54692914Y-57809523D02*
X54740533Y-57904761D01*
X80148281Y-69055476D02*
X80195901Y-69103095D01*
X80195901Y-69103095D02*
X80243520Y-69245952D01*
X80243520Y-69245952D02*
X80243520Y-69341190D01*
X80243520Y-69341190D02*
X80195901Y-69484047D01*
X80195901Y-69484047D02*
X80100662Y-69579285D01*
X80100662Y-69579285D02*
X80005424Y-69626904D01*
X80005424Y-69626904D02*
X79814948Y-69674523D01*
X79814948Y-69674523D02*
X79672091Y-69674523D01*
X79672091Y-69674523D02*
X79481615Y-69626904D01*
X79481615Y-69626904D02*
X79386377Y-69579285D01*
X79386377Y-69579285D02*
X79291139Y-69484047D01*
X79291139Y-69484047D02*
X79243520Y-69341190D01*
X79243520Y-69341190D02*
X79243520Y-69245952D01*
X79243520Y-69245952D02*
X79291139Y-69103095D01*
X79291139Y-69103095D02*
X79338758Y-69055476D01*
X80243520Y-68103095D02*
X80243520Y-68674523D01*
X80243520Y-68388809D02*
X79243520Y-68388809D01*
X79243520Y-68388809D02*
X79386377Y-68484047D01*
X79386377Y-68484047D02*
X79481615Y-68579285D01*
X79481615Y-68579285D02*
X79529234Y-68674523D01*
X80243520Y-67150714D02*
X80243520Y-67722142D01*
X80243520Y-67436428D02*
X79243520Y-67436428D01*
X79243520Y-67436428D02*
X79386377Y-67531666D01*
X79386377Y-67531666D02*
X79481615Y-67626904D01*
X79481615Y-67626904D02*
X79529234Y-67722142D01*
X68454819Y-63030916D02*
X69169104Y-63030916D01*
X69169104Y-63030916D02*
X69311961Y-63078535D01*
X69311961Y-63078535D02*
X69407200Y-63173773D01*
X69407200Y-63173773D02*
X69454819Y-63316630D01*
X69454819Y-63316630D02*
X69454819Y-63411868D01*
X68454819Y-62649963D02*
X68454819Y-62030916D01*
X68454819Y-62030916D02*
X68835771Y-62364249D01*
X68835771Y-62364249D02*
X68835771Y-62221392D01*
X68835771Y-62221392D02*
X68883390Y-62126154D01*
X68883390Y-62126154D02*
X68931009Y-62078535D01*
X68931009Y-62078535D02*
X69026247Y-62030916D01*
X69026247Y-62030916D02*
X69264342Y-62030916D01*
X69264342Y-62030916D02*
X69359580Y-62078535D01*
X69359580Y-62078535D02*
X69407200Y-62126154D01*
X69407200Y-62126154D02*
X69454819Y-62221392D01*
X69454819Y-62221392D02*
X69454819Y-62507106D01*
X69454819Y-62507106D02*
X69407200Y-62602344D01*
X69407200Y-62602344D02*
X69359580Y-62649963D01*
X54454819Y-76333333D02*
X55169104Y-76333333D01*
X55169104Y-76333333D02*
X55311961Y-76380952D01*
X55311961Y-76380952D02*
X55407200Y-76476190D01*
X55407200Y-76476190D02*
X55454819Y-76619047D01*
X55454819Y-76619047D02*
X55454819Y-76714285D01*
X54550057Y-75904761D02*
X54502438Y-75857142D01*
X54502438Y-75857142D02*
X54454819Y-75761904D01*
X54454819Y-75761904D02*
X54454819Y-75523809D01*
X54454819Y-75523809D02*
X54502438Y-75428571D01*
X54502438Y-75428571D02*
X54550057Y-75380952D01*
X54550057Y-75380952D02*
X54645295Y-75333333D01*
X54645295Y-75333333D02*
X54740533Y-75333333D01*
X54740533Y-75333333D02*
X54883390Y-75380952D01*
X54883390Y-75380952D02*
X55454819Y-75952380D01*
X55454819Y-75952380D02*
X55454819Y-75333333D01*
X49454819Y-52738094D02*
X48454819Y-52738094D01*
X48454819Y-52738094D02*
X48454819Y-52499999D01*
X48454819Y-52499999D02*
X48502438Y-52357142D01*
X48502438Y-52357142D02*
X48597676Y-52261904D01*
X48597676Y-52261904D02*
X48692914Y-52214285D01*
X48692914Y-52214285D02*
X48883390Y-52166666D01*
X48883390Y-52166666D02*
X49026247Y-52166666D01*
X49026247Y-52166666D02*
X49216723Y-52214285D01*
X49216723Y-52214285D02*
X49311961Y-52261904D01*
X49311961Y-52261904D02*
X49407200Y-52357142D01*
X49407200Y-52357142D02*
X49454819Y-52499999D01*
X49454819Y-52499999D02*
X49454819Y-52738094D01*
X48788152Y-51309523D02*
X49454819Y-51309523D01*
X48407200Y-51547618D02*
X49121485Y-51785713D01*
X49121485Y-51785713D02*
X49121485Y-51166666D01*
D15*
%TO.C,C10*%
X78742523Y-65305000D02*
X79265027Y-65305000D01*
X78742523Y-66775000D02*
X79265027Y-66775000D01*
%TO.C,P2*%
X54050000Y-47670000D02*
X54050000Y-52870000D01*
D11*
X56650000Y-54080000D02*
X54110000Y-54080000D01*
X54110000Y-46460000D01*
X56650000Y-46460000D01*
X56650000Y-54080000D01*
G36*
X56650000Y-54080000D02*
G01*
X54110000Y-54080000D01*
X54110000Y-46460000D01*
X56650000Y-46460000D01*
X56650000Y-54080000D01*
G37*
D15*
%TO.C,C5*%
X58742201Y-84365156D02*
X58219697Y-84365156D01*
X58742201Y-85835156D02*
X58219697Y-85835156D01*
%TO.C,R6*%
X78135670Y-71543105D02*
X77681542Y-71543105D01*
X78135670Y-73013105D02*
X77681542Y-73013105D01*
%TO.C,C14*%
X86621252Y-64265000D02*
X86098748Y-64265000D01*
X86621252Y-65735000D02*
X86098748Y-65735000D01*
%TO.C,D6*%
X68381500Y-68398025D02*
X68381500Y-68554025D01*
X68381500Y-70714025D02*
X68381500Y-70870025D01*
X68381500Y-68398509D02*
G75*
G02*
X71613835Y-68555417I1560000J-1235516D01*
G01*
X68900539Y-68554025D02*
G75*
G02*
X70982630Y-68554188I1040961J-1080000D01*
G01*
X70982630Y-70713862D02*
G75*
G02*
X68900539Y-70714025I-1041130J1079837D01*
G01*
X71613835Y-70712633D02*
G75*
G02*
X68381500Y-70869541I-1672335J1078608D01*
G01*
%TO.C,U1*%
X67850324Y-91253999D02*
X67850324Y-86612999D01*
X71119324Y-91253999D02*
X71119324Y-89743999D01*
X74820324Y-91253999D02*
X74820324Y-89743999D01*
X78090324Y-86612999D02*
X67850324Y-86612999D01*
X78090324Y-89743999D02*
X67850324Y-89743999D01*
X78090324Y-91253999D02*
X67850324Y-91253999D01*
X78090324Y-91253999D02*
X78090324Y-86612999D01*
%TO.C,R5*%
X78122642Y-73564061D02*
X77668514Y-73564061D01*
X78122642Y-75034061D02*
X77668514Y-75034061D01*
%TO.C,R4*%
X84840433Y-66386656D02*
X85294561Y-66386656D01*
X84840433Y-67856656D02*
X85294561Y-67856656D01*
%TO.C,J5*%
X76142723Y-62790000D02*
X76142723Y-61460000D01*
X77472723Y-62790000D02*
X76142723Y-62790000D01*
X78742723Y-60130000D02*
X83882723Y-60130000D01*
X78742723Y-62790000D02*
X78742723Y-60130000D01*
X78742723Y-62790000D02*
X83882723Y-62790000D01*
X83882723Y-62790000D02*
X83882723Y-60130000D01*
%TO.C,P1*%
X62630000Y-46040000D02*
X65040000Y-46040000D01*
X62630000Y-48450000D02*
X62630000Y-46040000D01*
X62930000Y-46340000D02*
X62930000Y-48870000D01*
X62930000Y-48870000D02*
X63060000Y-48870000D01*
X62930000Y-50680000D02*
X62930000Y-51660000D01*
X62930000Y-51660000D02*
X64160000Y-51660000D01*
X63060000Y-48870000D02*
X63060000Y-50680000D01*
X63060000Y-50680000D02*
X62930000Y-50680000D01*
X64160000Y-51660000D02*
X64160000Y-53160000D01*
X64160000Y-53160000D02*
X72000000Y-53160000D01*
X72000000Y-51660000D02*
X73230000Y-51660000D01*
X72000000Y-53160000D02*
X72000000Y-51660000D01*
X73100000Y-48870000D02*
X73230000Y-48870000D01*
X73100000Y-50680000D02*
X73100000Y-48870000D01*
X73230000Y-46340000D02*
X62930000Y-46340000D01*
X73230000Y-48870000D02*
X73230000Y-46340000D01*
X73230000Y-50680000D02*
X73100000Y-50680000D01*
X73230000Y-51660000D02*
X73230000Y-50680000D01*
D11*
%TO.C,J4*%
X58518449Y-76600156D02*
X58518449Y-77600156D01*
X58518449Y-76600156D02*
X59518449Y-76600156D01*
X58518449Y-85100156D02*
X58518449Y-84100156D01*
X58518449Y-85100156D02*
X59518449Y-85100156D01*
X68718449Y-76600156D02*
X67718449Y-76600156D01*
X68718449Y-76600156D02*
X68718449Y-77600156D01*
X68718449Y-85100156D02*
X67718449Y-85100156D01*
X68718449Y-85100156D02*
X68718449Y-84100156D01*
D15*
%TO.C,C12*%
X75465000Y-78768752D02*
X75465000Y-78246248D01*
X76935000Y-78768752D02*
X76935000Y-78246248D01*
%TO.C,RV1*%
X58218260Y-55715027D02*
X58218260Y-65455027D01*
X61278260Y-55715027D02*
X58218260Y-55715027D01*
X61278260Y-65455027D02*
X58218260Y-65455027D01*
X69808260Y-55715027D02*
X65088260Y-55715027D01*
X69808260Y-55715027D02*
X69808260Y-57205027D01*
X69808260Y-58925027D02*
X69808260Y-59755027D01*
X69808260Y-61375027D02*
X69808260Y-61905027D01*
X69808260Y-64275027D02*
X69808260Y-65455027D01*
X69808260Y-65465027D02*
X65088260Y-65465027D01*
%TO.C,C9*%
X52996595Y-93233688D02*
X52474091Y-93233688D01*
X52996595Y-94703688D02*
X52474091Y-94703688D01*
%TO.C,D1*%
X50684020Y-71500861D02*
X50684020Y-73420861D01*
X50684020Y-73420861D02*
X53544020Y-73420861D01*
X53544020Y-71500861D02*
X50684020Y-71500861D01*
%TO.C,C3*%
X51060534Y-47636528D02*
X51060534Y-51721528D01*
X52930534Y-47636528D02*
X51060534Y-47636528D01*
X52930534Y-51721528D02*
X52930534Y-47636528D01*
%TO.C,U3*%
X55596548Y-89328448D02*
X55596548Y-93088448D01*
X55596548Y-93088448D02*
X56856548Y-93088448D01*
X62416548Y-89328448D02*
X62416548Y-93088448D01*
X62416548Y-93088448D02*
X61156548Y-93088448D01*
X62646548Y-88288448D02*
X62316548Y-88048448D01*
X62646548Y-87808448D01*
X62646548Y-88288448D01*
G36*
X62646548Y-88288448D02*
G01*
X62316548Y-88048448D01*
X62646548Y-87808448D01*
X62646548Y-88288448D01*
G37*
%TO.C,P9*%
X83757855Y-45660000D02*
X85087855Y-45660000D01*
X83757855Y-46990000D02*
X83757855Y-45660000D01*
X83757855Y-48260000D02*
X83757855Y-50860000D01*
X83757855Y-48260000D02*
X86417855Y-48260000D01*
X83757855Y-50860000D02*
X86417855Y-50860000D01*
X86417855Y-48260000D02*
X86417855Y-50860000D01*
%TO.C,J7*%
X82437376Y-75786295D02*
X82437376Y-81346295D01*
X82437376Y-75786295D02*
X90257376Y-75786295D01*
X82437376Y-81346295D02*
X90257376Y-81346295D01*
X90257376Y-75786295D02*
X90257376Y-81346295D01*
X83165267Y-79854037D02*
G75*
G02*
X83165376Y-78638295I1432109J607742D01*
G01*
X83989634Y-77814186D02*
G75*
G02*
X85205376Y-77814295I607742J-1432109D01*
G01*
X84624387Y-80801788D02*
G75*
G02*
X83989376Y-80678295I-27013J1555481D01*
G01*
X85204963Y-80677680D02*
G75*
G02*
X84597376Y-80801295I-607587J1431385D01*
G01*
X86029485Y-78638553D02*
G75*
G02*
X86029376Y-79854295I-1432112J-607743D01*
G01*
X89652376Y-79246295D02*
G75*
G02*
X86542376Y-79246295I-1555000J0D01*
G01*
X86542376Y-79246295D02*
G75*
G02*
X89652376Y-79246295I1555000J0D01*
G01*
%TO.C,P8*%
X81214110Y-90458250D02*
X82544110Y-90458250D01*
X81214110Y-91788250D02*
X81214110Y-90458250D01*
X81214110Y-93058250D02*
X81214110Y-95658250D01*
X81214110Y-93058250D02*
X83874110Y-93058250D01*
X81214110Y-95658250D02*
X83874110Y-95658250D01*
X83874110Y-93058250D02*
X83874110Y-95658250D01*
%TO.C,P10*%
X83760000Y-90464963D02*
X85090000Y-90464963D01*
X83760000Y-91794963D02*
X83760000Y-90464963D01*
X83760000Y-93064963D02*
X83760000Y-95664963D01*
X83760000Y-93064963D02*
X86420000Y-93064963D01*
X83760000Y-95664963D02*
X86420000Y-95664963D01*
X86420000Y-93064963D02*
X86420000Y-95664963D01*
%TO.C,C7*%
X51265000Y-89738748D02*
X51265000Y-90261252D01*
X52735000Y-89738748D02*
X52735000Y-90261252D01*
%TO.C,A1*%
X74861276Y-58399118D02*
X74861276Y-57069118D01*
X76191276Y-58399118D02*
X74861276Y-58399118D01*
X77461276Y-55739118D02*
X87681276Y-55739118D01*
X77461276Y-58399118D02*
X77461276Y-55739118D01*
X77461276Y-58399118D02*
X87681276Y-58399118D01*
X87681276Y-58399118D02*
X87681276Y-55739118D01*
%TO.C,P7*%
X81211276Y-45670868D02*
X82541276Y-45670868D01*
X81211276Y-47000868D02*
X81211276Y-45670868D01*
X81211276Y-48270868D02*
X81211276Y-50870868D01*
X81211276Y-48270868D02*
X83871276Y-48270868D01*
X81211276Y-50870868D02*
X83871276Y-50870868D01*
X83871276Y-48270868D02*
X83871276Y-50870868D01*
%TO.C,A4*%
X48670000Y-74384262D02*
X50000000Y-74384262D01*
X48670000Y-75714262D02*
X48670000Y-74384262D01*
X48670000Y-76984262D02*
X48670000Y-87204262D01*
X48670000Y-76984262D02*
X51330000Y-76984262D01*
X48670000Y-87204262D02*
X51330000Y-87204262D01*
X51330000Y-76984262D02*
X51330000Y-87204262D01*
%TO.C,A2*%
X74878801Y-86420000D02*
X74878801Y-85090000D01*
X76208801Y-86420000D02*
X74878801Y-86420000D01*
X77478801Y-83760000D02*
X87698801Y-83760000D01*
X77478801Y-86420000D02*
X77478801Y-83760000D01*
X77478801Y-86420000D02*
X87698801Y-86420000D01*
X87698801Y-86420000D02*
X87698801Y-83760000D01*
%TO.C,A3*%
X48683691Y-56609292D02*
X50013691Y-56609292D01*
X48683691Y-57939292D02*
X48683691Y-56609292D01*
X48683691Y-59209292D02*
X48683691Y-69429292D01*
X48683691Y-59209292D02*
X51343691Y-59209292D01*
X48683691Y-69429292D02*
X51343691Y-69429292D01*
X51343691Y-59209292D02*
X51343691Y-69429292D01*
%TO.C,R7*%
X79275000Y-78242936D02*
X79275000Y-78697064D01*
X80745000Y-78242936D02*
X80745000Y-78697064D01*
%TO.C,SW1*%
X57482831Y-67874680D02*
X58682831Y-67874680D01*
X57482831Y-72074680D02*
X57482831Y-67874680D01*
X58682831Y-72074680D02*
X57482831Y-72074680D01*
X66332831Y-72074680D02*
X66682831Y-72074680D01*
X66682831Y-67874680D02*
X65482831Y-67874680D01*
X66682831Y-72074680D02*
X66682831Y-67874680D01*
X65582831Y-72554680D02*
X65582831Y-72074680D01*
X66062831Y-72074680D01*
X65582831Y-72554680D01*
G36*
X65582831Y-72554680D02*
G01*
X65582831Y-72074680D01*
X66062831Y-72074680D01*
X65582831Y-72554680D01*
G37*
%TO.C,U4*%
X69590000Y-89264264D02*
X69590000Y-93024264D01*
X69590000Y-93024264D02*
X70850000Y-93024264D01*
X76410000Y-89264264D02*
X76410000Y-93024264D01*
X76410000Y-93024264D02*
X75150000Y-93024264D01*
X76640000Y-88224264D02*
X76310000Y-87984264D01*
X76640000Y-87744264D01*
X76640000Y-88224264D01*
G36*
X76640000Y-88224264D02*
G01*
X76310000Y-87984264D01*
X76640000Y-87744264D01*
X76640000Y-88224264D01*
G37*
%TO.C,C6*%
X65971548Y-88701248D02*
X65971548Y-89223752D01*
X67441548Y-88701248D02*
X67441548Y-89223752D01*
%TO.C,C8*%
X65738748Y-93265000D02*
X66261252Y-93265000D01*
X65738748Y-94735000D02*
X66261252Y-94735000D01*
%TO.C,RV2*%
X58686922Y-74143864D02*
X58686922Y-83883864D01*
X61746922Y-74143864D02*
X58686922Y-74143864D01*
X61746922Y-83883864D02*
X58686922Y-83883864D01*
X70276922Y-74143864D02*
X65556922Y-74143864D01*
X70276922Y-74143864D02*
X70276922Y-75633864D01*
X70276922Y-77353864D02*
X70276922Y-78183864D01*
X70276922Y-79803864D02*
X70276922Y-80333864D01*
X70276922Y-82703864D02*
X70276922Y-83883864D01*
X70276922Y-83893864D02*
X65556922Y-83893864D01*
%TO.C,U5*%
X85005000Y-69602280D02*
X83055000Y-69602280D01*
X85005000Y-69602280D02*
X86955000Y-69602280D01*
X85005000Y-74722280D02*
X83055000Y-74722280D01*
X85005000Y-74722280D02*
X86955000Y-74722280D01*
X82305000Y-69697280D02*
X82065000Y-69367280D01*
X82545000Y-69367280D01*
X82305000Y-69697280D01*
G36*
X82305000Y-69697280D02*
G01*
X82065000Y-69367280D01*
X82545000Y-69367280D01*
X82305000Y-69697280D01*
G37*
%TO.C,U2*%
X53843159Y-91253999D02*
X53843159Y-86612999D01*
X57112159Y-91253999D02*
X57112159Y-89743999D01*
X60813159Y-91253999D02*
X60813159Y-89743999D01*
X64083159Y-86612999D02*
X53843159Y-86612999D01*
X64083159Y-89743999D02*
X53843159Y-89743999D01*
X64083159Y-91253999D02*
X53843159Y-91253999D01*
X64083159Y-91253999D02*
X64083159Y-86612999D01*
%TO.C,J1*%
X49891109Y-57781364D02*
X53891109Y-57781364D01*
X49891109Y-61843364D02*
X49891109Y-57781364D01*
X53891109Y-56763364D02*
X56297109Y-56763364D01*
X53891109Y-57781364D02*
X53891109Y-56763364D01*
X53891109Y-61843364D02*
X49891109Y-61843364D01*
X53891109Y-62979364D02*
X53891109Y-61843364D01*
X54773109Y-62983874D02*
X53891109Y-62979364D01*
X60361109Y-56763364D02*
X65441109Y-56763364D01*
X61377109Y-62986129D02*
X58329109Y-62983874D01*
X65475972Y-56763364D02*
X65475972Y-62983874D01*
X65475972Y-62983874D02*
X64593972Y-62979364D01*
%TO.C,C11*%
X77208748Y-67845000D02*
X77731252Y-67845000D01*
X77208748Y-69315000D02*
X77731252Y-69315000D01*
D11*
%TO.C,J3*%
X58092981Y-58197583D02*
X58092981Y-59197583D01*
X58092981Y-58197583D02*
X59092981Y-58197583D01*
X58092981Y-66697583D02*
X58092981Y-65697583D01*
X58092981Y-66697583D02*
X59092981Y-66697583D01*
X68292981Y-58197583D02*
X67292981Y-58197583D01*
X68292981Y-58197583D02*
X68292981Y-59197583D01*
X68292981Y-66697583D02*
X67292981Y-66697583D01*
X68292981Y-66697583D02*
X68292981Y-65697583D01*
D15*
%TO.C,J2*%
X49640000Y-75572000D02*
X53640000Y-75572000D01*
X49640000Y-79634000D02*
X49640000Y-75572000D01*
X53640000Y-74554000D02*
X56046000Y-74554000D01*
X53640000Y-75572000D02*
X53640000Y-74554000D01*
X53640000Y-79634000D02*
X49640000Y-79634000D01*
X53640000Y-80770000D02*
X53640000Y-79634000D01*
X54522000Y-80774510D02*
X53640000Y-80770000D01*
X60110000Y-74554000D02*
X65190000Y-74554000D01*
X61126000Y-80776765D02*
X58078000Y-80774510D01*
X65224863Y-74554000D02*
X65224863Y-80774510D01*
X65224863Y-80774510D02*
X64342863Y-80770000D01*
%TO.C,J6*%
X83760000Y-80570686D02*
X83760000Y-79240686D01*
X85090000Y-80570686D02*
X83760000Y-80570686D01*
X86360000Y-77910686D02*
X88960000Y-77910686D01*
X86360000Y-80570686D02*
X86360000Y-77910686D01*
X86360000Y-80570686D02*
X88960000Y-80570686D01*
X88960000Y-80570686D02*
X88960000Y-77910686D01*
%TO.C,D4*%
X48382599Y-48273883D02*
X48382599Y-51133883D01*
X48382599Y-51133883D02*
X50302599Y-51133883D01*
X50302599Y-51133883D02*
X50302599Y-48273883D01*
%TD*%
M02*
