%TF.GenerationSoftware,KiCad,Pcbnew,8.0.4*%
%TF.CreationDate,2024-08-25T20:25:00-07:00*%
%TF.ProjectId,Croissant_Offset,43726f69-7373-4616-9e74-5f4f66667365,rev?*%
%TF.SameCoordinates,Original*%
%TF.FileFunction,Copper,L2,Bot*%
%TF.FilePolarity,Positive*%
%FSLAX46Y46*%
G04 Gerber Fmt 4.6, Leading zero omitted, Abs format (unit mm)*
G04 Created by KiCad (PCBNEW 8.0.4) date 2024-08-25 20:25:00*
%MOMM*%
%LPD*%
G01*
G04 APERTURE LIST*
G04 Aperture macros list*
%AMRoundRect*
0 Rectangle with rounded corners*
0 $1 Rounding radius*
0 $2 $3 $4 $5 $6 $7 $8 $9 X,Y pos of 4 corners*
0 Add a 4 corners polygon primitive as box body*
4,1,4,$2,$3,$4,$5,$6,$7,$8,$9,$2,$3,0*
0 Add four circle primitives for the rounded corners*
1,1,$1+$1,$2,$3*
1,1,$1+$1,$4,$5*
1,1,$1+$1,$6,$7*
1,1,$1+$1,$8,$9*
0 Add four rect primitives between the rounded corners*
20,1,$1+$1,$2,$3,$4,$5,0*
20,1,$1+$1,$4,$5,$6,$7,0*
20,1,$1+$1,$6,$7,$8,$9,0*
20,1,$1+$1,$8,$9,$2,$3,0*%
G04 Aperture macros list end*
%TA.AperFunction,ComponentPad*%
%ADD10R,1.700000X1.700000*%
%TD*%
%TA.AperFunction,ComponentPad*%
%ADD11O,1.700000X1.700000*%
%TD*%
%TA.AperFunction,ComponentPad*%
%ADD12R,1.800000X1.800000*%
%TD*%
%TA.AperFunction,ComponentPad*%
%ADD13C,1.800000*%
%TD*%
%TA.AperFunction,ComponentPad*%
%ADD14R,1.905000X2.000000*%
%TD*%
%TA.AperFunction,ComponentPad*%
%ADD15O,1.905000X2.000000*%
%TD*%
%TA.AperFunction,ComponentPad*%
%ADD16RoundRect,0.250000X-0.620000X-0.620000X0.620000X-0.620000X0.620000X0.620000X-0.620000X0.620000X0*%
%TD*%
%TA.AperFunction,ComponentPad*%
%ADD17C,1.740000*%
%TD*%
%TA.AperFunction,ComponentPad*%
%ADD18R,1.800000X3.500000*%
%TD*%
%TA.AperFunction,ComponentPad*%
%ADD19R,3.500000X1.800000*%
%TD*%
%TA.AperFunction,ComponentPad*%
%ADD20O,2.700000X1.700000*%
%TD*%
%TA.AperFunction,ComponentPad*%
%ADD21C,1.700000*%
%TD*%
%TA.AperFunction,ComponentPad*%
%ADD22R,2.400000X2.400000*%
%TD*%
%TA.AperFunction,ComponentPad*%
%ADD23C,2.400000*%
%TD*%
%TA.AperFunction,ComponentPad*%
%ADD24RoundRect,0.250000X0.450000X0.450000X-0.450000X0.450000X-0.450000X-0.450000X0.450000X-0.450000X0*%
%TD*%
%TA.AperFunction,ComponentPad*%
%ADD25C,1.400000*%
%TD*%
%TA.AperFunction,ComponentPad*%
%ADD26O,3.000000X1.800000*%
%TD*%
%TA.AperFunction,SMDPad,CuDef*%
%ADD27RoundRect,0.250000X0.325000X0.450000X-0.325000X0.450000X-0.325000X-0.450000X0.325000X-0.450000X0*%
%TD*%
%TA.AperFunction,SMDPad,CuDef*%
%ADD28RoundRect,0.250000X0.475000X-0.337500X0.475000X0.337500X-0.475000X0.337500X-0.475000X-0.337500X0*%
%TD*%
%TA.AperFunction,SMDPad,CuDef*%
%ADD29RoundRect,0.250000X-0.425000X0.537500X-0.425000X-0.537500X0.425000X-0.537500X0.425000X0.537500X0*%
%TD*%
%TA.AperFunction,SMDPad,CuDef*%
%ADD30RoundRect,0.250000X-0.450000X0.325000X-0.450000X-0.325000X0.450000X-0.325000X0.450000X0.325000X0*%
%TD*%
%TA.AperFunction,SMDPad,CuDef*%
%ADD31RoundRect,0.250000X-0.325000X-0.450000X0.325000X-0.450000X0.325000X0.450000X-0.325000X0.450000X0*%
%TD*%
%TA.AperFunction,SMDPad,CuDef*%
%ADD32RoundRect,0.250000X-0.450000X0.350000X-0.450000X-0.350000X0.450000X-0.350000X0.450000X0.350000X0*%
%TD*%
%TA.AperFunction,SMDPad,CuDef*%
%ADD33RoundRect,0.250000X0.450000X-0.350000X0.450000X0.350000X-0.450000X0.350000X-0.450000X-0.350000X0*%
%TD*%
%TA.AperFunction,SMDPad,CuDef*%
%ADD34RoundRect,0.250000X-0.475000X0.337500X-0.475000X-0.337500X0.475000X-0.337500X0.475000X0.337500X0*%
%TD*%
%TA.AperFunction,ViaPad*%
%ADD35C,0.600000*%
%TD*%
%TA.AperFunction,Conductor*%
%ADD36C,0.500000*%
%TD*%
%TA.AperFunction,Conductor*%
%ADD37C,0.200000*%
%TD*%
G04 APERTURE END LIST*
D10*
%TO.P,P2,+12V,+12V*%
%TO.N,+12v bypass*%
X65540000Y-49000000D03*
D11*
X65540000Y-51540000D03*
%TO.P,P2,-12V,-12V*%
%TO.N,-12v bypass*%
X55380000Y-49000000D03*
X55380000Y-51540000D03*
%TO.P,P2,GND,GND*%
%TO.N,Gnd*%
X63000000Y-49000000D03*
X60460000Y-49000000D03*
X57920000Y-49000000D03*
X63000000Y-51540000D03*
X60460000Y-51540000D03*
X57920000Y-51540000D03*
%TD*%
D12*
%TO.P,D6,1,K*%
%TO.N,Gnd*%
X68671500Y-69634025D03*
D13*
%TO.P,D6,2,A*%
%TO.N,Net-(D6-A)*%
X71211500Y-69634025D03*
%TD*%
D14*
%TO.P,U1,1,VI*%
%TO.N,Net-(D5-K)*%
X75510324Y-87983999D03*
D15*
%TO.P,U1,2,GND*%
%TO.N,Gnd*%
X72970324Y-87983999D03*
%TO.P,U1,3,VO*%
%TO.N,+5v*%
X70430324Y-87983999D03*
%TD*%
D10*
%TO.P,J5,1,Pin_1*%
%TO.N,AudioIn*%
X77472723Y-61460000D03*
D11*
%TO.P,J5,2,Pin_2*%
%TO.N,VCC*%
X80012723Y-61460000D03*
%TO.P,J5,3,Pin_3*%
%TO.N,AGnd*%
X82552723Y-61460000D03*
%TD*%
D16*
%TO.P,P1,1,Pin_1*%
%TO.N,+12v bypass*%
X65540000Y-49000000D03*
D17*
%TO.P,P1,2,Pin_2*%
%TO.N,Gnd*%
X68080000Y-49000000D03*
%TO.P,P1,3,Pin_3*%
%TO.N,-12v bypass*%
X70620000Y-49000000D03*
%TD*%
D18*
%TO.P,J4,R*%
%TO.N,Net-(A2-Pin_2)*%
X59718449Y-81100156D03*
D19*
%TO.P,J4,S*%
%TO.N,Net-(A2-Pin_3)*%
X62218449Y-76700156D03*
D18*
%TO.P,J4,T*%
%TO.N,Net-(A2-Pin_1)*%
X67518449Y-81100156D03*
%TD*%
D20*
%TO.P,RV1,*%
%TO.N,*%
X63188260Y-65385027D03*
X63188260Y-55785027D03*
D12*
%TO.P,RV1,1,1*%
%TO.N,Net-(A1-Pin_1)*%
X70688260Y-63085027D03*
D13*
%TO.P,RV1,2,2*%
%TO.N,Net-(A1-Pin_2)*%
X70688260Y-60585027D03*
%TO.P,RV1,3,3*%
%TO.N,Net-(A1-Pin_3)*%
X70688260Y-58085027D03*
%TD*%
D21*
%TO.P,P9,1,Pin_1*%
%TO.N,+12v*%
X85087855Y-46990000D03*
D10*
%TO.P,P9,2,Pin_2*%
%TO.N,Gnd*%
X85087855Y-49530000D03*
%TD*%
D22*
%TO.P,J7,1,Pin_1*%
%TO.N,Out+*%
X84597376Y-79246295D03*
D23*
%TO.P,J7,2,Pin_2*%
%TO.N,Out-*%
X88097376Y-79246295D03*
%TD*%
D10*
%TO.P,P8,1,Pin_1*%
%TO.N,Gnd*%
X82544110Y-91788250D03*
D11*
%TO.P,P8,2,Pin_2*%
%TO.N,-12v*%
X82544110Y-94328250D03*
%TD*%
D10*
%TO.P,P10,1,Pin_1*%
%TO.N,Gnd*%
X85090000Y-91794963D03*
D11*
%TO.P,P10,2,Pin_2*%
%TO.N,-12v*%
X85090000Y-94334963D03*
%TD*%
D10*
%TO.P,A1,1,Pin_1*%
%TO.N,Net-(A1-Pin_1)*%
X76191276Y-57069118D03*
D11*
%TO.P,A1,2,Pin_2*%
%TO.N,Net-(A1-Pin_2)*%
X78731276Y-57069118D03*
%TO.P,A1,3,Pin_3*%
%TO.N,Net-(A1-Pin_3)*%
X81271276Y-57069118D03*
%TO.P,A1,4,Pin_4*%
%TO.N,unconnected-(A1-Pin_4-Pad4)*%
X83811276Y-57069118D03*
%TO.P,A1,5,Pin_5*%
%TO.N,+3.3v*%
X86351276Y-57069118D03*
%TD*%
D21*
%TO.P,P7,1,Pin_1*%
%TO.N,+12v*%
X82541276Y-47000868D03*
D10*
%TO.P,P7,2,Pin_2*%
%TO.N,Gnd*%
X82541276Y-49540868D03*
%TD*%
%TO.P,A4,1,Pin_1*%
%TO.N,Net-(A2-Pin_1)*%
X50000000Y-75714262D03*
D11*
%TO.P,A4,2,Pin_2*%
%TO.N,Net-(A2-Pin_2)*%
X50000000Y-78254262D03*
%TO.P,A4,3,Pin_3*%
%TO.N,Net-(A2-Pin_3)*%
X50000000Y-80794262D03*
%TO.P,A4,4,Pin_4*%
%TO.N,unconnected-(A4-Pin_4-Pad4)*%
X50000000Y-83334262D03*
%TO.P,A4,5,Pin_5*%
%TO.N,+5v*%
X50000000Y-85874262D03*
%TD*%
D10*
%TO.P,A2,1,Pin_1*%
%TO.N,Net-(A2-Pin_1)*%
X76208801Y-85090000D03*
D11*
%TO.P,A2,2,Pin_2*%
%TO.N,Net-(A2-Pin_2)*%
X78748801Y-85090000D03*
%TO.P,A2,3,Pin_3*%
%TO.N,Net-(A2-Pin_3)*%
X81288801Y-85090000D03*
%TO.P,A2,4,Pin_4*%
%TO.N,unconnected-(A2-Pin_4-Pad4)*%
X83828801Y-85090000D03*
%TO.P,A2,5,Pin_5*%
%TO.N,+5v*%
X86368801Y-85090000D03*
%TD*%
D10*
%TO.P,A3,1,Pin_1*%
%TO.N,Net-(A1-Pin_1)*%
X50013691Y-57939292D03*
D11*
%TO.P,A3,2,Pin_2*%
%TO.N,Net-(A1-Pin_2)*%
X50013691Y-60479292D03*
%TO.P,A3,3,Pin_3*%
%TO.N,Net-(A1-Pin_3)*%
X50013691Y-63019292D03*
%TO.P,A3,4,Pin_4*%
%TO.N,unconnected-(A3-Pin_4-Pad4)*%
X50013691Y-65559292D03*
%TO.P,A3,5,Pin_5*%
%TO.N,+3.3v*%
X50013691Y-68099292D03*
%TD*%
D24*
%TO.P,SW1,1,A*%
%TO.N,+12v*%
X64582831Y-71624680D03*
D25*
%TO.P,SW1,2,B*%
%TO.N,+12v clean*%
X62082831Y-71624680D03*
%TO.P,SW1,3,C*%
%TO.N,unconnected-(SW1-C-Pad3)*%
X59582831Y-71624680D03*
%TO.P,SW1,4,A*%
%TO.N,unconnected-(SW1-A-Pad4)*%
X59582831Y-68324680D03*
%TO.P,SW1,5,B*%
%TO.N,-12v clean*%
X62082831Y-68324680D03*
%TO.P,SW1,6,C*%
%TO.N,-12v*%
X64582831Y-68324680D03*
%TD*%
D20*
%TO.P,RV2,*%
%TO.N,*%
X63656922Y-83813864D03*
X63656922Y-74213864D03*
D12*
%TO.P,RV2,1,1*%
%TO.N,Net-(A2-Pin_1)*%
X71156922Y-81513864D03*
D13*
%TO.P,RV2,2,2*%
%TO.N,Net-(A2-Pin_2)*%
X71156922Y-79013864D03*
%TO.P,RV2,3,3*%
%TO.N,Net-(A2-Pin_3)*%
X71156922Y-76513864D03*
%TD*%
D14*
%TO.P,U2,1,GND*%
%TO.N,Gnd*%
X61503159Y-87983999D03*
D15*
%TO.P,U2,2,VO*%
%TO.N,+3.3v*%
X58963159Y-87983999D03*
%TO.P,U2,3,VI*%
%TO.N,+12v*%
X56423159Y-87983999D03*
%TD*%
D26*
%TO.P,J1,R*%
%TO.N,Net-(A1-Pin_2)*%
X58251109Y-57209364D03*
%TO.P,J1,S*%
%TO.N,Net-(A1-Pin_3)*%
X56297109Y-62509364D03*
%TO.P,J1,T*%
%TO.N,Net-(A1-Pin_1)*%
X63155109Y-62509364D03*
%TD*%
D18*
%TO.P,J3,R*%
%TO.N,Net-(A1-Pin_2)*%
X59292981Y-62697583D03*
D19*
%TO.P,J3,S*%
%TO.N,Net-(A1-Pin_3)*%
X61792981Y-58297583D03*
D18*
%TO.P,J3,T*%
%TO.N,Net-(A1-Pin_1)*%
X67092981Y-62697583D03*
%TD*%
D26*
%TO.P,J2,R*%
%TO.N,Net-(A2-Pin_2)*%
X58000000Y-75000000D03*
%TO.P,J2,S*%
%TO.N,Net-(A2-Pin_3)*%
X56046000Y-80300000D03*
%TO.P,J2,T*%
%TO.N,Net-(A2-Pin_1)*%
X62904000Y-80300000D03*
%TD*%
D10*
%TO.P,J6,1,Pin_1*%
%TO.N,Out+*%
X85090000Y-79240686D03*
D11*
%TO.P,J6,2,Pin_2*%
%TO.N,Out-*%
X87630000Y-79240686D03*
%TD*%
D27*
%TO.P,D5,1,K*%
%TO.N,Net-(D5-K)*%
X53569020Y-72460861D03*
%TO.P,D5,2,A*%
%TO.N,+12v*%
X51519020Y-72460861D03*
%TD*%
D28*
%TO.P,C2,1*%
%TO.N,+12v clean*%
X71000000Y-54037500D03*
%TO.P,C2,2*%
%TO.N,Gnd*%
X71000000Y-51962500D03*
%TD*%
D29*
%TO.P,C1,1*%
%TO.N,+12v clean*%
X51995534Y-48684028D03*
%TO.P,C1,2*%
%TO.N,Gnd*%
X51995534Y-51559028D03*
%TD*%
D30*
%TO.P,D3,1,K*%
%TO.N,-12v bypass*%
X49342599Y-48248883D03*
%TO.P,D3,2,A*%
%TO.N,-12v clean*%
X49342599Y-50298883D03*
%TD*%
D31*
%TO.P,D2,1,K*%
%TO.N,+12v clean*%
X49656664Y-54405004D03*
%TO.P,D2,2,A*%
%TO.N,+12v bypass*%
X51706664Y-54405004D03*
%TD*%
D32*
%TO.P,R3,1*%
%TO.N,Net-(D6-A)*%
X67718449Y-75600156D03*
%TO.P,R3,2*%
%TO.N,+12v*%
X67718449Y-77600156D03*
%TD*%
D33*
%TO.P,R1,1*%
%TO.N,+12v bypass*%
X71378594Y-67309837D03*
%TO.P,R1,2*%
%TO.N,+12v clean*%
X71378594Y-65309837D03*
%TD*%
D32*
%TO.P,R2,1*%
%TO.N,-12v bypass*%
X71506398Y-72015774D03*
%TO.P,R2,2*%
%TO.N,-12v clean*%
X71506398Y-74015774D03*
%TD*%
D34*
%TO.P,C4,1*%
%TO.N,Gnd*%
X66507112Y-55678562D03*
%TO.P,C4,2*%
%TO.N,-12v clean*%
X66507112Y-57753562D03*
%TD*%
D35*
%TO.N,*%
X84788701Y-58912857D03*
X77562583Y-81617045D03*
X86491374Y-58912857D03*
X80126801Y-81625211D03*
X78424128Y-81625211D03*
X79265257Y-81633378D03*
X85629830Y-58921024D03*
X83927156Y-58904691D03*
%TO.N,+12v*%
X65056171Y-66250001D03*
X51000000Y-71000000D03*
X68000000Y-57000000D03*
X78740000Y-49530000D03*
X58000000Y-70000000D03*
X66000000Y-79000000D03*
X61000000Y-84000000D03*
%TO.N,Gnd*%
X52000000Y-65000000D03*
X73000000Y-50000000D03*
X54000000Y-86000000D03*
X67000000Y-67000000D03*
X64992981Y-61520019D03*
X55000000Y-55000000D03*
X65070331Y-53070331D03*
X52000000Y-59000000D03*
X66986471Y-56666062D03*
X55000000Y-65000000D03*
X54000000Y-50000000D03*
X56000000Y-84000000D03*
%TO.N,-12v*%
X70000000Y-74000000D03*
X69000000Y-80000000D03*
X78740000Y-87860082D03*
X80010000Y-93980000D03*
%TO.N,Net-(A1-Pin_2)*%
X57150000Y-60325000D03*
%TO.N,Net-(D5-K)*%
X53000000Y-74000000D03*
%TO.N,+3.3v*%
X73000000Y-53000000D03*
X56168389Y-57168389D03*
X54000000Y-61000000D03*
X54000000Y-75000000D03*
X51973601Y-68063936D03*
%TO.N,+12v bypass*%
X70000000Y-68000000D03*
X64000000Y-67000000D03*
X74030331Y-53030331D03*
X56000000Y-71000000D03*
%TO.N,-12v bypass*%
X68775592Y-65347583D03*
X69030331Y-53030331D03*
X70000000Y-65000000D03*
X72561500Y-70438500D03*
X67000000Y-52290000D03*
X69000000Y-56000000D03*
%TO.N,+12v clean*%
X75950000Y-51020000D03*
X53000000Y-50000000D03*
X66482831Y-69074680D03*
X57043725Y-46930000D03*
X48800000Y-55000000D03*
%TO.N,-12v clean*%
X53000000Y-55000000D03*
X61523569Y-61562829D03*
X70030331Y-75030331D03*
X66000000Y-71000000D03*
X49742599Y-52000000D03*
X61000000Y-64000000D03*
X65000000Y-58000000D03*
%TO.N,AGnd*%
X83820000Y-64770000D03*
X77470000Y-78740000D03*
X85090000Y-72390000D03*
X82550000Y-64770000D03*
X81280000Y-68580000D03*
%TO.N,Out-*%
X82550000Y-77470000D03*
%TD*%
D36*
%TO.N,+12v*%
X61000000Y-84000000D02*
X60407158Y-84000000D01*
X67321500Y-70321500D02*
X67321500Y-70984025D01*
X78270000Y-49060000D02*
X78740000Y-49530000D01*
X71166762Y-50320000D02*
X71940000Y-49546762D01*
X64582831Y-71624680D02*
X65726922Y-72768771D01*
X67399844Y-77600156D02*
X66000000Y-79000000D01*
X51519020Y-72460861D02*
X51519020Y-71519020D01*
X64885938Y-71927787D02*
X64582831Y-71624680D01*
X67718449Y-77600156D02*
X67399844Y-77600156D01*
X51519020Y-71519020D02*
X51000000Y-71000000D01*
X65732831Y-69385341D02*
X66172170Y-69824680D01*
X65726922Y-75608629D02*
X67718449Y-77600156D01*
X58000000Y-70000000D02*
X62958151Y-70000000D01*
X77000000Y-49060000D02*
X78270000Y-49060000D01*
X68000000Y-53000000D02*
X70680000Y-50320000D01*
X65056171Y-66250001D02*
X65732831Y-66926661D01*
X65732831Y-66926661D02*
X65732831Y-69385341D01*
X68000000Y-57000000D02*
X68000000Y-53000000D01*
X67321500Y-70984025D02*
X67927787Y-71590312D01*
X70680000Y-50320000D02*
X71166762Y-50320000D01*
X71940000Y-49060000D02*
X77000000Y-49060000D01*
X66172170Y-69824680D02*
X66824680Y-69824680D01*
X60407158Y-84000000D02*
X56423159Y-87983999D01*
X62958151Y-70000000D02*
X64582831Y-71624680D01*
X66824680Y-69824680D02*
X67321500Y-70321500D01*
X65726922Y-72768771D02*
X65726922Y-75608629D01*
X67927787Y-71590312D02*
X67927787Y-71927787D01*
X67927787Y-71927787D02*
X64885938Y-71927787D01*
X71940000Y-49546762D02*
X71940000Y-49060000D01*
%TO.N,Gnd*%
X69400000Y-47680000D02*
X80680408Y-47680000D01*
X66507112Y-55678562D02*
X66507112Y-54507112D01*
X66507112Y-54507112D02*
X65070331Y-53070331D01*
X55000000Y-56000000D02*
X55000000Y-55000000D01*
D37*
X64992981Y-64000000D02*
X64992981Y-61520019D01*
X51995534Y-51559028D02*
X52440972Y-51559028D01*
X53126506Y-52690000D02*
X56770000Y-52690000D01*
X67000000Y-66007019D02*
X64992981Y-64000000D01*
X66986471Y-56157921D02*
X66507112Y-55678562D01*
X72962500Y-50000000D02*
X73000000Y-50000000D01*
D36*
X80680408Y-47680000D02*
X82541276Y-49540868D01*
X68080000Y-49000000D02*
X69400000Y-47680000D01*
D37*
X56770000Y-52690000D02*
X57920000Y-51540000D01*
X52440972Y-51559028D02*
X54000000Y-50000000D01*
D36*
X85087855Y-49530000D02*
X82552144Y-49530000D01*
X52000000Y-59000000D02*
X55000000Y-56000000D01*
X55000000Y-65000000D02*
X52000000Y-65000000D01*
D37*
X67000000Y-67000000D02*
X67000000Y-66007019D01*
X71000000Y-51962500D02*
X72962500Y-50000000D01*
X66986471Y-56666062D02*
X66986471Y-56157921D01*
D36*
X54000000Y-86000000D02*
X56000000Y-84000000D01*
D37*
X51995534Y-51559028D02*
X53126506Y-52690000D01*
D36*
%TO.N,-12v*%
X80010000Y-93980000D02*
X80010000Y-87860082D01*
X69000000Y-80000000D02*
X69000000Y-75000000D01*
X69000000Y-75000000D02*
X70000000Y-74000000D01*
X80010000Y-87860082D02*
X78740000Y-87860082D01*
D37*
%TO.N,Net-(A1-Pin_1)*%
X67003233Y-59400000D02*
X70688260Y-63085027D01*
X70300816Y-62697583D02*
X70688260Y-63085027D01*
X67092981Y-62697583D02*
X70300816Y-62697583D01*
X63155109Y-62509364D02*
X66264473Y-59400000D01*
X66264473Y-59400000D02*
X67003233Y-59400000D01*
%TO.N,Net-(A1-Pin_3)*%
X60508890Y-58297583D02*
X61792981Y-58297583D01*
X56297109Y-62509364D02*
X60508890Y-58297583D01*
X50013691Y-63019292D02*
X55787181Y-63019292D01*
X61792981Y-58297583D02*
X63638147Y-58297583D01*
X55787181Y-63019292D02*
X56297109Y-62509364D01*
X64340564Y-59000000D02*
X69773287Y-59000000D01*
X63638147Y-58297583D02*
X64340564Y-59000000D01*
X69773287Y-59000000D02*
X70688260Y-58085027D01*
%TO.N,Net-(A1-Pin_2)*%
X56488249Y-56000000D02*
X57041745Y-56000000D01*
X52008957Y-60479292D02*
X56488249Y-56000000D01*
X57150000Y-60325000D02*
X58251109Y-59223891D01*
X50013691Y-60479292D02*
X52008957Y-60479292D01*
X57041745Y-56000000D02*
X58251109Y-57209364D01*
X58251109Y-59223891D02*
X58251109Y-57209364D01*
%TO.N,Net-(A2-Pin_2)*%
X73050106Y-81340567D02*
X74404098Y-82694559D01*
X75295674Y-82704447D02*
X76363248Y-82704447D01*
X57118293Y-78500000D02*
X52241004Y-78500000D01*
X50000000Y-78254262D02*
X51995266Y-78254262D01*
X52241004Y-78500000D02*
X51995266Y-78254262D01*
X73050106Y-81007100D02*
X73050106Y-81340567D01*
X75285786Y-82694559D02*
X75295674Y-82704447D01*
X71156922Y-79113916D02*
X73050106Y-81007100D01*
X71156922Y-79013864D02*
X71156922Y-79113916D01*
X76363248Y-82704447D02*
X78748801Y-85090000D01*
X59718449Y-81100156D02*
X57118293Y-78500000D01*
X74404098Y-82694559D02*
X75285786Y-82694559D01*
%TO.N,Net-(A2-Pin_3)*%
X50000000Y-80794262D02*
X51995266Y-80794262D01*
X51995266Y-80794262D02*
X52489528Y-80300000D01*
X52489528Y-80300000D02*
X56046000Y-80300000D01*
%TO.N,Net-(A2-Pin_1)*%
X62304000Y-80300000D02*
X62904000Y-80300000D01*
X54606344Y-75714262D02*
X56892082Y-78000000D01*
X50000000Y-75714262D02*
X54606344Y-75714262D01*
X74733058Y-85090000D02*
X71156922Y-81513864D01*
X62904000Y-80300000D02*
X66718293Y-80300000D01*
X71156922Y-81513864D02*
X67932157Y-81513864D01*
X67932157Y-81513864D02*
X67518449Y-81100156D01*
X60004000Y-78000000D02*
X62304000Y-80300000D01*
X76208801Y-85090000D02*
X74733058Y-85090000D01*
X56892082Y-78000000D02*
X60004000Y-78000000D01*
X66718293Y-80300000D02*
X67518449Y-81100156D01*
D36*
%TO.N,Net-(D5-K)*%
X53000000Y-73029881D02*
X53569020Y-72460861D01*
X53000000Y-74000000D02*
X53000000Y-73029881D01*
%TO.N,+5v*%
X68980324Y-89433999D02*
X55555003Y-89433999D01*
X51995266Y-85874262D02*
X50000000Y-85874262D01*
X55555003Y-89433999D02*
X51995266Y-85874262D01*
X70430324Y-87983999D02*
X68980324Y-89433999D01*
X74413771Y-86390000D02*
X85068801Y-86390000D01*
X70430324Y-87983999D02*
X73219047Y-85195276D01*
X73219047Y-85195276D02*
X74413771Y-86390000D01*
X85068801Y-86390000D02*
X86368801Y-85090000D01*
%TO.N,+3.3v*%
X73750000Y-52250000D02*
X73000000Y-53000000D01*
X56168389Y-57168389D02*
X54000000Y-59336778D01*
X50013691Y-68099292D02*
X52008957Y-68099292D01*
X54000000Y-75000000D02*
X54594020Y-74405980D01*
X54594020Y-74405980D02*
X54594020Y-70684355D01*
X81532158Y-52250000D02*
X86351276Y-57069118D01*
X73750000Y-52250000D02*
X81532158Y-52250000D01*
X54594020Y-70684355D02*
X52008957Y-68099292D01*
X54000000Y-59336778D02*
X54000000Y-61000000D01*
%TO.N,+12v bypass*%
X72744801Y-54315861D02*
X72744801Y-65943630D01*
X63554973Y-53525027D02*
X65540000Y-51540000D01*
X70000000Y-68000000D02*
X70688431Y-68000000D01*
X59106485Y-67174680D02*
X63825320Y-67174680D01*
X56000000Y-71000000D02*
X56000000Y-70281165D01*
X74030331Y-53030331D02*
X72744801Y-54315861D01*
X63825320Y-67174680D02*
X64000000Y-67000000D01*
X52586641Y-53525027D02*
X63554973Y-53525027D01*
X51706664Y-54405004D02*
X52586641Y-53525027D01*
X70688431Y-68000000D02*
X71378594Y-67309837D01*
X72744801Y-65943630D02*
X71378594Y-67309837D01*
X56000000Y-70281165D02*
X59106485Y-67174680D01*
%TO.N,-12v bypass*%
X68775592Y-65347583D02*
X68775592Y-66000461D01*
X71506398Y-71493602D02*
X72561500Y-70438500D01*
X69000000Y-56000000D02*
X69000000Y-53060662D01*
X55380000Y-51540000D02*
X55380000Y-49000000D01*
X67000000Y-52290000D02*
X67330000Y-52290000D01*
X68775592Y-66000461D02*
X68598724Y-66177329D01*
X55380000Y-51540000D02*
X55540000Y-51540000D01*
X70000000Y-65000000D02*
X69776053Y-65000000D01*
X71506398Y-72015774D02*
X71506398Y-71493602D01*
X69776053Y-65000000D02*
X68598724Y-66177329D01*
X69000000Y-53060662D02*
X69030331Y-53030331D01*
X67330000Y-52290000D02*
X70620000Y-49000000D01*
%TO.N,+12v clean*%
X49061668Y-55000000D02*
X49656664Y-54405004D01*
X50492599Y-50186963D02*
X51995534Y-48684028D01*
X73919339Y-51020000D02*
X75950000Y-51020000D01*
X71000000Y-53939339D02*
X73919339Y-51020000D01*
X48800000Y-55000000D02*
X49061668Y-55000000D01*
X49656664Y-54343336D02*
X50492599Y-53507401D01*
X72044801Y-64955199D02*
X72044801Y-55082301D01*
X68105502Y-67327329D02*
X69361102Y-67327329D01*
X51995534Y-48995534D02*
X53000000Y-50000000D01*
X69361102Y-67327329D02*
X71378594Y-65309837D01*
X71000000Y-54037500D02*
X71000000Y-53939339D01*
X72044801Y-55082301D02*
X71000000Y-54037500D01*
X49656664Y-54405004D02*
X49656664Y-54343336D01*
X50492599Y-53507401D02*
X50492599Y-50186963D01*
X71378594Y-65309837D02*
X71690163Y-65309837D01*
X66482831Y-68950000D02*
X68105502Y-67327329D01*
X53749562Y-46930000D02*
X51995534Y-48684028D01*
X71690163Y-65309837D02*
X72044801Y-64955199D01*
X51995534Y-48684028D02*
X51995534Y-48995534D01*
X66482831Y-69074680D02*
X66482831Y-68950000D01*
X57043725Y-46930000D02*
X53749562Y-46930000D01*
%TO.N,-12v clean*%
X65000000Y-58000000D02*
X66260674Y-58000000D01*
X71506398Y-74015774D02*
X71044888Y-74015774D01*
X65258260Y-56504710D02*
X65258260Y-55138854D01*
X49742599Y-50698883D02*
X49342599Y-50298883D01*
X65258260Y-55138854D02*
X64344433Y-54225027D01*
X62272781Y-68324680D02*
X62082831Y-68324680D01*
X61000000Y-62086398D02*
X61523569Y-61562829D01*
X71044888Y-74015774D02*
X70030331Y-75030331D01*
X63948101Y-70000000D02*
X62272781Y-68324680D01*
X66507112Y-57753562D02*
X65258260Y-56504710D01*
X71506398Y-74015774D02*
X71015774Y-74015774D01*
X53774973Y-54225027D02*
X53000000Y-55000000D01*
X66260674Y-58000000D02*
X66507112Y-57753562D01*
X54092701Y-54225027D02*
X53774973Y-54225027D01*
X49742599Y-52000000D02*
X49742599Y-50698883D01*
X64344433Y-54225027D02*
X54092701Y-54225027D01*
X61000000Y-64000000D02*
X61000000Y-62086398D01*
X71506398Y-74015774D02*
X71076436Y-74015774D01*
X65000000Y-70000000D02*
X63948101Y-70000000D01*
X66000000Y-71000000D02*
X65000000Y-70000000D01*
%TO.N,Net-(D6-A)*%
X71211500Y-69634025D02*
X67718449Y-73127076D01*
X67718449Y-73127076D02*
X67718449Y-75600156D01*
%TO.N,AGnd*%
X83820000Y-62727277D02*
X83820000Y-64770000D01*
D37*
X77470000Y-78740000D02*
X83820000Y-72390000D01*
D36*
X82550000Y-64770000D02*
X82550000Y-67310000D01*
D37*
X83820000Y-72390000D02*
X85090000Y-72390000D01*
D36*
X82550000Y-67310000D02*
X81280000Y-68580000D01*
D37*
X85090000Y-72390000D02*
X81280000Y-68580000D01*
D36*
X82552723Y-61460000D02*
X83820000Y-62727277D01*
D37*
%TO.N,Out-*%
X82550000Y-77470000D02*
X85859314Y-77470000D01*
X85859314Y-77470000D02*
X87630000Y-79240686D01*
%TD*%
%TA.AperFunction,Conductor*%
%TO.N,AGnd*%
G36*
X87085312Y-59570678D02*
G01*
X87104893Y-59586624D01*
X87130743Y-59612477D01*
X87130746Y-59612479D01*
X87130745Y-59612479D01*
X87246828Y-59690057D01*
X87286087Y-59716294D01*
X87458698Y-59787814D01*
X87641939Y-59824287D01*
X87641938Y-59824287D01*
X87641944Y-59824288D01*
X87735237Y-59824298D01*
X87735348Y-59824331D01*
X87735349Y-59824299D01*
X88549099Y-59825146D01*
X88550301Y-59825225D01*
X88557691Y-59825224D01*
X88557696Y-59825226D01*
X88616622Y-59825224D01*
X88630502Y-59826002D01*
X88720855Y-59836181D01*
X88747926Y-59842360D01*
X88827120Y-59870070D01*
X88852138Y-59882118D01*
X88923188Y-59926761D01*
X88944898Y-59944074D01*
X89004225Y-60003401D01*
X89021538Y-60025111D01*
X89066181Y-60096161D01*
X89078229Y-60121179D01*
X89105939Y-60200373D01*
X89112118Y-60227445D01*
X89122296Y-60317795D01*
X89123075Y-60331678D01*
X89123074Y-60399227D01*
X89123076Y-60399256D01*
X89123076Y-77655489D01*
X89103391Y-77722528D01*
X89050587Y-77768283D01*
X88981429Y-77778227D01*
X88945275Y-77767209D01*
X88720382Y-77658907D01*
X88720384Y-77658907D01*
X88476842Y-77583784D01*
X88476838Y-77583783D01*
X88476834Y-77583782D01*
X88355607Y-77565509D01*
X88224816Y-77545795D01*
X88224811Y-77545795D01*
X87969941Y-77545795D01*
X87969935Y-77545795D01*
X87812985Y-77569452D01*
X87717918Y-77583782D01*
X87717915Y-77583783D01*
X87717909Y-77583784D01*
X87474368Y-77658907D01*
X87244749Y-77769485D01*
X87244741Y-77769490D01*
X87188882Y-77807574D01*
X87122402Y-77829074D01*
X87054852Y-77811219D01*
X87031350Y-77792801D01*
X86346904Y-77108355D01*
X86346902Y-77108352D01*
X86228031Y-76989481D01*
X86228023Y-76989475D01*
X86126250Y-76930717D01*
X86126248Y-76930716D01*
X86091104Y-76910425D01*
X86091103Y-76910424D01*
X86078577Y-76907067D01*
X85938371Y-76869499D01*
X85780257Y-76869499D01*
X85772661Y-76869499D01*
X85772645Y-76869500D01*
X83132412Y-76869500D01*
X83065373Y-76849815D01*
X83055097Y-76842445D01*
X83052263Y-76840185D01*
X83052262Y-76840184D01*
X82995496Y-76804515D01*
X82899523Y-76744211D01*
X82729254Y-76684631D01*
X82729249Y-76684630D01*
X82550004Y-76664435D01*
X82549996Y-76664435D01*
X82370750Y-76684630D01*
X82370745Y-76684631D01*
X82200476Y-76744211D01*
X82047737Y-76840184D01*
X81920184Y-76967737D01*
X81824211Y-77120476D01*
X81764631Y-77290745D01*
X81764630Y-77290750D01*
X81744435Y-77469996D01*
X81744435Y-77470003D01*
X81764630Y-77649249D01*
X81764631Y-77649254D01*
X81824211Y-77819523D01*
X81853068Y-77865448D01*
X81920184Y-77972262D01*
X82047738Y-78099816D01*
X82200478Y-78195789D01*
X82357896Y-78250872D01*
X82370745Y-78255368D01*
X82370750Y-78255369D01*
X82549996Y-78275565D01*
X82550000Y-78275565D01*
X82550004Y-78275565D01*
X82729249Y-78255369D01*
X82729250Y-78255368D01*
X82729255Y-78255368D01*
X82731921Y-78254434D01*
X82733753Y-78254341D01*
X82736037Y-78253820D01*
X82736128Y-78254220D01*
X82801699Y-78250872D01*
X82862326Y-78285600D01*
X82894554Y-78347593D01*
X82896876Y-78371476D01*
X82896876Y-80494165D01*
X82896877Y-80494171D01*
X82904114Y-80561491D01*
X82901317Y-80561791D01*
X82898282Y-80618252D01*
X82857407Y-80674917D01*
X82792384Y-80700488D01*
X82781383Y-80700980D01*
X81288919Y-80701359D01*
X81186565Y-80701359D01*
X81003298Y-80737813D01*
X81003290Y-80737815D01*
X80830656Y-80809321D01*
X80830643Y-80809328D01*
X80675280Y-80913139D01*
X80670573Y-80917003D01*
X80669437Y-80915619D01*
X80615509Y-80945054D01*
X80545818Y-80940057D01*
X80523201Y-80928877D01*
X80476324Y-80899422D01*
X80306055Y-80839842D01*
X80306050Y-80839841D01*
X80126805Y-80819646D01*
X80126797Y-80819646D01*
X79947551Y-80839841D01*
X79947538Y-80839844D01*
X79777281Y-80899420D01*
X79755500Y-80913106D01*
X79688263Y-80932105D01*
X79623558Y-80913105D01*
X79614779Y-80907588D01*
X79614775Y-80907587D01*
X79444519Y-80848011D01*
X79444506Y-80848008D01*
X79265261Y-80827813D01*
X79265253Y-80827813D01*
X79086007Y-80848008D01*
X79085994Y-80848011D01*
X78915735Y-80907588D01*
X78909463Y-80910609D01*
X78908726Y-80909079D01*
X78849905Y-80925690D01*
X78785222Y-80906692D01*
X78773651Y-80899422D01*
X78773649Y-80899421D01*
X78603390Y-80839844D01*
X78603377Y-80839841D01*
X78424132Y-80819646D01*
X78424124Y-80819646D01*
X78244878Y-80839841D01*
X78244865Y-80839844D01*
X78074606Y-80899421D01*
X78065821Y-80904941D01*
X77998583Y-80923939D01*
X77933880Y-80904938D01*
X77912107Y-80891256D01*
X77741837Y-80831676D01*
X77741832Y-80831675D01*
X77562587Y-80811480D01*
X77562579Y-80811480D01*
X77383333Y-80831675D01*
X77383328Y-80831676D01*
X77213057Y-80891257D01*
X77110017Y-80956001D01*
X77042780Y-80975001D01*
X76975945Y-80954633D01*
X76956366Y-80938690D01*
X76946553Y-80928877D01*
X76930822Y-80913146D01*
X76930816Y-80913142D01*
X76775447Y-80809327D01*
X76602809Y-80737818D01*
X76602803Y-80737816D01*
X76419537Y-80701362D01*
X76419535Y-80701362D01*
X76326973Y-80701362D01*
X76326660Y-80701361D01*
X76324668Y-80701355D01*
X75753665Y-80699713D01*
X75750480Y-80699500D01*
X75685354Y-80699500D01*
X75671469Y-80698720D01*
X75581125Y-80688538D01*
X75554055Y-80682359D01*
X75474853Y-80654643D01*
X75449837Y-80642595D01*
X75378791Y-80597953D01*
X75357082Y-80580641D01*
X75355968Y-80579527D01*
X75297748Y-80521305D01*
X75280439Y-80499599D01*
X75235800Y-80428555D01*
X75223753Y-80403539D01*
X75196037Y-80324332D01*
X75189858Y-80297259D01*
X75179656Y-80206705D01*
X75178876Y-80192823D01*
X75178876Y-60562135D01*
X76122223Y-60562135D01*
X76122223Y-62357870D01*
X76122224Y-62357876D01*
X76128631Y-62417483D01*
X76178925Y-62552328D01*
X76178929Y-62552335D01*
X76265175Y-62667544D01*
X76265178Y-62667547D01*
X76380387Y-62753793D01*
X76380394Y-62753797D01*
X76515240Y-62804091D01*
X76515239Y-62804091D01*
X76522167Y-62804835D01*
X76574850Y-62810500D01*
X78370595Y-62810499D01*
X78430206Y-62804091D01*
X78565054Y-62753796D01*
X78680269Y-62667546D01*
X78766519Y-62552331D01*
X78815533Y-62420916D01*
X78857404Y-62364984D01*
X78922868Y-62340566D01*
X78991141Y-62355417D01*
X79019396Y-62376569D01*
X79141322Y-62498495D01*
X79238107Y-62566265D01*
X79334888Y-62634032D01*
X79334890Y-62634033D01*
X79334893Y-62634035D01*
X79549060Y-62733903D01*
X79777315Y-62795063D01*
X79953757Y-62810500D01*
X80012722Y-62815659D01*
X80012723Y-62815659D01*
X80012724Y-62815659D01*
X80071689Y-62810500D01*
X80248131Y-62795063D01*
X80476386Y-62733903D01*
X80690553Y-62634035D01*
X80884124Y-62498495D01*
X81051218Y-62331401D01*
X81181453Y-62145405D01*
X81236030Y-62101781D01*
X81305528Y-62094587D01*
X81367883Y-62126110D01*
X81384602Y-62145405D01*
X81514613Y-62331078D01*
X81681640Y-62498105D01*
X81875144Y-62633600D01*
X82089230Y-62733429D01*
X82089239Y-62733433D01*
X82302723Y-62790634D01*
X82302723Y-61893012D01*
X82359730Y-61925925D01*
X82486897Y-61960000D01*
X82618549Y-61960000D01*
X82745716Y-61925925D01*
X82802723Y-61893012D01*
X82802723Y-62790633D01*
X83016206Y-62733433D01*
X83016215Y-62733429D01*
X83230301Y-62633600D01*
X83423805Y-62498105D01*
X83590828Y-62331082D01*
X83726323Y-62137578D01*
X83826152Y-61923492D01*
X83826155Y-61923486D01*
X83883359Y-61710000D01*
X82985735Y-61710000D01*
X83018648Y-61652993D01*
X83052723Y-61525826D01*
X83052723Y-61394174D01*
X83018648Y-61267007D01*
X82985735Y-61210000D01*
X83883359Y-61210000D01*
X83883358Y-61209999D01*
X83826155Y-60996513D01*
X83826152Y-60996507D01*
X83726323Y-60782422D01*
X83726322Y-60782420D01*
X83590836Y-60588926D01*
X83590831Y-60588920D01*
X83423805Y-60421894D01*
X83230301Y-60286399D01*
X83016215Y-60186570D01*
X83016209Y-60186567D01*
X82802723Y-60129364D01*
X82802723Y-61026988D01*
X82745716Y-60994075D01*
X82618549Y-60960000D01*
X82486897Y-60960000D01*
X82359730Y-60994075D01*
X82302723Y-61026988D01*
X82302723Y-60129364D01*
X82302722Y-60129364D01*
X82089236Y-60186567D01*
X82089230Y-60186570D01*
X81875145Y-60286399D01*
X81875143Y-60286400D01*
X81681649Y-60421886D01*
X81681643Y-60421891D01*
X81514614Y-60588920D01*
X81514613Y-60588922D01*
X81384603Y-60774595D01*
X81330026Y-60818219D01*
X81260527Y-60825412D01*
X81198173Y-60793890D01*
X81181453Y-60774594D01*
X81051217Y-60588597D01*
X80884125Y-60421506D01*
X80884118Y-60421501D01*
X80690557Y-60285967D01*
X80690553Y-60285965D01*
X80690551Y-60285964D01*
X80476386Y-60186097D01*
X80476382Y-60186096D01*
X80476378Y-60186094D01*
X80248136Y-60124938D01*
X80248126Y-60124936D01*
X80012724Y-60104341D01*
X80012722Y-60104341D01*
X79777319Y-60124936D01*
X79777309Y-60124938D01*
X79549067Y-60186094D01*
X79549058Y-60186098D01*
X79334894Y-60285964D01*
X79334892Y-60285965D01*
X79141323Y-60421503D01*
X79019396Y-60543430D01*
X78958073Y-60576914D01*
X78888381Y-60571930D01*
X78832448Y-60530058D01*
X78815533Y-60499081D01*
X78766520Y-60367671D01*
X78766516Y-60367664D01*
X78680270Y-60252455D01*
X78680267Y-60252452D01*
X78565058Y-60166206D01*
X78565051Y-60166202D01*
X78430205Y-60115908D01*
X78430206Y-60115908D01*
X78370606Y-60109501D01*
X78370604Y-60109500D01*
X78370596Y-60109500D01*
X78370587Y-60109500D01*
X76574852Y-60109500D01*
X76574846Y-60109501D01*
X76515239Y-60115908D01*
X76380394Y-60166202D01*
X76380387Y-60166206D01*
X76265178Y-60252452D01*
X76265175Y-60252455D01*
X76178929Y-60367664D01*
X76178925Y-60367671D01*
X76128631Y-60502517D01*
X76122224Y-60562116D01*
X76122223Y-60562135D01*
X75178876Y-60562135D01*
X75178876Y-60403210D01*
X75178878Y-60403181D01*
X75178877Y-60390606D01*
X75178879Y-60390604D01*
X75178877Y-60331673D01*
X75179656Y-60317794D01*
X75180675Y-60308748D01*
X75189834Y-60227434D01*
X75196013Y-60200366D01*
X75200841Y-60186570D01*
X75223725Y-60121162D01*
X75235772Y-60096147D01*
X75280419Y-60025088D01*
X75297722Y-60003388D01*
X75357071Y-59944035D01*
X75378767Y-59926734D01*
X75449826Y-59882083D01*
X75474839Y-59870036D01*
X75554050Y-59842317D01*
X75581115Y-59836139D01*
X75671056Y-59826003D01*
X75684943Y-59825223D01*
X75753146Y-59825223D01*
X75753262Y-59825213D01*
X82683908Y-59824304D01*
X82684138Y-59824372D01*
X82735365Y-59824378D01*
X82735365Y-59824379D01*
X82828629Y-59824390D01*
X82828806Y-59824391D01*
X82828806Y-59824390D01*
X82828810Y-59824391D01*
X83012114Y-59787954D01*
X83184785Y-59716452D01*
X83340188Y-59612635D01*
X83346862Y-59605962D01*
X83350938Y-59601887D01*
X83412263Y-59568406D01*
X83481954Y-59573395D01*
X83504586Y-59584581D01*
X83577631Y-59630479D01*
X83747901Y-59690059D01*
X83747906Y-59690060D01*
X83927152Y-59710256D01*
X83927156Y-59710256D01*
X83927160Y-59710256D01*
X84106405Y-59690060D01*
X84106407Y-59690059D01*
X84106411Y-59690059D01*
X84106414Y-59690057D01*
X84106418Y-59690057D01*
X84157456Y-59672197D01*
X84276678Y-59630480D01*
X84285454Y-59624965D01*
X84352688Y-59605962D01*
X84417400Y-59624961D01*
X84439179Y-59638646D01*
X84586103Y-59690057D01*
X84609446Y-59698225D01*
X84609451Y-59698226D01*
X84788697Y-59718422D01*
X84788701Y-59718422D01*
X84788705Y-59718422D01*
X84967950Y-59698226D01*
X84967952Y-59698225D01*
X84967956Y-59698225D01*
X84967959Y-59698223D01*
X84967963Y-59698223D01*
X85019001Y-59680363D01*
X85138223Y-59638646D01*
X85138232Y-59638639D01*
X85144500Y-59635623D01*
X85145240Y-59637160D01*
X85204014Y-59620543D01*
X85268739Y-59639543D01*
X85280306Y-59646812D01*
X85280308Y-59646813D01*
X85450575Y-59706392D01*
X85450580Y-59706393D01*
X85629826Y-59726589D01*
X85629830Y-59726589D01*
X85629834Y-59726589D01*
X85809079Y-59706393D01*
X85809081Y-59706392D01*
X85809085Y-59706392D01*
X85809088Y-59706390D01*
X85809092Y-59706390D01*
X85860130Y-59688530D01*
X85979352Y-59646813D01*
X86001127Y-59633130D01*
X86068361Y-59614129D01*
X86133074Y-59633131D01*
X86141848Y-59638644D01*
X86141849Y-59638644D01*
X86141852Y-59638646D01*
X86288776Y-59690057D01*
X86312119Y-59698225D01*
X86312124Y-59698226D01*
X86491370Y-59718422D01*
X86491374Y-59718422D01*
X86491378Y-59718422D01*
X86670623Y-59698226D01*
X86670626Y-59698225D01*
X86670629Y-59698225D01*
X86840896Y-59638646D01*
X86840900Y-59638644D01*
X86951240Y-59569312D01*
X87018477Y-59550311D01*
X87085312Y-59570678D01*
G37*
%TD.AperFunction*%
%TD*%
%TA.AperFunction,Conductor*%
%TO.N,Gnd*%
G36*
X83901897Y-91544963D02*
G01*
X84656988Y-91544963D01*
X84624075Y-91601970D01*
X84590000Y-91729137D01*
X84590000Y-91860789D01*
X84624075Y-91987956D01*
X84656988Y-92044963D01*
X83755075Y-92044963D01*
X83732213Y-92038250D01*
X82977122Y-92038250D01*
X83010035Y-91981243D01*
X83044110Y-91854076D01*
X83044110Y-91722424D01*
X83010035Y-91595257D01*
X82977122Y-91538250D01*
X83879035Y-91538250D01*
X83901897Y-91544963D01*
G37*
%TD.AperFunction*%
%TA.AperFunction,Conductor*%
G36*
X77163834Y-82312177D02*
G01*
X77170380Y-82316016D01*
X77213058Y-82342833D01*
X77383328Y-82402413D01*
X77383333Y-82402414D01*
X77562579Y-82422610D01*
X77562583Y-82422610D01*
X77562587Y-82422610D01*
X77741832Y-82402414D01*
X77741834Y-82402413D01*
X77741838Y-82402413D01*
X77741841Y-82402411D01*
X77741845Y-82402411D01*
X77812535Y-82377675D01*
X77912105Y-82342834D01*
X77920881Y-82337319D01*
X77988115Y-82318316D01*
X78052827Y-82337315D01*
X78074606Y-82351000D01*
X78218201Y-82401246D01*
X78244873Y-82410579D01*
X78244878Y-82410580D01*
X78424124Y-82430776D01*
X78424128Y-82430776D01*
X78424132Y-82430776D01*
X78603377Y-82410580D01*
X78603379Y-82410579D01*
X78603383Y-82410579D01*
X78603386Y-82410577D01*
X78603390Y-82410577D01*
X78654428Y-82392717D01*
X78773650Y-82351000D01*
X78773659Y-82350993D01*
X78779927Y-82347977D01*
X78780667Y-82349514D01*
X78839441Y-82332897D01*
X78904166Y-82351897D01*
X78913859Y-82357988D01*
X78915735Y-82359167D01*
X79086002Y-82418746D01*
X79086007Y-82418747D01*
X79265253Y-82438943D01*
X79265257Y-82438943D01*
X79265261Y-82438943D01*
X79444506Y-82418747D01*
X79444508Y-82418746D01*
X79444512Y-82418746D01*
X79444515Y-82418744D01*
X79444519Y-82418744D01*
X79495557Y-82400884D01*
X79614779Y-82359167D01*
X79636554Y-82345484D01*
X79703788Y-82326483D01*
X79768501Y-82345485D01*
X79777275Y-82350998D01*
X79777276Y-82350998D01*
X79777279Y-82351000D01*
X79920874Y-82401246D01*
X79947546Y-82410579D01*
X79947551Y-82410580D01*
X80126797Y-82430776D01*
X80126801Y-82430776D01*
X80126805Y-82430776D01*
X80306050Y-82410580D01*
X80306052Y-82410579D01*
X80306056Y-82410579D01*
X80306059Y-82410577D01*
X80306063Y-82410577D01*
X80401788Y-82377080D01*
X80476323Y-82351000D01*
X80492752Y-82340676D01*
X80559987Y-82321675D01*
X80626823Y-82342041D01*
X80646406Y-82357988D01*
X80675273Y-82386855D01*
X80675277Y-82386858D01*
X80830643Y-82490671D01*
X80830656Y-82490678D01*
X80874142Y-82508690D01*
X81003292Y-82562185D01*
X81048170Y-82571111D01*
X81186564Y-82598641D01*
X81186567Y-82598641D01*
X81206037Y-82598641D01*
X81206511Y-82598671D01*
X81214319Y-82598667D01*
X81214324Y-82598669D01*
X81279135Y-82598641D01*
X81279158Y-82598641D01*
X81353810Y-82598641D01*
X81354292Y-82598608D01*
X87909551Y-82595777D01*
X87918426Y-82596092D01*
X88118563Y-82610406D01*
X88136065Y-82612923D01*
X88326965Y-82654450D01*
X88327792Y-82654630D01*
X88344768Y-82659614D01*
X88528614Y-82728185D01*
X88544707Y-82735535D01*
X88716911Y-82829565D01*
X88731794Y-82839129D01*
X88756545Y-82857657D01*
X88811566Y-82898845D01*
X88888873Y-82956715D01*
X88902244Y-82968301D01*
X89040991Y-83107046D01*
X89052576Y-83120417D01*
X89170155Y-83277481D01*
X89179721Y-83292364D01*
X89273761Y-83464582D01*
X89281110Y-83480675D01*
X89302762Y-83538724D01*
X89344445Y-83650478D01*
X89349679Y-83664509D01*
X89354664Y-83681485D01*
X89396373Y-83873213D01*
X89398891Y-83890724D01*
X89413184Y-84090529D01*
X89413500Y-84099375D01*
X89413500Y-84167708D01*
X89413676Y-84170335D01*
X89439273Y-94995451D01*
X89438957Y-95004590D01*
X89424655Y-95204555D01*
X89422137Y-95222067D01*
X89380432Y-95413785D01*
X89375448Y-95430761D01*
X89306877Y-95614605D01*
X89299527Y-95630698D01*
X89205497Y-95802900D01*
X89195932Y-95817784D01*
X89078348Y-95974857D01*
X89066762Y-95988228D01*
X88928017Y-96126972D01*
X88914646Y-96138557D01*
X88757581Y-96256134D01*
X88742697Y-96265700D01*
X88570483Y-96359734D01*
X88554390Y-96367083D01*
X88370552Y-96435650D01*
X88353577Y-96440634D01*
X88161858Y-96482339D01*
X88144345Y-96484857D01*
X87944012Y-96499183D01*
X87935167Y-96499499D01*
X87866303Y-96499499D01*
X87866287Y-96499500D01*
X50004428Y-96499500D01*
X49995582Y-96499184D01*
X49973622Y-96497613D01*
X49795442Y-96484869D01*
X49777931Y-96482351D01*
X49586212Y-96440646D01*
X49569236Y-96435662D01*
X49385390Y-96367090D01*
X49369298Y-96359740D01*
X49197095Y-96265711D01*
X49182210Y-96256146D01*
X49025132Y-96138558D01*
X49011762Y-96126972D01*
X48873027Y-95988237D01*
X48861441Y-95974867D01*
X48861434Y-95974857D01*
X48743849Y-95817784D01*
X48734288Y-95802904D01*
X48640259Y-95630701D01*
X48632909Y-95614609D01*
X48593518Y-95508998D01*
X48564334Y-95430755D01*
X48559355Y-95413797D01*
X48517647Y-95222063D01*
X48515130Y-95204556D01*
X48514779Y-95199652D01*
X48500816Y-95004418D01*
X48500500Y-94995572D01*
X48500500Y-86413458D01*
X48520185Y-86346419D01*
X48572989Y-86300664D01*
X48642147Y-86290720D01*
X48705703Y-86319745D01*
X48736881Y-86361052D01*
X48797198Y-86490402D01*
X48825965Y-86552092D01*
X48825967Y-86552096D01*
X48902280Y-86661081D01*
X48961505Y-86745663D01*
X49128599Y-86912757D01*
X49214566Y-86972952D01*
X49322165Y-87048294D01*
X49322167Y-87048295D01*
X49322170Y-87048297D01*
X49536337Y-87148165D01*
X49764592Y-87209325D01*
X49952918Y-87225801D01*
X49999999Y-87229921D01*
X50000000Y-87229921D01*
X50000001Y-87229921D01*
X50039234Y-87226488D01*
X50235408Y-87209325D01*
X50463663Y-87148165D01*
X50677830Y-87048297D01*
X50871401Y-86912757D01*
X51038495Y-86745663D01*
X51086127Y-86677638D01*
X51140704Y-86634013D01*
X51187701Y-86624762D01*
X51633036Y-86624762D01*
X51700075Y-86644447D01*
X51720717Y-86661081D01*
X55076583Y-90016947D01*
X55076587Y-90016950D01*
X55199501Y-90099079D01*
X55199514Y-90099086D01*
X55336085Y-90155655D01*
X55336090Y-90155657D01*
X55336094Y-90155657D01*
X55336095Y-90155658D01*
X55481082Y-90184499D01*
X55481085Y-90184499D01*
X69054244Y-90184499D01*
X69151786Y-90165095D01*
X69199237Y-90155657D01*
X69335819Y-90099083D01*
X69385053Y-90066185D01*
X69458740Y-90016951D01*
X69990924Y-89484765D01*
X70052245Y-89451282D01*
X70097997Y-89449975D01*
X70315970Y-89484499D01*
X70315971Y-89484499D01*
X70544677Y-89484499D01*
X70544678Y-89484499D01*
X70770569Y-89448721D01*
X70770572Y-89448720D01*
X70770573Y-89448720D01*
X70988079Y-89378048D01*
X70988079Y-89378047D01*
X70988082Y-89378047D01*
X71191862Y-89274216D01*
X71376890Y-89139785D01*
X71538610Y-88978065D01*
X71600316Y-88893133D01*
X71655643Y-88850469D01*
X71725256Y-88844490D01*
X71787051Y-88877095D01*
X71800950Y-88893134D01*
X71862421Y-88977740D01*
X71862421Y-88977741D01*
X72024081Y-89139401D01*
X72209047Y-89273787D01*
X72412753Y-89377581D01*
X72630195Y-89448233D01*
X72720324Y-89462508D01*
X72720324Y-88474746D01*
X72758032Y-88496517D01*
X72897915Y-88533999D01*
X73042733Y-88533999D01*
X73182616Y-88496517D01*
X73220324Y-88474746D01*
X73220324Y-89462507D01*
X73310452Y-89448233D01*
X73527894Y-89377581D01*
X73731600Y-89273787D01*
X73914383Y-89140987D01*
X73980189Y-89117507D01*
X74048243Y-89133332D01*
X74096938Y-89183438D01*
X74103451Y-89197973D01*
X74114025Y-89226325D01*
X74114030Y-89226334D01*
X74200276Y-89341543D01*
X74200279Y-89341546D01*
X74315488Y-89427792D01*
X74315495Y-89427796D01*
X74450341Y-89478090D01*
X74450340Y-89478090D01*
X74457268Y-89478834D01*
X74509951Y-89484499D01*
X76510696Y-89484498D01*
X76570307Y-89478090D01*
X76705155Y-89427795D01*
X76820370Y-89341545D01*
X76906620Y-89226330D01*
X76956915Y-89091482D01*
X76963324Y-89031872D01*
X76963323Y-87264499D01*
X76983008Y-87197461D01*
X77035811Y-87151706D01*
X77087323Y-87140500D01*
X78028142Y-87140500D01*
X78095181Y-87160185D01*
X78140936Y-87212989D01*
X78150880Y-87282147D01*
X78121855Y-87345703D01*
X78115823Y-87352181D01*
X78110184Y-87357819D01*
X78014211Y-87510558D01*
X77954631Y-87680827D01*
X77954630Y-87680832D01*
X77934435Y-87860078D01*
X77934435Y-87860085D01*
X77954630Y-88039331D01*
X77954631Y-88039336D01*
X78014211Y-88209605D01*
X78103121Y-88351103D01*
X78110184Y-88362344D01*
X78237738Y-88489898D01*
X78390478Y-88585871D01*
X78560745Y-88645450D01*
X78560750Y-88645451D01*
X78739996Y-88665647D01*
X78740000Y-88665647D01*
X78740004Y-88665647D01*
X78919249Y-88645451D01*
X78919252Y-88645450D01*
X78919255Y-88645450D01*
X78999017Y-88617539D01*
X79039972Y-88610582D01*
X79135500Y-88610582D01*
X79202539Y-88630267D01*
X79248294Y-88683071D01*
X79259500Y-88734582D01*
X79259500Y-93680028D01*
X79252542Y-93720982D01*
X79224631Y-93800747D01*
X79204435Y-93979996D01*
X79204435Y-93980003D01*
X79224630Y-94159249D01*
X79224631Y-94159254D01*
X79284211Y-94329523D01*
X79380184Y-94482262D01*
X79507738Y-94609816D01*
X79660478Y-94705789D01*
X79830745Y-94765368D01*
X79830750Y-94765369D01*
X80009996Y-94785565D01*
X80010000Y-94785565D01*
X80010004Y-94785565D01*
X80189249Y-94765369D01*
X80189252Y-94765368D01*
X80189255Y-94765368D01*
X80359522Y-94705789D01*
X80512262Y-94609816D01*
X80639816Y-94482262D01*
X80735789Y-94329522D01*
X80736234Y-94328249D01*
X81188451Y-94328249D01*
X81188451Y-94328250D01*
X81209046Y-94563653D01*
X81209048Y-94563663D01*
X81270204Y-94791905D01*
X81270206Y-94791909D01*
X81270207Y-94791913D01*
X81273338Y-94798627D01*
X81370075Y-95006080D01*
X81370077Y-95006084D01*
X81471726Y-95151252D01*
X81505615Y-95199651D01*
X81672709Y-95366745D01*
X81752275Y-95422458D01*
X81866275Y-95502282D01*
X81866277Y-95502283D01*
X81866280Y-95502285D01*
X82080447Y-95602153D01*
X82080453Y-95602154D01*
X82080454Y-95602155D01*
X82105508Y-95608868D01*
X82308702Y-95663313D01*
X82497028Y-95679789D01*
X82544109Y-95683909D01*
X82544110Y-95683909D01*
X82544111Y-95683909D01*
X82583344Y-95680476D01*
X82779518Y-95663313D01*
X83007773Y-95602153D01*
X83221940Y-95502285D01*
X83415511Y-95366745D01*
X83582605Y-95199651D01*
X83713131Y-95013239D01*
X83767705Y-94969617D01*
X83837204Y-94962423D01*
X83899559Y-94993946D01*
X83916277Y-95013239D01*
X84051505Y-95206364D01*
X84218599Y-95373458D01*
X84288578Y-95422458D01*
X84412165Y-95508995D01*
X84412167Y-95508996D01*
X84412170Y-95508998D01*
X84626337Y-95608866D01*
X84854592Y-95670026D01*
X85013272Y-95683909D01*
X85089999Y-95690622D01*
X85090000Y-95690622D01*
X85090001Y-95690622D01*
X85129234Y-95687189D01*
X85325408Y-95670026D01*
X85553663Y-95608866D01*
X85767830Y-95508998D01*
X85961401Y-95373458D01*
X86128495Y-95206364D01*
X86264035Y-95012793D01*
X86363903Y-94798626D01*
X86425063Y-94570371D01*
X86445659Y-94334963D01*
X86425063Y-94099555D01*
X86363903Y-93871300D01*
X86264035Y-93657134D01*
X86259333Y-93650419D01*
X86128496Y-93463563D01*
X86121782Y-93456849D01*
X86006179Y-93341246D01*
X85972696Y-93279926D01*
X85977680Y-93210234D01*
X86019551Y-93154300D01*
X86050529Y-93137385D01*
X86182086Y-93088317D01*
X86182093Y-93088313D01*
X86297187Y-93002153D01*
X86297190Y-93002150D01*
X86383350Y-92887056D01*
X86383354Y-92887049D01*
X86433596Y-92752342D01*
X86433598Y-92752335D01*
X86439999Y-92692807D01*
X86440000Y-92692790D01*
X86440000Y-92044963D01*
X85523012Y-92044963D01*
X85555925Y-91987956D01*
X85590000Y-91860789D01*
X85590000Y-91729137D01*
X85555925Y-91601970D01*
X85523012Y-91544963D01*
X86440000Y-91544963D01*
X86440000Y-90897135D01*
X86439999Y-90897118D01*
X86433598Y-90837590D01*
X86433596Y-90837583D01*
X86383354Y-90702876D01*
X86383350Y-90702869D01*
X86297190Y-90587775D01*
X86297187Y-90587772D01*
X86182093Y-90501612D01*
X86182086Y-90501608D01*
X86047379Y-90451366D01*
X86047372Y-90451364D01*
X85987844Y-90444963D01*
X85340000Y-90444963D01*
X85340000Y-91361951D01*
X85282993Y-91329038D01*
X85155826Y-91294963D01*
X85024174Y-91294963D01*
X84897007Y-91329038D01*
X84840000Y-91361951D01*
X84840000Y-90444963D01*
X84192155Y-90444963D01*
X84132627Y-90451364D01*
X84132620Y-90451366D01*
X83997913Y-90501608D01*
X83997910Y-90501610D01*
X83895849Y-90578013D01*
X83830384Y-90602430D01*
X83762111Y-90587578D01*
X83747227Y-90578013D01*
X83636198Y-90494896D01*
X83636196Y-90494895D01*
X83501489Y-90444653D01*
X83501482Y-90444651D01*
X83441954Y-90438250D01*
X82794110Y-90438250D01*
X82794110Y-91355238D01*
X82737103Y-91322325D01*
X82609936Y-91288250D01*
X82478284Y-91288250D01*
X82351117Y-91322325D01*
X82294110Y-91355238D01*
X82294110Y-90438250D01*
X81646265Y-90438250D01*
X81586737Y-90444651D01*
X81586730Y-90444653D01*
X81452023Y-90494895D01*
X81452016Y-90494899D01*
X81336922Y-90581059D01*
X81336919Y-90581062D01*
X81250759Y-90696156D01*
X81250755Y-90696163D01*
X81200513Y-90830870D01*
X81200511Y-90830877D01*
X81194110Y-90890405D01*
X81194110Y-91538250D01*
X82111098Y-91538250D01*
X82078185Y-91595257D01*
X82044110Y-91722424D01*
X82044110Y-91854076D01*
X82078185Y-91981243D01*
X82111098Y-92038250D01*
X81194110Y-92038250D01*
X81194110Y-92686094D01*
X81200511Y-92745622D01*
X81200513Y-92745629D01*
X81250755Y-92880336D01*
X81250759Y-92880343D01*
X81336919Y-92995437D01*
X81336922Y-92995440D01*
X81452016Y-93081600D01*
X81452023Y-93081604D01*
X81583580Y-93130671D01*
X81639513Y-93172542D01*
X81663931Y-93238006D01*
X81649080Y-93306279D01*
X81627929Y-93334534D01*
X81505613Y-93456850D01*
X81370075Y-93650419D01*
X81370074Y-93650421D01*
X81270208Y-93864585D01*
X81270204Y-93864594D01*
X81209048Y-94092836D01*
X81209046Y-94092846D01*
X81188451Y-94328249D01*
X80736234Y-94328249D01*
X80795368Y-94159255D01*
X80802095Y-94099555D01*
X80815565Y-93980003D01*
X80815565Y-93979996D01*
X80795368Y-93800747D01*
X80795368Y-93800745D01*
X80767458Y-93720982D01*
X80760500Y-93680028D01*
X80760500Y-87786161D01*
X80731659Y-87641174D01*
X80731658Y-87641173D01*
X80731658Y-87641169D01*
X80704405Y-87575374D01*
X80675087Y-87504593D01*
X80675080Y-87504580D01*
X80592951Y-87381666D01*
X80592948Y-87381662D01*
X80563467Y-87352181D01*
X80529982Y-87290858D01*
X80534966Y-87221166D01*
X80576838Y-87165233D01*
X80642302Y-87140816D01*
X80651148Y-87140500D01*
X85142721Y-87140500D01*
X85240263Y-87121096D01*
X85287714Y-87111658D01*
X85424296Y-87055084D01*
X85473530Y-87022186D01*
X85547217Y-86972952D01*
X86057299Y-86462867D01*
X86118620Y-86429384D01*
X86155784Y-86427022D01*
X86298662Y-86439522D01*
X86368800Y-86445659D01*
X86368801Y-86445659D01*
X86368802Y-86445659D01*
X86408035Y-86442226D01*
X86604209Y-86425063D01*
X86832464Y-86363903D01*
X87046631Y-86264035D01*
X87240202Y-86128495D01*
X87407296Y-85961401D01*
X87542836Y-85767830D01*
X87642704Y-85553663D01*
X87703864Y-85325408D01*
X87724460Y-85090000D01*
X87703864Y-84854592D01*
X87642704Y-84626337D01*
X87542836Y-84412171D01*
X87537226Y-84404158D01*
X87407295Y-84218597D01*
X87240203Y-84051506D01*
X87240196Y-84051501D01*
X87046635Y-83915967D01*
X87046631Y-83915965D01*
X87046629Y-83915964D01*
X86832464Y-83816097D01*
X86832460Y-83816096D01*
X86832456Y-83816094D01*
X86604214Y-83754938D01*
X86604204Y-83754936D01*
X86368802Y-83734341D01*
X86368800Y-83734341D01*
X86133397Y-83754936D01*
X86133387Y-83754938D01*
X85905145Y-83816094D01*
X85905136Y-83816098D01*
X85690972Y-83915964D01*
X85690970Y-83915965D01*
X85497398Y-84051505D01*
X85330306Y-84218597D01*
X85200376Y-84404158D01*
X85145799Y-84447783D01*
X85076301Y-84454977D01*
X85013946Y-84423454D01*
X84997226Y-84404158D01*
X84867295Y-84218597D01*
X84700203Y-84051506D01*
X84700196Y-84051501D01*
X84506635Y-83915967D01*
X84506631Y-83915965D01*
X84506629Y-83915964D01*
X84292464Y-83816097D01*
X84292460Y-83816096D01*
X84292456Y-83816094D01*
X84064214Y-83754938D01*
X84064204Y-83754936D01*
X83828802Y-83734341D01*
X83828800Y-83734341D01*
X83593397Y-83754936D01*
X83593387Y-83754938D01*
X83365145Y-83816094D01*
X83365136Y-83816098D01*
X83150972Y-83915964D01*
X83150970Y-83915965D01*
X82957398Y-84051505D01*
X82790306Y-84218597D01*
X82660376Y-84404158D01*
X82605799Y-84447783D01*
X82536301Y-84454977D01*
X82473946Y-84423454D01*
X82457226Y-84404158D01*
X82327295Y-84218597D01*
X82160203Y-84051506D01*
X82160196Y-84051501D01*
X81966635Y-83915967D01*
X81966631Y-83915965D01*
X81966629Y-83915964D01*
X81752464Y-83816097D01*
X81752460Y-83816096D01*
X81752456Y-83816094D01*
X81524214Y-83754938D01*
X81524204Y-83754936D01*
X81288802Y-83734341D01*
X81288800Y-83734341D01*
X81053397Y-83754936D01*
X81053387Y-83754938D01*
X80825145Y-83816094D01*
X80825136Y-83816098D01*
X80610972Y-83915964D01*
X80610970Y-83915965D01*
X80417398Y-84051505D01*
X80250306Y-84218597D01*
X80120376Y-84404158D01*
X80065799Y-84447783D01*
X79996301Y-84454977D01*
X79933946Y-84423454D01*
X79917226Y-84404158D01*
X79787295Y-84218597D01*
X79620203Y-84051506D01*
X79620196Y-84051501D01*
X79426635Y-83915967D01*
X79426631Y-83915965D01*
X79426629Y-83915964D01*
X79212464Y-83816097D01*
X79212460Y-83816096D01*
X79212456Y-83816094D01*
X78984214Y-83754938D01*
X78984204Y-83754936D01*
X78748802Y-83734341D01*
X78748800Y-83734341D01*
X78513397Y-83754936D01*
X78513384Y-83754939D01*
X78385042Y-83789327D01*
X78315193Y-83787664D01*
X78265269Y-83757233D01*
X77016726Y-82508690D01*
X76983241Y-82447367D01*
X76988225Y-82377675D01*
X77030097Y-82321742D01*
X77095561Y-82297325D01*
X77163834Y-82312177D01*
G37*
%TD.AperFunction*%
%TA.AperFunction,Conductor*%
G36*
X66060988Y-80920185D02*
G01*
X66106743Y-80972989D01*
X66117949Y-81024500D01*
X66117949Y-82898026D01*
X66117950Y-82898032D01*
X66124357Y-82957639D01*
X66174651Y-83092484D01*
X66174655Y-83092491D01*
X66260901Y-83207700D01*
X66260904Y-83207703D01*
X66376113Y-83293949D01*
X66376120Y-83293953D01*
X66510966Y-83344247D01*
X66510965Y-83344247D01*
X66517893Y-83344991D01*
X66570576Y-83350656D01*
X68466321Y-83350655D01*
X68525932Y-83344247D01*
X68660780Y-83293952D01*
X68775995Y-83207702D01*
X68862245Y-83092487D01*
X68912540Y-82957639D01*
X68918949Y-82898029D01*
X68918949Y-82238364D01*
X68938634Y-82171325D01*
X68991438Y-82125570D01*
X69042949Y-82114364D01*
X69632423Y-82114364D01*
X69699462Y-82134049D01*
X69745217Y-82186853D01*
X69756423Y-82238364D01*
X69756423Y-82461740D01*
X69762830Y-82521347D01*
X69813124Y-82656192D01*
X69813128Y-82656199D01*
X69899374Y-82771408D01*
X69899377Y-82771411D01*
X70014586Y-82857657D01*
X70014593Y-82857661D01*
X70149439Y-82907955D01*
X70149438Y-82907955D01*
X70156366Y-82908699D01*
X70209049Y-82914364D01*
X71656824Y-82914363D01*
X71723863Y-82934048D01*
X71744505Y-82950682D01*
X73059052Y-84265229D01*
X73092537Y-84326552D01*
X73087553Y-84396244D01*
X73045681Y-84452177D01*
X73005443Y-84470122D01*
X73005967Y-84471849D01*
X73000134Y-84473618D01*
X72863556Y-84530190D01*
X72863549Y-84530194D01*
X72740629Y-84612325D01*
X72740628Y-84612326D01*
X70869724Y-86483229D01*
X70808401Y-86516714D01*
X70762646Y-86518021D01*
X70544678Y-86483499D01*
X70315970Y-86483499D01*
X70272387Y-86490402D01*
X70090077Y-86519277D01*
X70090074Y-86519277D01*
X69872568Y-86589949D01*
X69668785Y-86693782D01*
X69564092Y-86769847D01*
X69483758Y-86828213D01*
X69483756Y-86828215D01*
X69483755Y-86828215D01*
X69322040Y-86989930D01*
X69322040Y-86989931D01*
X69322038Y-86989933D01*
X69264304Y-87069395D01*
X69187607Y-87174960D01*
X69083774Y-87378743D01*
X69013102Y-87596249D01*
X69013102Y-87596252D01*
X68977324Y-87822145D01*
X68977324Y-88145858D01*
X68998857Y-88281810D01*
X68989903Y-88351103D01*
X68964065Y-88388889D01*
X68705775Y-88647180D01*
X68644452Y-88680665D01*
X68618094Y-88683499D01*
X63079659Y-88683499D01*
X63012620Y-88663814D01*
X62966865Y-88611010D01*
X62955659Y-88559499D01*
X62955659Y-88233999D01*
X61993907Y-88233999D01*
X62015677Y-88196291D01*
X62053159Y-88056408D01*
X62053159Y-87911590D01*
X62015677Y-87771707D01*
X61993907Y-87733999D01*
X62955659Y-87733999D01*
X62955659Y-86936171D01*
X62955658Y-86936154D01*
X62949257Y-86876626D01*
X62949255Y-86876619D01*
X62899013Y-86741912D01*
X62899009Y-86741905D01*
X62812849Y-86626811D01*
X62812846Y-86626808D01*
X62697752Y-86540648D01*
X62697745Y-86540644D01*
X62563038Y-86490402D01*
X62563031Y-86490400D01*
X62503503Y-86483999D01*
X61753159Y-86483999D01*
X61753159Y-87493251D01*
X61715451Y-87471481D01*
X61575568Y-87433999D01*
X61430750Y-87433999D01*
X61290867Y-87471481D01*
X61253159Y-87493251D01*
X61253159Y-86483999D01*
X60502814Y-86483999D01*
X60443286Y-86490400D01*
X60443279Y-86490402D01*
X60308572Y-86540644D01*
X60308565Y-86540648D01*
X60193471Y-86626808D01*
X60193468Y-86626811D01*
X60107308Y-86741905D01*
X60107305Y-86741911D01*
X60096885Y-86769847D01*
X60055012Y-86825779D01*
X59989547Y-86850194D01*
X59921274Y-86835341D01*
X59907823Y-86826831D01*
X59724697Y-86693782D01*
X59593259Y-86626811D01*
X59520914Y-86589949D01*
X59303407Y-86519277D01*
X59238037Y-86508923D01*
X59174902Y-86478993D01*
X59137972Y-86419681D01*
X59138970Y-86349818D01*
X59169753Y-86298771D01*
X60663729Y-84804795D01*
X60725050Y-84771312D01*
X60792363Y-84775436D01*
X60820745Y-84785368D01*
X60820748Y-84785368D01*
X60820750Y-84785369D01*
X60999996Y-84805565D01*
X61000000Y-84805565D01*
X61000004Y-84805565D01*
X61179249Y-84785369D01*
X61179252Y-84785368D01*
X61179255Y-84785368D01*
X61349522Y-84725789D01*
X61502262Y-84629816D01*
X61629816Y-84502262D01*
X61713538Y-84369018D01*
X61765873Y-84322728D01*
X61834926Y-84312080D01*
X61898775Y-84340455D01*
X61929017Y-84378696D01*
X62001873Y-84521683D01*
X62126812Y-84693650D01*
X62277135Y-84843973D01*
X62449101Y-84968912D01*
X62449103Y-84968913D01*
X62449106Y-84968915D01*
X62638510Y-85065421D01*
X62840679Y-85131110D01*
X63050635Y-85164364D01*
X63050636Y-85164364D01*
X64263208Y-85164364D01*
X64263209Y-85164364D01*
X64473165Y-85131110D01*
X64675334Y-85065421D01*
X64864738Y-84968915D01*
X64886711Y-84952950D01*
X65036708Y-84843973D01*
X65036710Y-84843970D01*
X65036714Y-84843968D01*
X65187026Y-84693656D01*
X65187028Y-84693652D01*
X65187031Y-84693650D01*
X65311970Y-84521684D01*
X65311971Y-84521683D01*
X65311973Y-84521680D01*
X65408479Y-84332276D01*
X65474168Y-84130107D01*
X65507422Y-83920151D01*
X65507422Y-83707577D01*
X65474168Y-83497621D01*
X65408479Y-83295452D01*
X65311973Y-83106048D01*
X65311971Y-83106045D01*
X65311970Y-83106043D01*
X65187031Y-82934077D01*
X65036708Y-82783754D01*
X64864742Y-82658815D01*
X64675336Y-82562308D01*
X64675335Y-82562307D01*
X64675334Y-82562307D01*
X64473165Y-82496618D01*
X64473163Y-82496617D01*
X64473162Y-82496617D01*
X64311879Y-82471072D01*
X64263209Y-82463364D01*
X63050635Y-82463364D01*
X63001964Y-82471072D01*
X62840682Y-82496617D01*
X62840679Y-82496618D01*
X62638886Y-82562185D01*
X62638507Y-82562308D01*
X62449101Y-82658815D01*
X62277135Y-82783754D01*
X62126812Y-82934077D01*
X62001873Y-83106043D01*
X61905366Y-83295447D01*
X61850026Y-83465766D01*
X61810588Y-83523441D01*
X61746229Y-83550639D01*
X61677383Y-83538724D01*
X61636173Y-83501577D01*
X61634159Y-83503184D01*
X61629815Y-83497737D01*
X61502262Y-83370184D01*
X61349523Y-83274211D01*
X61179254Y-83214631D01*
X61172468Y-83213083D01*
X61172852Y-83211397D01*
X61116608Y-83187757D01*
X61077059Y-83130158D01*
X61074928Y-83060321D01*
X61078726Y-83048298D01*
X61112540Y-82957639D01*
X61118949Y-82898029D01*
X61118948Y-81394916D01*
X61138633Y-81327878D01*
X61191436Y-81282123D01*
X61260595Y-81272179D01*
X61324151Y-81301204D01*
X61330629Y-81307236D01*
X61391636Y-81368243D01*
X61391641Y-81368247D01*
X61469742Y-81424990D01*
X61569978Y-81497815D01*
X61698375Y-81563237D01*
X61766393Y-81597895D01*
X61766396Y-81597896D01*
X61871221Y-81631955D01*
X61976049Y-81666015D01*
X62193778Y-81700500D01*
X62193779Y-81700500D01*
X63614221Y-81700500D01*
X63614222Y-81700500D01*
X63831951Y-81666015D01*
X64041606Y-81597895D01*
X64238022Y-81497815D01*
X64416365Y-81368242D01*
X64572242Y-81212365D01*
X64701815Y-81034022D01*
X64718581Y-81001117D01*
X64735352Y-80968204D01*
X64783326Y-80917409D01*
X64845836Y-80900500D01*
X65993949Y-80900500D01*
X66060988Y-80920185D01*
G37*
%TD.AperFunction*%
%TA.AperFunction,Conductor*%
G36*
X58185686Y-80436895D02*
G01*
X58236738Y-80467680D01*
X58281630Y-80512572D01*
X58315115Y-80573895D01*
X58317949Y-80600253D01*
X58317949Y-82898026D01*
X58317950Y-82898032D01*
X58324357Y-82957639D01*
X58374651Y-83092484D01*
X58374655Y-83092491D01*
X58460901Y-83207700D01*
X58460904Y-83207703D01*
X58576113Y-83293949D01*
X58576120Y-83293953D01*
X58710966Y-83344247D01*
X58710965Y-83344247D01*
X58717893Y-83344991D01*
X58770576Y-83350656D01*
X59695772Y-83350655D01*
X59762811Y-83370339D01*
X59808566Y-83423143D01*
X59818510Y-83492302D01*
X59789485Y-83555858D01*
X59783453Y-83562336D01*
X56862559Y-86483229D01*
X56801236Y-86516714D01*
X56755481Y-86518021D01*
X56537513Y-86483499D01*
X56308805Y-86483499D01*
X56265222Y-86490402D01*
X56082912Y-86519277D01*
X56082909Y-86519277D01*
X55865403Y-86589949D01*
X55661620Y-86693782D01*
X55556927Y-86769847D01*
X55476593Y-86828213D01*
X55476591Y-86828215D01*
X55476590Y-86828215D01*
X55314875Y-86989930D01*
X55314875Y-86989931D01*
X55314873Y-86989933D01*
X55257139Y-87069395D01*
X55180442Y-87174960D01*
X55076609Y-87378743D01*
X55012720Y-87575374D01*
X54973282Y-87633050D01*
X54908924Y-87660248D01*
X54840077Y-87648333D01*
X54807108Y-87624737D01*
X53723019Y-86540648D01*
X52473682Y-85291310D01*
X52473681Y-85291309D01*
X52473679Y-85291307D01*
X52424445Y-85258412D01*
X52391621Y-85236480D01*
X52350761Y-85209178D01*
X52350760Y-85209177D01*
X52350758Y-85209176D01*
X52350756Y-85209175D01*
X52214183Y-85152605D01*
X52214173Y-85152602D01*
X52069186Y-85123762D01*
X52069184Y-85123762D01*
X51187701Y-85123762D01*
X51120662Y-85104077D01*
X51086126Y-85070885D01*
X51038494Y-85002859D01*
X50871402Y-84835768D01*
X50871396Y-84835763D01*
X50685842Y-84705837D01*
X50642217Y-84651260D01*
X50635023Y-84581762D01*
X50666546Y-84519407D01*
X50685842Y-84502687D01*
X50753979Y-84454977D01*
X50871401Y-84372757D01*
X51038495Y-84205663D01*
X51174035Y-84012092D01*
X51273903Y-83797925D01*
X51335063Y-83569670D01*
X51355659Y-83334262D01*
X51354816Y-83324632D01*
X51348649Y-83254136D01*
X51335063Y-83098854D01*
X51283912Y-82907955D01*
X51273905Y-82870606D01*
X51273904Y-82870605D01*
X51273903Y-82870599D01*
X51174035Y-82656433D01*
X51173872Y-82656199D01*
X51038494Y-82462859D01*
X50871402Y-82295768D01*
X50871396Y-82295763D01*
X50685842Y-82165837D01*
X50642217Y-82111260D01*
X50635023Y-82041762D01*
X50666546Y-81979407D01*
X50685842Y-81962687D01*
X50798668Y-81883685D01*
X50871401Y-81832757D01*
X51038495Y-81665663D01*
X51174035Y-81472092D01*
X51176707Y-81466359D01*
X51222878Y-81413920D01*
X51289091Y-81394762D01*
X51908597Y-81394762D01*
X51908613Y-81394763D01*
X51916209Y-81394763D01*
X52074320Y-81394763D01*
X52074323Y-81394763D01*
X52227051Y-81353839D01*
X52285355Y-81320177D01*
X52363982Y-81274782D01*
X52475786Y-81162978D01*
X52475786Y-81162976D01*
X52485987Y-81152776D01*
X52485990Y-81152771D01*
X52701945Y-80936816D01*
X52763267Y-80903334D01*
X52789625Y-80900500D01*
X54104164Y-80900500D01*
X54171203Y-80920185D01*
X54214648Y-80968204D01*
X54248185Y-81034023D01*
X54377752Y-81212358D01*
X54377756Y-81212363D01*
X54533636Y-81368243D01*
X54533641Y-81368247D01*
X54611742Y-81424990D01*
X54711978Y-81497815D01*
X54840375Y-81563237D01*
X54908393Y-81597895D01*
X54908396Y-81597896D01*
X55013221Y-81631955D01*
X55118049Y-81666015D01*
X55335778Y-81700500D01*
X55335779Y-81700500D01*
X56756221Y-81700500D01*
X56756222Y-81700500D01*
X56973951Y-81666015D01*
X57183606Y-81597895D01*
X57380022Y-81497815D01*
X57558365Y-81368242D01*
X57714242Y-81212365D01*
X57843815Y-81034022D01*
X57943895Y-80837606D01*
X58012015Y-80627951D01*
X58026584Y-80535962D01*
X58056513Y-80472829D01*
X58115824Y-80435897D01*
X58185686Y-80436895D01*
G37*
%TD.AperFunction*%
%TA.AperFunction,Conductor*%
G36*
X54869558Y-63639477D02*
G01*
X54875384Y-63643459D01*
X54963087Y-63707179D01*
X55059422Y-63756264D01*
X55159502Y-63807259D01*
X55159505Y-63807260D01*
X55201009Y-63820745D01*
X55369158Y-63875379D01*
X55586887Y-63909864D01*
X55586888Y-63909864D01*
X57007330Y-63909864D01*
X57007331Y-63909864D01*
X57225060Y-63875379D01*
X57434715Y-63807259D01*
X57631131Y-63707179D01*
X57695596Y-63660342D01*
X57761401Y-63636862D01*
X57829455Y-63652687D01*
X57878150Y-63702792D01*
X57892481Y-63760660D01*
X57892481Y-64495453D01*
X57892482Y-64495459D01*
X57898889Y-64555066D01*
X57949183Y-64689911D01*
X57949187Y-64689918D01*
X58035433Y-64805127D01*
X58035436Y-64805130D01*
X58150645Y-64891376D01*
X58150652Y-64891380D01*
X58285498Y-64941674D01*
X58285497Y-64941674D01*
X58292425Y-64942418D01*
X58345108Y-64948083D01*
X60240853Y-64948082D01*
X60300464Y-64941674D01*
X60435312Y-64891379D01*
X60550527Y-64805129D01*
X60563885Y-64787284D01*
X60619815Y-64745414D01*
X60689506Y-64740428D01*
X60704098Y-64744551D01*
X60755896Y-64762676D01*
X60820740Y-64785367D01*
X60820750Y-64785369D01*
X60999996Y-64805565D01*
X61000000Y-64805565D01*
X61000004Y-64805565D01*
X61179249Y-64785369D01*
X61179252Y-64785368D01*
X61179255Y-64785368D01*
X61179256Y-64785367D01*
X61179259Y-64785367D01*
X61232452Y-64766753D01*
X61263289Y-64755962D01*
X61333068Y-64752400D01*
X61393696Y-64787129D01*
X61425923Y-64849122D01*
X61422176Y-64911322D01*
X61371013Y-65068786D01*
X61355247Y-65168333D01*
X61337760Y-65278740D01*
X61337760Y-65491314D01*
X61343388Y-65526845D01*
X61370640Y-65698913D01*
X61371014Y-65701270D01*
X61435743Y-65900485D01*
X61436704Y-65903441D01*
X61533208Y-66092842D01*
X61630893Y-66227295D01*
X61654372Y-66293102D01*
X61638546Y-66361156D01*
X61588440Y-66409850D01*
X61530574Y-66424180D01*
X59032565Y-66424180D01*
X58887577Y-66453020D01*
X58887567Y-66453023D01*
X58750996Y-66509592D01*
X58750983Y-66509599D01*
X58628069Y-66591728D01*
X58628065Y-66591731D01*
X55417045Y-69802751D01*
X55383516Y-69852935D01*
X55383514Y-69852938D01*
X55334919Y-69925664D01*
X55334914Y-69925672D01*
X55277584Y-70064082D01*
X55233743Y-70118485D01*
X55167449Y-70140550D01*
X55099750Y-70123271D01*
X55075342Y-70104310D01*
X53930395Y-68959363D01*
X52726906Y-67755873D01*
X52704257Y-67719800D01*
X52702413Y-67720689D01*
X52699393Y-67714419D01*
X52696520Y-67709846D01*
X52603417Y-67561674D01*
X52475863Y-67434120D01*
X52455716Y-67421461D01*
X52323124Y-67338147D01*
X52152855Y-67278567D01*
X52152850Y-67278566D01*
X51973605Y-67258371D01*
X51973597Y-67258371D01*
X51794351Y-67278566D01*
X51794338Y-67278569D01*
X51617506Y-67340447D01*
X51616968Y-67338910D01*
X51573673Y-67348792D01*
X51201392Y-67348792D01*
X51134353Y-67329107D01*
X51099817Y-67295915D01*
X51052185Y-67227889D01*
X50885093Y-67060798D01*
X50885087Y-67060793D01*
X50699533Y-66930867D01*
X50655908Y-66876290D01*
X50648714Y-66806792D01*
X50680237Y-66744437D01*
X50699533Y-66727717D01*
X50793032Y-66662248D01*
X50885092Y-66597787D01*
X51052186Y-66430693D01*
X51187726Y-66237122D01*
X51287594Y-66022955D01*
X51348754Y-65794700D01*
X51369350Y-65559292D01*
X51348754Y-65323884D01*
X51288909Y-65100536D01*
X51287596Y-65095636D01*
X51287595Y-65095635D01*
X51287594Y-65095629D01*
X51187726Y-64881463D01*
X51177330Y-64866615D01*
X51052185Y-64687889D01*
X50885093Y-64520798D01*
X50885087Y-64520793D01*
X50699533Y-64390867D01*
X50655908Y-64336290D01*
X50648714Y-64266792D01*
X50680237Y-64204437D01*
X50699533Y-64187717D01*
X50777004Y-64133471D01*
X50885092Y-64057787D01*
X51052186Y-63890693D01*
X51187726Y-63697122D01*
X51190398Y-63691389D01*
X51236569Y-63638950D01*
X51302782Y-63619792D01*
X54802519Y-63619792D01*
X54869558Y-63639477D01*
G37*
%TD.AperFunction*%
%TA.AperFunction,Conductor*%
G36*
X65611815Y-61004406D02*
G01*
X65667748Y-61046278D01*
X65692165Y-61111742D01*
X65692481Y-61120588D01*
X65692481Y-64495453D01*
X65692482Y-64495459D01*
X65698889Y-64555066D01*
X65749183Y-64689911D01*
X65749187Y-64689918D01*
X65835433Y-64805127D01*
X65835436Y-64805130D01*
X65950645Y-64891376D01*
X65950652Y-64891380D01*
X66085498Y-64941674D01*
X66085497Y-64941674D01*
X66092425Y-64942418D01*
X66145108Y-64948083D01*
X67892529Y-64948082D01*
X67959568Y-64967767D01*
X68005323Y-65020570D01*
X68015267Y-65089729D01*
X68009571Y-65113036D01*
X67990224Y-65168325D01*
X67990222Y-65168333D01*
X67970027Y-65347579D01*
X67970027Y-65347586D01*
X67990222Y-65526832D01*
X67990225Y-65526845D01*
X68018086Y-65606465D01*
X68021648Y-65676244D01*
X68004148Y-65716310D01*
X67933642Y-65821831D01*
X67933638Y-65821838D01*
X67877066Y-65958416D01*
X67877064Y-65958422D01*
X67848224Y-66103409D01*
X67848224Y-66103412D01*
X67848224Y-66251246D01*
X67848224Y-66251248D01*
X67848223Y-66251248D01*
X67877064Y-66396235D01*
X67877067Y-66396245D01*
X67905052Y-66463807D01*
X67912521Y-66533276D01*
X67881245Y-66595755D01*
X67837944Y-66625820D01*
X67750010Y-66662243D01*
X67750000Y-66662248D01*
X67627086Y-66744377D01*
X67627082Y-66744380D01*
X66695012Y-67676451D01*
X66633689Y-67709936D01*
X66563997Y-67704952D01*
X66508064Y-67663080D01*
X66483647Y-67597616D01*
X66483331Y-67588770D01*
X66483331Y-66852740D01*
X66470708Y-66789284D01*
X66454490Y-66707749D01*
X66412207Y-66605671D01*
X66408941Y-66597787D01*
X66397913Y-66571162D01*
X66397912Y-66571160D01*
X66364625Y-66521344D01*
X66364624Y-66521343D01*
X66315783Y-66448245D01*
X65809478Y-65941940D01*
X65786824Y-65905870D01*
X65784984Y-65906757D01*
X65781963Y-65900485D01*
X65781960Y-65900481D01*
X65781960Y-65900479D01*
X65685987Y-65747739D01*
X65558433Y-65620185D01*
X65536598Y-65606465D01*
X65405694Y-65524212D01*
X65235425Y-65464632D01*
X65235421Y-65464631D01*
X65148876Y-65454880D01*
X65084462Y-65427813D01*
X65044907Y-65370218D01*
X65038760Y-65331660D01*
X65038760Y-65278740D01*
X65021272Y-65168325D01*
X65005506Y-65068784D01*
X64939817Y-64866615D01*
X64843311Y-64677211D01*
X64843309Y-64677208D01*
X64843308Y-64677206D01*
X64718369Y-64505240D01*
X64568046Y-64354917D01*
X64396080Y-64229978D01*
X64206676Y-64133471D01*
X64110658Y-64102273D01*
X64052983Y-64062835D01*
X64025785Y-63998476D01*
X64037700Y-63929630D01*
X64084944Y-63878154D01*
X64110657Y-63866412D01*
X64292715Y-63807259D01*
X64489131Y-63707179D01*
X64667474Y-63577606D01*
X64823351Y-63421729D01*
X64952924Y-63243386D01*
X65053004Y-63046970D01*
X65121124Y-62837315D01*
X65155609Y-62619586D01*
X65155609Y-62399142D01*
X65121124Y-62181413D01*
X65087064Y-62076585D01*
X65053005Y-61971760D01*
X65053004Y-61971757D01*
X64952923Y-61775340D01*
X64942583Y-61761109D01*
X64924885Y-61736749D01*
X64901405Y-61670946D01*
X64917230Y-61602892D01*
X64937518Y-61576188D01*
X65480801Y-61032906D01*
X65542123Y-60999422D01*
X65611815Y-61004406D01*
G37*
%TD.AperFunction*%
%TA.AperFunction,Conductor*%
G36*
X61449709Y-54995212D02*
G01*
X61495464Y-55048016D01*
X61505408Y-55117174D01*
X61493155Y-55155820D01*
X61475555Y-55190361D01*
X61436704Y-55266612D01*
X61371013Y-55468787D01*
X61337760Y-55678740D01*
X61337760Y-55891313D01*
X61359824Y-56030623D01*
X61371014Y-56101270D01*
X61434612Y-56297005D01*
X61436704Y-56303441D01*
X61533211Y-56492847D01*
X61658150Y-56664813D01*
X61678739Y-56685402D01*
X61712224Y-56746725D01*
X61707240Y-56816417D01*
X61665368Y-56872350D01*
X61599904Y-56896767D01*
X61591058Y-56897083D01*
X60312307Y-56897083D01*
X60245268Y-56877398D01*
X60199513Y-56824594D01*
X60194376Y-56811400D01*
X60149006Y-56671763D01*
X60149004Y-56671757D01*
X60106730Y-56588792D01*
X60048924Y-56475342D01*
X60032369Y-56452556D01*
X59919356Y-56297005D01*
X59919352Y-56297000D01*
X59763472Y-56141120D01*
X59763467Y-56141116D01*
X59585134Y-56011551D01*
X59585133Y-56011550D01*
X59585131Y-56011549D01*
X59516911Y-55976789D01*
X59388715Y-55911468D01*
X59388712Y-55911467D01*
X59179061Y-55843349D01*
X59036344Y-55820745D01*
X58961331Y-55808864D01*
X58961330Y-55808864D01*
X57751206Y-55808864D01*
X57684167Y-55789179D01*
X57663525Y-55772545D01*
X57529335Y-55638355D01*
X57529333Y-55638352D01*
X57410462Y-55519481D01*
X57410454Y-55519475D01*
X57308681Y-55460717D01*
X57308679Y-55460716D01*
X57273535Y-55440425D01*
X57273534Y-55440424D01*
X57261008Y-55437067D01*
X57120802Y-55399499D01*
X56962688Y-55399499D01*
X56955092Y-55399499D01*
X56955076Y-55399500D01*
X56409189Y-55399500D01*
X56368268Y-55410464D01*
X56368268Y-55410465D01*
X56339502Y-55418173D01*
X56256463Y-55440423D01*
X56256458Y-55440426D01*
X56119539Y-55519475D01*
X56119531Y-55519481D01*
X56062157Y-55576856D01*
X56007729Y-55631284D01*
X56007727Y-55631286D01*
X53884054Y-57754960D01*
X51796541Y-59842473D01*
X51735218Y-59875958D01*
X51708860Y-59878792D01*
X51302782Y-59878792D01*
X51235743Y-59859107D01*
X51190402Y-59807201D01*
X51187728Y-59801467D01*
X51187723Y-59801459D01*
X51186012Y-59799016D01*
X51115338Y-59698082D01*
X51052187Y-59607892D01*
X50993301Y-59549006D01*
X50930258Y-59485963D01*
X50896775Y-59424643D01*
X50901759Y-59354951D01*
X50943630Y-59299017D01*
X50974606Y-59282102D01*
X51106022Y-59233088D01*
X51221237Y-59146838D01*
X51307487Y-59031623D01*
X51357782Y-58896775D01*
X51364191Y-58837165D01*
X51364190Y-57041420D01*
X51357782Y-56981809D01*
X51342217Y-56940078D01*
X51307488Y-56846963D01*
X51307484Y-56846956D01*
X51221238Y-56731747D01*
X51221235Y-56731744D01*
X51106026Y-56645498D01*
X51106019Y-56645494D01*
X50971173Y-56595200D01*
X50971174Y-56595200D01*
X50911574Y-56588793D01*
X50911572Y-56588792D01*
X50911564Y-56588792D01*
X50911555Y-56588792D01*
X49115820Y-56588792D01*
X49115814Y-56588793D01*
X49056207Y-56595200D01*
X48921362Y-56645494D01*
X48921355Y-56645498D01*
X48806146Y-56731744D01*
X48723766Y-56841789D01*
X48667832Y-56883659D01*
X48598140Y-56888643D01*
X48536818Y-56855157D01*
X48503333Y-56793834D01*
X48500500Y-56767477D01*
X48500500Y-55910576D01*
X48520185Y-55843537D01*
X48572989Y-55797782D01*
X48638383Y-55787356D01*
X48799996Y-55805565D01*
X48800000Y-55805565D01*
X48800004Y-55805565D01*
X48979249Y-55785369D01*
X48979252Y-55785368D01*
X48979255Y-55785368D01*
X49059017Y-55757457D01*
X49099972Y-55750500D01*
X49135588Y-55750500D01*
X49233130Y-55731096D01*
X49280581Y-55721658D01*
X49417163Y-55665084D01*
X49475056Y-55626400D01*
X49541734Y-55605523D01*
X49543947Y-55605503D01*
X50031666Y-55605503D01*
X50031672Y-55605503D01*
X50134461Y-55595003D01*
X50300998Y-55539818D01*
X50450320Y-55447716D01*
X50574376Y-55323660D01*
X50576125Y-55320823D01*
X50577833Y-55319287D01*
X50578857Y-55317993D01*
X50579078Y-55318167D01*
X50628070Y-55274100D01*
X50697032Y-55262876D01*
X50761115Y-55290717D01*
X50787201Y-55320821D01*
X50788952Y-55323660D01*
X50913008Y-55447716D01*
X51062330Y-55539818D01*
X51228867Y-55595003D01*
X51331655Y-55605504D01*
X52081672Y-55605503D01*
X52081680Y-55605502D01*
X52081683Y-55605502D01*
X52137966Y-55599752D01*
X52184461Y-55595003D01*
X52321016Y-55549752D01*
X52390843Y-55547351D01*
X52447700Y-55579778D01*
X52497738Y-55629816D01*
X52511323Y-55638352D01*
X52649618Y-55725249D01*
X52650478Y-55725789D01*
X52792035Y-55775322D01*
X52820745Y-55785368D01*
X52820750Y-55785369D01*
X52999996Y-55805565D01*
X53000000Y-55805565D01*
X53000004Y-55805565D01*
X53179249Y-55785369D01*
X53179252Y-55785368D01*
X53179255Y-55785368D01*
X53349522Y-55725789D01*
X53502262Y-55629816D01*
X53629816Y-55502262D01*
X53725789Y-55349522D01*
X53725792Y-55349510D01*
X53728810Y-55343248D01*
X53730650Y-55344134D01*
X53753305Y-55308061D01*
X54049521Y-55011846D01*
X54110844Y-54978361D01*
X54137202Y-54975527D01*
X61382670Y-54975527D01*
X61449709Y-54995212D01*
G37*
%TD.AperFunction*%
%TA.AperFunction,Conductor*%
G36*
X84621930Y-49337007D02*
G01*
X84587855Y-49464174D01*
X84587855Y-49595826D01*
X84621930Y-49722993D01*
X84654843Y-49780000D01*
X83913117Y-49780000D01*
X83898404Y-49788034D01*
X83872046Y-49790868D01*
X82974288Y-49790868D01*
X83007201Y-49733861D01*
X83041276Y-49606694D01*
X83041276Y-49475042D01*
X83007201Y-49347875D01*
X82974288Y-49290868D01*
X83716014Y-49290868D01*
X83730727Y-49282834D01*
X83757085Y-49280000D01*
X84654843Y-49280000D01*
X84621930Y-49337007D01*
G37*
%TD.AperFunction*%
%TA.AperFunction,Conductor*%
G36*
X87917444Y-45221422D02*
G01*
X88117567Y-45235737D01*
X88135072Y-45238254D01*
X88326796Y-45279963D01*
X88343770Y-45284946D01*
X88527620Y-45353520D01*
X88543695Y-45360861D01*
X88715913Y-45454901D01*
X88730792Y-45464463D01*
X88887865Y-45582047D01*
X88901236Y-45593633D01*
X89039975Y-45732374D01*
X89051561Y-45745745D01*
X89169147Y-45902824D01*
X89178711Y-45917707D01*
X89272737Y-46089904D01*
X89280087Y-46105998D01*
X89348657Y-46289842D01*
X89353641Y-46306817D01*
X89395346Y-46498535D01*
X89397864Y-46516047D01*
X89412198Y-46716469D01*
X89412514Y-46725315D01*
X89412514Y-46794351D01*
X89412520Y-46794458D01*
X89413500Y-56454682D01*
X89413500Y-56455539D01*
X89413184Y-56464391D01*
X89398860Y-56664533D01*
X89396341Y-56682044D01*
X89354628Y-56873762D01*
X89349643Y-56890736D01*
X89281066Y-57074581D01*
X89273717Y-57090672D01*
X89179681Y-57262881D01*
X89170116Y-57277764D01*
X89052533Y-57434833D01*
X89040948Y-57448203D01*
X88902203Y-57586948D01*
X88888833Y-57598533D01*
X88731764Y-57716116D01*
X88716881Y-57725681D01*
X88544672Y-57819717D01*
X88528581Y-57827066D01*
X88344736Y-57895643D01*
X88327762Y-57900628D01*
X88136045Y-57942341D01*
X88118533Y-57944860D01*
X87962018Y-57956060D01*
X87930977Y-57954374D01*
X87850137Y-57939670D01*
X87840253Y-57937452D01*
X87801260Y-57927010D01*
X87801253Y-57927009D01*
X87791737Y-57927011D01*
X87769533Y-57925009D01*
X87760180Y-57923307D01*
X87718977Y-57926687D01*
X87708858Y-57927102D01*
X87635956Y-57927112D01*
X87568914Y-57907437D01*
X87523152Y-57854639D01*
X87513199Y-57785482D01*
X87523557Y-57750707D01*
X87525307Y-57746952D01*
X87525311Y-57746948D01*
X87625179Y-57532781D01*
X87686339Y-57304526D01*
X87706935Y-57069118D01*
X87686339Y-56833710D01*
X87634081Y-56638678D01*
X87625181Y-56605462D01*
X87625180Y-56605461D01*
X87625179Y-56605455D01*
X87525311Y-56391289D01*
X87519701Y-56383276D01*
X87389770Y-56197715D01*
X87222678Y-56030624D01*
X87222671Y-56030619D01*
X87195436Y-56011549D01*
X87145794Y-55976789D01*
X87029110Y-55895085D01*
X87029106Y-55895083D01*
X86978749Y-55871601D01*
X86814939Y-55795215D01*
X86814935Y-55795214D01*
X86814931Y-55795212D01*
X86586689Y-55734056D01*
X86586679Y-55734054D01*
X86351277Y-55713459D01*
X86351274Y-55713459D01*
X86138262Y-55732095D01*
X86069762Y-55718328D01*
X86039774Y-55696248D01*
X82010579Y-51667052D01*
X82010578Y-51667051D01*
X82009005Y-51666000D01*
X81914644Y-51602951D01*
X81887653Y-51584916D01*
X81887651Y-51584915D01*
X81887648Y-51584913D01*
X81751075Y-51528343D01*
X81751065Y-51528340D01*
X81606078Y-51499500D01*
X81606076Y-51499500D01*
X76805070Y-51499500D01*
X76738031Y-51479815D01*
X76692276Y-51427011D01*
X76682332Y-51357853D01*
X76688028Y-51334545D01*
X76712777Y-51263815D01*
X76735368Y-51199255D01*
X76749217Y-51076344D01*
X76755565Y-51020003D01*
X76755565Y-51019996D01*
X76735369Y-50840750D01*
X76735368Y-50840745D01*
X76675789Y-50670478D01*
X76674811Y-50668922D01*
X76636582Y-50608080D01*
X76579816Y-50517738D01*
X76452262Y-50390184D01*
X76418906Y-50369225D01*
X76299523Y-50294211D01*
X76129254Y-50234631D01*
X76129249Y-50234630D01*
X75950004Y-50214435D01*
X75949996Y-50214435D01*
X75770750Y-50234630D01*
X75770745Y-50234631D01*
X75695764Y-50260868D01*
X75692901Y-50261871D01*
X75690983Y-50262542D01*
X75650028Y-50269500D01*
X73845419Y-50269500D01*
X73700431Y-50298340D01*
X73700421Y-50298343D01*
X73563850Y-50354912D01*
X73563843Y-50354916D01*
X73553064Y-50362119D01*
X73540522Y-50370499D01*
X73540521Y-50370499D01*
X73440924Y-50437046D01*
X73440917Y-50437052D01*
X72404236Y-51473733D01*
X72342913Y-51507218D01*
X72273221Y-51502234D01*
X72217288Y-51460362D01*
X72198849Y-51425056D01*
X72159358Y-51305880D01*
X72159356Y-51305875D01*
X72067315Y-51156654D01*
X71943345Y-51032684D01*
X71812162Y-50951770D01*
X71765438Y-50899822D01*
X71754215Y-50830859D01*
X71782059Y-50766777D01*
X71789558Y-50758571D01*
X72522952Y-50025177D01*
X72561122Y-49968051D01*
X72605084Y-49902257D01*
X72611384Y-49887046D01*
X72655225Y-49832644D01*
X72721519Y-49810579D01*
X72725945Y-49810500D01*
X76926082Y-49810500D01*
X77903057Y-49810500D01*
X77970096Y-49830185D01*
X78009234Y-49874425D01*
X78010507Y-49873626D01*
X78014210Y-49879519D01*
X78014211Y-49879522D01*
X78110184Y-50032262D01*
X78237738Y-50159816D01*
X78268675Y-50179255D01*
X78377284Y-50247499D01*
X78390478Y-50255789D01*
X78560745Y-50315368D01*
X78560750Y-50315369D01*
X78739996Y-50335565D01*
X78740000Y-50335565D01*
X78740004Y-50335565D01*
X78919249Y-50315369D01*
X78919252Y-50315368D01*
X78919255Y-50315368D01*
X79089522Y-50255789D01*
X79242262Y-50159816D01*
X79369816Y-50032262D01*
X79465789Y-49879522D01*
X79525368Y-49709255D01*
X79528055Y-49685406D01*
X79545565Y-49530003D01*
X79545565Y-49529996D01*
X79525369Y-49350750D01*
X79525368Y-49350745D01*
X79501605Y-49282834D01*
X79465789Y-49180478D01*
X79369816Y-49027738D01*
X79242262Y-48900184D01*
X79089522Y-48804211D01*
X79089519Y-48804210D01*
X79089516Y-48804208D01*
X79083242Y-48801186D01*
X79084123Y-48799356D01*
X79048060Y-48776692D01*
X78748421Y-48477052D01*
X78748414Y-48477046D01*
X78651934Y-48412581D01*
X78651933Y-48412581D01*
X78625495Y-48394916D01*
X78625488Y-48394912D01*
X78488917Y-48338343D01*
X78488907Y-48338340D01*
X78343920Y-48309500D01*
X78343918Y-48309500D01*
X77073918Y-48309500D01*
X72013918Y-48309500D01*
X71873050Y-48309500D01*
X71806011Y-48289815D01*
X71769242Y-48253322D01*
X71705227Y-48155341D01*
X71705225Y-48155339D01*
X71705224Y-48155337D01*
X71551396Y-47988235D01*
X71551391Y-47988231D01*
X71551389Y-47988229D01*
X71372169Y-47848736D01*
X71372163Y-47848732D01*
X71172411Y-47740631D01*
X71172406Y-47740629D01*
X70957593Y-47666884D01*
X70796485Y-47640000D01*
X70733563Y-47629500D01*
X70506437Y-47629500D01*
X70450430Y-47638846D01*
X70282406Y-47666884D01*
X70067593Y-47740629D01*
X70067588Y-47740631D01*
X69867836Y-47848732D01*
X69867830Y-47848736D01*
X69688610Y-47988229D01*
X69688607Y-47988232D01*
X69534772Y-48155341D01*
X69453509Y-48279723D01*
X69400363Y-48325080D01*
X69331131Y-48334503D01*
X69267796Y-48305001D01*
X69245892Y-48279722D01*
X69209512Y-48224039D01*
X68599704Y-48833847D01*
X68587859Y-48789638D01*
X68516109Y-48665362D01*
X68414638Y-48563891D01*
X68290362Y-48492141D01*
X68246151Y-48480294D01*
X68857420Y-47869025D01*
X68857420Y-47869023D01*
X68831891Y-47849154D01*
X68632210Y-47741091D01*
X68632201Y-47741088D01*
X68417471Y-47667370D01*
X68193520Y-47630000D01*
X67966480Y-47630000D01*
X67742528Y-47667370D01*
X67527798Y-47741088D01*
X67527789Y-47741091D01*
X67328108Y-47849154D01*
X67302578Y-47869023D01*
X67302578Y-47869024D01*
X67913848Y-48480294D01*
X67869638Y-48492141D01*
X67745362Y-48563891D01*
X67643891Y-48665362D01*
X67572141Y-48789638D01*
X67560294Y-48833848D01*
X66926818Y-48200372D01*
X66893333Y-48139049D01*
X66890499Y-48112691D01*
X66890499Y-48102129D01*
X66890498Y-48102123D01*
X66889789Y-48095531D01*
X66884091Y-48042517D01*
X66883002Y-48039598D01*
X66833797Y-47907671D01*
X66833793Y-47907664D01*
X66747547Y-47792455D01*
X66747544Y-47792452D01*
X66632335Y-47706206D01*
X66632328Y-47706202D01*
X66497482Y-47655908D01*
X66497483Y-47655908D01*
X66437883Y-47649501D01*
X66437881Y-47649500D01*
X66437873Y-47649500D01*
X66437865Y-47649500D01*
X66361472Y-47649500D01*
X66322469Y-47643206D01*
X66312797Y-47640001D01*
X66312795Y-47640000D01*
X66210010Y-47629500D01*
X64869998Y-47629500D01*
X64869981Y-47629501D01*
X64767208Y-47640000D01*
X64767197Y-47640002D01*
X64757523Y-47643208D01*
X64718528Y-47649500D01*
X64642130Y-47649500D01*
X64642123Y-47649501D01*
X64582516Y-47655908D01*
X64447671Y-47706202D01*
X64447664Y-47706206D01*
X64332455Y-47792452D01*
X64332452Y-47792455D01*
X64246206Y-47907664D01*
X64246203Y-47907669D01*
X64196997Y-48039598D01*
X64155125Y-48095531D01*
X64089661Y-48119948D01*
X64021388Y-48105096D01*
X63993134Y-48083946D01*
X63871078Y-47961891D01*
X63677578Y-47826399D01*
X63463492Y-47726570D01*
X63463486Y-47726567D01*
X63250000Y-47669364D01*
X63250000Y-48566988D01*
X63192993Y-48534075D01*
X63065826Y-48500000D01*
X62934174Y-48500000D01*
X62807007Y-48534075D01*
X62750000Y-48566988D01*
X62750000Y-47669364D01*
X62749999Y-47669364D01*
X62536513Y-47726567D01*
X62536507Y-47726570D01*
X62322422Y-47826399D01*
X62322420Y-47826400D01*
X62128926Y-47961886D01*
X62128920Y-47961891D01*
X61961891Y-48128920D01*
X61961890Y-48128922D01*
X61831575Y-48315031D01*
X61776998Y-48358655D01*
X61707499Y-48365848D01*
X61645145Y-48334326D01*
X61628425Y-48315031D01*
X61498109Y-48128922D01*
X61498108Y-48128920D01*
X61331082Y-47961894D01*
X61137578Y-47826399D01*
X60923492Y-47726570D01*
X60923486Y-47726567D01*
X60710000Y-47669364D01*
X60710000Y-48566988D01*
X60652993Y-48534075D01*
X60525826Y-48500000D01*
X60394174Y-48500000D01*
X60267007Y-48534075D01*
X60210000Y-48566988D01*
X60210000Y-47669364D01*
X60209999Y-47669364D01*
X59996513Y-47726567D01*
X59996507Y-47726570D01*
X59782422Y-47826399D01*
X59782420Y-47826400D01*
X59588926Y-47961886D01*
X59588920Y-47961891D01*
X59421891Y-48128920D01*
X59421890Y-48128922D01*
X59291575Y-48315031D01*
X59236998Y-48358655D01*
X59167499Y-48365848D01*
X59105145Y-48334326D01*
X59088425Y-48315031D01*
X58958109Y-48128922D01*
X58958108Y-48128920D01*
X58791082Y-47961894D01*
X58597578Y-47826399D01*
X58383492Y-47726570D01*
X58383486Y-47726567D01*
X58170000Y-47669364D01*
X58170000Y-48566988D01*
X58112993Y-48534075D01*
X57985826Y-48500000D01*
X57854174Y-48500000D01*
X57727007Y-48534075D01*
X57670000Y-48566988D01*
X57670000Y-47669363D01*
X57650020Y-47654032D01*
X57608818Y-47597604D01*
X57604663Y-47527858D01*
X57637825Y-47467977D01*
X57673541Y-47432262D01*
X57769514Y-47279522D01*
X57829093Y-47109255D01*
X57831098Y-47091460D01*
X57841305Y-47000867D01*
X81185617Y-47000867D01*
X81185617Y-47000868D01*
X81206212Y-47236271D01*
X81206214Y-47236281D01*
X81267370Y-47464523D01*
X81267372Y-47464527D01*
X81267373Y-47464531D01*
X81329426Y-47597604D01*
X81367241Y-47678698D01*
X81367243Y-47678702D01*
X81475557Y-47833389D01*
X81502777Y-47872264D01*
X81502782Y-47872270D01*
X81625094Y-47994582D01*
X81658579Y-48055905D01*
X81653595Y-48125597D01*
X81611723Y-48181530D01*
X81580747Y-48198445D01*
X81449188Y-48247514D01*
X81449182Y-48247517D01*
X81334088Y-48333677D01*
X81334085Y-48333680D01*
X81247925Y-48448774D01*
X81247921Y-48448781D01*
X81197679Y-48583488D01*
X81197677Y-48583495D01*
X81191276Y-48643023D01*
X81191276Y-49290868D01*
X82108264Y-49290868D01*
X82075351Y-49347875D01*
X82041276Y-49475042D01*
X82041276Y-49606694D01*
X82075351Y-49733861D01*
X82108264Y-49790868D01*
X81191276Y-49790868D01*
X81191276Y-50438712D01*
X81197677Y-50498240D01*
X81197679Y-50498247D01*
X81247921Y-50632954D01*
X81247925Y-50632961D01*
X81334085Y-50748055D01*
X81334088Y-50748058D01*
X81449182Y-50834218D01*
X81449189Y-50834222D01*
X81583896Y-50884464D01*
X81583903Y-50884466D01*
X81643431Y-50890867D01*
X81643448Y-50890868D01*
X82291276Y-50890868D01*
X82291276Y-49973880D01*
X82348283Y-50006793D01*
X82475450Y-50040868D01*
X82607102Y-50040868D01*
X82734269Y-50006793D01*
X82791276Y-49973880D01*
X82791276Y-50890868D01*
X83439104Y-50890868D01*
X83439120Y-50890867D01*
X83498648Y-50884466D01*
X83498655Y-50884464D01*
X83633362Y-50834222D01*
X83633369Y-50834218D01*
X83747513Y-50748770D01*
X83812977Y-50724352D01*
X83881250Y-50739203D01*
X83896135Y-50748769D01*
X83995766Y-50823353D01*
X83995768Y-50823354D01*
X84130475Y-50873596D01*
X84130482Y-50873598D01*
X84190010Y-50879999D01*
X84190027Y-50880000D01*
X84837855Y-50880000D01*
X84837855Y-49963012D01*
X84894862Y-49995925D01*
X85022029Y-50030000D01*
X85153681Y-50030000D01*
X85280848Y-49995925D01*
X85337855Y-49963012D01*
X85337855Y-50880000D01*
X85985683Y-50880000D01*
X85985699Y-50879999D01*
X86045227Y-50873598D01*
X86045234Y-50873596D01*
X86179941Y-50823354D01*
X86179948Y-50823350D01*
X86295042Y-50737190D01*
X86295045Y-50737187D01*
X86381205Y-50622093D01*
X86381209Y-50622086D01*
X86431451Y-50487379D01*
X86431453Y-50487372D01*
X86437854Y-50427844D01*
X86437855Y-50427827D01*
X86437855Y-49780000D01*
X85520867Y-49780000D01*
X85553780Y-49722993D01*
X85587855Y-49595826D01*
X85587855Y-49464174D01*
X85553780Y-49337007D01*
X85520867Y-49280000D01*
X86437855Y-49280000D01*
X86437855Y-48632172D01*
X86437854Y-48632155D01*
X86431453Y-48572627D01*
X86431451Y-48572620D01*
X86381209Y-48437913D01*
X86381205Y-48437906D01*
X86295045Y-48322812D01*
X86295042Y-48322809D01*
X86179948Y-48236649D01*
X86179943Y-48236646D01*
X86048383Y-48187577D01*
X85992450Y-48145705D01*
X85968033Y-48080241D01*
X85982885Y-48011968D01*
X86004030Y-47983720D01*
X86126350Y-47861401D01*
X86261890Y-47667830D01*
X86361758Y-47453663D01*
X86422918Y-47225408D01*
X86443514Y-46990000D01*
X86422918Y-46754592D01*
X86361758Y-46526337D01*
X86261890Y-46312171D01*
X86258142Y-46306817D01*
X86126349Y-46118597D01*
X85959257Y-45951506D01*
X85959250Y-45951501D01*
X85765689Y-45815967D01*
X85765685Y-45815965D01*
X85765683Y-45815964D01*
X85551518Y-45716097D01*
X85551514Y-45716096D01*
X85551510Y-45716094D01*
X85323268Y-45654938D01*
X85323258Y-45654936D01*
X85087856Y-45634341D01*
X85087854Y-45634341D01*
X84852451Y-45654936D01*
X84852441Y-45654938D01*
X84624199Y-45716094D01*
X84624190Y-45716098D01*
X84410026Y-45815964D01*
X84410024Y-45815965D01*
X84216452Y-45951505D01*
X84049363Y-46118594D01*
X83912335Y-46314291D01*
X83857758Y-46357915D01*
X83788259Y-46365108D01*
X83725905Y-46333586D01*
X83709185Y-46314290D01*
X83579770Y-46129465D01*
X83412678Y-45962374D01*
X83412671Y-45962369D01*
X83219110Y-45826835D01*
X83219106Y-45826833D01*
X83195804Y-45815967D01*
X83004939Y-45726965D01*
X83004935Y-45726964D01*
X83004931Y-45726962D01*
X82776689Y-45665806D01*
X82776679Y-45665804D01*
X82541277Y-45645209D01*
X82541275Y-45645209D01*
X82305872Y-45665804D01*
X82305862Y-45665806D01*
X82077620Y-45726962D01*
X82077611Y-45726966D01*
X81863447Y-45826832D01*
X81863445Y-45826833D01*
X81669873Y-45962373D01*
X81502781Y-46129465D01*
X81367241Y-46323037D01*
X81367240Y-46323039D01*
X81267374Y-46537203D01*
X81267370Y-46537212D01*
X81206214Y-46765454D01*
X81206212Y-46765464D01*
X81185617Y-47000867D01*
X57841305Y-47000867D01*
X57849290Y-46930003D01*
X57849290Y-46929996D01*
X57829094Y-46750750D01*
X57829093Y-46750745D01*
X57769513Y-46580476D01*
X57673540Y-46427737D01*
X57545987Y-46300184D01*
X57393248Y-46204211D01*
X57222979Y-46144631D01*
X57222974Y-46144630D01*
X57043729Y-46124435D01*
X57043721Y-46124435D01*
X56864475Y-46144630D01*
X56864470Y-46144631D01*
X56784708Y-46172542D01*
X56743753Y-46179500D01*
X53675642Y-46179500D01*
X53530654Y-46208340D01*
X53530644Y-46208343D01*
X53394073Y-46264912D01*
X53394060Y-46264919D01*
X53271146Y-46347048D01*
X53271142Y-46347051D01*
X52258484Y-47359709D01*
X52197161Y-47393194D01*
X52170803Y-47396028D01*
X51520532Y-47396028D01*
X51520514Y-47396029D01*
X51417737Y-47406528D01*
X51417734Y-47406529D01*
X51251202Y-47461713D01*
X51251197Y-47461715D01*
X51101876Y-47553817D01*
X50977823Y-47677870D01*
X50885721Y-47827191D01*
X50885719Y-47827196D01*
X50857883Y-47911198D01*
X50830535Y-47993731D01*
X50830535Y-47993732D01*
X50830534Y-47993732D01*
X50820034Y-48096511D01*
X50820034Y-48746797D01*
X50800349Y-48813836D01*
X50783714Y-48834479D01*
X50724680Y-48893512D01*
X50663357Y-48926996D01*
X50593665Y-48922011D01*
X50537732Y-48880140D01*
X50513316Y-48814675D01*
X50519293Y-48766831D01*
X50532598Y-48726680D01*
X50543099Y-48623892D01*
X50543098Y-47873875D01*
X50542933Y-47872264D01*
X50532598Y-47771086D01*
X50532597Y-47771083D01*
X50526601Y-47752989D01*
X50477413Y-47604549D01*
X50385311Y-47455227D01*
X50261255Y-47331171D01*
X50111933Y-47239069D01*
X49945396Y-47183884D01*
X49945394Y-47183883D01*
X49842609Y-47173383D01*
X48842597Y-47173383D01*
X48842579Y-47173384D01*
X48739802Y-47183883D01*
X48739796Y-47183885D01*
X48663503Y-47209166D01*
X48593675Y-47211568D01*
X48533633Y-47175836D01*
X48502441Y-47113315D01*
X48500500Y-47091460D01*
X48500500Y-46734427D01*
X48500816Y-46725581D01*
X48511318Y-46578748D01*
X48515130Y-46525436D01*
X48517646Y-46507938D01*
X48559356Y-46316199D01*
X48564333Y-46299248D01*
X48632911Y-46115385D01*
X48640259Y-46099298D01*
X48707942Y-45975345D01*
X48734291Y-45927089D01*
X48743845Y-45912221D01*
X48861448Y-45755123D01*
X48873020Y-45741769D01*
X49011769Y-45603020D01*
X49025123Y-45591448D01*
X49182221Y-45473845D01*
X49197089Y-45464291D01*
X49369298Y-45370258D01*
X49385385Y-45362911D01*
X49569248Y-45294333D01*
X49586199Y-45289356D01*
X49777938Y-45247646D01*
X49795436Y-45245130D01*
X49995582Y-45230816D01*
X50004428Y-45230500D01*
X50074028Y-45230500D01*
X50074297Y-45230480D01*
X87908571Y-45221107D01*
X87917444Y-45221422D01*
G37*
%TD.AperFunction*%
%TA.AperFunction,Conductor*%
G36*
X66331327Y-52741092D02*
G01*
X66355865Y-52769474D01*
X66365851Y-52785367D01*
X66370184Y-52792262D01*
X66497738Y-52919816D01*
X66561692Y-52960001D01*
X66635928Y-53006647D01*
X66650478Y-53015789D01*
X66820745Y-53075368D01*
X66820750Y-53075369D01*
X66999996Y-53095565D01*
X67000000Y-53095565D01*
X67000003Y-53095565D01*
X67111616Y-53082989D01*
X67180438Y-53095043D01*
X67231818Y-53142392D01*
X67249500Y-53206209D01*
X67249500Y-54475959D01*
X67229815Y-54542998D01*
X67177011Y-54588753D01*
X67112898Y-54599317D01*
X67032100Y-54591062D01*
X66757112Y-54591062D01*
X66757112Y-55804562D01*
X66737427Y-55871601D01*
X66684623Y-55917356D01*
X66633112Y-55928562D01*
X66381112Y-55928562D01*
X66314073Y-55908877D01*
X66268318Y-55856073D01*
X66257112Y-55804562D01*
X66257112Y-54591062D01*
X65982141Y-54591062D01*
X65982124Y-54591063D01*
X65879413Y-54601556D01*
X65879094Y-54601662D01*
X65878884Y-54601669D01*
X65872793Y-54602973D01*
X65872560Y-54601886D01*
X65809265Y-54604063D01*
X65752410Y-54571637D01*
X64822854Y-53642079D01*
X64822847Y-53642073D01*
X64754520Y-53596419D01*
X64709714Y-53542807D01*
X64701007Y-53473482D01*
X64731161Y-53410455D01*
X64735695Y-53405670D01*
X65228498Y-52912867D01*
X65289819Y-52879384D01*
X65326983Y-52877022D01*
X65469861Y-52889522D01*
X65539999Y-52895659D01*
X65540000Y-52895659D01*
X65540001Y-52895659D01*
X65579234Y-52892226D01*
X65775408Y-52875063D01*
X66003663Y-52813903D01*
X66198467Y-52723063D01*
X66267543Y-52712572D01*
X66331327Y-52741092D01*
G37*
%TD.AperFunction*%
%TA.AperFunction,Conductor*%
G36*
X54583677Y-47700185D02*
G01*
X54629432Y-47752989D01*
X54639376Y-47822147D01*
X54610351Y-47885703D01*
X54587761Y-47906075D01*
X54508597Y-47961505D01*
X54341505Y-48128597D01*
X54205965Y-48322169D01*
X54205964Y-48322171D01*
X54106098Y-48536335D01*
X54106094Y-48536344D01*
X54044938Y-48764586D01*
X54044936Y-48764596D01*
X54024341Y-48999999D01*
X54024341Y-49000000D01*
X54044936Y-49235403D01*
X54044938Y-49235413D01*
X54106094Y-49463655D01*
X54106096Y-49463659D01*
X54106097Y-49463663D01*
X54188951Y-49641344D01*
X54205965Y-49677830D01*
X54205967Y-49677834D01*
X54292534Y-49801463D01*
X54341501Y-49871396D01*
X54341506Y-49871402D01*
X54508595Y-50038492D01*
X54508598Y-50038494D01*
X54508599Y-50038495D01*
X54576623Y-50086125D01*
X54620248Y-50140701D01*
X54629500Y-50187700D01*
X54629500Y-50352298D01*
X54609815Y-50419337D01*
X54576625Y-50453872D01*
X54508595Y-50501507D01*
X54341505Y-50668597D01*
X54205965Y-50862169D01*
X54205964Y-50862171D01*
X54106098Y-51076335D01*
X54106094Y-51076344D01*
X54044938Y-51304586D01*
X54044936Y-51304596D01*
X54024341Y-51539999D01*
X54024341Y-51540000D01*
X54044936Y-51775403D01*
X54044938Y-51775413D01*
X54106094Y-52003655D01*
X54106096Y-52003659D01*
X54106097Y-52003663D01*
X54187974Y-52179249D01*
X54205965Y-52217830D01*
X54205967Y-52217834D01*
X54314281Y-52372521D01*
X54341501Y-52411396D01*
X54341506Y-52411402D01*
X54492950Y-52562846D01*
X54526435Y-52624169D01*
X54521451Y-52693861D01*
X54479579Y-52749794D01*
X54414115Y-52774211D01*
X54405269Y-52774527D01*
X53102558Y-52774527D01*
X53035519Y-52754842D01*
X52989764Y-52702038D01*
X52979820Y-52632880D01*
X53008845Y-52569324D01*
X53012064Y-52565865D01*
X53012849Y-52564874D01*
X53104890Y-52415652D01*
X53104892Y-52415647D01*
X53160039Y-52249225D01*
X53160040Y-52249218D01*
X53170533Y-52146514D01*
X53170534Y-52146501D01*
X53170534Y-51809028D01*
X52245534Y-51809028D01*
X52245534Y-52784049D01*
X52225849Y-52851088D01*
X52190425Y-52887151D01*
X52108225Y-52942075D01*
X52108221Y-52942078D01*
X51882114Y-53168185D01*
X51820791Y-53201670D01*
X51794433Y-53204504D01*
X51367099Y-53204504D01*
X51300060Y-53184819D01*
X51254305Y-53132015D01*
X51243099Y-53080504D01*
X51243099Y-52949851D01*
X51262784Y-52882812D01*
X51315588Y-52837057D01*
X51384746Y-52827113D01*
X51406103Y-52832145D01*
X51417836Y-52836033D01*
X51417843Y-52836034D01*
X51520553Y-52846527D01*
X51745533Y-52846527D01*
X51745534Y-52846526D01*
X51745534Y-50271528D01*
X51735877Y-50261871D01*
X51701723Y-50251843D01*
X51655968Y-50199039D01*
X51646024Y-50129881D01*
X51675049Y-50066325D01*
X51681066Y-50059862D01*
X51732584Y-50008344D01*
X51793907Y-49974861D01*
X51820264Y-49972027D01*
X51859298Y-49972027D01*
X51926337Y-49991712D01*
X51946979Y-50008346D01*
X52209215Y-50270582D01*
X52242700Y-50331905D01*
X52245534Y-50358263D01*
X52245534Y-51309028D01*
X53170533Y-51309028D01*
X53170533Y-50971556D01*
X53170532Y-50971543D01*
X53162413Y-50892071D01*
X53175182Y-50823378D01*
X53223062Y-50772493D01*
X53244813Y-50762428D01*
X53316940Y-50737190D01*
X53349520Y-50725790D01*
X53351809Y-50724352D01*
X53502262Y-50629816D01*
X53629816Y-50502262D01*
X53725789Y-50349522D01*
X53785368Y-50179255D01*
X53785369Y-50179249D01*
X53805565Y-50000003D01*
X53805565Y-49999996D01*
X53785369Y-49820750D01*
X53785368Y-49820745D01*
X53746356Y-49709255D01*
X53725789Y-49650478D01*
X53720324Y-49641781D01*
X53650089Y-49530003D01*
X53629816Y-49497738D01*
X53502262Y-49370184D01*
X53349522Y-49274211D01*
X53349518Y-49274209D01*
X53343244Y-49271188D01*
X53344125Y-49269358D01*
X53308059Y-49246692D01*
X53207352Y-49145985D01*
X53173867Y-49084662D01*
X53171033Y-49058304D01*
X53171033Y-48621258D01*
X53190718Y-48554219D01*
X53207352Y-48533577D01*
X54024110Y-47716819D01*
X54085433Y-47683334D01*
X54111791Y-47680500D01*
X54516638Y-47680500D01*
X54583677Y-47700185D01*
G37*
%TD.AperFunction*%
%TA.AperFunction,Conductor*%
G36*
X56735160Y-52206110D02*
G01*
X56751879Y-52225405D01*
X56881890Y-52411078D01*
X57033658Y-52562846D01*
X57067143Y-52624169D01*
X57062159Y-52693861D01*
X57020287Y-52749794D01*
X56954823Y-52774211D01*
X56945977Y-52774527D01*
X56354731Y-52774527D01*
X56287692Y-52754842D01*
X56241937Y-52702038D01*
X56231993Y-52632880D01*
X56261018Y-52569324D01*
X56267050Y-52562846D01*
X56327634Y-52502262D01*
X56418495Y-52411401D01*
X56548730Y-52225405D01*
X56603307Y-52181781D01*
X56672805Y-52174587D01*
X56735160Y-52206110D01*
G37*
%TD.AperFunction*%
%TA.AperFunction,Conductor*%
G36*
X59994075Y-51347007D02*
G01*
X59960000Y-51474174D01*
X59960000Y-51605826D01*
X59994075Y-51732993D01*
X60026988Y-51790000D01*
X58353012Y-51790000D01*
X58385925Y-51732993D01*
X58420000Y-51605826D01*
X58420000Y-51474174D01*
X58385925Y-51347007D01*
X58353012Y-51290000D01*
X60026988Y-51290000D01*
X59994075Y-51347007D01*
G37*
%TD.AperFunction*%
%TA.AperFunction,Conductor*%
G36*
X62534075Y-51347007D02*
G01*
X62500000Y-51474174D01*
X62500000Y-51605826D01*
X62534075Y-51732993D01*
X62566988Y-51790000D01*
X60893012Y-51790000D01*
X60925925Y-51732993D01*
X60960000Y-51605826D01*
X60960000Y-51474174D01*
X60925925Y-51347007D01*
X60893012Y-51290000D01*
X62566988Y-51290000D01*
X62534075Y-51347007D01*
G37*
%TD.AperFunction*%
%TA.AperFunction,Conductor*%
G36*
X67572141Y-49210362D02*
G01*
X67643891Y-49334638D01*
X67745362Y-49436109D01*
X67869638Y-49507859D01*
X67913847Y-49519705D01*
X67302577Y-50130974D01*
X67328112Y-50150848D01*
X67527789Y-50258908D01*
X67527798Y-50258911D01*
X67742528Y-50332629D01*
X67919251Y-50362119D01*
X67982136Y-50392570D01*
X68018575Y-50452184D01*
X68017000Y-50522036D01*
X67986522Y-50572109D01*
X67108907Y-51449723D01*
X67047584Y-51483208D01*
X67007343Y-51485262D01*
X66993080Y-51483655D01*
X66993358Y-51481186D01*
X66937383Y-51464750D01*
X66891628Y-51411946D01*
X66880894Y-51371242D01*
X66878038Y-51338598D01*
X66875063Y-51304592D01*
X66813903Y-51076337D01*
X66714035Y-50862171D01*
X66708730Y-50854595D01*
X66578496Y-50668600D01*
X66531982Y-50622086D01*
X66456567Y-50546671D01*
X66423084Y-50485351D01*
X66428068Y-50415659D01*
X66469939Y-50359725D01*
X66500915Y-50342810D01*
X66632331Y-50293796D01*
X66747546Y-50207546D01*
X66833796Y-50092331D01*
X66884091Y-49957483D01*
X66887108Y-49929425D01*
X66890499Y-49897886D01*
X66890499Y-49897882D01*
X66890500Y-49897873D01*
X66890499Y-49887312D01*
X66910179Y-49820275D01*
X66926818Y-49799626D01*
X67560294Y-49166150D01*
X67572141Y-49210362D01*
G37*
%TD.AperFunction*%
%TA.AperFunction,Conductor*%
G36*
X58170000Y-51106988D02*
G01*
X58112993Y-51074075D01*
X57985826Y-51040000D01*
X57854174Y-51040000D01*
X57727007Y-51074075D01*
X57670000Y-51106988D01*
X57670000Y-49433012D01*
X57727007Y-49465925D01*
X57854174Y-49500000D01*
X57985826Y-49500000D01*
X58112993Y-49465925D01*
X58170000Y-49433012D01*
X58170000Y-51106988D01*
G37*
%TD.AperFunction*%
%TA.AperFunction,Conductor*%
G36*
X60710000Y-51106988D02*
G01*
X60652993Y-51074075D01*
X60525826Y-51040000D01*
X60394174Y-51040000D01*
X60267007Y-51074075D01*
X60210000Y-51106988D01*
X60210000Y-49433012D01*
X60267007Y-49465925D01*
X60394174Y-49500000D01*
X60525826Y-49500000D01*
X60652993Y-49465925D01*
X60710000Y-49433012D01*
X60710000Y-51106988D01*
G37*
%TD.AperFunction*%
%TA.AperFunction,Conductor*%
G36*
X63250000Y-51106988D02*
G01*
X63192993Y-51074075D01*
X63065826Y-51040000D01*
X62934174Y-51040000D01*
X62807007Y-51074075D01*
X62750000Y-51106988D01*
X62750000Y-49433012D01*
X62807007Y-49465925D01*
X62934174Y-49500000D01*
X63065826Y-49500000D01*
X63192993Y-49465925D01*
X63250000Y-49433012D01*
X63250000Y-51106988D01*
G37*
%TD.AperFunction*%
%TA.AperFunction,Conductor*%
G36*
X59994075Y-48807007D02*
G01*
X59960000Y-48934174D01*
X59960000Y-49065826D01*
X59994075Y-49192993D01*
X60026988Y-49250000D01*
X58353012Y-49250000D01*
X58385925Y-49192993D01*
X58420000Y-49065826D01*
X58420000Y-48934174D01*
X58385925Y-48807007D01*
X58353012Y-48750000D01*
X60026988Y-48750000D01*
X59994075Y-48807007D01*
G37*
%TD.AperFunction*%
%TA.AperFunction,Conductor*%
G36*
X62534075Y-48807007D02*
G01*
X62500000Y-48934174D01*
X62500000Y-49065826D01*
X62534075Y-49192993D01*
X62566988Y-49250000D01*
X60893012Y-49250000D01*
X60925925Y-49192993D01*
X60960000Y-49065826D01*
X60960000Y-48934174D01*
X60925925Y-48807007D01*
X60893012Y-48750000D01*
X62566988Y-48750000D01*
X62534075Y-48807007D01*
G37*
%TD.AperFunction*%
%TD*%
M02*
